<?xml version="1.0" ?><svg style="enable-background:new 0 0 512 512;" version="1.1" viewBox="0 0 512 512" xml:space="preserve" xmlns="http://www.w3.org/2000/svg" xmlns:xlink="http://www.w3.org/1999/xlink"><style type="text/css">
	.st0{display:none;}
	.st1{fill:#FD7904;}
	.st2{fill:#271300;}
	.st3{fill:#FD7B02;}
</style><g class="st0" id="Layer_1"/><g id="Layer_5"><rect class="st1" height="384" width="384" x="64" y="64"/><rect class="st2" height="337.9" width="337.9" x="87" y="87"/><path class="st3" d="M342.7,333.9h-21.9c-2.4,0-4.3-1.9-4.3-4.3V204.2c0-2.4,1.9-4.3,4.3-4.3h21.9c2.4,0,4.3,1.9,4.3,4.3v125.4   C347,331.9,345.1,333.9,342.7,333.9z"/><circle class="st3" cx="331.8" cy="166.3" r="17.8"/><path class="st3" d="M166,333.9h11.4c3.7,0,6.9-2.5,7.9-6l10.4-37.8c1-3.5,4.2-6,7.9-6h36.8c3.5,0,6.7,2.3,7.8,5.6l12.6,38.6   c1.1,3.4,4.2,5.6,7.8,5.6h15.8c5.5,0,9.4-5.3,7.8-10.5l-49.4-164.5c-1-3.5-4.2-5.8-7.8-5.8h-24c-3.7,0-6.9,2.5-7.9,6l-44.9,164.5   C156.7,328.7,160.6,333.9,166,333.9z"/><polygon class="st2" points="222.3,187 204.7,256.3 241.7,256.3  "/></g></svg>