<?xml version="1.0" ?><svg height="60px" version="1.1" viewBox="0 0 60 60" width="60px" xmlns="http://www.w3.org/2000/svg" xmlns:xlink="http://www.w3.org/1999/xlink"><title/><desc/><defs/><g fill="none" fill-rule="evenodd" id="Page-1" stroke="none" stroke-width="1"><g id="Social_icons" transform="translate(-422.000000, -754.000000)"><g id="Marvel" transform="translate(422.000000, 754.000000)"><circle cx="30" cy="30" fill="#1FB6FF" id="Oval" r="30"/><path d="M27.2724682,23.8423584 C29.3343183,23.864614 25.7043908,34.5076988 26.0940525,39.1346022 C26.4871092,43.8026219 31.681342,42.4586094 31.3516572,39.771339 C30.7907404,35.2029037 33.8510753,20.8876434 36.9547897,20.8876434 C39.1324444,20.8876434 34.5428852,30.7563085 35.4459348,37.0757698 C36.0434414,41.2568065 41.4666429,39.8064198 40.9155336,37.3273713 C39.0924598,29.1229731 44.7408579,21.2380749 44.1078933,15.6515399 C43.8310184,13.207195 42.3527179,12.0118048 40.8740401,12.0001112 C35.696782,11.9605037 31.6975622,22.5183383 31.6975622,22.5183383 C31.6975622,22.5183383 32.1140061,16.5176226 28.0902675,16.2973298 C21.9296132,15.9597235 15.8308219,31.2915747 16.0035858,44.9814147 C16.058659,49.3487951 21.5248628,48.6049296 21.237426,45.1228699 C20.7029142,38.6472421 24.3335961,23.8110497 27.2724682,23.8423584 L27.2724682,23.8423584 Z" fill="#FFFFFF" id="m"/></g></g></g></svg>