<?xml version="1.0" ?><svg enable-background="new 0 0 223.9695 204" id="sketch" version="1.1" viewBox="0 0 223.9695 204" xml:space="preserve" xmlns="http://www.w3.org/2000/svg" xmlns:xlink="http://www.w3.org/1999/xlink"><g><path d="M212.7659,60.7772l-25.5724-35.8008l-32.33,17.4768l15.3653,52.9296l42.3183-34.4844   C212.6135,60.8436,212.6975,60.8244,212.7659,60.7772z" fill="#FCC24C"/><polygon fill="#FCC24C" points="63.1079,100 163.2387,100 146.9808,44 77.1079,44  "/><path d="M11.2035,60.7772c0.0684,0.0472,0.1504,0.0664,0.2168,0.1212L55.6311,96.922l13.6017-54.4024   L36.7759,24.9764L11.2035,60.7772z" fill="#FCC24C"/><path d="M223.8519,64.8672c0.0236-0.1016,0.0604-0.1952,0.076-0.2968c0.0649-0.4492,0.0548-0.9024-0.0368-1.3516   c-0.0216-0.1056-0.0684-0.2032-0.098-0.3088c-0.0624-0.2184-0.1052-0.4372-0.2068-0.6484c-0.0664-0.1368-0.17-0.246-0.252-0.3748   c-0.0412-0.0664-0.0468-0.1448-0.0935-0.2112l-30-42c-0.4221-0.5896-0.9981-0.9724-1.6153-1.2536   c-0.3967-0.914-1.1036-1.6836-2.0527-2.094l-37-16C152.0707,0.1132,151.5315,0,150.9848,0h-78c-0.5469,0-1.0861,0.1132-1.588,0.328   l-37,16c-0.9493,0.4104-1.656,1.176-2.0529,2.094c-0.6172,0.2812-1.1932,0.664-1.6151,1.2536l-30,42   c-0.0469,0.0664-0.0525,0.1448-0.0937,0.2112c-0.082,0.1288-0.1856,0.238-0.252,0.3748c-0.1016,0.2112-0.1444,0.43-0.2068,0.6484   c-0.0315,0.1056-0.0764,0.2032-0.098,0.3088c-0.0916,0.4492-0.1015,0.9024-0.0368,1.3516c0.0156,0.1016,0.0524,0.1952,0.076,0.2968   c0.078,0.3516,0.2033,0.6876,0.3768,1.0116C0.5591,66,0.6215,66.1132,0.6975,66.2264c0.0568,0.082,0.09,0.18,0.1544,0.262l108,136   c0.7596,0.9532,1.912,1.5116,3.1329,1.5116c1.2207,0,2.3731-0.5584,3.1327-1.5116l108-136c0.0644-0.082,0.0976-0.18,0.1544-0.262   c0.076-0.1132,0.1384-0.2264,0.2032-0.3476C223.6488,65.5548,223.7739,65.2188,223.8519,64.8672z M126.1215,175.7656L165.6507,108   h0.3341c0.92,0,1.8123-0.3164,2.5271-0.8984l34.3929-28.0236L126.1215,175.7656z M146.9808,44l16.2579,56H63.1079l14-56H146.9808z    M55.6311,96.922L11.4203,60.8984c-0.0664-0.0548-0.1484-0.074-0.2168-0.1212l25.5724-35.8008l32.4569,17.5432L55.6311,96.922z    M170.2288,95.3828l-15.3653-52.9296l32.33-17.4768l25.5724,35.8008c-0.0684,0.0472-0.1524,0.0664-0.2188,0.1212L170.2288,95.3828z    M73.8128,8h76.344l28.6755,12.3984L149.9731,36H73.9963L45.1371,20.3984L73.8128,8z M55.4575,107.1016   c0.0233,0.0196,0.0524,0.0232,0.076,0.0428c0.1036,0.082,0.2344,0.1252,0.3476,0.1956c0.3124,0.1952,0.6308,0.3632,0.9804,0.4684   c0.0568,0.016,0.096,0.0548,0.1524,0.0704c0.3224,0.082,0.6429,0.1172,0.9612,0.1212c0.0036,0,0.0057,0,0.0097,0h0.3339   l39.5272,67.7616L21.0667,79.078L55.4575,107.1016z" fill="#F8A131"/><path d="M58.3187,108h-0.3339c-0.004,0-0.0061,0-0.0097,0c-0.3183-0.004-0.6388-0.0392-0.9612-0.1212   c-0.0564-0.0156-0.0956-0.0544-0.1524-0.0704c-0.3496-0.1052-0.668-0.2732-0.9804-0.4684   c-0.1132-0.0704-0.244-0.1136-0.3476-0.1956c-0.0236-0.0196-0.0527-0.0232-0.076-0.0428L21.0667,79.078l76.7792,96.6836   L58.3187,108z" fill="#FCC24C"/><path d="M165.9848,108h-0.3341l-39.5292,67.7656l76.7833-96.6876l-34.3929,28.0236   C167.7971,107.6836,166.9048,108,165.9848,108z" fill="#FCC24C"/><polygon fill="#FCC24C" points="73.9963,36 149.9731,36 178.8323,20.3984 150.1568,8 73.8128,8 45.1371,20.3984  "/></g></svg>