<svg xmlns="http://www.w3.org/2000/svg" xmlns:xlink="http://www.w3.org/1999/xlink" id="Layer_1" width="512" height="512" x="0" y="0" enable-background="new 0 0 496 496" version="1.1" viewBox="0 0 496 496" xml:space="preserve"><g><g><g><g><path fill="#227B18" d="M92.688,0L48,44.688V80H0v112h48v128H0v64h48v112h448V0H92.688z M16,176V96h96v80H16z M16,368v-32h96v32H16z M480,480H64 v-96h64v-24h16v-16h-16v-24H64V192h64v-16h16v-16h-16v-48h16V96h-16V80H64V51.312L99.312,16H480V480z" class="active-path" data-old_color="#000000" data-original="#000000"/><path fill="#227B18" d="M304,448h112v-16h16v-16h-16v-16h16v-16h-16v-16h16v-16h-16v-16h16v-16h-16v-16h16v-16h-16v-16h16v-16h-16v-16h16v-16 h-16v-16h16v-16h-16v-16h16v-16h-16v-16h16v-16h-16v-16h16V96h-16V80h16V64h-16V48H304v16h-16v16h16v16h-16v16h16v16h-16v16h16 v16h-16v16h16v16h-16v16h16v16h-16v16h16v16h-16v16h16v16h-16v16h16v16h-16v16h16v16h-16v16h16v16h-16v16h16v16h-16v16h16V448z M320,64h80v368h-80V64z" class="active-path" data-old_color="#000000" data-original="#000000"/><circle cx="360" cy="88" r="8" fill="#227B18" class="active-path" data-old_color="#000000" data-original="#000000"/><path fill="#227B18" d="M256,64h-64v48h64V64z M240,96h-32V80h32V96z" class="active-path" data-old_color="#000000" data-original="#000000"/><path fill="#227B18" d="M256,144h-64v48h64V144z M240,176h-32v-16h32V176z" class="active-path" data-old_color="#000000" data-original="#000000"/><path fill="#227B18" d="M144,216v16h-16v-16h-16v16H96v48h16v16h16v-16h16v16h16v-16h16v16h16v-16h16v-48h-16v-16h-16v16h-16v-16H144z M192,248 v16h-80v-16H192z" class="active-path" data-old_color="#000000" data-original="#000000"/><path fill="#227B18" d="M112,400c-17.648,0-32,14.352-32,32s14.352,32,32,32s32-14.352,32-32S129.648,400,112,400z M112,448 c-8.824,0-16-7.176-16-16c0-8.824,7.176-16,16-16c8.816,0,16,7.176,16,16C128,440.824,120.816,448,112,448z" class="active-path" data-old_color="#000000" data-original="#000000"/><path fill="#227B18" d="M192,400c-17.648,0-32,14.352-32,32s14.352,32,32,32s32-14.352,32-32S209.648,400,192,400z M192,448 c-8.824,0-16-7.176-16-16c0-8.824,7.176-16,16-16c8.816,0,16,7.176,16,16C208,440.824,200.816,448,192,448z" class="active-path" data-old_color="#000000" data-original="#000000"/><rect width="16" height="32" x="176" y="336" fill="#227B18" class="active-path" data-old_color="#000000" data-original="#000000"/><rect width="16" height="32" x="208" y="336" fill="#227B18" class="active-path" data-old_color="#000000" data-original="#000000"/><rect width="16" height="32" x="240" y="336" fill="#227B18" class="active-path" data-old_color="#000000" data-original="#000000"/><circle cx="96" cy="48" r="8" fill="#227B18" class="active-path" data-old_color="#000000" data-original="#000000"/></g></g></g></g></svg>