<?xml version="1.0" encoding="utf-8"?>
<!-- Generator: Adobe Illustrator 22.0.1, SVG Export Plug-In . SVG Version: 6.00 Build 0)  -->
<svg version="1.1" id="Layer_1" xmlns="http://www.w3.org/2000/svg" xmlns:xlink="http://www.w3.org/1999/xlink" x="0px" y="0px"
	 viewBox="0 0 1366 768" style="enable-background:new 0 0 1366 768;" xml:space="preserve">
<style type="text/css">
	.st0{fill:#6A8733;}
	.st1{display:none;fill:#5F7A2C;}
	.st2{fill:#FFFFFF;}
	.st3{font-family:'Raleway';}
	.st4{font-size:190px;}
	.st5{fill:#465A22;}
	.st6{fill:#F9A818;}
	.st7{fill:#FAE2B9;}
	.st8{fill:#DE9414;}
	.st9{fill:#8C5D0D;}
	.st10{fill:none;stroke:#FFFFFF;stroke-width:6.2399;stroke-miterlimit:22.9256;}
	.st11{fill:none;stroke:#FFFFFF;stroke-width:7.2;stroke-miterlimit:22.9256;}
	.st12{fill:#AB720F;}
	.st13{display:none;fill:#FFFFFF;enable-background:new    ;}
	.st14{font-family:'ArialMT';}
	.st15{font-size:33.3824px;}
	
		.st16{display:none;fill:none;stroke:#F7A6C5;stroke-width:0.5669;stroke-linecap:round;stroke-linejoin:round;stroke-miterlimit:5;enable-background:new    ;}
	.st17{display:none;fill:#F9A818;enable-background:new    ;}
	.st18{display:none;}
	.st19{display:inline;fill:#FFFFFF;}
</style>
<g id="Background">
	<g>
		<rect class="st0" width="1366" height="768"/>
		<path class="st1" d="M0,0h1366v27.6H0V0L0,0z M0,34.4c455.3,0,910.7,0,1366,0c0,8.6,0,17.1,0,25.7c-455.3,0-910.7,0-1366,0
			C0,51.6,0,43,0,34.4L0,34.4z M0,68.8c455.3,0,910.7,0,1366,0c0,8,0,15.9,0,23.9c-455.3,0-910.7,0-1366,0C0,84.8,0,76.8,0,68.8
			L0,68.8z M0,103.3c455.3,0,910.7,0,1366,0c0,7.3,0,14.7,0,22c-455.3,0-910.7,0-1366,0C0,118,0,110.6,0,103.3L0,103.3z M0,137.7
			c455.3,0,910.7,0,1366,0c0,6.7,0,13.5,0,20.2c-455.3,0-910.7,0-1366,0C0,151.2,0,144.4,0,137.7L0,137.7z M0,172.1
			c455.3,0,910.7,0,1366,0c0,6.1,0,12.2,0,18.4c-455.3,0-910.7,0-1366,0C0,184.4,0,178.2,0,172.1L0,172.1z M0,206.5
			c455.3,0,910.7,0,1366,0c0,5.5,0,11,0,16.5c-455.3,0-910.7,0-1366,0C0,217.6,0,212.1,0,206.5L0,206.5z M0,241
			c455.3,0,910.7,0,1366,0c0,4.9,0,9.8,0,14.7c-455.3,0-910.7,0-1366,0C0,250.8,0,245.9,0,241L0,241z M0,275.4
			c455.3,0,910.7,0,1366,0c0,4.3,0,8.6,0,12.9c-455.3,0-910.7,0-1366,0C0,284,0,279.7,0,275.4L0,275.4z M0,309.8
			c455.3,0,910.7,0,1366,0c0,3.7,0,7.3,0,11c-455.3,0-910.7,0-1366,0C0,317.2,0,313.5,0,309.8L0,309.8z M0,344.2
			c455.3,0,910.7,0,1366,0c0,3.1,0,6.1,0,9.2c-455.3,0-910.7,0-1366,0C0,350.4,0,347.3,0,344.2L0,344.2z M0,378.7h1366v7.3H0V378.7z
			"/>
	</g>
</g>
<g id="Objects">
	<text id="Oops_x2C__No_data_Found_x21_" transform="matrix(1 0 0 1 15.9536 255.6686)" class="st2 st3 st4">No Data Found</text>
	<path class="st5" d="M450.4,662.9c5.6,0.2,11.2,0.2,16.7,0.1c20.1-0.5,37.6-3,39.8-7.3c1-1.9-2.2-4.5-11.3-7.7
		c-1.1-0.4-2.2-0.8-3.3-1.2c-29.8-10.8-59.6-26.4-80.5-42c-21.2-15.8-33.5-31.6-28-42.5c0.1-0.1,0.2-0.3,0.2-0.4
		c0.6-1,1.2-2,1.9-2.9c5.7-7.4,15.8-11.1,27.9-11.7l0,0c7.8-0.4,16.5,0.5,25.4,2.6l0.3-1.8c0.4-2.1,4-2.9,8-1.8l11.3,3.1l2,0.5
		l2.6,0.7l17.4,4.7c2.8,0.8,4.9,2.6,4.6,4l0,0c-0.3,1.4-2.8,2-5.6,1.2l-17.4-4.7l-0.7,4l17.4,4.7c2.8,0.8,4.9,2.6,4.6,4l0,0
		c-0.3,1.4-2.8,2-5.6,1.2l-17.4-4.7l0,0l-15.8-4.3c-4-1.1-7-3.7-6.6-5.7l0.5-2.8c-8-1.8-15.8-2.6-22.8-2.3l0,0
		c-11,0.6-20.3,4-25.6,10.8c-0.7,0.8-1.2,1.7-1.8,2.7c-0.1,0.1-0.1,0.3-0.2,0.4c-5.1,10,6.6,24.9,26.7,39.9
		c20.4,15.2,49.4,30.4,78.4,40.9c1.1,0.4,2.1,0.8,3.2,1.1c12.4,4.4,16.5,8.2,14.8,11.5c-2.5,5-21.1,7.9-42.4,8.4
		c-6.1,0.1-12.4,0.1-18.7-0.2V662.9L450.4,662.9z M785.1,595.2l-14.4-9.3c-4.2-2.7-4.9-6.2-1.6-7.7l4.8-2.2l0,0l2.9-1.3
		c7.1-3.2,16.5-1.6,23.7,1.9c8.2-4.4,20.3-6.5,34.3-5.7c13.8,0.8,29.4,4.4,44.9,11.5c2.8,1.3,5.3,2.6,7.5,4
		c11.1,7,16.2,15.8,16.4,24.9c0.2,8.9-4.4,18-12.6,26.1c-5.4,5.4-12.5,10.2-20.8,14.2c-4.6,2.2-5.4,3.9-3.4,5.1c6,3.8,28.6,6,51,6.3
		c1.4,0,2.8,0,4.1,0v2.7c-0.8,0-1.6,0-2.4,0c-23.8-0.3-48.2-3-55.6-7.6c-4.2-2.7-4.1-5.7,2.6-8.8c8.1-3.9,14.9-8.6,20.2-13.8
		c7.9-7.8,12.3-16.6,12.2-25.1c-0.2-8.3-4.7-16.2-14.6-22.5c-2-1.2-4.2-2.4-6.6-3.5c-14.4-6.6-28.8-10-41.6-10.7
		c-12.9-0.7-24.1,1.2-31.7,5.3c7,4.7,10,11.2,2.1,15l-6.6,3l-1.1,0.5C795.6,598.9,789.4,597.9,785.1,595.2z"/>
	<path class="st5" d="M522.1,568.3c-2.8-1.1-5.5-2.1-8.2-3.2c-0.6,0.1-0.3,0.7,1.1,2.1c5.9,5.8-20.5-6.7-32.5-14.3
		c-2.6-1.6-5.1-3.2-7.4-4.5c-3.1-1.5-6-2.9-8.7-4.4c-3.5-1.3-5.4-1.1-4.5,1.6c2,5.8-18-12-25.1-19.2c-3-3.1-4.8-6.6-6.2-9.2
		c-0.7-1-1.3-1.9-1.8-2.8c-1.2-1.5-2.5-1.7-4.5,0.4c-5.1,5.3-6.5-12.5-1.9-14.6c1.8-0.8,4-2.7,5.3-4.5c0.4-0.8,0.8-1.5,1.3-2.3
		c0.4-1.6-0.6-2.5-4.4-1.4c-9,2.6,8.7-7.6,7.8-9.9c-0.1-0.2-0.2-0.3-0.4-0.5c-0.8-0.3-1.7-0.4-2.7-0.6c-4.3-0.1-12.2,1.9-18.2,5.7
		c-8.4,5.2-10,5-11,2c-1-2.9-4.6-0.6-5.7,8.5c-1.1,9-12.6,5-12.5,0.9s-3.7-0.9-3.8,7.9c-0.2,8.7-5.6,6.4-8.7,2.3
		c-3.1-4.1-2.9,2.9,5.2,10.5c8.1,7.6,12.9,9.9,3.2,7.3c-9.7-2.6,7.1,5.2,25.9,10.5c6.4,1.8,7.9,2.8,6.6,3.3
		c8.4,2.9,15.3,6.4,17.5,7.8c6.1,4.1-1.2,4.6-7.1,1c-11.2-6.7-18-1.9-7.3,0.7c12.2,3,15.1,8.4,1.2,5.1c-5.8-1.8-10.9-0.2-4.5,1.2
		c6.9,1.5,4,5.9-6.9,2.5c-9.4-3-5.3-0.5-2.9,0.5c7.6,3,1.3,4.7-10.6-0.8c-6.1-2.8-11.8-5.7-17.2-8.8c0,1,0.1,2.1,0.2,3.1
		c0.8,5.8-18.3-9-22.8-14.3c-4.5-5.2-12.2-14.6-17.4-9.9c-5.2,4.7-11.8-16.3-8.8-20.7c0.6-0.9,1.6-2.1,2.6-3.2
		c0.5-2.5,1.8-5,3.7-7.3c-0.6-0.9-2.3-1.4-5.9-1.2c-12.5,0.9,11.1-9.3,24-12c1.7-0.3,3.4-0.7,5.1-1.1c4.3-1.6,9-3.1,14.2-4.5
		c0.5-0.8-2.2-1.2-10.5-0.8c-22.4,1.2,16.3-6.1,30.5-6.1s43.6-2.3,25.2-4.7c-11.9-1.5,14.7-1.6,42-1.2c1.8-1.2,12.5-2.4,25.5-1.4
		c6.9,0.5,11.8,1.4,14.3,2.3c6.2-0.1,12.2,0,18.1,0.1c9.1-0.8,20.8,0.2,26.3,1.2c11.8,0.7,22.4,1.3,31.3,1
		c19.3-0.6,39.2,3.5,19.3,4.7c-0.8,0-1.5,0.1-2.1,0.1c4.1,0.5,8.2,1,12.3,1.6c11.5,0.4,26.7,0.8,34.9,0.9c17.1,0.3,19.8,3.5,13.9,5
		c-5.9,1.5,21.2,2,38,4.1c16.7,2,10.2,4.1,1.5,3.8c-8.8-0.3,20.5,6.1,41.4,8.5c21,2.3,14.2,4.7,9,4.7s9.2,3.8,28.4,7.3
		s15.3,6.1,8.1,5c-7.2-1.2,8.2,3.5,29.2,9s15,8.5,6.9,6.1c-8-2.3,3.2,2,22.1,9c19,7,14.8,9.3,4.3,5.5s4.7,3.8,18.5,10.8
		c11.2,5.7,10.2,7.3,0.8,4.3c4.5,3.8,7.8,7.1,10.3,10c4.5,5.2-1.6,6.6-5.4,2.6c-1.5-1.6-4.3-2.4-1.9,0.2c2.5,2.7,1.1,2.9-1.4,3.1
		c-3.6,0.2-7.5-0.9-12.2-3.3c-8.8-4.6,1.9,5-11.9,1.2c-6.2-1.7-6.6-4.6-7.9-6.5c-1.5-2.2-9.1-6.9-12.7-2.7c-1.4,1.6,8,5.4,2,5.8
		c-10.7,0.7-14.4-7-12.7-11.2c0.8-1.9,1.4-3.2,1.8-4.3c-5.1,0.6-8.3-1.8-6.3-4.4c2.5-3.2-1.8-11.4-5.9-8.5
		c-4.1,2.9-7.4-2.3-12.3-7.9c-4.9-5.5-28.7-14.9-23.7-11.4s-6.1,0.3-15.8-5c-9.7-5.2-26.7-11.7-21.9-7.3s-17-6.4-29.2-11.1
		s-26.5-7.9-18.9-3.8s-19.3-4.7-30.1-8.2s-24-5.8-30-5c-6,0.9,8.7,7.6,30.8,14s23.6,7.6,12.4,5.8c-11.2-1.8,3,3.5,18.9,9
		c15.9,5.5,41.5,14.3,24.4,9.3s-7.2,1.5,13,8.5c20.3,7,9.2,8.5,2,5.8c-0.9-0.3-1.5-0.5-1.9-0.5c2.1,1.6,4.1,3.1,5.9,4.7
		c3.9,2.5,9.2,5.7,14.8,9c14,8.2,6.7,12.2,0.3,7c-6.5-5.2-0.7,2,7.2,11.1c7.9,9,1,10.2-3.4,6.1c-2.3-2.1-4.2-2.9-4.8-1.9
		c-0.1,0.3-0.2,0.5-0.3,0.8c-0.1,1.3,0.4,3.5,2,6.9c4.1,9-3.5,7.6-5.6,4.4c-2-3.2-2.5,0.6-3.6,4.4c-1.1,3.8-3.6,7-7.5,4.4
		s1.1,3.5,13.1,6.4c5.5,1.3,5.9,2.2,3.7,2.5c8.8,1.6,18.2,3.3,24.1,5.9c10.1-2.8,11.3-3.2,11.7,1.5c7.4,1.9,13.7,7.8,5.4,7.5
		c1.8,4.6-0.5,7.6-10,6.2c-16.5-2.3-29.4-4.4-42.1-4c-10.1,0.3-27.8-10.5-29.2-16.3c-0.1-0.5-0.2-1.2-0.1-1.9
		c-0.7,0.1-1.4,0.2-2.1,0.3c-10.5,1.5-10.9-4.7-3.3-5.8c4-0.6,6.7-3,7.2-4.8v-0.1c-0.1-0.4-0.1-0.9-0.2-1.3c-0.6-0.7-2-0.9-4.5-0.2
		c-8.1,2.3,2.3-9.6-1.3-7.9c-3.6,1.7-36.8,2-53,2c-16.1,0-54-3.5-41.4-0.6s5.3,3.2-5.4,0.9c-10.6-2.3,0.9,1.7,17.2,6.1
		c16.4,4.4,11.9,5,0.7,2.6c-1-0.2-1.8-0.4-2.4-0.5c2.8,1,5.6,2,8.4,3c5.2,1.5,12,3.5,19.5,5.6c9.5,2.8,8.8,3.7,4,4
		c8.4,5.3,7.1,10.8-6.6,10.6c-8.6-0.1-16.5,2.8-15.6,5.8c2.5,7.8-22,5.1-25.5,0.3c-8.6,1.5-13.9,0-15.7-3.6
		c-14.9,1.2-24.9-11.9,1.6-9.6c1-1.8,6.6-5.3-1.2-4.5c-7.8,0.7,2-4.7,14.9-4.7s-1.2-2-4.8-5c-3.6-2.9-24.3-10.8-18.7-5.2
		c5.6,5.5-15.7-4.4-27.8-10.5C531.1,572.7,526.1,570.2,522.1,568.3z"/>
	<path class="st2" d="M273.4,658.4c12.5,0.7,25.6,0,36.6-2c10.7-1.9,19.1-4.9,22.5-8.7c2.1-2.4,1.7-5.4-2.4-9
		c-6.4-5.6-6.6-10.7-2.8-15.1c5.6-6.4,21.8-10.3,38.8-11c16.8-0.7,34.7,1.6,43.9,7.6c7.1,4.7,9.6,11.3,3.8,20.2
		c-3.4,5.2-1.8,9.3,3,12.5c9.9,6.5,31.6,9.2,52.3,8.4c20.4-0.7,39.5-4.8,44.5-11.6c2.3-3.1,0.8-7.2-6.3-12.3
		c-0.8-0.6-1.7-1.2-2.5-1.9c-22.7-17.3-42.2-42.2-52.9-67.1c-10.9-25.2-12.8-50.5,0-68c0.2-0.2,0.3-0.5,0.5-0.7
		c1.2-1.6,2.5-3.1,3.8-4.6c10.6-11.9,23.1-17.8,35.6-18.8l0,0c12.5-1,24.9,3,35.3,10.9c1.3,1,2.5,2,3.7,3.1l-2.9,3.3
		c-1.1-1-2.3-2-3.4-2.8c-9.6-7.3-21-10.9-32.4-10.1l0,0c-11.4,0.9-22.9,6.4-32.7,17.3c-1.2,1.4-2.4,2.8-3.5,4.3
		c-0.2,0.2-0.3,0.4-0.5,0.6c-11.7,16-9.7,39.8,0.5,63.7c10.4,24.3,29.4,48.6,51.5,65.4c0.8,0.6,1.6,1.2,2.4,1.8
		c9.6,7,11.1,13.2,7.2,18.4c-5.8,8-26.3,12.6-47.9,13.4c-21.4,0.8-44.1-2.1-54.8-9.1c-7-4.6-9.3-10.7-4.2-18.5
		c4.1-6.2,2.4-10.9-2.5-14.1c-8.4-5.5-25.3-7.6-41.4-6.9c-15.9,0.7-30.9,4.1-35.7,9.6c-2,2.3-1.6,5.3,2.5,8.9
		c6.3,5.6,6.6,10.7,2.7,15.1c-4.1,4.6-13.4,8.1-25,10.1c-11.3,2-24.8,2.8-37.6,2.1c-18.3-1-34-2.5-52.6-2.8
		c-11.4,0-209.3,1.2-220.6,0.6v-4.8c10.7,0.3,205.2-0.3,222.9-0.3C241.6,655.7,255.1,657.4,273.4,658.4L273.4,658.4z M1119.5,665.8
		c-14,0.1-30.2-2.3-42.9-4c-13.1-1.8-23.4-5.1-26.5-9.6c-2.5-3.6-1.5-7.4,4.2-11.4c3.2-2.3,4.1-4,3.2-5.3c-3.5-4.9-20.1-8-37.7-8.5
		c-17.8-0.5-36.2,1.7-43,7.3c-2.6,2.1-2.9,5,0.1,8.7c4.4,5.3,3.6,9.8-0.8,13.4c-8.5,7-33,10-56.3,9.5c-23.6-0.5-46.2-4.7-50.6-12.2
		c-2.5-4.3-0.4-9,8.4-14.1c10.6-6.2,20.6-13.7,29.3-22.1c13-12.5,23.3-26.6,28.7-40.1c5.3-13.3,6-26,0.2-35.9
		c-1.2-2-2.6-3.9-4.3-5.6c-10-10.5-22.3-15.9-34.6-17.1c-13.5-1.3-27,2.5-37.8,10.2l-2.5-3.6c11.6-8.3,26.2-12.3,40.7-11
		c13.3,1.3,26.5,7.1,37.3,18.4c1.9,2,3.6,4.2,4.9,6.5c6.5,11.2,5.8,25.3,0,39.7c-5.7,14.2-16.3,28.8-29.7,41.7
		c-9,8.6-19.2,16.3-30.1,22.7c-6.1,3.5-7.9,6.2-6.8,8.1c3.5,6.1,24.6,9.6,46.9,10c22.5,0.5,45.9-2.2,53.5-8.5
		c2.3-1.9,2.7-4.3,0.2-7.3c-5-6.1-4.2-11,0.5-14.8c7.6-6.3,27.2-8.8,45.8-8.2c18.8,0.5,36.9,4.2,41.2,10.3c2.5,3.5,1.5,7.4-4.2,11.4
		c-3.2,2.3-4,4-3.1,5.3c2.4,3.5,11.6,6.2,23.6,7.8c12.4,1.7,28.2,3.8,42,4.3c15.2,0,37.8-0.4,51-0.4c9.7-0.2,191-0.1,195.7-0.7v3.8
		c-6.1,0.5-188.4,1-195.5,1C1155.8,665.7,1136.3,666,1119.5,665.8z"/>
	<path class="st6" d="M598.7,549.3c-29.5-38.5-48.8-75-52.1-108.5c-3.8-39.2,14.2-71.5,38.7-97.1c48.2-50.3-98.7,13.8-103.9,73.8
		c-1,11.8,6.6,25.1,15.9,34.8c6.8,7.1,10.6,17.3,11.1,21.2c1,9-6.8,10.1-8.3,2.3c-2.9-14.8-15.6-4.2-8.1,1.5
		c8.5,6.6,4.8,18.5-5.1,11.3c-3.5-4.1-10.7-0.4-6,2.8c5,3.3-3.4,13.2-10,5.5c-5.7-6.6-4.8-1-3.5,1.1c3.9,6.7-4.4,10.3-9.5-1.8
		c-8-18.9-11-41-12.5-61.5c-6.6-91.5,124.7-150.5,243.2-139.7c96.2,8.7,184.6,57.7,216.8,126.3c20.7,44.2,19.7,77.4,15.9,99.4
		c-1.9,11.5-9.7,14.5-8.6,5.7c0.4-3.5-1.4-5.3-2.1,0.3c-0.8,5.9-2.6,6.5-5.2,6.8c-3.8,0.5-6.4-2-8.1-7.3c-3.1-10.1-4.3,11-13.4,2.8
		c-4.1-3.8-0.9-10.2,0.2-14.5c1.3-4.9-0.6-15.3-9.4-6c-3.4,3.6,1.4,11.9-5.2,12.9c-11.6,1.6-5.7-15.6,1.2-24.9
		c10-13.5,11.7-13.6,14.5-30.3c13.5-81-170.2-207.3-101.3-99.8c16.4,25.6,32.7,71.3,20.8,110.7c-13.1,43.1-31.4,60-62.4,89l0,0
		c-4.8,4.6-3,15.6,2.5,18.8c7.7,4.4,18,8.4,21.3,15.5c13.5-6.2,22.9,1.2,17.3,11.8c5.1,4.1,4.2,17.2-3.9,16.6
		c-3.9,10.2-17.4,8.4-25.2,5.4c-13.6-5.2-18-19.3-31.1-18.5c-10.4,0.6-20.9-13.5-15.1-26.3c3-6.7,13.6-21.2,16.9-27.3
		c21-43.4,21.2-60.6-44.2-61.6s-69.9,21.7-53.6,55c5.6,10.4,16.3,22,20.6,31.6c6,13.2-2.2,29.6-18,29.2c-8.5-0.2-20,6.3-22.7,12.7
		c-7.1,17.3-28.3,11.2-25.9,0.8c-10.5,3.4-16.2-2.2-13.5-10.4c-17.3,2.7-9.5-29.4,17.4-20.3c-0.6-5.9,17.9-19.6,28.4-19.2
		C625.3,580.2,602.8,554.6,598.7,549.3z"/>
	<path class="st7" d="M869.3,521.3c-4.4,0.6-6.3-1.6-6.5-5c0.2,0,0.4,0,0.6,0C866.3,516.3,868.7,518.4,869.3,521.3z"/>
	<path class="st7" d="M508.4,474.8c0.1,3.8-1.5,5.9-3.4,6.2c-0.2-0.5-0.3-1.1-0.3-1.7C504.7,477,506.3,475.1,508.4,474.8z"/>
	<path class="st6" d="M674.9,293.2c-25.2-1.9-96.8-4.5-81.3,0.6c15.5,5.2-16.8,10.3-31,10.3s-62,16.1-38.1,13.6
		c23.9-2.6-0.6,8.4-16.8,14.2c-16.1,5.8-52.3,28.4-38.7,26.5c13.6-1.9-6.5,16.1-14.8,25.8c-8.4,9.7-27.8,56.1-16.8,45.8
		c11-10.3,7.1,10.3,5.2,21.9s-1.3,44.5,5.2,31.6S462,457,475.6,457s34.9,3.2,22.6-8.4s-19.4-29-12.9-23.2s4.5,0.6,5.8-16.1
		c1.3-16.8,9.7-32.3,7.7-23.2c-1.9,9,0.6,14.2,11.6-5.2c11-19.4,18.7-26.5,13.6-17.4c-5.2,9,1.3,18.1,13.6-1.9s18.7-25.2,16.1-18.7
		c-2.6,6.5-1.3,7.1,13.6-4.5c14.8-11.6,29-15.5,27.1-10.3s-32.3,27.8-20,21.9c12.3-5.8-5.2,13.6-12.3,18.1S534.3,412,546,400.4
		c11.6-11.6,0,9.7-1.9,25.8c-1.9,16.1-3.9,55.5,1.3,42.6s9-0.6,11.6,16.1c2.6,16.8,13.6,44.5,14.8,31.6c1.3-12.9,6.5,3.9,11,17.4
		c4.5,13.6,13.6,35.5,14.8,23.2c1.3-12.3,12.3,5.2,12.3,11.6c0,6.5,11.6,11-1.3,11c-12.9,0-31,12.3-20.7,10.3
		c10.3-1.9-16.8,9.7-3.9,11.6c12.9,1.9,28.4-10.3,41.3-10.3c12.9,0,38.7,5.8,25.2-7.7c-13.6-13.6-23.9-23.2-15.5-18.1
		c8.4,5.2,13.6,3.9,2.6-5.8s-17.4-18.7-9.7-13.6c7.7,5.2,15.5,4.5,6.5-1.9c-9-6.5,24.5,1.3,40.7,1.3c16.1,0,49.7-0.6,55.5-4.5
		s-19.4,22.6-8.4,17.4c11-5.2-1.3,11.6-10.3,14.2c-9,2.6-16.1,16.1-3.9,12.9c12.3-3.2,20.7-6.5,28.4-1.3s20.7,3.9,12.3-2.6
		s-5.8-20-5.2-14.2s7.1-1.3,12.9-9.7c5.8-8.4,11-16.8,9-9.7c-1.9,7.1,3.9,10.3,11-9.7s11-21.9,10.3-12.9c-0.6,9,7.7,6.5,11-13.6
		c3.2-20,6.5-36.1,6.5-24.5s12.3,2.6,8.4-15.5c-3.9-18.1-6.5-34.8-2.6-29s16.8,2.6,5.2-12.9s-13.6-29.7-2.6-18.7s-3.9-8.4-12.9-20.7
		c-9-12.3-16.8-23.9-7.7-20c9,3.9,9,1.3-5.2-12.9c-14.2-14.2-20.7-29-13.6-31c7.1-1.9,17.4,3.2,23.9,11c6.5,7.7,22.6,27.1,20,18.1
		s7.7-1.9,14.2,8.4s14.8,34.2,15.5,24.5c0.6-9.7,9.7,4.5,12.9,16.1s10.3,18.7,9.7,11s11.6,12.9,9.7,25.2
		c-1.9,12.3-5.2,23.9,2.6,17.4c7.7-6.5,1.9,11.6-4.5,18.7c-6.5,7.1-4.5,13.6,5.8,7.7c10.3-5.8,27.8-7.1,36.1,7.1
		c8.4,14.2,14.2,12.3,9-3.2s-11-32.3-5.2-23.9s12.9,3.2,2.6-12.3c-10.3-15.5-16.1-25.2-11-20c5.2,5.2,14.8-1.3,0.6-13.6
		c-14.2-12.3-23.9-22.6-18.1-20c5.8,2.6,12.9-3.2-1.9-11c-14.8-7.7-24.5-16.1-19.4-16.1c5.2,0,14.8-5.2-3.2-10.3
		c-18.1-5.2-39.4-19.4-31-18.7c8.4,0.6,17.4-3.9,3.2-8.4s-40.7-5.8-32.9-9c7.7-3.2,9-10.3-7.7-11c-16.8-0.6-63.2-3.2-41.9-5.8
		c21.3-2.6,6.5-11.6-13.6-10.3C728.4,299.7,705.2,292,674.9,293.2z"/>
	<path class="st8" d="M714.8,309.9c25.3,3.5,42.9,26.9,39.4,52.1c-3.5,25.3-26.9,42.9-52.1,39.4c-25.3-3.5-42.9-26.9-39.4-52.1
		C666.2,324,689.5,306.3,714.8,309.9z"/>
	<path class="st8" d="M638.4,317.6c21.2,3,36,22.5,33.1,43.8c-3,21.2-22.5,36-43.8,33.1c-21.2-3-36-22.5-33.1-43.8
		C597.6,329.4,617.2,314.6,638.4,317.6z"/>
	<path class="st2" d="M637.3,320.6c16.9,2.3,28.6,17.9,26.3,34.8s-17.9,28.6-34.8,26.3c-16.9-2.3-28.6-17.9-26.3-34.8
		C604.9,330,620.5,318.2,637.3,320.6z"/>
	<g>
		<path d="M651.4,330.3c6.2,0.9,10.5,6.6,9.6,12.7c-0.9,6.2-6.6,10.5-12.7,9.6c-6.2-0.9-10.5-6.6-9.6-12.7
			C639.5,333.7,645.2,329.4,651.4,330.3z"/>
		<path class="st2" d="M656.9,343.9c2,0.3,3.4,2.1,3.1,4.1c-0.3,2-2.1,3.4-4.1,3.1s-3.4-2.1-3.1-4.1
			C653.1,345,654.9,343.7,656.9,343.9z"/>
	</g>
	<path class="st2" d="M713.7,313c20.8,2.9,35.4,22.2,32.5,43s-22.2,35.4-43,32.5s-35.4-22.2-32.5-43
		C673.6,324.6,692.9,310.1,713.7,313z"/>
	<g>
		<path d="M728.8,327.3c7.6,1.1,12.9,8.1,11.9,15.7c-1.1,7.6-8.1,12.9-15.7,11.9c-7.6-1.1-12.9-8.1-11.9-15.7
			C714.1,331.5,721.2,326.2,728.8,327.3z"/>
		<path class="st2" d="M735.7,344.1c2.5,0.3,4.2,2.6,3.8,5.1c-0.3,2.5-2.6,4.2-5.1,3.8c-2.5-0.3-4.2-2.6-3.8-5.1
			C730.9,345.5,733.2,343.8,735.7,344.1z"/>
	</g>
	<ellipse class="st6" cx="681.5" cy="474.5" rx="121.1" ry="71.4"/>
	<path class="st2" d="M693.5,293.5c16-2.8,33.1,4.3,24.7,6c-8.4,1.7,5.1,2.9,16.8,3.6s15.8,7.3,6.9,7.1c-8.9-0.2,6,2,11.5,8.1
		c5.5,6.2,7.8,9.9-1.9,4.6s-41.2-19.4-58.1-19.7C676.5,303,677.4,296.3,693.5,293.5z"/>
	<path class="st2" d="M664.2,288.1c-16.6-3.2-34.5,3.9-25.7,5.9c8.7,1.9-5.3,2.9-17.5,3.4c-12.1,0.5-16.5,7.3-7.3,7.3
		s-6.3,2-12.1,8.3s-8.2,10.2,1.9,4.9c10.2-5.4,41.5-18,59-18C679.9,299.8,680.9,291.3,664.2,288.1z"/>
	<path class="st9" d="M675.7,461.4c6.4,0,11.7-8.3,11.7-18.6c0-10.2-5.3-18.6-11.7-18.6s-11.7,8.3-11.7,18.6
		S669.3,461.4,675.7,461.4z"/>
	<path class="st10" d="M878.9,517.6c-7.6,1.7-14.8,4.9-21.1,9.4"/>
	<path class="st11" d="M497.1,478.4c11.6,0.4,22.9,5.2,32.2,13.6"/>
	<path class="st6" d="M666.3,336.6c-49.7-2.2-76.1,18.2-82.2,27C587.2,322.9,642.6,279.5,666.3,336.6z"/>
	<path class="st6" d="M664.4,329.7c49.6-2.2,94,18.5,100.1,27.3C757.8,314.3,705.5,278.7,664.4,329.7z"/>
	<path class="st7" d="M564.9,603.3c2.7,0,4.5,2.7,4,6s-3,6-5.7,6s-4.5-2.7-4-6S562.3,603.3,564.9,603.3z"/>
	<path class="st7" d="M577.2,613.6c2.9,0.8,4.1,4.3,2.6,7.8s-5.1,5.7-8,4.9s-4.1-4.3-2.6-7.8C570.6,615,574.2,612.8,577.2,613.6z"/>
	<path class="st7" d="M595.1,621.8c4.4,0.8,6.7,4.3,5.2,7.8s-6.3,5.7-10.7,4.9s-6.7-4.3-5.2-7.8C585.9,623.2,590.7,621,595.1,621.8z
		"/>
	<path class="st7" d="M777.6,599.2c-2.7,0-4.5,2.7-4,6s3,6,5.7,6s4.5-2.7,4-6S780.2,599.2,777.6,599.2z"/>
	<path class="st7" d="M775.8,613c-2.9,0.8-4.1,4.3-2.6,7.8s5.1,5.7,8,4.9s4.1-4.3,2.6-7.8C782.4,614.4,778.8,612.2,775.8,613z"/>
	<path class="st7" d="M763.9,621.1c-4.4,0.8-6.7,4.3-5.2,7.8s6.3,5.7,10.7,4.9s6.7-4.3,5.2-7.8C773.1,622.5,768.3,620.3,763.9,621.1
		z"/>
	<g>
		<path class="st12" d="M884.7,428.1V426l0,0l0,0v-0.9c1.3-5.8-2.9-21.5,10.6-12.9c7.6,4.8-2-8.1-2.9-9.2c3.1,2.2,4.9,4.3,6.4,7.9
			c2.9,7.3-6,1.5-6.8,1.1C882.7,407.6,889.5,428.8,884.7,428.1L884.7,428.1z M913.2,466.6c1.7,3.1,11.6,23.8,7.1,27.1
			c-4.1,3-6.8-15.6-14.6-6.4c-3.5,4.2-12.9,11.3-18.9,9c-7.1-2.7,16.5-21.2,8.7-24.2c-1.1-0.4-2.7-0.2-3.8-0.1
			c1.3-0.4,2.1-0.8,3.5-0.6c10,1.3-10.1,22.4-7.7,23.2c5,1.7,13.6-5.3,16.6-8.7c8.4-9.7,11.7,3.9,15.3,6.3
			C921.5,489.2,914.4,469.6,913.2,466.6z M884.7,425.1v0.9l0,0l0,0v2.1c-0.3,0-0.5-0.1-0.9-0.3c-5.4-2.8-8.4-22.3-8.5-27.8
			c0.6,3.4,5.8,24.4,9.1,26C884.5,425.7,884.6,425.4,884.7,425.1L884.7,425.1z M857.2,383.4v-2.2l0,0l0,0l0,0v-1.5
			c0.8-4.5-0.1-5.9,8.4-8.7c2-0.6,7.7-1.7,9.2-2.7l0,0c0-0.4-3.1-2-3.1-2c7.6,1.6,3,3.4-1.7,5c-15.3,5.1-8.6,6.8-11.4,11.1
			C858.1,383.1,857.7,383.4,857.2,383.4z M754.3,532.6c-0.4,5-1.3,17.8-7,21.1c-1.9,1.1-2.4-0.7-2.5-2.4v-4c2.1-0.8,1.7,2.5,1.9,4.2
			C750.9,547.6,753.2,537.3,754.3,532.6L754.3,532.6z M857.2,379.7v1.5l0,0l0,0v2.2c-3.8,0.4-8.1-18.2-8.1-18.2
			c0.5,1.3,5.4,14,7.9,15.9C857.1,380.6,857.1,380.1,857.2,379.7L857.2,379.7z M744.8,607.1v-1.9l0,0l0,0l0,0l0,0
			c0.8-0.6,0.6-2.7,0-5.4v-5.2c2.1,5,3.4,10.1,1.1,12C745.6,607,745.2,607.1,744.8,607.1L744.8,607.1z M744.8,480.9v-1.1
			c0.5-0.5,1.1-1.1,1.8-1.7c12.9-12.4,6.2,9.9,13.3,12c6.3,1.9,4.8-15.5,7.3-18.7c6.2-7.8,16.8,18.8,17.7,19.1l0,0l0,0
			c4.3-3.4-0.9-29.1-2-33.6c2.7,7.6,7.6,25.8,3.9,33.7c-2.6,5.4-5.3-2.8-8.3-8.6c-4.1-7.8-10-15.7-11-3.1c-0.2,3.2-2.2,16-8.8,12.5
			c-8.4-4.4,0.3-23.1-11.5-12.7C746.4,479.5,745.6,480.2,744.8,480.9L744.8,480.9z M778.2,379.8c0.7,1.8,9.4,30.6,1,26.9
			c-6.4-2.7-12.6-19.3-13.9-8.8c-1.1,8.9-1.9,20.3-9.9,26.1c-4.6,3.4-5.2-3.5-5.3-6.4c0.4,2,1.2,8.4,4.7,5.6
			c7.4-6,7.7-16.9,8.5-25.5c1.4-14.3,12.7,3.8,15.3,6.4C785.4,410.9,778.3,380.3,778.2,379.8z M744.8,551.3c-0.1-0.9,0-1.7,0-2.1
			c-1.7,1.3-11,10.6-9.4,3.6c1,3.1,1.3,2.3,4.9-1.7c2.2-2.3,3.6-3.5,4.5-3.8V551.3L744.8,551.3z M744.8,479.8v1.1
			c-2.9,2.4-5,3-4.5-3.2C740.9,483,741.6,482.9,744.8,479.8L744.8,479.8z M744.8,594.7v5.2c-1.5-6.2-5.7-15.6-6.4-17.1
			C739.5,584.3,742.6,589.4,744.8,594.7L744.8,594.7z M744.8,605.2c-6.3-3.1-10.2-23.3-18.1-10.7c-4.7,7.5-9.5,15.4-12.1,4.1
			c-0.6,17.9,15.7-5.9,15.8-5.9c3.9-2.8,9.9,14.6,14.4,14.4L744.8,605.2L744.8,605.2L744.8,605.2L744.8,605.2L744.8,605.2z
			 M601.2,543.7v-2.2l0,0l0,0v-0.4c1.3-3,8.4-22.7,12.9-9.4c1.5,4.4,1.1,7.3,0.9,11.9c-4.2-31.1-9.5-3.5-12.4-0.8
			C602.1,543.4,601.6,543.7,601.2,543.7L601.2,543.7z M601.2,462.9v-2.8c3.4-7.4,6.3-22.8,13.1-15.3c2.3,2.6,3.3,5.9,4.4,9.1
			c-7.2-14.3-9.8-13.3-14.6,2.6C603.2,459.3,602.2,461.4,601.2,462.9L601.2,462.9z M631.5,577.9c2.2,4.2,7.2,18,3.2,22.4
			c-4.7,5.1-8.2-14.9-13-10.9c-6.5,5.4-18.5,24.2-17.7,6.9c0.5,3.6,0.5,4.1,1.1,5.4c1.6,3.7,12-10.4,14.4-12.9
			c7.8-8.2,10.7,11.1,13.7,10.5C636.8,598.4,632.1,579.9,631.5,577.9L631.5,577.9z M645.5,494.7c-0.1,2.8-1,30.4,6.3,28.3
			c5.8-1.7,12-26.3,21.9,1.4c3.1,8.6,10.4,10.8,13.9,1.5c-0.8,8.6-10.8,10.5-15.4-1c-10.6-26.7-12.2,2-21.7,0
			C641.7,523.1,644.6,500.2,645.5,494.7z M601.2,460.1v2.8c-3.6,5-7.8,1.9-10.7-7.1c-2.3-7.4-0.4-30.5-13.4-13.8c0,0-9.3,17-11,9
			c-2.5-11.7,3.6-36,8.6-46.7c-2.3,6.5-10.8,42-6.5,46.9l0.1,0.1l0,0l0,0l0,0l0,0c2-0.4,14.1-26.3,20.9-14.2
			c2.4,4.3,1.6,25.4,8.6,26.6C599,463.8,600.1,462.3,601.2,460.1L601.2,460.1z M601.2,541.2v0.4l0,0l0,0v2.2
			c-5.3,0.8-4.6-27.9-4.5-28.8c0.4,3.4,2,24.2,4.4,26.5C601.1,541.4,601.1,541.3,601.2,541.2L601.2,541.2z M507.4,342.6
			c-1,1.6-11.7,19.8-9.3,21l0,0c1.4,0.1,34-22.9,24.5-8.1l0.6-2c2.3-9-20.2,13.2-25.5,12.1C490.2,363.9,506.2,343.9,507.4,342.6
			L507.4,342.6z M455.5,398.2c-0.6,3.1-4.3,19.1-3.6,22.5c6.4-4.6,12-26.7,15.8,0.7c-2.2-6.7-2.9-9.1-2.9-9.1
			c-3.2-8.5-5.4,5-11.5,9.9C445,428.8,455.3,398.6,455.5,398.2L455.5,398.2z M463.4,456.9c0.3,2.9,2.8,27.1,6.6,28.1
			c3.7-3.9-4-38.1,10.9-28.8c5.5,3.4,5.6,3.1,2.2-4.7l-3.9-8.1l4.8,7.6l2.4,5.6c2,6.4-7.5,0.2-7.9,0c-10-4.5-1.6,30.2-8.5,30.1
			C463.6,486.8,463.4,460.3,463.4,456.9z"/>
	</g>
	<g>
		<path class="st2" d="M516.9,477.6l-5.9,11.2c-1.7,3.3-0.5,7.4,2.9,9.2l13,6.9l12.2-23.3l-13-6.9
			C522.8,473,518.7,474.3,516.9,477.6z"/>
		<path class="st2" d="M529,481.6L529,481.6c-1.2,2.3-0.3,5.2,2,6.4l18.1,9.5c2.3,1.2,5.2,0.3,6.4-2l0,0c1.2-2.3,0.3-5.2-2-6.4
			l-18.1-9.5C533.1,478.4,530.2,479.3,529,481.6z"/>
		<path class="st2" d="M521.2,496.5L521.2,496.5c-1.2,2.3-0.3,5.2,2,6.4l18.1,9.5c2.3,1.2,5.2,0.3,6.4-2l0,0c1.2-2.3,0.3-5.2-2-6.4
			l-18.1-9.5C525.3,493.3,522.4,494.2,521.2,496.5z"/>
	</g>
	<path class="st2" d="M853.9,551l-8.6,4.8l-17.1-30.6l8.6-4.8C858.2,508.3,875.2,538.6,853.9,551z"/>
	<path class="st2" d="M831.5,553l-8.3-14.8c-2.4-4.4-0.9-9.9,3.5-12.4l6.2-3.4l17.1,30.7l-6.2,3.4C839.5,559,834,557.4,831.5,553z"
		/>
	<path class="st0" d="M843.1,533.3l-8.9,5c-6,3.4-11-4.7-4.6-8.3l8.9-5C843.6,522.1,849.2,529.9,843.1,533.3z"/>
	<path class="st0" d="M851.3,547.9l-8.9,5c-6.6,3.7-10.8-4.9-4.6-8.3l8.9-5C852.7,536.3,857.2,544.7,851.3,547.9z"/>
	<text transform="matrix(1 0 0 1 294.6406 356.461)" class="st13 st14 st15">SORRY, THE PAGE </text>
	<text transform="matrix(1 0 0 1 294.6406 356.461)" class="st16 st14 st15">SORRY, THE PAGE </text>
	<text transform="matrix(1 0 0 1 294.6406 393.961)" class="st13 st14 st15">NOT FOUND</text>
	<text transform="matrix(1 0 0 1 294.6406 393.961)" class="st16 st14 st15">NOT FOUND</text>
	<text transform="matrix(1 0 0 1 829.7402 356.461)" class="st13 st14 st15">RETURN TO THE  </text>
	<text transform="matrix(1 0 0 1 829.7402 356.461)" class="st16 st14 st15">RETURN TO THE  </text>
	<text transform="matrix(1 0 0 1 893.6402 393.961)" class="st17 st14 st15">HOME PAGE</text>
	<text transform="matrix(1 0 0 1 893.6402 393.961)" class="st16 st14 st15">HOME PAGE</text>
	<g class="st18">
		<path class="st19" d="M578,747.2c0.3,0,0.6-0.1,0.9-0.3c0.3-0.2,0.5-0.4,0.7-0.8c0.2-0.4,0.2-0.8,0.2-1.3s-0.1-0.9-0.2-1.3
			c-0.2-0.4-0.4-0.6-0.7-0.8s-0.6-0.3-0.9-0.3v-1.3c0.3,0,0.6,0.1,0.8,0.2c0.4,0.2,0.7,0.5,1.1,0.8v-2.7c0-0.4,0.1-0.7,0.2-0.9
			c0.2-0.2,0.4-0.3,0.6-0.3c0.3,0,0.5,0.1,0.7,0.3s0.2,0.4,0.2,0.8v8.2c0,0.4-0.1,0.6-0.2,0.8c-0.2,0.2-0.4,0.3-0.6,0.3
			c-0.3,0-0.5-0.1-0.6-0.3c-0.2-0.2-0.3-0.4-0.3-0.8v-0.2c-0.2,0.3-0.5,0.5-0.7,0.7s-0.5,0.3-0.8,0.4c-0.1,0-0.2,0.1-0.4,0.1V747.2z
			 M576.2,744.8c0,0.5,0.1,0.9,0.2,1.3c0.2,0.4,0.4,0.6,0.6,0.8c0.3,0.2,0.6,0.3,0.9,0.3l0,0v1.4c-0.2,0-0.4,0-0.6,0
			c-0.4,0-0.9-0.1-1.2-0.3c-0.4-0.2-0.7-0.5-1-0.8s-0.5-0.8-0.6-1.2c-0.1-0.5-0.2-1-0.2-1.5c0-1.2,0.3-2.1,0.9-2.7
			c0.6-0.6,1.3-1,2.2-1c0.2,0,0.4,0,0.6,0v1.3l0,0c-0.3,0-0.6,0.1-0.9,0.3c-0.3,0.2-0.5,0.5-0.6,0.8
			C576.3,743.9,576.2,744.3,576.2,744.8z"/>
		<path class="st19" d="M586.7,744.2h1.7c0-0.6-0.2-1.1-0.5-1.4c-0.3-0.3-0.7-0.5-1.2-0.5V741h0.1c0.7,0,1.4,0.2,1.9,0.5
			s0.9,0.7,1.2,1.2s0.4,1,0.4,1.5s-0.1,0.8-0.4,0.9c-0.3,0.1-0.6,0.2-1.1,0.2h-2v-1.1L586.7,744.2L586.7,744.2z M586.7,748.6v-1.2
			h0.1c0.2,0,0.4,0,0.6-0.1c0.2,0,0.4-0.1,0.5-0.2c0.2-0.1,0.3-0.2,0.5-0.4c0.1-0.1,0.3-0.3,0.6-0.5c0.1-0.1,0.2-0.1,0.4-0.1
			s0.3,0.1,0.5,0.2c0.1,0.1,0.2,0.3,0.2,0.4c0,0.2-0.1,0.4-0.2,0.6c-0.1,0.2-0.3,0.4-0.6,0.6c-0.3,0.2-0.6,0.4-1,0.5
			s-0.9,0.2-1.4,0.2C586.8,748.6,586.8,748.6,586.7,748.6z M585,744.2h1.7v1.1H585c0,0.4,0.1,0.8,0.3,1.1s0.4,0.6,0.7,0.7
			c0.2,0.1,0.5,0.2,0.8,0.2v1.2c-1.1,0-2-0.4-2.6-1c-0.7-0.7-1-1.6-1-2.8c0-0.6,0.1-1.1,0.2-1.5c0.2-0.5,0.4-0.9,0.7-1.2
			s0.7-0.6,1.2-0.8c0.4-0.2,0.9-0.3,1.5-0.3v1.3l0,0c-0.5,0-0.8,0.2-1.1,0.5C585.3,743.1,585.1,743.6,585,744.2z"/>
		<path class="st19" d="M597.8,746.2c0,0.5-0.1,1-0.4,1.3c-0.3,0.4-0.6,0.6-1.1,0.8s-1.1,0.3-1.8,0.3s-1.2-0.1-1.7-0.3
			s-0.8-0.5-1.1-0.8c-0.2-0.3-0.3-0.6-0.3-0.9c0-0.2,0.1-0.4,0.2-0.5c0.1-0.1,0.3-0.2,0.6-0.2c0.2,0,0.3,0,0.5,0.1
			c0.1,0.1,0.2,0.2,0.3,0.4c0.2,0.3,0.4,0.6,0.7,0.7c0.3,0.2,0.6,0.2,1.1,0.2c0.4,0,0.7-0.1,0.9-0.2c0.2-0.2,0.4-0.4,0.4-0.6
			c0-0.3-0.1-0.6-0.4-0.7c-0.2-0.1-0.7-0.3-1.2-0.4c-0.6-0.2-1.2-0.3-1.6-0.5c-0.4-0.2-0.7-0.4-1-0.7c-0.2-0.3-0.4-0.6-0.4-1.1
			c0-0.4,0.1-0.7,0.3-1.1c0.2-0.3,0.6-0.6,1-0.8s1-0.3,1.6-0.3c0.5,0,0.9,0,1.3,0.1c0.4,0.1,0.7,0.2,1,0.4s0.5,0.4,0.6,0.6
			c0.1,0.2,0.2,0.4,0.2,0.6c0,0.2-0.1,0.4-0.2,0.5c-0.1,0.1-0.3,0.2-0.6,0.2c-0.2,0-0.4-0.1-0.5-0.2c-0.1-0.1-0.3-0.3-0.5-0.5
			c-0.1-0.2-0.3-0.3-0.5-0.4c-0.2-0.1-0.5-0.2-0.8-0.2s-0.6,0.1-0.8,0.2c-0.2,0.1-0.3,0.3-0.3,0.5s0.1,0.4,0.2,0.5
			c0.2,0.1,0.4,0.2,0.7,0.3s0.7,0.2,1.1,0.3c0.6,0.1,1,0.3,1.4,0.5s0.6,0.4,0.8,0.7C597.7,745.5,597.8,745.8,597.8,746.2z"/>
		<path class="st19" d="M601.2,742.1v5.4c0,0.4-0.1,0.7-0.3,0.8c-0.2,0.2-0.4,0.3-0.7,0.3s-0.5-0.1-0.7-0.3s-0.3-0.5-0.3-0.8v-5.3
			c0-0.4,0.1-0.6,0.3-0.8s0.4-0.3,0.7-0.3s0.5,0.1,0.7,0.3C601.1,741.5,601.2,741.8,601.2,742.1L601.2,742.1z M600.3,740.2
			c-0.3,0-0.5-0.1-0.7-0.2c-0.2-0.2-0.3-0.4-0.3-0.7s0.1-0.5,0.3-0.7s0.4-0.3,0.7-0.3c0.2,0,0.5,0.1,0.6,0.2
			c0.2,0.2,0.3,0.4,0.3,0.7s-0.1,0.5-0.3,0.7C600.7,740.1,600.5,740.2,600.3,740.2z"/>
		<path class="st19" d="M606.4,747.1c0.3,0,0.6-0.1,0.9-0.2c0.3-0.2,0.5-0.4,0.7-0.8c0.2-0.3,0.3-0.7,0.3-1.2c0-0.8-0.2-1.4-0.5-1.8
			c-0.3-0.4-0.8-0.6-1.3-0.6v-1.3c0.3,0,0.5,0.1,0.8,0.3c0.4,0.2,0.7,0.5,1.1,1v-0.3c0-0.3,0.1-0.6,0.2-0.7c0.2-0.2,0.4-0.3,0.6-0.3
			c0.4,0,0.6,0.1,0.7,0.4c0.1,0.2,0.2,0.6,0.2,1v5.4c0,0.6-0.1,1.2-0.2,1.6c-0.1,0.4-0.3,0.8-0.6,1.1s-0.7,0.5-1.1,0.6
			c-0.4,0.1-1,0.2-1.6,0.2v-1.3c0.4,0,0.7-0.1,1-0.2c0.3-0.1,0.5-0.3,0.6-0.6c0.1-0.2,0.2-0.5,0.2-0.8s0-0.7,0-1.3
			c-0.3,0.4-0.6,0.7-1,0.9c-0.2,0.1-0.5,0.2-0.8,0.3v-1.4L606.4,747.1L606.4,747.1z M604.6,744.8c0,0.8,0.2,1.3,0.5,1.7
			s0.8,0.6,1.3,0.6l0,0v1.3c-0.2,0-0.4,0-0.6,0c-0.6,0-1.2-0.2-1.6-0.5c-0.5-0.3-0.8-0.8-1.1-1.3c-0.3-0.6-0.4-1.2-0.4-2
			c0-0.6,0.1-1.1,0.2-1.5c0.2-0.5,0.4-0.8,0.7-1.1s0.6-0.5,1-0.7s0.8-0.2,1.2-0.2c0.2,0,0.4,0,0.6,0v1.3l0,0c-0.5,0-1,0.2-1.3,0.6
			C604.7,743.4,604.6,744,604.6,744.8L604.6,744.8z M606.4,750.1v1.3h-0.1c-0.6,0-1.2-0.1-1.7-0.3s-0.9-0.4-1.2-0.7
			s-0.4-0.6-0.4-0.9c0-0.2,0.1-0.4,0.2-0.6c0.2-0.1,0.3-0.2,0.6-0.2s0.5,0.1,0.7,0.4c0.1,0.1,0.2,0.2,0.3,0.4
			c0.1,0.1,0.2,0.2,0.4,0.3c0.1,0.1,0.3,0.2,0.5,0.2s0.4,0.1,0.6,0.1H606.4z"/>
		<path class="st19" d="M613.5,742.1v0.2c0.3-0.4,0.7-0.8,1.1-1c0.4-0.2,0.8-0.3,1.3-0.3s0.9,0.1,1.3,0.3c0.4,0.2,0.7,0.5,0.9,0.9
			c0.1,0.2,0.2,0.5,0.2,0.7c0,0.3,0.1,0.6,0.1,1v3.5c0,0.4-0.1,0.7-0.3,0.8c-0.2,0.2-0.4,0.3-0.7,0.3s-0.5-0.1-0.7-0.3
			s-0.3-0.5-0.3-0.8v-3.1c0-0.6-0.1-1.1-0.3-1.4c-0.2-0.3-0.5-0.5-1-0.5c-0.3,0-0.6,0.1-0.9,0.3c-0.3,0.2-0.5,0.5-0.6,0.8
			s-0.1,0.8-0.1,1.6v2.3c0,0.4-0.1,0.7-0.3,0.8c-0.2,0.2-0.4,0.3-0.7,0.3s-0.5-0.1-0.7-0.3s-0.3-0.5-0.3-0.8V742
			c0-0.4,0.1-0.6,0.2-0.8c0.2-0.2,0.4-0.3,0.6-0.3c0.2,0,0.3,0,0.4,0.1c0.1,0.1,0.2,0.2,0.3,0.3
			C613.5,741.7,613.5,741.8,613.5,742.1z"/>
		<path class="st19" d="M623.5,744.2h1.7c0-0.6-0.2-1.1-0.5-1.4c-0.3-0.3-0.7-0.5-1.2-0.5V741h0.1c0.7,0,1.3,0.2,1.9,0.5
			c0.5,0.3,0.9,0.7,1.2,1.2s0.4,1,0.4,1.5s-0.1,0.8-0.4,0.9c-0.3,0.1-0.6,0.2-1.1,0.2h-2v-1.1L623.5,744.2L623.5,744.2z
			 M623.5,748.6v-1.2h0.1c0.2,0,0.4,0,0.6-0.1c0.2,0,0.4-0.1,0.5-0.2c0.2-0.1,0.3-0.2,0.5-0.4c0.1-0.1,0.3-0.3,0.6-0.5
			c0.1-0.1,0.2-0.1,0.4-0.1s0.3,0.1,0.5,0.2c0.1,0.1,0.2,0.3,0.2,0.4c0,0.2-0.1,0.4-0.2,0.6c-0.1,0.2-0.3,0.4-0.6,0.6
			c-0.3,0.2-0.6,0.4-1,0.5s-0.9,0.2-1.4,0.2C623.7,748.6,623.6,748.6,623.5,748.6z M621.8,744.2h1.7v1.1h-1.7c0,0.4,0.1,0.8,0.3,1.1
			s0.4,0.6,0.7,0.7c0.2,0.1,0.5,0.2,0.8,0.2v1.2c-1.1,0-2-0.4-2.6-1c-0.7-0.7-1-1.6-1-2.8c0-0.6,0.1-1.1,0.2-1.5
			c0.2-0.5,0.4-0.9,0.7-1.2s0.7-0.6,1.2-0.8c0.4-0.2,0.9-0.3,1.5-0.3v1.3l0,0c-0.5,0-0.8,0.2-1.1,0.5
			C622.1,743.1,621.9,743.6,621.8,744.2z"/>
		<path class="st19" d="M631.8,747.2c0.3,0,0.6-0.1,0.9-0.3c0.3-0.2,0.5-0.4,0.6-0.8c0.2-0.4,0.2-0.8,0.2-1.3s-0.1-0.9-0.2-1.3
			c-0.2-0.4-0.4-0.6-0.7-0.8s-0.6-0.3-0.9-0.3v-1.3c0.3,0,0.6,0.1,0.8,0.2c0.4,0.2,0.7,0.5,1.1,0.8v-2.7c0-0.4,0.1-0.7,0.2-0.9
			c0.2-0.2,0.4-0.3,0.7-0.3s0.5,0.1,0.7,0.3s0.2,0.4,0.2,0.8v8.2c0,0.4-0.1,0.6-0.2,0.8c-0.2,0.2-0.4,0.3-0.6,0.3
			c-0.3,0-0.5-0.1-0.6-0.3c-0.2-0.2-0.2-0.4-0.2-0.8v-0.2c-0.3,0.3-0.5,0.5-0.7,0.7s-0.5,0.3-0.8,0.4c-0.1,0-0.2,0.1-0.4,0.1
			L631.8,747.2L631.8,747.2z M630,744.8c0,0.5,0.1,0.9,0.2,1.3c0.2,0.4,0.4,0.6,0.6,0.8c0.3,0.2,0.6,0.3,0.9,0.3l0,0v1.4
			c-0.2,0-0.4,0-0.6,0c-0.4,0-0.9-0.1-1.2-0.3c-0.4-0.2-0.7-0.5-1-0.8s-0.5-0.8-0.6-1.2c-0.1-0.5-0.2-1-0.2-1.5
			c0-1.2,0.3-2.1,0.9-2.7c0.6-0.6,1.3-1,2.2-1c0.2,0,0.4,0,0.6,0v1.3l0,0c-0.3,0-0.6,0.1-0.9,0.3c-0.3,0.2-0.5,0.5-0.6,0.8
			C630.1,743.9,630,744.3,630,744.8z"/>
		<path class="st19" d="M644.4,747.2L644.4,747.2c0.5,0,0.9-0.2,1.3-0.6c0.3-0.4,0.5-1,0.5-1.7c0-0.5-0.1-0.9-0.2-1.3
			c-0.1-0.4-0.3-0.6-0.6-0.8s-0.6-0.3-0.9-0.3h-0.1v-1.3c0.2,0,0.4,0,0.6,0c0.6,0,1.2,0.1,1.6,0.4c0.5,0.3,0.8,0.7,1.1,1.3
			s0.4,1.2,0.4,2c0,0.6-0.1,1.1-0.2,1.6c-0.1,0.5-0.4,0.9-0.6,1.2c-0.3,0.3-0.6,0.6-1,0.8s-0.8,0.3-1.3,0.3c-0.2,0-0.4,0-0.5,0
			L644.4,747.2L644.4,747.2z M642.6,744.9c0,0.7,0.2,1.3,0.5,1.7s0.8,0.6,1.3,0.6v1.4c-0.1,0-0.2,0-0.3-0.1
			c-0.3-0.1-0.5-0.2-0.6-0.3c-0.2-0.1-0.3-0.2-0.5-0.3c-0.1-0.1-0.3-0.3-0.5-0.5v0.2c0,0.4-0.1,0.6-0.3,0.8s-0.4,0.3-0.6,0.3
			c-0.3,0-0.5-0.1-0.6-0.3c-0.2-0.2-0.2-0.4-0.2-0.8v-8.1c0-0.4,0.1-0.7,0.2-0.9c0.2-0.2,0.4-0.3,0.6-0.3c0.3,0,0.5,0.1,0.7,0.3
			s0.2,0.4,0.2,0.8v2.8c0.3-0.4,0.7-0.6,1.1-0.8c0.2-0.1,0.5-0.2,0.8-0.3v1.3c-0.3,0-0.6,0.1-0.9,0.3c-0.3,0.2-0.5,0.5-0.7,0.8
			C642.7,743.9,642.6,744.4,642.6,744.9z"/>
		<path class="st19" d="M651.1,748.8l0.2-0.4l-2.3-5.8c-0.1-0.3-0.2-0.6-0.2-0.7c0-0.2,0-0.3,0.1-0.4c0.1-0.1,0.2-0.2,0.3-0.3
			s0.3-0.1,0.4-0.1c0.3,0,0.5,0.1,0.6,0.3s0.3,0.4,0.4,0.7l1.6,4.6l1.5-4.3c0.1-0.3,0.2-0.6,0.3-0.8s0.2-0.3,0.3-0.4
			c0.1-0.1,0.3-0.1,0.5-0.1c0.1,0,0.3,0,0.4,0.1c0.1,0.1,0.2,0.2,0.3,0.3s0.1,0.3,0.1,0.4c0,0.1,0,0.2-0.1,0.4
			c0,0.2-0.1,0.3-0.2,0.5l-2.4,6.4c-0.2,0.6-0.4,1-0.6,1.3c-0.2,0.3-0.5,0.6-0.8,0.7c-0.3,0.2-0.8,0.3-1.3,0.3s-1-0.1-1.2-0.2
			c-0.3-0.1-0.4-0.3-0.4-0.6c0-0.2,0.1-0.4,0.2-0.5c0.1-0.1,0.3-0.2,0.6-0.2c0.1,0,0.2,0,0.3,0s0.2,0,0.3,0c0.2,0,0.4,0,0.5-0.1
			s0.2-0.2,0.3-0.3C650.8,749.4,650.9,749.1,651.1,748.8z"/>
		<path class="st19" d="M692.9,738.7h0.6V738c0-0.7,0.1-1.3,0.3-1.7s0.5-0.7,0.9-0.9s1-0.3,1.8-0.3c1.3,0,2,0.3,2,1
			c0,0.2-0.1,0.4-0.2,0.6c-0.1,0.2-0.3,0.2-0.5,0.2c-0.1,0-0.2,0-0.5-0.1c-0.2,0-0.4,0-0.6,0c-0.4,0-0.7,0.1-0.8,0.4
			c-0.1,0.2-0.2,0.6-0.2,1.1v0.6h0.6c0.9,0,1.3,0.3,1.3,0.8c0,0.4-0.1,0.6-0.4,0.7c-0.2,0.1-0.6,0.2-1,0.2h-0.6v6.1
			c0,0.5-0.1,0.8-0.3,1.1c-0.2,0.2-0.5,0.4-0.8,0.4s-0.6-0.1-0.8-0.4c-0.2-0.2-0.3-0.6-0.3-1.1v-6.1h-0.6c-0.3,0-0.6-0.1-0.8-0.2
			c-0.2-0.2-0.3-0.4-0.3-0.6C691.8,739,692.1,738.7,692.9,738.7z"/>
		<path class="st19" d="M701.2,744.6v1.9c0,0.5-0.1,0.8-0.3,1.1c-0.2,0.2-0.5,0.4-0.8,0.4s-0.6-0.1-0.8-0.4
			c-0.2-0.2-0.3-0.6-0.3-1.1V740c0-1,0.4-1.6,1.1-1.6c0.4,0,0.7,0.1,0.8,0.4c0.2,0.2,0.3,0.6,0.3,1.1c0.3-0.5,0.6-0.8,0.9-1.1
			c0.3-0.2,0.7-0.4,1.2-0.4s1,0.1,1.4,0.4c0.5,0.2,0.7,0.6,0.7,1c0,0.3-0.1,0.5-0.3,0.7s-0.4,0.3-0.6,0.3c-0.1,0-0.3-0.1-0.6-0.2
			c-0.3-0.1-0.6-0.2-0.9-0.2c-0.3,0-0.6,0.1-0.8,0.3s-0.4,0.4-0.5,0.8c-0.1,0.4-0.2,0.8-0.2,1.3
			C701.2,743.3,701.2,743.9,701.2,744.6z"/>
		<path class="st19" d="M710.2,742.5h2.1c-0.1-0.8-0.3-1.4-0.6-1.8c-0.4-0.4-0.9-0.6-1.5-0.6v-1.6h0.1c0.9,0,1.7,0.2,2.3,0.6
			c0.7,0.4,1.1,0.9,1.5,1.5c0.3,0.6,0.5,1.2,0.5,1.9c0,0.6-0.2,1-0.5,1.1c-0.3,0.2-0.8,0.3-1.4,0.3h-2.4L710.2,742.5L710.2,742.5z
			 M710.2,747.9v-1.5c0.1,0,0.1,0,0.2,0c0.3,0,0.5,0,0.8-0.1c0.2-0.1,0.5-0.2,0.7-0.3s0.4-0.3,0.6-0.4c0.2-0.2,0.4-0.4,0.7-0.6
			c0.1-0.1,0.3-0.2,0.5-0.2s0.4,0.1,0.6,0.2c0.1,0.1,0.2,0.3,0.2,0.6c0,0.2-0.1,0.5-0.2,0.7c-0.2,0.3-0.4,0.6-0.7,0.8
			c-0.3,0.3-0.8,0.5-1.3,0.6c-0.5,0.2-1.1,0.3-1.7,0.3C710.3,747.9,710.2,747.9,710.2,747.9z M708.1,742.5h2.1v1.3h-2.1
			c0,0.5,0.1,1,0.3,1.4s0.5,0.7,0.8,0.9s0.6,0.3,1,0.3v1.5c-1.4,0-2.5-0.5-3.2-1.3c-0.8-0.8-1.2-2-1.2-3.5c0-0.7,0.1-1.3,0.3-1.9
			c0.2-0.6,0.5-1.1,0.9-1.5s0.9-0.7,1.4-1c0.5-0.2,1.2-0.3,1.8-0.3v1.6l0,0c-0.6,0-1.1,0.2-1.4,0.6
			C708.4,741.1,708.1,741.7,708.1,742.5z"/>
		<path class="st19" d="M720.5,742.5h2.1c-0.1-0.8-0.3-1.4-0.6-1.8c-0.4-0.4-0.9-0.6-1.5-0.6v-1.6h0.1c0.9,0,1.7,0.2,2.3,0.6
			c0.6,0.4,1.1,0.9,1.5,1.5c0.3,0.6,0.5,1.2,0.5,1.9c0,0.6-0.2,1-0.5,1.1c-0.3,0.2-0.8,0.3-1.4,0.3h-2.4L720.5,742.5L720.5,742.5z
			 M720.5,747.9v-1.5c0.1,0,0.1,0,0.2,0c0.3,0,0.5,0,0.8-0.1c0.2-0.1,0.5-0.2,0.7-0.3s0.4-0.3,0.6-0.4c0.2-0.2,0.4-0.4,0.7-0.6
			c0.1-0.1,0.3-0.2,0.5-0.2s0.4,0.1,0.6,0.2c0.1,0.1,0.2,0.3,0.2,0.6c0,0.2-0.1,0.5-0.2,0.7c-0.2,0.3-0.4,0.6-0.7,0.8
			c-0.3,0.3-0.7,0.5-1.2,0.6c-0.5,0.2-1.1,0.3-1.7,0.3C720.7,747.9,720.6,747.9,720.5,747.9z M718.4,742.5h2.1v1.3h-2.1
			c0,0.5,0.1,1,0.3,1.4s0.5,0.7,0.8,0.9s0.6,0.3,1,0.3v1.5c-1.4,0-2.5-0.5-3.2-1.3c-0.8-0.8-1.2-2-1.2-3.5c0-0.7,0.1-1.3,0.3-1.9
			c0.2-0.6,0.5-1.1,0.9-1.5s0.9-0.7,1.4-1c0.6-0.2,1.2-0.3,1.8-0.3v1.6l0,0c-0.6,0-1.1,0.2-1.4,0.6
			C718.7,741.1,718.5,741.7,718.4,742.5z"/>
		<path class="st19" d="M733.3,743.2c0-0.6-0.1-1.1-0.3-1.6c-0.2-0.4-0.4-0.8-0.8-1c-0.3-0.2-0.7-0.4-1.1-0.4H731v-1.7
			c0.2,0,0.4-0.1,0.6-0.1c0.7,0,1.4,0.2,2,0.6c0.6,0.4,1.1,0.9,1.4,1.6c0.3,0.7,0.5,1.5,0.5,2.5c0,0.7-0.1,1.4-0.3,2
			s-0.5,1.1-0.8,1.5c-0.4,0.4-0.8,0.7-1.2,0.9c-0.5,0.2-1,0.3-1.5,0.3c-0.2,0-0.4,0-0.6,0v-1.7h0.1c0.4,0,0.7-0.1,1.1-0.3
			c0.3-0.2,0.6-0.6,0.8-1C733.2,744.3,733.3,743.8,733.3,743.2z M731.1,740.2c-0.6,0-1.1,0.3-1.6,0.8c-0.4,0.5-0.7,1.2-0.7,2.2
			c0,0.9,0.2,1.6,0.7,2.2c0.4,0.5,0.9,0.8,1.6,0.8v1.7c-0.4-0.1-0.7-0.2-1-0.4c-0.5-0.3-0.9-0.7-1.3-1.2v3.5c0,1-0.4,1.5-1.1,1.5
			c-0.4,0-0.7-0.1-0.9-0.4c-0.1-0.3-0.2-0.7-0.2-1.2v-10c0-0.4,0.1-0.8,0.3-1s0.5-0.3,0.8-0.3s0.6,0.1,0.8,0.3s0.3,0.5,0.3,1v0.3
			c0.4-0.5,0.9-0.9,1.4-1.2c0.3-0.2,0.6-0.3,1-0.3L731.1,740.2L731.1,740.2z"/>
		<path class="st19" d="M739.8,739.8v6.7c0,0.5-0.1,0.8-0.3,1.1c-0.2,0.2-0.5,0.4-0.8,0.4s-0.6-0.1-0.8-0.4c-0.2-0.2-0.3-0.6-0.3-1
			V740c0-0.5,0.1-0.8,0.3-1s0.5-0.4,0.8-0.4s0.6,0.1,0.8,0.4C739.7,739.1,739.8,739.4,739.8,739.8L739.8,739.8z M738.7,737.4
			c-0.3,0-0.6-0.1-0.8-0.3s-0.3-0.5-0.3-0.8s0.1-0.6,0.4-0.8c0.2-0.2,0.5-0.3,0.8-0.3s0.6,0.1,0.8,0.3s0.3,0.5,0.3,0.8
			c0,0.4-0.1,0.6-0.3,0.8C739.2,737.3,739,737.4,738.7,737.4z"/>
		<path class="st19" d="M748,746.9l-2.1-3.4l-1.3,1.2v1.8c0,0.4-0.1,0.8-0.3,1s-0.5,0.4-0.8,0.4c-0.4,0-0.6-0.1-0.8-0.4
			c-0.2-0.2-0.3-0.6-0.3-1.1v-9.9c0-0.5,0.1-0.9,0.3-1.2s0.5-0.4,0.9-0.4s0.6,0.1,0.8,0.4c0.2,0.2,0.3,0.6,0.3,1.1v5.6l2.6-2.7
			c0.3-0.3,0.6-0.6,0.7-0.7c0.2-0.1,0.4-0.2,0.6-0.2c0.3,0,0.5,0.1,0.7,0.3s0.3,0.4,0.3,0.7s-0.3,0.8-0.9,1.4l-1.2,1.1l2.4,3.7
			c0.2,0.3,0.3,0.5,0.4,0.6c0.1,0.1,0.1,0.3,0.1,0.4c0,0.4-0.1,0.7-0.3,0.9s-0.5,0.3-0.8,0.3s-0.5-0.1-0.7-0.2
			C748.5,747.5,748.2,747.3,748,746.9z"/>
		<path class="st19" d="M753.7,747.9c-0.3,0-0.7-0.1-0.9-0.3c-0.3-0.2-0.4-0.5-0.4-1c0-0.3,0.1-0.6,0.4-0.9c0.2-0.2,0.5-0.4,0.9-0.4
			s0.7,0.1,0.9,0.4c0.3,0.2,0.4,0.5,0.4,0.9s-0.1,0.7-0.4,1C754.4,747.8,754.1,747.9,753.7,747.9z"/>
		<path class="st19" d="M766,745c0,0.3-0.1,0.6-0.3,0.9c-0.2,0.3-0.4,0.6-0.8,0.9c-0.4,0.3-0.8,0.5-1.3,0.7s-1.2,0.3-1.8,0.3
			c-1.4,0-2.6-0.4-3.4-1.3c-0.8-0.8-1.2-2-1.2-3.4c0-1,0.2-1.8,0.6-2.5c0.4-0.7,0.9-1.3,1.6-1.7c0.7-0.4,1.5-0.6,2.5-0.6
			c0.6,0,1.2,0.1,1.7,0.3s0.9,0.4,1.3,0.7c0.3,0.3,0.6,0.6,0.8,0.9c0.2,0.3,0.3,0.6,0.3,0.9c0,0.3-0.1,0.5-0.3,0.7s-0.5,0.3-0.8,0.3
			c-0.2,0-0.4,0-0.5-0.1s-0.3-0.3-0.4-0.5c-0.3-0.4-0.6-0.8-0.9-1c-0.3-0.2-0.7-0.3-1.2-0.3c-0.7,0-1.2,0.3-1.7,0.8
			c-0.4,0.5-0.6,1.3-0.6,2.2c0,0.4,0.1,0.8,0.2,1.2c0.1,0.4,0.3,0.7,0.5,0.9c0.2,0.3,0.5,0.5,0.7,0.6c0.3,0.1,0.6,0.2,1,0.2
			c0.5,0,0.9-0.1,1.2-0.3s0.6-0.5,0.9-1c0.1-0.3,0.3-0.5,0.5-0.6s0.4-0.2,0.6-0.2c0.3,0,0.5,0.1,0.7,0.3
			C765.9,744.6,766,744.8,766,745z"/>
		<path class="st19" d="M774.4,743.2c0-0.9-0.2-1.7-0.6-2.2c-0.4-0.5-1-0.8-1.7-0.8v-1.7c0.7,0,1.3,0.1,1.9,0.3
			c0.6,0.2,1.1,0.5,1.5,1c0.4,0.4,0.7,0.9,0.9,1.5s0.3,1.2,0.3,1.9s-0.1,1.3-0.3,1.9c-0.2,0.6-0.5,1.1-0.9,1.5s-0.9,0.7-1.5,1
			c-0.6,0.2-1.2,0.3-1.9,0.3v-1.7c0.7,0,1.3-0.3,1.7-0.8C774.2,744.9,774.4,744.1,774.4,743.2z M772.1,740.2L772.1,740.2
			c-0.5,0-0.9,0.1-1.2,0.4c-0.3,0.2-0.6,0.6-0.8,1c-0.2,0.5-0.3,1-0.3,1.6s0.1,1.1,0.3,1.6s0.4,0.8,0.8,1c0.3,0.2,0.7,0.4,1.2,0.4
			l0,0v1.7l0,0c-0.7,0-1.3-0.1-1.9-0.3c-0.6-0.2-1-0.5-1.5-1c-0.4-0.4-0.7-0.9-0.9-1.5s-0.3-1.2-0.3-1.9s0.1-1.3,0.3-1.9
			c0.2-0.6,0.5-1.1,0.9-1.5s0.9-0.7,1.5-1c0.6-0.2,1.2-0.3,1.9-0.3l0,0V740.2z"/>
		<path class="st19" d="M786.2,743.4v3.1c0,0.5-0.1,0.9-0.3,1.1c-0.2,0.2-0.5,0.4-0.9,0.4c-0.3,0-0.6-0.1-0.9-0.4
			c-0.2-0.2-0.3-0.6-0.3-1.1v-3.7c0-0.6,0-1-0.1-1.4c0-0.3-0.1-0.6-0.3-0.8s-0.5-0.3-0.8-0.3c-0.8,0-1.3,0.3-1.5,0.8
			s-0.4,1.3-0.4,2.2v3.1c0,0.5-0.1,0.8-0.3,1.1c-0.2,0.2-0.5,0.4-0.9,0.4c-0.3,0-0.6-0.1-0.9-0.4c-0.2-0.2-0.3-0.6-0.3-1.1v-6.6
			c0-0.4,0.1-0.8,0.3-1s0.5-0.3,0.8-0.3s0.6,0.1,0.8,0.3s0.3,0.5,0.3,0.9v0.2c0.4-0.5,0.8-0.8,1.3-1.1c0.5-0.2,1-0.3,1.5-0.3
			c0.6,0,1.1,0.1,1.5,0.3s0.8,0.6,1,1.1c0.4-0.5,0.8-0.8,1.3-1.1c0.4-0.2,0.9-0.3,1.5-0.3s1.2,0.1,1.6,0.4c0.5,0.3,0.8,0.6,1,1.1
			c0.2,0.4,0.3,1.1,0.3,2v4.5c0,0.5-0.1,0.9-0.3,1.1c-0.2,0.2-0.5,0.4-0.9,0.4c-0.3,0-0.6-0.1-0.9-0.4c-0.2-0.2-0.3-0.6-0.3-1.1
			v-3.9c0-0.5,0-0.9-0.1-1.2c0-0.3-0.2-0.6-0.3-0.8c-0.2-0.2-0.5-0.3-0.9-0.3c-0.3,0-0.6,0.1-0.9,0.3c-0.3,0.2-0.5,0.4-0.6,0.7
			C786.3,741.7,786.2,742.4,786.2,743.4z"/>
		<path class="st19" d="M674.6,732.5c0-0.2-0.1-0.3-0.1-0.4c0.8-0.1,1.3-1,0.9-1.7c-0.2-0.4-0.6-0.6-1-0.6h-0.1
			c-0.4,0-0.7,0.2-0.9,0.5c-0.5,0.6-0.1,1.6,0.7,1.8c0,0.2,0.1,0.3,0.1,0.5c-1.2,0.1-2.4,0.3-3.3,1c0.1,0.3,0.2,0.6,0.3,0.9
			c2-0.9,4.2-0.7,6.3-0.5c0.1-0.3,0.1-0.6,0.2-0.8C676.7,732.6,675.6,732.5,674.6,732.5z"/>
		<path class="st19" d="M686.4,735.7c-0.3,0.2-0.4,0.5-0.4,0.9c-0.3,0.3-0.2,0.8-0.2,1.3c-0.1,0.2-0.4,0.3-0.6,0.4
			c-0.3-0.4-0.6-0.8-0.9-1.2l0,0c-0.4-0.4-0.8-0.7-1.3-1c-0.4,0.4-0.8,0.8-1.1,1.2c0.7,0.8,1.3,1.6,1.9,2.5c0.4,0.7,0.7,1.4,1,2.1
			c0.6-0.3,1.2-0.6,1.8-0.9c-0.3-0.7-0.7-1.4-1-2.1c0.3-0.1,0.6-0.3,0.7-0.6c0-0.4-0.1-0.8,0.2-1.1c0.5,0.3,1.1,0,1.2-0.6
			C687.6,735.8,686.9,735.4,686.4,735.7z"/>
		<path class="st19" d="M681.8,740.5c-0.1,1-1.1,1.8-2,1.7v3.8c1.8-0.5,3.5-1.2,5.1-2.1c0,0-0.3-1.9-1.7-3.9
			c-0.8-1.3-1.6-2.5-2.7-3.5c-0.2-0.2-0.5-0.4-0.7-0.6v2.2c0.2,0,0.5,0.1,0.7,0.1C681.4,738.5,682,739.5,681.8,740.5z M679.8,742.2
			L679.8,742.2c-0.6,0-1.1-0.2-1.5-0.6c-0.3-0.3-0.5-0.7-0.5-1.2c-0.1-1,0.6-2,1.5-2.2c0.2-0.1,0.4-0.1,0.5-0.1v-2.2
			c-1.2-0.8-2.6-1.3-4-1.3c-1.8,0-3.6,0.2-5.3,0.8v2.1c0.3,0,0.6,0,0.9,0.1c0.3,0.1,0.7,0.2,0.9,0.4c0.6,0.4,1.1,1.1,1.3,1.8
			c0.3,0.9,0.1,1.9-0.4,2.7c-0.4,0.6-0.9,1-1.6,1.2c-0.4,0.1-0.7,0.2-1.1,0.2v2.8h0.1c2.1,0.1,4.2,0.1,6.2-0.2c1-0.1,2-0.3,3-0.6
			L679.8,742.2L679.8,742.2z M670.5,735.3v2.1c-0.5,0-1.1,0.1-1.5,0.4c-1,0.5-1.7,1.6-1.7,2.7c-0.1,0.9,0.3,1.8,0.9,2.4
			c0.6,0.7,1.5,1,2.4,1v2.8c-2.1-0.1-4.1-0.6-6.1-1.1c-0.4-1.9-0.4-3.9,0.4-5.6c0.8-2,2.5-3.5,4.5-4.3
			C669.6,735.6,670,735.4,670.5,735.3z"/>
		<path class="st19" d="M664.8,737.1c-0.8,0.5-1.5,1.2-2.1,2c-0.2-0.3-0.2-0.7-0.4-1c-0.1-0.2-0.3-0.1-0.5-0.1s-0.4,0-0.6-0.1
			c0.2-0.3,0.2-0.9-0.2-1.1c-0.4-0.3-1,0-1.1,0.4c-0.2,0.5,0.4,1,0.9,0.9c0.3,0.4,0.8,0.3,1.2,0.3c0.2,0.3,0.3,0.7,0.6,1
			c-0.4,0.9-0.7,1.9-0.7,2.8c0.6,0.2,1.1,0.5,1.7,0.7c0-0.6,0.1-1.2,0.2-1.8c0.2-1.3,1-2.5,1.9-3.4
			C665.3,737.5,665,737.3,664.8,737.1z"/>
		<path class="st19" d="M678.1,747.2c-2.1,0.5-4.3,0.6-6.4,0.5c-1.5-0.1-2.9-0.2-4.3-0.5c-1-0.2-2-0.5-3-0.8
			c0.2,1.3,0.7,2.5,1.4,3.5c0.9,1.2,2,2.3,3.5,2.8c1,0.3,2.3,0.6,4.3,0.6h0.2h0.2c1.9,0,3.8-0.3,5.4-1c1.1-0.5,2.1-1.1,3-1.9
			c0.7-0.7,1.3-1.6,1.7-2.5s0.7-2.5,0.7-3.3C682.8,745.8,680.5,746.8,678.1,747.2z"/>
	</g>
</g>
</svg>
