<svg xmlns="http://www.w3.org/2000/svg" xmlns:xlink="http://www.w3.org/1999/xlink" id="HJXe644piRf" x="0" y="0" enable-background="new 0 0 512 512" version="1.1" viewBox="0 0 512 512" xml:space="preserve"><style>@-webkit-keyframes SJf-pENao0f_HJmMRZaAM_Animation{0%{-webkit-transform:scale(.9,.9);transform:scale(.9,.9)}50%{-webkit-transform:scale(.95,.95);transform:scale(.95,.95)}to{-webkit-transform:scale(1,1);transform:scale(1,1)}}@keyframes SJf-pENao0f_HJmMRZaAM_Animation{0%{-webkit-transform:scale(.9,.9);transform:scale(.9,.9)}50%{-webkit-transform:scale(.95,.95);transform:scale(.95,.95)}to{-webkit-transform:scale(1,1);transform:scale(1,1)}}@-webkit-keyframes rkybT4E6oCz_ryA-0WaRM_Animation{0%{-webkit-transform:scale(.9,.9);transform:scale(.9,.9)}50%{-webkit-transform:scale(.95,.95);transform:scale(.95,.95)}to{-webkit-transform:scale(1,1);transform:scale(1,1)}}@keyframes rkybT4E6oCz_ryA-0WaRM_Animation{0%{-webkit-transform:scale(.9,.9);transform:scale(.9,.9)}50%{-webkit-transform:scale(.95,.95);transform:scale(.95,.95)}to{-webkit-transform:scale(1,1);transform:scale(1,1)}}@-webkit-keyframes rk0l6VEpjCz_rJf-RWaAM_Animation{0%{-webkit-transform:scale(.9,.9);transform:scale(.9,.9)}50%{-webkit-transform:scale(.95,.95);transform:scale(.95,.95)}to{-webkit-transform:scale(1,1);transform:scale(1,1)}}@keyframes rk0l6VEpjCz_rJf-RWaAM_Animation{0%{-webkit-transform:scale(.9,.9);transform:scale(.9,.9)}50%{-webkit-transform:scale(.95,.95);transform:scale(.95,.95)}to{-webkit-transform:scale(1,1);transform:scale(1,1)}}#HJXe644piRf *{-webkit-animation-duration:2s;animation-duration:2s;-webkit-animation-iteration-count:infinite;animation-iteration-count:infinite;-webkit-animation-timing-function:cubic-bezier(0,0,1,1);animation-timing-function:cubic-bezier(0,0,1,1)}#r1El6VNasRf{fill:#ff4719}#BkSg6VNaiRf{fill:#b7d9dd}#ry8xT4NpiAG{fill:#88acb5}#rJwl6NV6j0f{fill:#c7e7eb}#S1_xaNEpiRG{fill:#b7d9dd}#HkKlTNV6oCG{fill:#ffbe35}#rJclpV4aoRG{fill:#ffcd60}#SkieTEV6jCz{fill:#f3a933}#Hy3xaE4aoCf{fill:#ffcd60}#ryaxaEN6s0M{fill:#ffbe35}#rk0l6VEpjCz{fill:#27467a;-webkit-transform-origin:50% 50%;transform-origin:50% 50%;transform-box:fill-box}#rkybT4E6oCz{fill:#88acb5}#SJf-pENao0f,#SJf-pENao0f_HJmMRZaAM,#rk0l6VEpjCz_rJf-RWaAM,#rkybT4E6oCz,#rkybT4E6oCz_ryA-0WaRM{-webkit-transform-origin:50% 50%;transform-origin:50% 50%;transform-box:fill-box}#SJf-pENao0f_HJmMRZaAM,#rk0l6VEpjCz_rJf-RWaAM,#rkybT4E6oCz_ryA-0WaRM{-webkit-transform:scale(.9,.9);transform:scale(.9,.9);-webkit-animation-timing-function:cubic-bezier(.42,0,1,1);animation-timing-function:cubic-bezier(.42,0,1,1)}#rk0l6VEpjCz_rJf-RWaAM,#rkybT4E6oCz_ryA-0WaRM{-webkit-animation-name:rk0l6VEpjCz_rJf-RWaAM_Animation;animation-name:rk0l6VEpjCz_rJf-RWaAM_Animation}#rkybT4E6oCz_ryA-0WaRM{-webkit-animation-name:rkybT4E6oCz_ryA-0WaRM_Animation;animation-name:rkybT4E6oCz_ryA-0WaRM_Animation}#SJf-pENao0f_HJmMRZaAM{-webkit-animation-name:SJf-pENao0f_HJmMRZaAM_Animation;animation-name:SJf-pENao0f_HJmMRZaAM_Animation}</style><path id="r1El6VNasRf" d="M500.442,155.572l-67.453,248.625H79.011L11.558,155.572c2.135-2.168,5.087-3.519,8.355-3.519	h472.173C495.355,152.053,498.307,153.404,500.442,155.572z"/><polygon id="BkSg6VNaiRf" points="435.08 8.17 435.08 176.455 374.795 260.575 402.399 8.17"/><polygon id="ry8xT4NpiAG" points="435.08 176.455 435.08 437.913 369.718 437.913 385.688 227.894"/><polygon id="rJwl6NV6j0f" points="76.92 8.17 76.92 176.455 256 395.656 402.399 210.497 402.399 8.17"/><polygon id="S1_xaNEpiRG" points="256 362.975 126.311 227.894 76.92 176.455 76.92 437.913 402.399 437.913 402.399 210.497"/><path id="HkKlTNV6oCG" d="M503.83,163.796v328.29c0,3.192-1.296,6.111-3.388,8.225l-51.875-9.554l21.787-303.845l30.088-31.341	C502.533,157.685,503.83,160.605,503.83,163.796z"/><polygon id="rJclpV4aoRG" points="470.354 186.913 470.354 490.757 334.946 327.941"/><path id="SkieTEV6jCz" d="M470.354,468.97l-11.743,34.86h33.476c3.268,0,6.22-1.351,8.355-3.519L470.354,468.97z"/><path id="Hy3xaE4aoCf" d="M177.054,327.941L11.558,155.572c-2.092,2.113-3.388,5.033-3.388,8.225v328.29	c0,3.192,1.296,6.111,3.388,8.225l72.867-8.726L177.054,327.941z"/><path id="ryaxaEN6s0M" d="M334.946,327.941l-63.858,66.506c-8.301,8.639-21.874,8.639-30.175,0l-63.858-66.506L11.558,500.311	c2.135,2.168,5.087,3.519,8.355,3.519H458.61c3.268,0,6.22-1.351,8.355-3.519c2.092-2.113,3.388-5.033,3.388-8.225V468.97	L334.946,327.941z"/><g id="rk0l6VEpjCz_rJf-RWaAM" data-animator-group="true" data-animator-type="2"><path id="rk0l6VEpjCz" d="M352.517,140.506c0-9.586-7.767-17.364-17.354-17.364h-21.33l0,0l-38.847,0.011	c11.754-18.04,17.571-41.243,17.571-64.948c0-9.586-7.767-17.354-17.354-17.354c-9.586,0-17.354,7.767-17.354,17.354	c0,35.873-29.075,64.937-64.948,64.937l-21.787,69.425l21.787,69.425h120.93l0,0c9.586,0,17.364-7.767,17.364-17.354	s-7.778-17.354-17.364-17.354l0,0h7.114c9.586,0,17.354-7.778,17.354-17.364c0-9.575-7.767-17.354-17.354-17.354h7.114	c9.575,0,17.354-7.767,17.354-17.354c0-9.586-7.778-17.354-17.354-17.354h7.103C344.75,157.859,352.517,150.092,352.517,140.506z"/></g><g id="rkybT4E6oCz_ryA-0WaRM" data-animator-group="true" data-animator-type="2"><rect id="rkybT4E6oCz" width="33.422" height="138.839" x="159.483" y="123.152"/></g><path id="rygZa4NpoRz" d="M506.678,150.293C506.678,150.292,506.678,150.292,506.678,150.293c-3.641-3.931-8.827-6.41-14.595-6.41h-48.828V8.17	c0-4.513-3.657-8.17-8.17-8.17H76.914c-4.513,0-8.17,3.657-8.17,8.17v135.712H19.916c-5.767,0-10.954,2.479-14.594,6.41	c0,0,0,0-0.001,0.001C2.029,153.846,0,158.584,0,163.798v328.287C0,503.066,8.934,512,19.916,512h472.169	c10.982,0,19.916-8.934,19.916-19.916V163.798C512,158.584,509.97,153.846,506.678,150.293z M76.914,184.634	c4.513,0,8.17-3.657,8.17-8.17V16.34h341.83v160.123c0,4.513,3.658,8.17,8.17,8.17c4.513,0,8.17-3.657,8.17-8.17v-16.241h41.404	L265.195,388.786c-2.459,2.561-5.725,3.971-9.195,3.971s-6.738-1.411-9.195-3.971L27.341,160.222h41.403v16.241	C68.744,180.977,72.402,184.634,76.914,184.634z M492.084,495.66H19.916c-1.938,0-3.575-1.637-3.575-3.575V172.359l149.389,155.583	L34.281,464.84c-3.124,3.254-3.02,8.426,0.235,11.552c1.584,1.521,3.622,2.277,5.657,2.277c2.147,0,4.29-0.84,5.895-2.512	l130.988-136.42l57.962,60.365c5.569,5.8,13.021,8.995,20.983,8.995s15.413-3.195,20.983-8.995l57.962-60.365l51.233,53.357	c1.605,1.671,3.749,2.512,5.895,2.512c2.035,0,4.073-0.756,5.657-2.277c3.255-3.125,3.36-8.298,0.235-11.553l-51.693-53.836	L495.66,172.359v319.725C495.66,494.022,494.022,495.66,492.084,495.66z"/><path id="rk-ZTNVTj0z" d="M423.969,408.86c-3.125-3.256-8.297-3.359-11.552-0.235c-3.255,3.125-3.36,8.298-0.235,11.552l53.749,55.979	c1.605,1.671,3.747,2.512,5.895,2.512c2.035,0,4.073-0.756,5.657-2.277c3.255-3.125,3.36-8.298,0.235-11.552L423.969,408.86z"/><g id="SJf-pENao0f_HJmMRZaAM" data-animator-group="true" data-animator-type="2"><path id="SJf-pENao0f" d="M159.478,270.162h33.428h120.932c14.075,0,25.526-11.451,25.526-25.526c0-5.025-1.461-9.718-3.977-13.673	c6.692-4.607,11.086-12.32,11.086-21.039c0-5.025-1.46-9.717-3.977-13.671c6.692-4.607,11.086-12.32,11.086-21.039	c0-5.025-1.461-9.718-3.978-13.673c6.693-4.607,11.088-12.32,11.088-21.039c0-14.075-11.451-25.526-25.526-25.526l-46.344,0.001	c7.737-16.57,11.908-36.237,11.908-56.771c0-14.075-11.451-25.526-25.526-25.526s-25.526,11.451-25.526,25.526	c0,31.303-25.467,56.77-56.77,56.77H159.48c-4.513,0-8.17,3.657-8.17,8.17v138.845C151.308,266.505,154.966,270.162,159.478,270.162	z M266.018,58.207c0-5.064,4.12-9.185,9.186-9.185c5.064,0,9.185,4.12,9.185,9.185c0,22.918-5.77,44.398-16.247,60.482	c-1.636,2.512-1.766,5.718-0.338,8.353c1.429,2.635,4.185,4.277,7.183,4.277l60.177-0.001c5.064,0,9.186,4.12,9.186,9.186	c0,5.064-4.12,9.186-9.186,9.186h-7.108H313.84c-4.513,0-8.17,3.657-8.17,8.17s3.657,8.17,8.17,8.17h14.217	c5.064,0,9.185,4.121,9.185,9.187s-4.12,9.186-9.185,9.186h-7.108h-7.108c-4.513,0-8.17,3.657-8.17,8.17	c0,4.512,3.657,8.17,8.17,8.17h7.108c5.064,0,9.186,4.12,9.186,9.186c0,5.066-4.12,9.186-9.186,9.186h-7.108	c-4.513,0-8.17,3.657-8.17,8.17s3.657,8.17,8.17,8.17c5.064,0,9.185,4.121,9.185,9.187c0,5.064-4.12,9.186-9.185,9.186H201.078	V130.849C237.558,126.772,266.018,95.757,266.018,58.207z M167.648,131.317h17.088v122.504h-17.088V131.317z"/></g><script>(function(){var a=document.querySelector(&apos;#HJXe644piRf&apos;),b=a.querySelectorAll(&apos;style&apos;),c=function(d){b.forEach(function(f){var g=f.textContent;g&amp;&amp;(f.textContent=g.replace(/transform-box:[^;\r\n]*/gi,&apos;transform-box: &apos;+d))})};c(&apos;initial&apos;),window.requestAnimationFrame(function(){return c(&apos;fill-box&apos;)})})();</script></svg>