<?xml version="1.0"?>
<svg xmlns="http://www.w3.org/2000/svg" xmlns:xlink="http://www.w3.org/1999/xlink" version="1.1" id="Capa_1" x="0px" y="0px" width="512px" height="512px" viewBox="0 0 47.645 47.645" style="enable-background:new 0 0 47.645 47.645;" xml:space="preserve" class=""><g transform="matrix(0.9999 -2.44905e-16 2.44905e-16 0.9999 0.00238225 0.00238225)"><g>
	<g>
		<path d="M5.916,24.92c-4.92,1.332-2.838,10.115-2.838,13.941c0,2.398-0.358,5.057,0.274,7.389    c0.534,1.975,4.249,1.273,5.753,1.273c7.095,0,14.189,0,21.284,0c2.816,0,5.633,0,8.449,0c0.466,0,1.342-0.209,1.343-0.801    c0.003-2.07,0-4.143,0-6.213c0-2.703,0-5.406,0-8.109c0-1.656,0.855-6.238-1.187-7.193c-5.875-2.751-5.041,5.695-5.041,8.658    c0,0.857,0.666,8.361-0.882,8.361c-3.027,0-6.056,0-9.081,0c-3.599,0-7.197,0-10.796,0c-3.243,0-3.889-1.26-3.889-4.367    C9.306,35.422,11.244,23.479,5.916,24.92z M5.01,29.791c0-0.553,0.312-1.32,0.696-1.719c0.107-0.109,0.216-0.221,0.323-0.332    c0.385-0.396,0.923-0.639,1.128-0.443c0.134,0.129,0.217,0.277,0.217,0.447c0,0.648,0,1.297,0,1.945    c0,0.553-0.098,1.098-0.218,1.219s-0.12,0.129,0,0.018c0.12-0.113,0.218-0.113,0.218-0.004c0,0.066,0,0.135,0,0.201    c0,0.332,0,0.666,0,1c0,0.553-0.328,1.307-0.732,1.684c-0.3,0.277-0.6,0.559-0.9,0.84c-0.403,0.377-0.731,0.232-0.731-0.318    C5.01,32.816,5.01,31.305,5.01,29.791z M5.01,39.273c0-0.297,0-0.596,0-0.895c0-0.492,0.329-1.195,0.736-1.568    c0.298-0.273,0.595-0.545,0.892-0.818c0.407-0.373,0.736-0.227,0.736,0.324c0,0.156,0,0.311,0,0.465    c0,0.553-0.328,1.305-0.734,1.68c-0.305,0.283-0.609,0.564-0.914,0.848c-0.405,0.375-0.727,0.52-0.721,0.322    C5.008,39.51,5.01,39.391,5.01,39.273z M35.885,27.879c0-0.721,0.473-0.967,0.994-0.896c0.547,0.076,0.581,0.752,0.202,1.154    c-0.17,0.18-0.34,0.359-0.509,0.539c-0.379,0.4-0.688,0.387-0.688-0.033C35.885,28.389,35.885,28.135,35.885,27.879z     M36.589,29.301c0.263-0.266,0.523-0.529,0.783-0.791c0.389-0.393,0.778-0.59,0.829-0.424c0.029,0.1,0.048,0.201,0.048,0.312    c0,0.197,0,0.393,0,0.592c0,0.326-0.315,0.91-0.704,1.303c-0.32,0.322-0.639,0.643-0.955,0.961    c-0.39,0.395-0.705,0.273-0.705-0.266C35.885,30.447,36.2,29.691,36.589,29.301z M35.885,35.605c0-0.553,0.312-1.322,0.698-1.717    c0.32-0.33,0.644-0.662,0.969-0.998c0.386-0.396,0.697-0.549,0.697-0.344c0,0.123,0,0.248,0,0.371c0,1.027,0,2.055,0,3.078    c0,0.555-0.312,1.32-0.698,1.717c-0.311,0.318-0.622,0.639-0.933,0.955c-0.386,0.396-0.705,0.375-0.718-0.047    c-0.01-0.258-0.017-0.514-0.017-0.762C35.885,37.107,35.885,36.355,35.885,35.605z M19.269,43.312c3.599,0,7.197,0,10.796,0    c1.404,0,3.188,0.232,4.462-0.535c0.666-0.402,1.019-0.957,1.201-1.584c0.155-0.531,0.48-1.305,0.868-1.697l1.419-1.439    c0,0,0.053-0.051,0.116-0.113c0.065-0.064,0.117,0.334,0.117,0.885c0,0.734,0,1.469,0,2.201c0,0.174,0,0.348,0,0.52    c0,0.287-0.236,0.748-0.527,1.029s-0.291,0.51,0,0.51s0.527,0.447,0.527,1c0,0.451,0,0.902,0,1.354c0,0.553-0.448,1-1,1    c-9.511,0-19.021,0-28.532,0c-0.148,0-0.289-0.006-0.425-0.014c-0.234-0.016-0.391-0.07-0.349-0.111    c0.042-0.043,0.075-0.523,0.075-1.076v-0.305c0-0.553-0.33-0.697-0.737-0.324c-0.168,0.154-0.336,0.309-0.505,0.463    c-0.407,0.373-1.119,0.412-1.398-0.064c-0.497-0.852-0.537-1.996-0.485-3.205c0.024-0.553,0.37-1.316,0.758-1.709    c0.34-0.346,0.681-0.691,1.021-1.037c0.388-0.393,0.702-0.266,0.702,0.289c0,0.445,0,0.895,0,1.342    C7.374,45.01,16.831,43.312,19.269,43.312z" data-original="#000000" class="active-path" data-old_color="#f48024" fill="#f48024"/>
		<path d="M11.486,39.312c0.325,1.443,2.304,1.494,3.436,1.494c3.787,0,7.573,0,11.359,0c0.041,0,0.083-0.004,0.125-0.012    c0.066-0.01,0.18-0.021,0.254-0.023c0.042,0,0.085-0.004,0.132-0.012c1.329-0.242,3.878-1.77,2.566-3.514    c-1.005-1.334-2.224-1.34-3.75-1.34c-3.691,0-7.538-0.33-11.215,0C12.474,36.078,11.038,37.328,11.486,39.312z M15.757,37.223    c1.559,0,3.117,0,4.676,0c1.347,0,2.693,0,4.039,0c0.48,0,0.959,0,1.44,0c0.107,0,0.217,0,0.325,0    c0.606-0.012,0.796,0.432,0.568,1.32c-0.137,0.535-0.772,0.945-1.326,0.945c-2.783,0-5.568,0-8.354,0    c-0.553,0-0.969-0.029-0.93-0.066c0.04-0.035,0.072-0.449,0.072-0.926c0-0.475-0.328-0.555-0.732-0.18    c-0.169,0.156-0.337,0.312-0.506,0.471c-0.404,0.375-1.098,0.684-1.434,0.441c-0.336-0.24-0.012-0.941,0.392-1.318    c0.002-0.002,0.004-0.004,0.006-0.006c0.403-0.377,0.962-0.682,1.247-0.682C15.413,37.223,15.585,37.223,15.757,37.223z     M13.575,37.689c0.206-0.273,0.483-0.467,0.741-0.467c0.04,0,0.079,0,0.118,0c0.066,0-0.172,0.291-0.529,0.65    S13.274,38.086,13.575,37.689z" data-original="#000000" class="active-path" data-old_color="#f48024" fill="#f48024"/>
		<path d="M14.558,32.098c3.808,0.795,7.615,1.594,11.422,2.389c0.046,0.014,0.104,0.025,0.189,0.027    c3.697,0.1,5.471-3.594,1.198-4.486c-3.706-0.775-7.412-1.551-11.118-2.326C12.814,26.982,10.353,31.217,14.558,32.098z     M15.627,30.109c0.166-0.164,0.333-0.328,0.499-0.492c0.393-0.389,1.149-0.611,1.69-0.498c1.065,0.223,2.131,0.445,3.196,0.668    c1.463,0.307,2.925,0.611,4.387,0.918c0.391,0.082,0.78,0.164,1.172,0.246c0.237,0.049,1.833,1.58,1.712,2.34    c-0.088,0.545-1.251,0.326-1.792,0.213c-1.75-0.365-3.501-0.73-5.251-1.098c-0.548-0.115-1.304-0.199-2.124-0.314    c-0.547-0.076-0.961-0.182-0.927-0.217c0.034-0.035-0.171-0.111-0.458-0.172c-0.286-0.061-0.547-0.082-0.582-0.047    c-0.036,0.035-0.503-0.033-1.022-0.223c-0.117-0.043-0.231-0.088-0.343-0.137C15.279,31.078,15.234,30.496,15.627,30.109z     M14.53,28.539c0.548-0.066,0.692,0.383,0.322,0.766c-0.37,0.383-0.687,0.666-0.707,0.635c-0.013-0.02-0.024-0.039-0.034-0.061    C13.666,28.936,13.992,28.605,14.53,28.539z" data-original="#000000" class="active-path" data-old_color="#f48024" fill="#f48024"/>
		<path d="M19.849,12.811c-0.79,1.514,0.874,2.776,1.897,3.569c2.609,2.023,5.218,4.046,7.827,6.069    c0.437,0.338,0.821,0.646,0.869,0.683c0.046,0.036,0.14,0.1,0.211,0.133c0.071,0.033,0.535,0.264,1.074,0.386    c1.358,0.308,2.667-0.176,3.415-1.607c0.79-1.514-0.874-2.775-1.896-3.569c-2.928-2.27-5.857-4.54-8.784-6.811    C22.866,10.427,20.719,11.146,19.849,12.811z M22.667,13.641c0.348-0.349,0.647-0.62,0.667-0.606s-0.245,0.314-0.593,0.673    s-0.646,0.632-0.667,0.608C22.054,14.292,22.319,13.989,22.667,13.641z M23.609,14.336c-0.367,0.378-0.742,0.624-0.837,0.551    c-0.057-0.045-0.114-0.089-0.171-0.133c-0.083-0.064-0.165-0.128-0.248-0.192c-0.021-0.017-0.043-0.033-0.064-0.05    c-0.026-0.018-0.048-0.038-0.069-0.058c-0.036-0.033,0.22-0.353,0.569-0.712c0.35-0.359,0.827-0.532,1.064-0.379    C24.089,13.519,23.977,13.959,23.609,14.336z M27.853,16.581c1.116,0.865,2.233,1.732,3.351,2.598    c0.396,0.307,0.793,0.614,1.189,0.921c0.082,0.064,0.164,0.128,0.247,0.192c0.021,0.017,0.043,0.033,0.064,0.05    c0.482,0.352,0.524,0.731,0.126,1.14c-0.387,0.394-0.919,0.493-1.045,0.394c-0.127-0.099-0.018-0.375,0.246-0.619    c0.263-0.244,0.245-0.621-0.04-0.842S31.263,20.212,31,20.457c-0.264,0.244-0.729,0.245-1.042,0.003    c-0.312-0.242-0.472-0.525-0.356-0.635c0.116-0.108-0.047,0.073,0.247-0.188c0.293-0.261,0.412-0.564,0.271-0.675    c-0.143-0.109-0.465,0.003-0.728,0.248c-0.261,0.245-0.83,0.166-1.267-0.172c-0.328-0.255-0.657-0.509-0.985-0.764    c-0.056-0.043-0.11-0.086-0.166-0.129c-0.093-0.071,0.034-0.335,0.283-0.591c0.248-0.255,0.356-0.535,0.24-0.625    c-0.117-0.09-0.417,0.04-0.673,0.289s-0.819,0.176-1.256-0.163c-0.243-0.189-0.487-0.378-0.731-0.566    c-0.437-0.339-0.584-0.816-0.331-1.067c0.254-0.251,0.227-0.636-0.063-0.86c-0.289-0.225-0.44-0.515-0.336-0.649    c0.104-0.134,0.549,0.024,0.979,0.371C26.029,15.046,26.942,15.875,27.853,16.581z" data-original="#000000" class="active-path" data-old_color="#f48024" fill="#f48024"/>
		<path d="M34.255,18.296c1.188,1.133,3.171,1.146,4.438,0.057c1.532-1.319,0.229-2.86-0.696-4.008    c-2.271-2.815-4.542-5.63-6.814-8.445c-1.137-1.409-3-0.922-4.351-0.183c-1.73,0.947-0.477,2.82,0.355,3.851    c2.34,2.9,4.68,5.8,7.019,8.699C34.216,18.283,34.24,18.286,34.255,18.296z M36.747,17.217c0.32-0.298,0.772-0.09,0.647,0.447    c-0.052,0.226-0.162,0.394-0.338,0.451C36.533,18.287,36.427,17.516,36.747,17.217z M36.12,14.935    c0.108,0.135,0.219,0.271,0.328,0.406c0.03,0.039,0.062,0.078,0.094,0.117c0.053,0.065-0.193,0.385-0.55,0.716    c-0.357,0.33-0.835,0.363-1.069,0.073c-0.232-0.291-0.135-0.792,0.223-1.122C35.503,14.795,35.938,14.709,36.12,14.935z     M27.948,6.204c0.036-0.331,0.28-0.455,0.889-0.156c0.054,0.026,0.107,0.06,0.16,0.097c0.085,0.059-0.076,0.319-0.354,0.573    C28.367,6.971,27.887,6.751,27.948,6.204z M29.751,8.422c-0.345,0.354-0.766,0.453-0.912,0.205    c-0.146-0.249,0.015-0.733,0.343-1.071c0.329-0.338,0.734-0.429,0.898-0.196C30.244,7.593,30.096,8.069,29.751,8.422z     M30.362,10.592c-0.251-0.311-0.188-0.86,0.139-1.227c0.327-0.366,0.811-0.392,1.082-0.056c0.271,0.335,0.208,0.885-0.139,1.227    C31.096,10.877,30.613,10.903,30.362,10.592z M31.794,12.369c-0.162-0.201-0.325-0.403-0.488-0.606    c-0.269-0.334-0.205-0.88,0.145-1.219c0.349-0.34,0.89-0.295,1.208,0.1c0.317,0.394,0.292,0.986-0.061,1.323    c-0.352,0.336-0.675,0.562-0.721,0.505C31.85,12.438,31.822,12.403,31.794,12.369z M32.598,13.365    c-0.216-0.269-0.114-0.768,0.227-1.116c0.342-0.35,0.723-0.506,0.849-0.349c0.077,0.095,0.153,0.19,0.229,0.284    c0.055,0.067,0.108,0.136,0.164,0.203c0.091,0.112-0.113,0.485-0.456,0.833C33.268,13.568,32.813,13.633,32.598,13.365z     M33.624,14.638c-0.229-0.283-0.134-0.792,0.212-1.137c0.346-0.344,0.817-0.385,1.055-0.091s0.145,0.802-0.211,1.136    C34.326,14.878,33.854,14.919,33.624,14.638z" data-original="#000000" class="active-path" data-old_color="#f48024" fill="#f48024"/>
		<path d="M39.213,1.275c-0.78-1.52-2.903-1.57-4.214-0.734c-1.616,1.029-1.101,2.509-0.388,3.9    c1.552,3.023,3.104,6.047,4.654,9.071c0.252,0.491,0.722,1.264,1.166,1.59c1.004,0.732,2.312,0.795,3.504,0.034    c1.616-1.029,1.103-2.511,0.389-3.902C42.62,7.915,40.917,4.595,39.213,1.275z M36.875,4.572    c-0.054-0.104-0.107-0.209-0.161-0.314c-0.184-0.358-0.367-0.717-0.551-1.074c-0.041-0.08-0.082-0.16-0.14-0.271    c-0.391-0.65-0.304-1.027,0.262-1.134c0.543-0.101,1.271,0.371,1.559,0.842c0.016,0.024,0.029,0.049,0.044,0.073    c0.285,0.474,0.188,1.169-0.182,1.533S36.964,4.745,36.875,4.572z M37.488,5.764c-0.242-0.473-0.139-1.148,0.232-1.51    c0.371-0.361,0.875-0.265,1.108,0.227c0.231,0.491,0.117,1.173-0.246,1.517C38.221,6.34,37.729,6.235,37.488,5.764z M38.576,7.884    c-0.084-0.164-0.168-0.327-0.252-0.491c-0.141-0.272,0.031-0.781,0.384-1.14c0.351-0.358,0.758-0.375,0.909-0.038    c0.15,0.337,0.003,0.888-0.335,1.23c-0.338,0.343-0.633,0.58-0.659,0.529C38.608,7.945,38.592,7.915,38.576,7.884z M39.898,9.311    c-0.22,0.208-0.544,0.091-0.724-0.26c-0.181-0.351-0.053-0.908,0.284-1.245s0.674-0.475,0.754-0.311    c0.049,0.101,0.098,0.2,0.147,0.297c0.064,0.125,0.128,0.249,0.19,0.374c0.107,0.206,0.091,0.461-0.034,0.57    c-0.062,0.054-0.135,0.119-0.225,0.198C40.169,9.053,40.037,9.179,39.898,9.311z M40.175,11c-0.176-0.343-0.04-0.877,0.303-1.194    c0.345-0.316,0.765-0.297,0.94,0.045c0.175,0.342,0.039,0.876-0.303,1.194C40.771,11.362,40.351,11.343,40.175,11z M42.652,13.897    c-0.542,0.105-1.121-0.256-1.274-0.555c-0.153-0.299,0-0.8,0.343-1.118c0.342-0.318,0.716-0.388,0.836-0.154    c0.072,0.142,0.145,0.282,0.218,0.423c0.041,0.08,0.081,0.16,0.122,0.24C43.297,13.404,43.213,13.789,42.652,13.897z" data-original="#000000" class="active-path" data-old_color="#f48024" fill="#f48024"/>
		<path d="M15.113,20.577c-0.055,0.244-0.079,0.467-0.078,0.673c0.002,0.375,0.085,0.705,0.064,0.75s-0.002,0.099,0.044,0.121    c0.046,0.021,0.275,0.459,0.69,0.824c0.413,0.364,0.953,0.654,1.535,0.932c3.368,1.606,6.736,3.211,10.104,4.817    c0.039,0.018,0.086,0.031,0.137,0.039c1.231,0.338,3.801,0.273,4.177-1.381c0.418-1.844-0.796-2.604-2.256-3.299    c-3.368-1.607-6.736-3.212-10.104-4.817C18.257,18.679,15.476,18.976,15.113,20.577z M23.448,22.805    c1.274,0.608,2.551,1.216,3.826,1.823c0.421,0.2,0.841,0.401,1.261,0.603c0.118,0.057,0.235,0.111,0.354,0.168    c0.031,0.016,0.062,0.029,0.095,0.045c0.722,0.324,0.889,0.818,0.5,1.484c-0.278,0.477-0.848,0.674-1.122,0.547    c-0.274-0.125-0.377-0.34-0.228-0.482c0.15-0.143,0.237-0.273,0.194-0.295c-0.042-0.02-0.168,0.055-0.282,0.166    s-0.115,0.113-0.002,0c0.114-0.111,0.191-0.211,0.172-0.221c-0.019-0.008-0.155,0.102-0.303,0.246    c-0.148,0.145-0.678,0.08-1.186-0.139c-0.195-0.086-0.393-0.17-0.591-0.254c-0.508-0.217-0.777-0.521-0.602-0.684    c0.176-0.164,0.037-0.43-0.31-0.594c-0.346-0.166-0.777-0.158-0.965,0.018c-0.188,0.174-0.653,0.182-1.037,0.012    c-0.385-0.17-0.535-0.46-0.339-0.645c0.196-0.184,0.231-0.393,0.079-0.465c-0.152-0.073-0.432,0.021-0.624,0.209    c-0.191,0.188-0.755,0.154-1.251-0.09c-0.201-0.1-0.401-0.2-0.6-0.303c-0.49-0.253-0.741-0.616-0.568-0.794    c0.174-0.178,0.175-0.391,0.001-0.473c-0.174-0.083-0.453-0.017-0.624,0.147c-0.171,0.164-0.683,0.081-1.131-0.205    c-0.447-0.285-0.843-0.826-0.868-1.184c-0.025-0.358,0.136-0.788,0.31-0.96c0.173-0.171,0.333-0.302,0.357-0.294    c0.014,0.005,0.027,0.01,0.043,0.018c0.118,0.056,0.236,0.112,0.354,0.168c0.42,0.201,0.841,0.401,1.261,0.602    C20.898,21.588,22.173,22.197,23.448,22.805z" data-original="#000000" class="active-path" data-old_color="#f48024" fill="#f48024"/>
		<path d="M28.706,17.869c-0.014-0.012-0.216,0.174-0.451,0.413c-0.236,0.239-0.225,0.248,0.025,0.02    C28.53,18.073,28.72,17.878,28.706,17.869z" data-original="#000000" class="active-path" data-old_color="#f48024" fill="#f48024"/>
	</g>
</g></g> </svg>
