<?xml version="1.0" encoding="iso-8859-1"?>
<!-- Generator: Adobe Illustrator 19.0.0, SVG Export Plug-In . SVG Version: 6.00 Build 0)  -->
<svg version="1.1" id="Layer_1" xmlns="http://www.w3.org/2000/svg" xmlns:xlink="http://www.w3.org/1999/xlink" x="0px" y="0px"
	 viewBox="0 0 512 512" style="enable-background:new 0 0 512 512;" xml:space="preserve">
<g>
	<g>
		<path d="M368.1,0H143.9c-21.023,0-38.128,17.105-38.128,38.128v55.647v324.45v55.646c0,21.023,17.105,38.128,38.128,38.128H368.1
			c21.023,0,38.128-17.105,38.128-38.128v-55.646V93.775V38.128C406.228,17.105,389.123,0,368.1,0z M375.81,473.872
			c0,4.251-3.459,7.711-7.711,7.711H143.9c-4.251,0-7.711-3.459-7.711-7.711v-55.646H375.81V473.872z M375.81,387.809H136.19
			V124.193H375.81V387.809z M375.81,93.775H136.19V38.128c0-4.251,3.459-7.711,7.711-7.711H368.1c4.251,0,7.711,3.459,7.711,7.711
			V93.775z"/>
	</g>
</g>
<g>
	<g>
		<rect x="191.841" y="46.883" width="69.781" height="30.417"/>
	</g>
</g>
<g>
	<g>
		<rect x="232.347" y="434.693" width="47.316" height="30.417"/>
	</g>
</g>
<g>
	<g>
		<rect x="292.035" y="46.883" width="28.119" height="30.417"/>
	</g>
</g>
<g>
	<g>
		<polygon points="256,147.256 168.816,234.44 190.324,255.948 240.791,205.481 240.791,343.236 271.209,343.236 271.209,205.481 
			321.675,255.948 343.183,234.44 		"/>
	</g>
</g>
<g>
</g>
<g>
</g>
<g>
</g>
<g>
</g>
<g>
</g>
<g>
</g>
<g>
</g>
<g>
</g>
<g>
</g>
<g>
</g>
<g>
</g>
<g>
</g>
<g>
</g>
<g>
</g>
<g>
</g>
</svg>
