<svg width="512" height="512" xmlns="http://www.w3.org/2000/svg">

 <g>
  <title>background</title>
  <rect fill="none" id="canvas_background" height="402" width="582" y="-1" x="-1"/>
 </g>
 <g>
  <title>Layer 1</title>
  <path fill="#306998" id="path1948_1_" d="m252.310683,0.287683c-20.678,0.098 -40.426,1.859 -57.803,4.935c-51.187,9.044 -60.48,27.97 -60.48,62.877l0,46.103l120.963,0l0,15.366l-120.964,0l-45.396,0c-35.155,0 -65.937,21.13 -75.563,61.325c-11.107,46.075 -11.603,74.83 0,122.939c8.599,35.808 29.13,61.324 64.286,61.324l41.589,0l0,-55.269c0,-39.921 34.544,-75.143 75.564,-75.143l120.822,0c33.632,0 60.479,-27.689 60.479,-61.466l0,-115.18c0,-32.776 -27.653,-57.406 -60.479,-62.877c-20.779,-3.46 -42.341,-5.033 -63.018,-4.934zm-65.415,37.077c12.494,0 22.699,10.37 22.699,23.12c0,12.705 -10.205,22.982 -22.699,22.982c-12.542,0 -22.699,-10.277 -22.699,-22.982c0,-12.75 10.157,-23.12 22.699,-23.12z"/>
  <path fill="#ffd43b" id="path1950_1_" d="m392.387,131.062l0,53.712c0,41.648 -35.303,76.692 -75.562,76.692l-120.823,0c-33.094,0 -60.48,28.327 -60.48,61.469l0,115.186c0,32.777 28.503,52.063 60.48,61.463c38.291,11.259 75.004,13.3 120.822,0c30.451,-8.812 60.479,-26.561 60.479,-61.463l0,-46.105l-120.818,0l0,-15.364l120.817,0l60.479,0c35.157,0 48.26,-24.519 60.482,-61.324c12.629,-37.895 12.093,-74.335 0,-122.939c-8.687,-34.993 -25.281,-61.325 -60.482,-61.325l-45.394,0l0,-0.002zm-67.949,291.688c12.539,0 22.698,10.269 22.698,22.975c0,12.749 -10.159,23.124 -22.698,23.124c-12.493,0 -22.696,-10.375 -22.696,-23.124c-0.001,-12.706 10.202,-22.975 22.696,-22.975z"/>
 </g>
</svg>