<svg version="1.1" id="SkVcfCoCG" xmlns="http://www.w3.org/2000/svg" xmlns:xlink="http://www.w3.org/1999/xlink" x="0px" y="0px" viewBox="0 0 500 500" style="enable-background:new 0 0 500 500;" xml:space="preserve"><style>@-webkit-keyframes Bknb4czCoRf_S1Uvh6AAG_Animation{0%{-webkit-transform: translate(0px, 0px);transform: translate(0px, 0px);}25%{-webkit-transform: translate(5px, 0px);transform: translate(5px, 0px);}50%{-webkit-transform: translate(3px, 0px);transform: translate(3px, 0px);}75%{-webkit-transform: translate(1px, 0px);transform: translate(1px, 0px);}100%{-webkit-transform: translate(0px, 0px);transform: translate(0px, 0px);}}@keyframes Bknb4czCoRf_S1Uvh6AAG_Animation{0%{-webkit-transform: translate(0px, 0px);transform: translate(0px, 0px);}25%{-webkit-transform: translate(5px, 0px);transform: translate(5px, 0px);}50%{-webkit-transform: translate(3px, 0px);transform: translate(3px, 0px);}75%{-webkit-transform: translate(1px, 0px);transform: translate(1px, 0px);}100%{-webkit-transform: translate(0px, 0px);transform: translate(0px, 0px);}}@-webkit-keyframes HJXmN9zCi0z_HJbkxk3AG_Animation{0%{-webkit-transform: rotate(405deg);transform: rotate(405deg);}50%{-webkit-transform: rotate(0deg);transform: rotate(0deg);}100%{-webkit-transform: rotate(405deg);transform: rotate(405deg);}}@keyframes HJXmN9zCi0z_HJbkxk3AG_Animation{0%{-webkit-transform: rotate(405deg);transform: rotate(405deg);}50%{-webkit-transform: rotate(0deg);transform: rotate(0deg);}100%{-webkit-transform: rotate(405deg);transform: rotate(405deg);}}@-webkit-keyframes H13zV9zCiRz_HJyn0CsCz_Animation{0%{-webkit-transform: rotate(0deg);transform: rotate(0deg);}50%{-webkit-transform: rotate(405deg);transform: rotate(405deg);}100%{-webkit-transform: rotate(45deg);transform: rotate(45deg);}}@keyframes H13zV9zCiRz_HJyn0CsCz_Animation{0%{-webkit-transform: rotate(0deg);transform: rotate(0deg);}50%{-webkit-transform: rotate(405deg);transform: rotate(405deg);}100%{-webkit-transform: rotate(45deg);transform: rotate(45deg);}}@-webkit-keyframes rJrzEqf0oRM_S1Cw2AoAM_Animation{0%{-webkit-transform: rotate(405deg);transform: rotate(405deg);}50%{-webkit-transform: rotate(765deg);transform: rotate(765deg);}100%{-webkit-transform: rotate(1125deg);transform: rotate(1125deg);}}@keyframes rJrzEqf0oRM_S1Cw2AoAM_Animation{0%{-webkit-transform: rotate(405deg);transform: rotate(405deg);}50%{-webkit-transform: rotate(765deg);transform: rotate(765deg);}100%{-webkit-transform: rotate(1125deg);transform: rotate(1125deg);}}#SkVcfCoCG *{-webkit-animation-duration: 4s;animation-duration: 4s;-webkit-animation-iteration-count: infinite;animation-iteration-count: infinite;-webkit-animation-timing-function: cubic-bezier(0, 0, 1, 1);animation-timing-function: cubic-bezier(0, 0, 1, 1);}#S1lE9f0oAG{display: none;}#rkZEcGAjCz{display: inline;fill: #FFFFFF;}#SyfVcz0s0f{display: inline;fill: none;}#H1QVqGRiAM{display: inline;fill: none;}#S1D4qG0oAz{fill: url(#SVGID_1_);}#HJdEqMRjAf{fill: url(#SVGID_2_);}#H1q4cfCo0G{fill: url(#SVGID_3_);}#SJoE5zCsAM{fill: url(#SVGID_4_);}#H1CEqGAsCG{fill: #FFFFFF;}#HyyeVcGAo0f{fill: #507E8F;}#SJelVcf0oCM{fill: url(#SVGID_5_);}#SJZx4qfAiCG{fill: url(#SVGID_6_);}#S1flE5zCjAf{fill: url(#SVGID_7_);}#Hy4xV9fAiAG{fill: #FFFFFF;}#SyrgNqzCsCf{fill: url(#SVGID_8_);}#SkwlNcMCsCf{fill: #E86F70;}#SJ_eE5fRiAM{fill: #FFFFFF;}#rk9gEcfAoAG{fill: #FFEB00;}#ryixE9zCj0M{fill: #FFFFFF;}#BkplV9GCoRG{fill: #81BD55;}#HkAe4cfRjCf{fill: #FFFFFF;}#Skk-4qfCsCM{fill: #CCD6DD;}#ryxbVqf0oAz{fill: #C9BCCD;}#ByW-VqfAj0f{fill: #CCD6DD;}#HJzW4qzAoAz{fill: #CCD6DD;}#SkX-E5zRoAz{fill: #CCD6DD;}#rJVZNczAjRf{fill: #CCD6DD;}#HyBbN9M0jRz{fill: #CCD6DD;}#rkU-V9M0oRG{fill: #CCD6DD;}#H1P-NcMRoRf{fill: #CCD6DD;}#HkObVqz0oCf{fill: #CCD6DD;}#SJtZV5GCj0M{fill: #9798A0;}#rycZVqfCs0f{fill: #CCD6DD;}#r1oZV5G0jRM{fill: url(#SVGID_9_);}#Sy6-VczRoCz{fill: #EC6335;-webkit-transform:  matrix(0.7071, -0.7071, 0.7071, 0.7071, 11.2432, 312.4067);transform:  matrix(0.7071, -0.7071, 0.7071, 0.7071, 11.2432, 312.4067);}#H1RbE5M0oAf{fill: #EC6335;}#SkJG4qzAjAz{fill: url(#SVGID_10_);}#HJxMV9zRsAM{fill: url(#SVGID_11_);}#rJZf4czCiAM{fill: url(#SVGID_12_);}#SyGzNqMRsRG{fill: url(#SVGID_13_);}#SJXfN5zCjAG{fill: url(#SVGID_14_);}#S1EGNqMRoAM{fill: url(#SVGID_15_);}#r1IM49zCoRM{fill: url(#SVGID_16_);}#SkDfEcG0o0f{fill: url(#SVGID_17_);}#SJOGE9GRjCz{fill: url(#SVGID_18_);}#BJtzE9G0i0G{fill: url(#SVGID_19_);}#HyczVcM0j0G{fill: url(#SVGID_20_);}#H1sG4czAiAM{fill: url(#SVGID_21_);}#HkTGNqzAoRG{fill: url(#SVGID_22_);}#Hy0GVcfAo0M{fill: url(#SVGID_23_);}#HkkmVqMRoAz{fill: url(#SVGID_24_);}#BkeQ49zAiCz{fill: url(#SVGID_25_);}#HkbXVcGRi0G{fill: url(#SVGID_26_);}#H1f7N9fRs0M{fill: url(#SVGID_27_);}#SkNmNcGCs0z{fill: url(#SVGID_28_);}#Byr7EqMRoAG{fill: url(#SVGID_29_);}#B1UmN9MRsCf{fill: url(#SVGID_30_);}#B1PXEcfRo0f{fill: url(#SVGID_31_);}#BJO7VqfRoAf{fill: url(#SVGID_32_);}#ryF7Nqz0iRM{fill: url(#SVGID_33_);}#Hkj7VczRoCM{fill: url(#SVGID_34_);}#ryhQ45GRs0G{fill: url(#SVGID_35_);}#SyTXVcGAi0M{fill: url(#SVGID_36_);}#SyC7N5M0j0G{fill: url(#SVGID_37_);}#H11EE9MRj0f{fill: url(#SVGID_38_);}#Bk-4V5fCjRG{fill: #FFFFFF;}#SJG44qMAjRG{fill: #FFFFFF;}#SJ74EqM0jCM{fill: #FFFFFF;}#Sk4NV9GCsRG{fill: #FFFFFF;}#H18E49M0o0f{fill: #FFFF00;}#rkD4EqGRiAG{fill: #FFFF00;}#S1uVV9MCsRM{fill: #FFFF00;}#Hkt4VqGRi0f{fill: #FFFF00;}#Syq4EqfRs0z{fill: #FFFF00;}#B10VE9zRjAf{fill: none;stroke: #FFFFFF;stroke-width: 6;stroke-linecap: round;stroke-linejoin: round;}#SJ1S4qGCjCz{fill: none;stroke: #FFFFFF;stroke-width: 6;stroke-linecap: round;stroke-linejoin: round;stroke-dasharray: 0,8.1801;}#B1eSE5M0oAG{fill: none;stroke: #FFFFFF;stroke-width: 6;stroke-linecap: round;stroke-linejoin: round;}#Bk7HN5zRoAG{fill: none;stroke: #FFFFFF;stroke-width: 6;stroke-linecap: round;stroke-linejoin: round;}#SkNSE5fAoRG{fill: none;stroke: #FFFFFF;stroke-width: 6;stroke-linecap: round;stroke-linejoin: round;}#H1wBN9zRo0f{fill: none;stroke: #FFFFFF;stroke-width: 6;stroke-linecap: round;stroke-linejoin: round;}#SyuS45fAoCf{fill: none;stroke: #FFFFFF;stroke-width: 6;stroke-linecap: round;stroke-linejoin: round;}#S1qBEqGAjAz{fill: url(#SVGID_39_);}#SkorV9zRs0f{fill: url(#SVGID_40_);}#r13HEcM0iRG{fill: #FFFFFF;}#ByaH4czRjAf{fill: url(#SVGID_41_);}#HJCHVczAiAz{fill: url(#SVGID_42_);}#H1eIV5z0oRf{fill: #FFFF00;}#rJZUNqfCjRf{fill: #FFFF00;}#rkQI4cz0jRz{enable-background: new;}#B1ELEqf0sAM{fill: #939598;}#HyrUVcM0j0z{fill: #939598;}#SyL8NczCi0f{fill: #939598;}#H1wIEcfCjAf{fill: #939598;}#r1OUE9fCsCf{fill: #939598;}#B1KUN5fCjCz{fill: #939598;}#Hk5UNcfAjAG{fill: #939598;}#SksUVqMCjCG{fill: #939598;}#SkhLNqfRiAz{fill: #939598;}#SJpINcGCiAM{enable-background: new;}#SyCLN5MCoCf{fill: #939598;}#rkyPN5zCjAz{fill: #939598;}#HkeDV9MRoRf{fill: #939598;}#ry-v49GAiAG{fill: #939598;}#r1MPV5GAj0M{fill: #939598;}#SyXPV5GCjRf{fill: #939598;}#HyNDV5zCoCf{fill: #939598;}#HkrDNczCoAM{fill: #939598;}#r1LvVcGAsRf{fill: #939598;}#B1vv4qG0iAz{fill: #939598;}#HJdw49M0iCz{fill: #939598;}#SkFwNczCj0z{fill: #939598;}#S15PE9GAs0G{enable-background: new;}#Hysw49MCsCf{fill: #939598;}#rk3vNcfCi0z{fill: #939598;}#BJ6vE5z0i0f{fill: #939598;}#BkAPVqMAoAz{fill: #939598;}#H1JuE5zAj0M{fill: #939598;}#ByeuNqMAsRM{fill: #939598;}#SyWOVqGCoCz{fill: #939598;}#BkGu4qMAo0G{fill: #939598;}#SJ7O49G0jRG{fill: #939598;}#HJ4uE5MRiCf{fill: #939598;}#BkrOV5GCi0G{fill: #939598;}#rkLuVczCi0M{fill: #939598;}#S1DuN9MAj0G{fill: #939598;}#Sy_u45fCo0G{fill: #939598;}#S1t_VqzCi0M{fill: #939598;}#H19dVcMAoRM{fill: #939598;}#ryjdN5f0sAf{fill: #939598;}#HynON5GRsCz{fill: #939598;}#HyTdNqzRjRG{fill: #939598;}#HyC_NqzRsCM{fill: #939598;}#HyytN9zAsRM{fill: #939598;}#rkxKN5f0oCG{fill: #939598;}#HJbYNcz0oAz{enable-background: new;}#B1MKEqGCo0G{fill: #939598;}#BkmFN5M0oCz{fill: #939598;}#Hy4Y45z0jRG{fill: #939598;}#SJSF49MCsRG{fill: #939598;}#S1Ut49MAsRz{fill: #939598;}#BkPYN9MCs0G{fill: #939598;}#Bk_KVcfCs0G{fill: #939598;}#S1KF45fCsRG{fill: #939598;}#Bk5FNqMRsCM{fill: #939598;}#HJot4cMRjCM{fill: #939598;}#BJhFE9M0iAf{fill: #939598;}#BkaKE9zAsAM{fill: #939598;}#SyRYNqG0oAf{display: none;visibility: hidden;}#rJrzEqf0oRM_S1Cw2AoAM{-webkit-animation-name: rJrzEqf0oRM_S1Cw2AoAM_Animation;animation-name: rJrzEqf0oRM_S1Cw2AoAM_Animation;-webkit-transform-origin: 50% 50%;transform-origin: 50% 50%;transform-box: fill-box;-webkit-transform: rotate(405deg);transform: rotate(405deg);}#H13zV9zCiRz_HJyn0CsCz{-webkit-animation-name: H13zV9zCiRz_HJyn0CsCz_Animation;animation-name: H13zV9zCiRz_HJyn0CsCz_Animation;-webkit-transform-origin: 50% 50%;transform-origin: 50% 50%;transform-box: fill-box;-webkit-transform: rotate(0deg);transform: rotate(0deg);}#HJXmN9zCi0z_HJbkxk3AG{-webkit-animation-name: HJXmN9zCi0z_HJbkxk3AG_Animation;animation-name: HJXmN9zCi0z_HJbkxk3AG_Animation;-webkit-transform-origin: 50% 50%;transform-origin: 50% 50%;transform-box: fill-box;-webkit-transform: rotate(405deg);transform: rotate(405deg);}#Bknb4czCoRf_S1Uvh6AAG{-webkit-animation-name: Bknb4czCoRf_S1Uvh6AAG_Animation;animation-name: Bknb4czCoRf_S1Uvh6AAG_Animation;-webkit-transform-origin: 50% 50%;transform-origin: 50% 50%;transform-box: fill-box;-webkit-transform: translate(0px, 0px);transform: translate(0px, 0px);-webkit-animation-timing-function: cubic-bezier(0.42, 0, 0.58, 1);animation-timing-function: cubic-bezier(0.42, 0, 0.58, 1);}</style>

<g id="S1lE9f0oAG">
	<rect width="500" height="500" id="rkZEcGAjCz"/>
	<rect x="785.6" y="21.3" width="84" height="1.6" id="SyfVcz0s0f"/>
	<rect x="781.5" y="20.5" width="109.2" height="0.8" id="H1QVqGRiAM"/>
</g>
<g id="S1NE5fAi0M">
	<g id="SkBV9zCoCG">
		<g id="HJU49zRoCf">
			
				<linearGradient id="SVGID_1_" gradientUnits="userSpaceOnUse" x1="329.95" y1="355.8026" x2="329.95" y2="404.4495" gradientTransform="matrix(1 0 0 -1 0 502)">
				<stop offset="0" style="stop-color:#304C55"/>
				<stop offset="1" style="stop-color:#487180"/>
			</linearGradient>
			<path d="M330.7,185.4c-0.5-0.3-1.2-0.3-1.7,0l-0.8,0.5l-2,2l1.3,2.3l1.2-0.7l3.3-3.3L330.7,185.4z M345.3,104.1&#10;&#9;&#9;&#9;&#9;l-7.7-4.4c-0.5-0.3-1.2-0.3-1.7,0s-0.8,0.9-0.8,1.5v12.1l-5.3,3.2l-5.3-3.2v-12.1c0-0.6-0.3-1.2-0.8-1.5s-1.2-0.3-1.7,0l-7.7,4.4&#10;&#9;&#9;&#9;&#9;c-0.5,0.3-0.8,0.8-0.8,1.5v16.9c0,0.6,0.3,1.2,0.8,1.5l7,4v49.2l-7,4c-0.5,0.3-0.8,0.8-0.8,1.5v16.9c0,0.6,0.3,1.2,0.8,1.5&#10;&#9;&#9;&#9;&#9;l7.7,4.4c0.5,0.3,1.2,0.3,1.7,0s0.8-0.9,0.8-1.5v-12.1l0.8-0.5l2.2-1.3l1.2-0.7l1.2-0.7l2,1.2l3.4,2v8v3.6v0.5c0,0,0,0,0,0.1&#10;&#9;&#9;&#9;&#9;c0,0.5,0.3,1,0.7,1.3l0.1,0.1c0.5,0.3,1.2,0.3,1.7,0l7.7-4.4c0.1-0.1,0.2-0.2,0.4-0.3c0.3-0.3,0.5-0.7,0.5-1.2v-7.1V189v-4.5&#10;&#9;&#9;&#9;&#9;v-1.7c0-0.6-0.3-1.2-0.8-1.5l-7-4l0,0v-16.6v-2.8v-12.1v-10.2v-7.4l5.3-3.1l1.7-1c0.5-0.3,0.8-0.9,0.8-1.5v-5.2v-11.7&#10;&#9;&#9;&#9;&#9;C346.2,105,345.8,104.4,345.3,104.1z M330.7,185.4c-0.5-0.3-1.2-0.3-1.7,0l-0.8,0.5l-2,2l1.3,2.3l1.2-0.7l3.3-3.3L330.7,185.4z&#10;&#9;&#9;&#9;&#9; M337.7,189.6l-3.4-2l-2.4,2.4l3.4,2v8l3.4-3.4V191C338.5,190.5,338.2,189.9,337.7,189.6z" id="S1D4qG0oAz"/>
			
				<linearGradient id="SVGID_2_" gradientUnits="userSpaceOnUse" x1="329.85" y1="358.2341" x2="329.85" y2="363.8559" gradientTransform="matrix(1 0 0 -1 0 502)">
				<stop offset="0" style="stop-color:#217B94"/>
				<stop offset="0.1399" style="stop-color:#549AAD"/>
				<stop offset="0.2996" style="stop-color:#88B8C6"/>
				<stop offset="0.4571" style="stop-color:#B3D2DA"/>
				<stop offset="0.6086" style="stop-color:#D4E5EA"/>
				<stop offset="0.7529" style="stop-color:#ECF4F6"/>
				<stop offset="0.8867" style="stop-color:#FAFCFD"/>
				<stop offset="1" style="stop-color:#FFFFFF"/>
			</linearGradient>
			<rect x="321.3" y="137.7" width="17.1" height="6.1" id="HJdEqMRjAf"/>
		</g>
		<g id="rktNczCiAM">
			
				<linearGradient id="SVGID_3_" gradientUnits="userSpaceOnUse" x1="354.05" y1="356.2669" x2="354.05" y2="397.1477" gradientTransform="matrix(1 0 0 -1 0 502)">
				<stop offset="0" style="stop-color:#385964"/>
				<stop offset="1" style="stop-color:#507E8F"/>
			</linearGradient>
			<path d="M354.6,178.7c-0.4-0.3-1-0.3-1.4,0l-0.6,0.4l-1.7,1.7l1.1,2l1-0.6l2.8-2.8L354.6,178.7z M367,110.4l-6.4-3.7&#10;&#9;&#9;&#9;&#9;c-0.4-0.3-1-0.3-1.4,0s-0.7,0.7-0.7,1.2v10.2l-4.5,2.7l-4.5-2.7v-10.2c0-0.5-0.3-1-0.7-1.2c-0.4-0.3-1-0.2-1.4,0l-6.4,3.7&#10;&#9;&#9;&#9;&#9;c-0.4,0.3-0.7,0.7-0.7,1.2v14.2c0,0.5,0.3,1,0.7,1.2l5.9,3.4v41.4l-5.9,3.4c-0.4,0.3-0.7,0.7-0.7,1.2v14.2c0,0.5,0.3,1,0.7,1.2&#10;&#9;&#9;&#9;&#9;l6.4,3.7c0.4,0.3,1,0.3,1.4,0s0.7-0.7,0.7-1.2v-10.2l0.7-0.4l1.9-1.1l1-0.6l1-0.6l1.7,1l2.8,1.7v6.7v3.1v0.4l0,0&#10;&#9;&#9;&#9;&#9;c0,0.4,0.2,0.9,0.6,1.1c0,0,0.1,0,0.1,0.1c0.4,0.3,1,0.3,1.4,0l6.4-3.7c0.1-0.1,0.2-0.1,0.3-0.2c0.3-0.3,0.4-0.6,0.4-1v-5.9v-3.1&#10;&#9;&#9;&#9;&#9;v-3.8v-1.4c0-0.5-0.3-1-0.7-1.2l-5.9-3.4l0,0v-14v-2.4v-10.2v-8.6v-6.2l4.5-2.6l1.4-0.8c0.4-0.3,0.7-0.7,0.7-1.2v-4.4v-9.8&#10;&#9;&#9;&#9;&#9;C367.7,111.1,367.4,110.6,367,110.4z M354.6,178.7c-0.4-0.3-1-0.3-1.4,0l-0.6,0.4l-1.7,1.7l1.1,2l1-0.6l2.8-2.8L354.6,178.7z&#10;&#9;&#9;&#9;&#9; M360.5,182.2l-2.9-1.7l-2.1,2.1l2.8,1.7v6.7l2.8-2.8v-4.7C361.2,182.9,361,182.5,360.5,182.2z" id="H1q4cfCo0G"/>
			
				<linearGradient id="SVGID_4_" gradientUnits="userSpaceOnUse" x1="353.85" y1="358.3099" x2="353.85" y2="363.0347" gradientTransform="matrix(1 0 0 -1 0 502)">
				<stop offset="0" style="stop-color:#2488A3"/>
				<stop offset="0.1332" style="stop-color:#54A2B7"/>
				<stop offset="0.2941" style="stop-color:#88BECD"/>
				<stop offset="0.4528" style="stop-color:#B3D5DF"/>
				<stop offset="0.6056" style="stop-color:#D4E8ED"/>
				<stop offset="0.7509" style="stop-color:#ECF5F7"/>
				<stop offset="0.8858" style="stop-color:#FAFCFD"/>
				<stop offset="1" style="stop-color:#FFFFFF"/>
			</linearGradient>
			<rect x="346.7" y="138.6" width="14.3" height="5.1" id="SJoE5zCsAM"/>
		</g>
		<g id="ry3N9zRiAM">
			<g id="SkT45MCo0f">
				<path d="M370.5,143.9h-219c-7.9,0-14.3,6.4-14.3,14.3v120.6c0,7.9,6.4,14.3,14.3,14.3h219c7.9,0,14.3-6.4,14.3-14.3&#10;&#9;&#9;&#9;&#9;&#9;V158.3C384.9,150.4,378.4,143.9,370.5,143.9z" id="H1CEqGAsCG"/>
				<path d="M406.6,281.4H115.4l0,0c0,11.8,9.5,21.3,21.3,21.3h248.7C397.1,302.7,406.6,293.2,406.6,281.4L406.6,281.4z&#10;&#9;&#9;&#9;&#9;&#9;" id="HyyeVcGAo0f"/>
				
					<linearGradient id="SVGID_5_" gradientUnits="userSpaceOnUse" x1="261.05" y1="220" x2="261.05" y2="342.7" gradientTransform="matrix(1 0 0 -1 0 502)">
					<stop offset="0" style="stop-color:#385964"/>
					<stop offset="1" style="stop-color:#507E8F"/>
				</linearGradient>
				<path d="M361.9,159.3H160.1c-5,0-9,4-9,9V282H371V168.3C370.9,163.3,366.9,159.3,361.9,159.3z" id="SJelVcf0oCM"/>
				
					<linearGradient id="SVGID_6_" gradientUnits="userSpaceOnUse" x1="260.95" y1="212.6504" x2="260.95" y2="220.0078" gradientTransform="matrix(1 0 0 -1 0 502)">
					<stop offset="0" style="stop-color:#385964"/>
					<stop offset="1" style="stop-color:#507E8F"/>
				</linearGradient>
				<path d="M272.2,289.3h-22.5c-2.7,0-5.3-1.4-6.7-3.7l-2.4-3.7h40.7l-2.4,3.7C277.5,288,275,289.3,272.2,289.3z" id="SJZx4qfAiCG"/>
				
					<linearGradient id="SVGID_7_" gradientUnits="userSpaceOnUse" x1="260.95" y1="199.2715" x2="260.95" y2="204.9248" gradientTransform="matrix(1 0 0 -1 0 502)">
					<stop offset="0" style="stop-color:#385964"/>
					<stop offset="1" style="stop-color:#507E8F"/>
				</linearGradient>
				<path d="M122.2,297.1c3.8,3.5,8.9,5.7,14.4,5.7h248.7c5.6,0,10.6-2.1,14.4-5.7H122.2z" id="S1flE5zCjAf"/>
			</g>
			<g id="BJ7eEqGAjCG">
				<rect x="165.5" y="152.5" width="140.6" height="129.5" id="Hy4xV9fAiAG"/>
				
					<linearGradient id="SVGID_8_" gradientUnits="userSpaceOnUse" x1="235.8" y1="349.5459" x2="235.8" y2="364.2017" gradientTransform="matrix(1 0 0 -1 0 502)">
					<stop offset="0" style="stop-color:#385964"/>
					<stop offset="1" style="stop-color:#507E8F"/>
				</linearGradient>
				<path d="M297.8,137.8H173.7c-4.5,0-8.2,3.7-8.2,8.2v6.4h140.6V146C306.1,141.5,302.4,137.8,297.8,137.8z" id="SyrgNqzCsCf"/>
				<g id="S18xV5zCoAz">
					<path d="M282.9,145.1c0-1.4-1.2-2.6-2.6-2.6s-2.6,1.2-2.6,2.6c0,1.4,1.2,2.6,2.6,2.6&#10;&#9;&#9;&#9;&#9;&#9;&#9;C281.7,147.7,282.9,146.6,282.9,145.1z" id="SkwlNcMCsCf"/>
					<path d="M280.3,148c-1.6,0-2.8-1.3-2.8-2.8c0-1.6,1.3-2.8,2.8-2.8c1.6,0,2.8,1.3,2.8,2.8&#10;&#9;&#9;&#9;&#9;&#9;&#9;C283.1,146.7,281.9,148,280.3,148z M280.3,142.8c-1.3,0-2.4,1.1-2.4,2.4c0,1.3,1.1,2.4,2.4,2.4s2.4-1.1,2.4-2.4&#10;&#9;&#9;&#9;&#9;&#9;&#9;C282.7,143.8,281.6,142.8,280.3,142.8z" id="SJ_eE5fRiAM"/>
				</g>
				<g id="BJYeVqzCiRf">
					<path d="M290.5,145.1c0-1.4-1.2-2.6-2.6-2.6s-2.6,1.2-2.6,2.6c0,1.4,1.2,2.6,2.6,2.6&#10;&#9;&#9;&#9;&#9;&#9;&#9;C289.3,147.7,290.5,146.6,290.5,145.1z" id="rk9gEcfAoAG"/>
					<path d="M287.9,148c-1.6,0-2.8-1.3-2.8-2.8c0-1.6,1.3-2.8,2.8-2.8c1.6,0,2.8,1.3,2.8,2.8&#10;&#9;&#9;&#9;&#9;&#9;&#9;C290.7,146.7,289.4,148,287.9,148z M287.9,142.8c-1.3,0-2.4,1.1-2.4,2.4c0,1.3,1.1,2.4,2.4,2.4s2.4-1.1,2.4-2.4&#10;&#9;&#9;&#9;&#9;&#9;&#9;C290.2,143.8,289.2,142.8,287.9,142.8z" id="ryixE9zCj0M"/>
				</g>
				<g id="rynxVcfAjRM">
					<path d="M297.3,143.3c-1-1-2.7-1-3.7,0s-1,2.7,0,3.7s2.7,1,3.7,0C298.3,145.9,298.3,144.3,297.3,143.3z" id="BkplV9GCoRG"/>
					<path d="M295.4,148c-0.7,0-1.5-0.3-2-0.8c-1.1-1.1-1.1-2.9,0-4s2.9-1.1,4,0l0,0c0.5,0.5,0.8,1.2,0.8,2&#10;&#9;&#9;&#9;&#9;&#9;&#9;s-0.3,1.5-0.8,2S296.2,148,295.4,148z M295.4,142.8c-0.6,0-1.2,0.2-1.7,0.7c-0.9,0.9-0.9,2.4,0,3.3c0.9,0.9,2.4,0.9,3.3,0&#10;&#9;&#9;&#9;&#9;&#9;&#9;c0.4-0.4,0.7-1,0.7-1.7c0-0.6-0.2-1.2-0.7-1.7C296.6,143,296,142.8,295.4,142.8z" id="HkAe4cfRjCf"/>
				</g>
				<rect x="178.1" y="164.4" width="117.3" height="4.4" id="Skk-4qfCsCM"/>
				<rect x="178.1" y="247" width="117.3" height="29.3" id="ryxbVqf0oAz"/>
				<rect x="178.1" y="171.7" width="117.3" height="4.4" id="ByW-VqfAj0f"/>
				<rect x="240.7" y="200" width="54.8" height="4.4" id="HJzW4qzAoAz"/>
				<rect x="240.7" y="207" width="54.8" height="4.4" id="SkX-E5zRoAz"/>
				<rect x="240.7" y="213.9" width="54.8" height="4.4" id="rJVZNczAjRf"/>
				<rect x="240.7" y="220.8" width="54.8" height="4.4" id="HyBbN9M0jRz"/>
				<rect x="240.7" y="227.8" width="54.8" height="4.4" id="rkU-V9M0oRG"/>
				<rect x="240.7" y="234.7" width="54.8" height="4.4" id="H1P-NcMRoRf"/>
				<rect x="178.1" y="178.9" width="117.3" height="4.4" id="HkObVqz0oCf"/>
				<rect x="178.1" y="188.7" width="54.8" height="51.7" id="SJtZV5GCj0M"/>
				<rect x="240.7" y="188.7" width="54.8" height="6" id="rycZVqfCs0f"/>
			</g>
			
				<linearGradient id="SVGID_9_" gradientUnits="userSpaceOnUse" x1="306.0703" y1="289.05" x2="318.834" y2="289.05" gradientTransform="matrix(1 0 0 -1 0 502)">
				<stop offset="0" style="stop-color:#2488A3"/>
				<stop offset="0.1332" style="stop-color:#54A2B7"/>
				<stop offset="0.2941" style="stop-color:#88BECD"/>
				<stop offset="0.4528" style="stop-color:#B3D5DF"/>
				<stop offset="0.6056" style="stop-color:#D4E8ED"/>
				<stop offset="0.7509" style="stop-color:#ECF5F7"/>
				<stop offset="0.8858" style="stop-color:#FAFCFD"/>
				<stop offset="1" style="stop-color:#FFFFFF"/>
			</linearGradient>
			<rect x="306.1" y="143.9" width="12.8" height="138.1" id="r1oZV5G0jRM"/>
		</g>
		<g id="Bknb4czCoRf_S1Uvh6AAG" data-animator-group="true" data-animator-type="0"><g id="Bknb4czCoRf">
			
				<rect x="380.2" y="131.3" width="5.1" height="22.6" id="Sy6-VczRoCz"/>
			<path d="M409,107.1l5.8,0.9c1.4,0.2,2.4,1.2,2.6,2.6l0.9,5.8c0.2,1.2-0.3,2.5-1.2,3.4l-26.8,26.8L378.8,135&#10;&#9;&#9;&#9;&#9;l26.8-26.8C406.6,107.3,407.8,106.9,409,107.1z" id="H1RbE5M0oAf"/>
			
				<linearGradient id="SVGID_10_" gradientUnits="userSpaceOnUse" x1="141.5047" y1="754.9621" x2="141.5047" y2="758.4207" gradientTransform="matrix(-0.7071 -0.7071 -0.7071 0.7071 1020.9167 -295.4507)">
				<stop offset="0" style="stop-color:#FFFFFF"/>
				<stop offset="0.9967" style="stop-color:#A7B6C9"/>
			</linearGradient>
			<polygon points="381.3,132.6 392.8,144.1 390.3,146.5 378.8,135 &#9;&#9;&#9;" id="SkJG4qzAjAz"/>
			
				<linearGradient id="SVGID_11_" gradientUnits="userSpaceOnUse" x1="141.4694" y1="719.4851" x2="141.4694" y2="753.568" gradientTransform="matrix(-0.7071 -0.7071 -0.7071 0.7071 1020.9167 -295.4507)">
				<stop offset="0" style="stop-color:#FFFFFF"/>
				<stop offset="0.9967" style="stop-color:#A7B6C9"/>
			</linearGradient>
			<path d="M388,137.4L388,137.4c0.6,0.6,1.7,0.6,2.3,0l21.8-21.8c0.6-0.6,0.6-1.7,0-2.3l0,0c-0.6-0.6-1.7-0.6-2.3,0&#10;&#9;&#9;&#9;&#9;L388,135.1C387.4,135.7,387.4,136.7,388,137.4z" id="HJxMV9zRsAM"/>
			
				<linearGradient id="SVGID_12_" gradientUnits="userSpaceOnUse" x1="146.1363" y1="719.4851" x2="146.1363" y2="753.568" gradientTransform="matrix(-0.7071 -0.7071 -0.7071 0.7071 1020.9167 -295.4507)">
				<stop offset="0" style="stop-color:#FFFFFF"/>
				<stop offset="0.9967" style="stop-color:#A7B6C9"/>
			</linearGradient>
			<path d="M384.7,134.1L384.7,134.1c0.6,0.6,1.7,0.6,2.3,0l21.8-21.8c0.6-0.6,0.6-1.7,0-2.3l0,0&#10;&#9;&#9;&#9;&#9;c-0.6-0.6-1.7-0.6-2.3,0l-21.8,21.8C384.1,132.4,384.1,133.4,384.7,134.1z" id="rJZf4czCiAM"/>
			
				<linearGradient id="SVGID_13_" gradientUnits="userSpaceOnUse" x1="553.9166" y1="719.484" x2="553.9166" y2="753.5669" gradientTransform="matrix(0.7071 0.7071 -0.7071 0.7071 532.5088 -783.8576)">
				<stop offset="0" style="stop-color:#FFFFFF"/>
				<stop offset="0.9967" style="stop-color:#A7B6C9"/>
			</linearGradient>
			<path d="M391.3,140.7L391.3,140.7c-0.6-0.6-0.6-1.7,0-2.3l21.8-21.8c0.6-0.6,1.7-0.6,2.3,0l0,0&#10;&#9;&#9;&#9;&#9;c0.6,0.6,0.6,1.7,0,2.3l-21.8,21.8C393,141.3,392,141.3,391.3,140.7z" id="SyGzNqMRsRG"/>
			
				<linearGradient id="SVGID_14_" gradientUnits="userSpaceOnUse" x1="141.5311" y1="763.5181" x2="141.5311" y2="829.1336" gradientTransform="matrix(-0.7071 -0.7071 -0.7071 0.7071 1020.9167 -295.4507)">
				<stop offset="0" style="stop-color:#525B63"/>
				<stop offset="0.9967" style="stop-color:#A7B6C9"/>
			</linearGradient>
			<path d="M339.2,180.8l-5.6,8c-0.3,0.4-0.2,0.9,0.1,1.2l1.6,1.6c0.3,0.3,0.8,0.4,1.2,0.1l8-5.6&#10;&#9;&#9;&#9;&#9;c0.3-0.2,0.5-0.6,0.4-0.9l-0.3-2.2l37.5-37.5l-2.3-2.3l-37.5,37.5l-2.2-0.3C339.8,180.4,339.5,180.5,339.2,180.8z" id="SJXfN5zCjAG"/>
			
				<linearGradient id="SVGID_15_" gradientUnits="userSpaceOnUse" x1="141.4694" y1="763.5578" x2="141.4694" y2="765.5096" gradientTransform="matrix(-0.7071 -0.7071 -0.7071 0.7071 1020.9167 -295.4507)">
				<stop offset="3.287440e-03" style="stop-color:#A7B6C9"/>
				<stop offset="1" style="stop-color:#FFFFFF"/>
			</linearGradient>
			<polygon points="378.4,144.7 380.7,146.9 382.1,145.6 379.8,143.3 &#9;&#9;&#9;" id="S1EGNqMRoAM"/>
		</g></g>
		<g id="rJrzEqf0oRM_S1Cw2AoAM" data-animator-group="true" data-animator-type="1"><g id="rJrzEqf0oRM">
			
				<linearGradient id="SVGID_16_" gradientUnits="userSpaceOnUse" x1="94.5" y1="375.2" x2="162.7" y2="375.2" gradientTransform="matrix(1 0 0 -1 0 502)">
				<stop offset="0" style="stop-color:#385964"/>
				<stop offset="1" style="stop-color:#507E8F"/>
			</linearGradient>
			<path d="M160.7,121.4l-2.6-0.2c-0.9-0.1-1.7-0.7-1.9-1.6c-0.7-2.6-1.7-5.1-3-7.3c-0.5-0.8-0.4-1.8,0.2-2.5l1.7-2&#10;&#9;&#9;&#9;&#9;c0.7-0.9,0.7-2.1-0.1-2.9l-4.5-4.5c-0.8-0.8-2.1-0.9-2.9-0.1l-2,1.7c-0.7,0.6-1.7,0.7-2.5,0.2c-2.3-1.3-4.7-2.4-7.3-3&#10;&#9;&#9;&#9;&#9;c-0.9-0.2-1.5-1-1.6-1.9l-0.2-2.6c-0.1-1.1-1-2-2.2-2h-6.4c-1.1,0-2.1,0.9-2.2,2l-0.2,2.6c-0.1,0.9-0.7,1.7-1.6,1.9&#10;&#9;&#9;&#9;&#9;c-2.6,0.7-5.1,1.7-7.3,3c-0.8,0.5-1.8,0.4-2.5-0.2l-2-1.7c-0.9-0.7-2.1-0.7-2.9,0.1l-4.5,4.5c-0.8,0.8-0.9,2.1-0.1,2.9l1.7,2&#10;&#9;&#9;&#9;&#9;c0.6,0.7,0.7,1.7,0.2,2.5c-1.3,2.3-2.4,4.7-3,7.3c-0.2,0.9-1,1.5-1.9,1.6l-2.6,0.2c-1.1,0.1-2,1-2,2.2v6.4c0,1.1,0.9,2.1,2,2.2&#10;&#9;&#9;&#9;&#9;l2.6,0.2c0.9,0.1,1.7,0.7,1.9,1.6c0.7,2.6,1.7,5.1,3,7.3c0.5,0.8,0.4,1.8-0.2,2.5l-1.7,2c-0.7,0.9-0.7,2.1,0.1,2.9l4.5,4.5&#10;&#9;&#9;&#9;&#9;c0.8,0.8,2.1,0.9,2.9,0.1l2-1.7c0.7-0.6,1.7-0.7,2.5-0.2c2.3,1.3,4.7,2.4,7.3,3c0.9,0.2,1.5,1,1.6,1.9l0.2,2.6c0.1,1.1,1,2,2.2,2&#10;&#9;&#9;&#9;&#9;h6.4c1.1,0,2.1-0.9,2.2-2l0.2-2.6c0.1-0.9,0.7-1.7,1.6-1.9c2.6-0.7,5.1-1.7,7.3-3c0.8-0.5,1.8-0.4,2.5,0.2l2,1.7&#10;&#9;&#9;&#9;&#9;c0.9,0.7,2.1,0.7,2.9-0.1l4.5-4.5c0.8-0.8,0.9-2.1,0.1-2.9l-1.7-2c-0.6-0.7-0.7-1.7-0.2-2.5c1.3-2.3,2.4-4.7,3-7.3&#10;&#9;&#9;&#9;&#9;c0.2-0.9,1-1.5,1.9-1.6l2.6-0.2c1.1-0.1,2-1,2-2.2v-6.4C162.7,122.5,161.9,121.5,160.7,121.4z M128.6,146.2&#10;&#9;&#9;&#9;&#9;c-10.7,0-19.4-8.7-19.4-19.4s8.7-19.4,19.4-19.4S148,116,148,126.8S139.3,146.2,128.6,146.2z" id="r1IM49zCoRM"/>
			
				<linearGradient id="SVGID_17_" gradientUnits="userSpaceOnUse" x1="94.4652" y1="375.3" x2="162.7156" y2="375.3" gradientTransform="matrix(1 0 0 -1 0 502)">
				<stop offset="0" style="stop-color:#385964"/>
				<stop offset="1" style="stop-color:#507E8F"/>
			</linearGradient>
			<path d="M128.6,107.3c-10.7,0-19.4,8.7-19.4,19.4s8.7,19.4,19.4,19.4s19.4-8.7,19.4-19.4S139.3,107.3,128.6,107.3z&#10;&#9;&#9;&#9;&#9; M128.6,141.7c-8.2,0-14.9-6.7-14.9-14.9s6.7-14.9,14.9-14.9s14.9,6.7,14.9,14.9S136.8,141.7,128.6,141.7z" id="SkDfEcG0o0f"/>
			
				<radialGradient id="SVGID_18_" cx="128.6" cy="375.2256" r="19.4372" gradientTransform="matrix(1 0 0 -1 0 502)" gradientUnits="userSpaceOnUse">
				<stop offset="0.6973" style="stop-color:#507E8F"/>
				<stop offset="1" style="stop-color:#1F353C"/>
			</radialGradient>
			<path d="M128.6,107.3c-10.7,0-19.4,8.7-19.4,19.4s8.7,19.4,19.4,19.4s19.4-8.7,19.4-19.4S139.3,107.3,128.6,107.3z&#10;&#9;&#9;&#9;&#9; M128.6,141.7c-8.2,0-14.9-6.7-14.9-14.9s6.7-14.9,14.9-14.9s14.9,6.7,14.9,14.9S136.8,141.7,128.6,141.7z" id="SJOGE9GRjCz"/>
			
				<linearGradient id="SVGID_19_" gradientUnits="userSpaceOnUse" x1="94.465" y1="375.2" x2="162.7157" y2="375.2" gradientTransform="matrix(1 0 0 -1 0 502)">
				<stop offset="0" style="stop-color:#385964"/>
				<stop offset="1" style="stop-color:#507E8F"/>
			</linearGradient>
			<path d="M128.6,111.9c-8.2,0-14.9,6.7-14.9,14.9s6.7,14.9,14.9,14.9s14.9-6.7,14.9-14.9S136.8,111.9,128.6,111.9z&#10;&#9;&#9;&#9;&#9; M128.6,137.3c-5.8,0-10.5-4.7-10.5-10.5s4.7-10.5,10.5-10.5s10.5,4.7,10.5,10.5S134.4,137.3,128.6,137.3z" id="BJtzE9G0i0G"/>
			
				<radialGradient id="SVGID_20_" cx="128.6" cy="375.2" r="19.4362" gradientTransform="matrix(1 0 0 -1 0 502)" gradientUnits="userSpaceOnUse">
				<stop offset="0.6973" style="stop-color:#507E8F"/>
				<stop offset="1" style="stop-color:#1F353C"/>
			</radialGradient>
			<path d="M128.6,111.9c-8.2,0-14.9,6.7-14.9,14.9s6.7,14.9,14.9,14.9s14.9-6.7,14.9-14.9S136.8,111.9,128.6,111.9z&#10;&#9;&#9;&#9;&#9; M128.6,137.3c-5.8,0-10.5-4.7-10.5-10.5s4.7-10.5,10.5-10.5s10.5,4.7,10.5,10.5S134.4,137.3,128.6,137.3z" id="HyczVcM0j0G"/>
			
				<radialGradient id="SVGID_21_" cx="128.6" cy="375.2" r="14.9" gradientTransform="matrix(1 0 0 -1 0 502)" gradientUnits="userSpaceOnUse">
				<stop offset="0.6973" style="stop-color:#507E8F"/>
				<stop offset="1" style="stop-color:#1F353C"/>
			</radialGradient>
			<path d="M128.6,111.9c-8.2,0-14.9,6.7-14.9,14.9s6.7,14.9,14.9,14.9s14.9-6.7,14.9-14.9S136.8,111.9,128.6,111.9z&#10;&#9;&#9;&#9;&#9; M128.6,137.3c-5.8,0-10.5-4.7-10.5-10.5s4.7-10.5,10.5-10.5s10.5,4.7,10.5,10.5S134.4,137.3,128.6,137.3z" id="H1sG4czAiAM"/>
		</g></g>
		<g id="H13zV9zCiRz_HJyn0CsCz" data-animator-group="true" data-animator-type="1"><g id="H13zV9zCiRz">
			
				<linearGradient id="SVGID_22_" gradientUnits="userSpaceOnUse" x1="160.7129" y1="394.65" x2="204.4678" y2="394.65" gradientTransform="matrix(1 0 0 -1 0 502)">
				<stop offset="0" style="stop-color:#385964"/>
				<stop offset="1" style="stop-color:#507E8F"/>
			</linearGradient>
			<path d="M203.2,103.9l-1.6-0.1c-0.6-0.1-1.1-0.5-1.2-1c-0.4-1.7-1.1-3.2-1.9-4.7c-0.3-0.5-0.2-1.1,0.1-1.6l1.1-1.3&#10;&#9;&#9;&#9;&#9;c0.5-0.6,0.4-1.4-0.1-1.9l-2.9-2.9c-0.5-0.5-1.3-0.5-1.9-0.1l-1.3,1.1c-0.4,0.4-1.1,0.4-1.6,0.1c-1.4-0.9-3-1.5-4.7-1.9&#10;&#9;&#9;&#9;&#9;c-0.6-0.1-1-0.6-1-1.2l-0.1-1.6c-0.1-0.7-0.7-1.3-1.4-1.3h-4.1c-0.7,0-1.3,0.6-1.4,1.3l-0.1,1.6c-0.1,0.6-0.5,1.1-1,1.2&#10;&#9;&#9;&#9;&#9;c-1.7,0.4-3.2,1.1-4.7,1.9c-0.5,0.3-1.1,0.2-1.6-0.1l-1.3-1.1c-0.6-0.5-1.4-0.4-1.9,0.1l-2.9,2.9c-0.5,0.5-0.5,1.3-0.1,1.9&#10;&#9;&#9;&#9;&#9;l1.1,1.3c0.4,0.4,0.4,1.1,0.1,1.6c-0.9,1.4-1.5,3-1.9,4.7c-0.1,0.6-0.6,1-1.2,1l-1.6,0.1c-0.7,0.1-1.3,0.7-1.3,1.4v4.1&#10;&#9;&#9;&#9;&#9;c0,0.7,0.6,1.3,1.3,1.4l1.6,0.1c0.6,0.1,1.1,0.5,1.2,1c0.4,1.7,1.1,3.2,1.9,4.7c0.3,0.5,0.2,1.1-0.1,1.6l-1.1,1.3&#10;&#9;&#9;&#9;&#9;c-0.5,0.6-0.4,1.4,0.1,1.9l2.9,2.9c0.5,0.5,1.3,0.5,1.9,0.1l1.3-1.1c0.4-0.4,1.1-0.4,1.6-0.1c1.4,0.9,3,1.5,4.7,1.9&#10;&#9;&#9;&#9;&#9;c0.6,0.1,1,0.6,1,1.2l0.1,1.6c0.1,0.7,0.7,1.3,1.4,1.3h4.1c0.7,0,1.3-0.6,1.4-1.3l0.1-1.6c0.1-0.6,0.5-1.1,1-1.2&#10;&#9;&#9;&#9;&#9;c1.7-0.4,3.2-1.1,4.7-1.9c0.5-0.3,1.1-0.2,1.6,0.1l1.3,1.1c0.6,0.5,1.4,0.4,1.9-0.1l2.9-2.9c0.5-0.5,0.5-1.3,0.1-1.9l-1.1-1.3&#10;&#9;&#9;&#9;&#9;c-0.4-0.4-0.4-1.1-0.1-1.6c0.9-1.4,1.5-3,1.9-4.7c0.1-0.6,0.6-1,1.2-1l1.6-0.1c0.7-0.1,1.3-0.7,1.3-1.4v-4.1&#10;&#9;&#9;&#9;&#9;C204.5,104.6,203.9,104,203.2,103.9z M182.6,119.8c-6.9,0-12.5-5.6-12.5-12.5s5.6-12.5,12.5-12.5s12.5,5.6,12.5,12.5&#10;&#9;&#9;&#9;&#9;C195,114.2,189.5,119.8,182.6,119.8z" id="HkTGNqzAoRG"/>
			
				<linearGradient id="SVGID_23_" gradientUnits="userSpaceOnUse" x1="160.7131" y1="394.6" x2="204.4676" y2="394.6" gradientTransform="matrix(1 0 0 -1 0 502)">
				<stop offset="0" style="stop-color:#385964"/>
				<stop offset="1" style="stop-color:#507E8F"/>
			</linearGradient>
			<path d="M182.6,94.9c-6.9,0-12.5,5.6-12.5,12.5s5.6,12.5,12.5,12.5s12.5-5.6,12.5-12.5&#10;&#9;&#9;&#9;&#9;C195,100.5,189.5,94.9,182.6,94.9z M182.6,116.9c-5.3,0-9.6-4.3-9.6-9.6c0-5.3,4.3-9.6,9.6-9.6s9.6,4.3,9.6,9.6&#10;&#9;&#9;&#9;&#9;C192.1,112.6,187.9,116.9,182.6,116.9z" id="Hy0GVcfAo0M"/>
			
				<radialGradient id="SVGID_24_" cx="182.6" cy="394.6514" r="12.4487" gradientTransform="matrix(1 0 0 -1 0 502)" gradientUnits="userSpaceOnUse">
				<stop offset="0.6973" style="stop-color:#507E8F"/>
				<stop offset="1" style="stop-color:#1F353C"/>
			</radialGradient>
			<path d="M182.6,94.9c-6.9,0-12.5,5.6-12.5,12.5s5.6,12.5,12.5,12.5s12.5-5.6,12.5-12.5&#10;&#9;&#9;&#9;&#9;C195,100.5,189.5,94.9,182.6,94.9z M182.6,116.9c-5.3,0-9.6-4.3-9.6-9.6c0-5.3,4.3-9.6,9.6-9.6s9.6,4.3,9.6,9.6&#10;&#9;&#9;&#9;&#9;C192.1,112.6,187.9,116.9,182.6,116.9z" id="HkkmVqMRoAz"/>
			
				<linearGradient id="SVGID_25_" gradientUnits="userSpaceOnUse" x1="160.7129" y1="394.6" x2="204.4678" y2="394.6" gradientTransform="matrix(1 0 0 -1 0 502)">
				<stop offset="0" style="stop-color:#385964"/>
				<stop offset="1" style="stop-color:#507E8F"/>
			</linearGradient>
			<path d="M182.6,97.8c-5.3,0-9.6,4.3-9.6,9.6c0,5.3,4.3,9.6,9.6,9.6s9.6-4.3,9.6-9.6&#10;&#9;&#9;&#9;&#9;C192.1,102.1,187.9,97.8,182.6,97.8z M182.6,114.1c-3.7,0-6.8-3-6.8-6.8c0-3.7,3-6.8,6.8-6.8c3.7,0,6.8,3,6.8,6.8&#10;&#9;&#9;&#9;&#9;C189.3,111.1,186.3,114.1,182.6,114.1z" id="BkeQ49zAiCz"/>
			
				<radialGradient id="SVGID_26_" cx="182.6" cy="394.6511" r="12.4473" gradientTransform="matrix(1 0 0 -1 0 502)" gradientUnits="userSpaceOnUse">
				<stop offset="0.6973" style="stop-color:#507E8F"/>
				<stop offset="1" style="stop-color:#1F353C"/>
			</radialGradient>
			<path d="M182.6,97.8c-5.3,0-9.6,4.3-9.6,9.6c0,5.3,4.3,9.6,9.6,9.6s9.6-4.3,9.6-9.6&#10;&#9;&#9;&#9;&#9;C192.1,102.1,187.9,97.8,182.6,97.8z M182.6,114.1c-3.7,0-6.8-3-6.8-6.8c0-3.7,3-6.8,6.8-6.8c3.7,0,6.8,3,6.8,6.8&#10;&#9;&#9;&#9;&#9;C189.3,111.1,186.3,114.1,182.6,114.1z" id="HkbXVcGRi0G"/>
			
				<radialGradient id="SVGID_27_" cx="182.6" cy="394.6511" r="9.5462" gradientTransform="matrix(1 0 0 -1 0 502)" gradientUnits="userSpaceOnUse">
				<stop offset="0.6973" style="stop-color:#507E8F"/>
				<stop offset="1" style="stop-color:#1F353C"/>
			</radialGradient>
			<path d="M182.6,97.8c-5.3,0-9.6,4.3-9.6,9.6c0,5.3,4.3,9.6,9.6,9.6s9.6-4.3,9.6-9.6&#10;&#9;&#9;&#9;&#9;C192.1,102.1,187.9,97.8,182.6,97.8z M182.6,114.1c-3.7,0-6.8-3-6.8-6.8c0-3.7,3-6.8,6.8-6.8c3.7,0,6.8,3,6.8,6.8&#10;&#9;&#9;&#9;&#9;C189.3,111.1,186.3,114.1,182.6,114.1z" id="H1f7N9fRs0M"/>
		</g></g>
		<g id="HJXmN9zCi0z_HJbkxk3AG" data-animator-group="true" data-animator-type="1"><g id="HJXmN9zCi0z">
			
				<linearGradient id="SVGID_28_" gradientUnits="userSpaceOnUse" x1="78.4761" y1="323.85" x2="122.231" y2="323.85" gradientTransform="matrix(1 0 0 -1 0 502)">
				<stop offset="0" style="stop-color:#385964"/>
				<stop offset="1" style="stop-color:#507E8F"/>
			</linearGradient>
			<path d="M121,174.7l-1.6-0.1c-0.6-0.1-1.1-0.5-1.2-1c-0.4-1.7-1.1-3.2-1.9-4.7c-0.3-0.5-0.2-1.1,0.1-1.6l1.1-1.3&#10;&#9;&#9;&#9;&#9;c0.5-0.6,0.4-1.4-0.1-1.9l-2.9-2.9c-0.5-0.5-1.3-0.5-1.9-0.1l-1.3,1.1c-0.4,0.4-1.1,0.4-1.6,0.1c-1.4-0.9-3-1.5-4.7-1.9&#10;&#9;&#9;&#9;&#9;c-0.6-0.1-1-0.6-1-1.2l-0.1-1.6c-0.1-0.7-0.7-1.3-1.4-1.3h-4.1c-0.7,0-1.3,0.6-1.4,1.3l-0.1,1.6c-0.1,0.6-0.5,1.1-1,1.2&#10;&#9;&#9;&#9;&#9;c-1.7,0.4-3.2,1.1-4.7,1.9c-0.5,0.3-1.1,0.2-1.6-0.1l-1.3-1.1c-0.6-0.5-1.4-0.4-1.9,0.1l-2.9,2.9c-0.5,0.5-0.5,1.3-0.1,1.9&#10;&#9;&#9;&#9;&#9;l1.1,1.3c0.4,0.4,0.4,1.1,0.1,1.6c-0.9,1.4-1.5,3-1.9,4.7c-0.1,0.6-0.6,1-1.2,1l-1.6,0.1c-0.7,0.1-1.3,0.7-1.3,1.4v4.1&#10;&#9;&#9;&#9;&#9;c0,0.7,0.6,1.3,1.3,1.4l1.6,0.1c0.6,0.1,1.1,0.5,1.2,1c0.4,1.7,1.1,3.2,1.9,4.7c0.3,0.5,0.2,1.1-0.1,1.6l-1.1,1.3&#10;&#9;&#9;&#9;&#9;c-0.5,0.6-0.4,1.4,0.1,1.9l2.9,2.9c0.5,0.5,1.3,0.5,1.9,0.1l1.3-1.1c0.4-0.4,1.1-0.4,1.6-0.1c1.4,0.9,3,1.5,4.7,1.9&#10;&#9;&#9;&#9;&#9;c0.6,0.1,1,0.6,1,1.2l0.1,1.6c0.1,0.7,0.7,1.3,1.4,1.3h4.1c0.7,0,1.3-0.6,1.4-1.3l0.1-1.6c0.1-0.6,0.5-1.1,1-1.2&#10;&#9;&#9;&#9;&#9;c1.7-0.4,3.2-1.1,4.7-1.9c0.5-0.3,1.1-0.2,1.6,0.1l1.3,1.1c0.6,0.5,1.4,0.4,1.9-0.1l2.9-2.9c0.5-0.5,0.5-1.3,0.1-1.9l-1.1-1.3&#10;&#9;&#9;&#9;&#9;c-0.4-0.4-0.4-1.1-0.1-1.6c0.9-1.4,1.5-3,1.9-4.7c0.1-0.6,0.6-1,1.2-1l1.6-0.1c0.7-0.1,1.3-0.7,1.3-1.4v-4.1&#10;&#9;&#9;&#9;&#9;C122.2,175.4,121.7,174.8,121,174.7z M100.4,190.6c-6.9,0-12.5-5.6-12.5-12.5s5.6-12.5,12.5-12.5s12.5,5.6,12.5,12.5&#10;&#9;&#9;&#9;&#9;C112.8,185,107.2,190.6,100.4,190.6z" id="SkNmNcGCs0z"/>
			
				<linearGradient id="SVGID_29_" gradientUnits="userSpaceOnUse" x1="78.4763" y1="323.8" x2="122.2308" y2="323.8" gradientTransform="matrix(1 0 0 -1 0 502)">
				<stop offset="0" style="stop-color:#385964"/>
				<stop offset="1" style="stop-color:#507E8F"/>
			</linearGradient>
			<path d="M100.4,165.7c-6.9,0-12.5,5.6-12.5,12.5s5.6,12.5,12.5,12.5s12.5-5.6,12.5-12.5&#10;&#9;&#9;&#9;&#9;C112.8,171.3,107.2,165.7,100.4,165.7z M100.4,187.7c-5.3,0-9.6-4.3-9.6-9.6s4.3-9.6,9.6-9.6c5.3,0,9.6,4.3,9.6,9.6&#10;&#9;&#9;&#9;&#9;S105.6,187.7,100.4,187.7z" id="Byr7EqMRoAG"/>
			
				<radialGradient id="SVGID_30_" cx="100.3535" cy="323.8647" r="12.4536" gradientTransform="matrix(1 0 0 -1 0 502)" gradientUnits="userSpaceOnUse">
				<stop offset="0.6973" style="stop-color:#507E8F"/>
				<stop offset="1" style="stop-color:#1F353C"/>
			</radialGradient>
			<path d="M100.4,165.7c-6.9,0-12.5,5.6-12.5,12.5s5.6,12.5,12.5,12.5s12.5-5.6,12.5-12.5&#10;&#9;&#9;&#9;&#9;C112.8,171.3,107.2,165.7,100.4,165.7z M100.4,187.7c-5.3,0-9.6-4.3-9.6-9.6s4.3-9.6,9.6-9.6c5.3,0,9.6,4.3,9.6,9.6&#10;&#9;&#9;&#9;&#9;S105.6,187.7,100.4,187.7z" id="B1UmN9MRsCf"/>
			
				<linearGradient id="SVGID_31_" gradientUnits="userSpaceOnUse" x1="78.476" y1="323.8" x2="122.231" y2="323.8" gradientTransform="matrix(1 0 0 -1 0 502)">
				<stop offset="0" style="stop-color:#385964"/>
				<stop offset="1" style="stop-color:#507E8F"/>
			</linearGradient>
			<path d="M100.4,168.6c-5.3,0-9.6,4.3-9.6,9.6s4.3,9.6,9.6,9.6c5.3,0,9.6-4.3,9.6-9.6S105.6,168.6,100.4,168.6z&#10;&#9;&#9;&#9;&#9; M100.4,184.9c-3.7,0-6.8-3-6.8-6.8c0-3.7,3-6.8,6.8-6.8c3.7,0,6.8,3,6.8,6.8C107.1,181.9,104.1,184.9,100.4,184.9z" id="B1PXEcfRo0f"/>
			
				<radialGradient id="SVGID_32_" cx="100.3535" cy="323.8647" r="12.4538" gradientTransform="matrix(1 0 0 -1 0 502)" gradientUnits="userSpaceOnUse">
				<stop offset="0.6973" style="stop-color:#507E8F"/>
				<stop offset="1" style="stop-color:#1F353C"/>
			</radialGradient>
			<path d="M100.4,168.6c-5.3,0-9.6,4.3-9.6,9.6s4.3,9.6,9.6,9.6c5.3,0,9.6-4.3,9.6-9.6S105.6,168.6,100.4,168.6z&#10;&#9;&#9;&#9;&#9; M100.4,184.9c-3.7,0-6.8-3-6.8-6.8c0-3.7,3-6.8,6.8-6.8c3.7,0,6.8,3,6.8,6.8C107.1,181.9,104.1,184.9,100.4,184.9z" id="BJO7VqfRoAf"/>
			
				<radialGradient id="SVGID_33_" cx="100.3535" cy="323.8647" r="9.5513" gradientTransform="matrix(1 0 0 -1 0 502)" gradientUnits="userSpaceOnUse">
				<stop offset="0.6973" style="stop-color:#507E8F"/>
				<stop offset="1" style="stop-color:#1F353C"/>
			</radialGradient>
			<path d="M100.4,168.6c-5.3,0-9.6,4.3-9.6,9.6s4.3,9.6,9.6,9.6c5.3,0,9.6-4.3,9.6-9.6S105.6,168.6,100.4,168.6z&#10;&#9;&#9;&#9;&#9; M100.4,184.9c-3.7,0-6.8-3-6.8-6.8c0-3.7,3-6.8,6.8-6.8c3.7,0,6.8,3,6.8,6.8C107.1,181.9,104.1,184.9,100.4,184.9z" id="ryF7Nqz0iRM"/>
		</g></g>
		<g id="HyqQEczCoCf">
			
				<linearGradient id="SVGID_34_" gradientUnits="userSpaceOnUse" x1="84.5" y1="217.6" x2="84.5" y2="257" gradientTransform="matrix(1 0 0 -1 0 502)">
				<stop offset="0" style="stop-color:#51373D"/>
				<stop offset="1" style="stop-color:#885446"/>
			</linearGradient>
			<path d="M96,284.4H81.1c-4.5,0-8.1-3.6-8.1-8.1v-23.2c0-4.5,3.6-8.1,8.1-8.1H96v6H81.1c-1.2,0-2.1,0.9-2.1,2.1v23.2&#10;&#9;&#9;&#9;&#9;c0,1.2,0.9,2.1,2.1,2.1H96V284.4z" id="Hkj7VczRoCM"/>
			
				<linearGradient id="SVGID_35_" gradientUnits="userSpaceOnUse" x1="123.8" y1="199.75" x2="123.8" y2="273.6525" gradientTransform="matrix(1 0 0 -1 0 502)">
				<stop offset="0" style="stop-color:#51373D"/>
				<stop offset="1" style="stop-color:#885446"/>
			</linearGradient>
			<path d="M147.1,303h-46.6c-4.4,0-7.9-3.6-7.9-7.9v-59H155v59C155,299.4,151.4,303,147.1,303z" id="ryhQ45GRs0G"/>
			
				<linearGradient id="SVGID_36_" gradientUnits="userSpaceOnUse" x1="123.75" y1="265.917" x2="123.75" y2="272.1665" gradientTransform="matrix(1 0 0 -1 0 502)">
				<stop offset="0" style="stop-color:#51373D"/>
				<stop offset="1" style="stop-color:#885446"/>
			</linearGradient>
			<rect x="92.5" y="229.8" width="62.5" height="6.2" id="SyTXVcGAi0M"/>
			
				<linearGradient id="SVGID_37_" gradientUnits="userSpaceOnUse" x1="89.4165" y1="254" x2="92.5" y2="254" gradientTransform="matrix(1 0 0 -1 0 502)">
				<stop offset="0" style="stop-color:#FFFFFF"/>
				<stop offset="0.9967" style="stop-color:#A7B6C9"/>
			</linearGradient>
			<rect x="89.4" y="245" width="3.1" height="6" id="SyC7N5M0j0G"/>
			
				<linearGradient id="SVGID_38_" gradientUnits="userSpaceOnUse" x1="89.4165" y1="220.6" x2="92.5" y2="220.6" gradientTransform="matrix(1 0 0 -1 0 502)">
				<stop offset="0" style="stop-color:#FFFFFF"/>
				<stop offset="0.9967" style="stop-color:#A7B6C9"/>
			</linearGradient>
			<rect x="89.4" y="278.4" width="3.1" height="6" id="H11EE9MRj0f"/>
		</g>
		<g id="H1x4N5fCiRf">
			<path d="M318.8,211.2V208l11.1-4.6v3.2l-8,3.1l8,3v3.2L318.8,211.2z" id="Bk-4V5fCjRG"/>
			<path d="M331.5,219.1h14v2.2h-14V219.1z" id="SJG44qMAjRG"/>
			<path d="M349.1,208.8c0-0.8,0.4-1.8,0.5-2.6c-0.6,0.5-1.3,1.4-2,1.8c-0.4,0.3-1,0.1-1.3-0.4s-0.1-1.1,0.3-1.3&#10;&#9;&#9;&#9;&#9;c0.7-0.4,1.8-0.5,2.5-0.8c-0.8-0.3-1.8-0.4-2.5-0.8c-0.4-0.2-0.6-0.8-0.3-1.3c0.3-0.5,0.9-0.7,1.3-0.4c0.7,0.4,1.4,1.3,2,1.8&#10;&#9;&#9;&#9;&#9;c-0.1-0.8-0.5-1.8-0.5-2.6c0-0.5,0.4-0.9,1-0.9c0.5,0,1,0.4,1,0.9c0,0.8-0.4,1.8-0.6,2.6c0.7-0.5,1.3-1.4,2-1.8&#10;&#9;&#9;&#9;&#9;c0.4-0.3,1-0.1,1.3,0.4s0.1,1.1-0.3,1.3c-0.7,0.4-1.8,0.5-2.5,0.8c0.8,0.3,1.9,0.4,2.5,0.8c0.4,0.2,0.6,0.8,0.3,1.3&#10;&#9;&#9;&#9;&#9;c-0.3,0.5-0.9,0.7-1.3,0.4c-0.7-0.4-1.3-1.3-2-1.8c0.1,0.8,0.6,1.8,0.6,2.6c0,0.5-0.4,0.9-1,0.9&#10;&#9;&#9;&#9;&#9;C349.5,209.8,349.1,209.3,349.1,208.8z" id="SJ74EqM0jCM"/>
			<path d="M356.3,212.6l8-3l-8-3.1v-3.2l11.1,4.6v3.2l-11.1,4.6V212.6z" id="Sk4NV9GCsRG"/>
		</g>
		<g id="HkBE4qfRi0f">
			<rect x="318.8" y="228" width="108.2" height="5.3" id="H18E49M0o0f"/>
			<rect x="318.8" y="237.2" width="73.8" height="5.3" id="rkD4EqGRiAG"/>
			<rect x="318.8" y="246.4" width="92.2" height="5.3" id="S1uVV9MCsRM"/>
			<rect x="318.8" y="255.6" width="63.3" height="5.3" id="Hkt4VqGRi0f"/>
			<rect x="318.8" y="264.8" width="101.5" height="5.3" id="Syq4EqfRs0z"/>
		</g>
		<g id="SJsV4cM0jAz">
			<g id="HkhNNcfRo0z">
				<g id="r16EV5MRo0z">
					<line x1="123.3" y1="220.1" x2="123.3" y2="220.1" id="B10VE9zRjAf"/>
					<line x1="123.3" y1="211.9" x2="123.3" y2="207.8" id="SJ1S4qGCjCz"/>
					<line x1="123.3" y1="203.7" x2="123.3" y2="203.7" id="B1eSE5M0oAG"/>
				</g>
			</g>
			<g id="Sybr4cf0oRf">
				<g id="ryMHEcz0sRG">
					<line x1="113.7" y1="220.1" x2="113.7" y2="220.1" id="Bk7HN5zRoAG"/>
					<line x1="113.7" y1="208.7" x2="113.7" y2="208.7" id="SkNSE5fAoRG"/>
				</g>
			</g>
			<g id="S1SB45G0sAG">
				<g id="ryLrV9zAjRG">
					<line x1="132.8" y1="220.1" x2="132.8" y2="220.1" id="H1wBN9zRo0f"/>
					<line x1="132.8" y1="208.7" x2="132.8" y2="208.7" id="SyuS45fAoCf"/>
				</g>
			</g>
		</g>
		<g id="rytrEqfRi0f">
			
				<linearGradient id="SVGID_39_" gradientUnits="userSpaceOnUse" x1="378.85" y1="208.6" x2="378.85" y2="271" gradientTransform="matrix(1 0 0 -1 0 502)">
				<stop offset="0" style="stop-color:#F56536"/>
				<stop offset="1" style="stop-color:#FE9B21"/>
			</linearGradient>
			<polygon points="404.2,293.4 353.5,293.4 366.1,231 391.6,231 &#9;&#9;&#9;" id="S1qBEqGAjAz"/>
			
				<linearGradient id="SVGID_40_" gradientUnits="userSpaceOnUse" x1="378.8" y1="199" x2="378.8" y2="208.6338" gradientTransform="matrix(1 0 0 -1 0 502)">
				<stop offset="0" style="stop-color:#F56536"/>
				<stop offset="1" style="stop-color:#FE9B21"/>
			</linearGradient>
			<rect x="346.5" y="293.4" width="64.6" height="9.6" id="SkorV9zRs0f"/>
			<path d="M392.7,236.1H365l-1.8,8.8h31.2L392.7,236.1z M401.3,278.9h-44.8l-1.8,8.8H403L401.3,278.9z M398.4,264.6&#10;&#9;&#9;&#9;&#9;h-39.1l-1.8,8.8h42.6L398.4,264.6z M395.5,250.3h-33.4l-1.8,8.8h36.9L395.5,250.3z" id="r13HEcM0iRG"/>
			
				<linearGradient id="SVGID_41_" gradientUnits="userSpaceOnUse" x1="379" y1="208.6338" x2="379" y2="217.6924" gradientTransform="matrix(1 0 0 -1 0 502)">
				<stop offset="0" style="stop-color:#2488A3"/>
				<stop offset="0.1332" style="stop-color:#54A2B7"/>
				<stop offset="0.2941" style="stop-color:#88BECD"/>
				<stop offset="0.4528" style="stop-color:#B3D5DF"/>
				<stop offset="0.6056" style="stop-color:#D4E8ED"/>
				<stop offset="0.7509" style="stop-color:#ECF5F7"/>
				<stop offset="0.8858" style="stop-color:#FAFCFD"/>
				<stop offset="1" style="stop-color:#FFFFFF"/>
			</linearGradient>
			<polygon points="355.5,284.3 353.7,293.4 404.3,293.4 402.5,284.3 &#9;&#9;&#9;" id="ByaH4czRjAf"/>
		</g>
		
			<linearGradient id="SVGID_42_" gradientUnits="userSpaceOnUse" x1="249.952" y1="191" x2="249.952" y2="199" gradientTransform="matrix(1 0 0 -1 0 502)">
			<stop offset="0" style="stop-color:#385964"/>
			<stop offset="1" style="stop-color:#507E8F"/>
		</linearGradient>
		<path d="M440.8,311H59.2c-2.2,0-4-1.8-4-4l0,0c0-2.2,1.8-4,4-4h381.5c2.2,0,4,1.8,4,4l0,0&#10;&#9;&#9;&#9;C444.8,309.2,443,311,440.8,311z" id="HJCHVczAiAz"/>
		<g id="rJyU4cMCiAG">
			<path d="M329.8,184.8c-0.3,0-0.6-0.1-0.9-0.3l-8.5-6.1c-0.7-0.5-0.8-1.4-0.4-2.1c0.5-0.7,1.4-0.8,2.1-0.4l8.5,6.1&#10;&#9;&#9;&#9;&#9;c0.7,0.5,0.8,1.4,0.4,2.1C330.7,184.6,330.3,184.8,329.8,184.8z" id="H1eIV5z0oRf"/>
			<path d="M327.5,191.7h-11.2c-0.8,0-1.5-0.7-1.5-1.5s0.7-1.5,1.5-1.5h11.2c0.8,0,1.5,0.7,1.5,1.5&#10;&#9;&#9;&#9;&#9;S328.3,191.7,327.5,191.7z" id="rJZUNqfCjRf"/>
		</g>
	</g>
	<g id="HkzUN9zAj0G">
		<g id="rkQI4cz0jRz">
			<path d="M148.8,382V359h9.6c1,0,2,0.2,2.8,0.6s1.6,1,2.2,1.7c0.6,0.7,1.1,1.5,1.4,2.4s0.5,1.8,0.5,2.7&#10;&#9;&#9;&#9;&#9;c0,1-0.2,1.9-0.5,2.8s-0.8,1.7-1.4,2.4c-0.6,0.7-1.3,1.2-2.1,1.7c-0.8,0.4-1.8,0.6-2.8,0.6h-6.9v8.3H148.8z M151.7,371.2h6.7&#10;&#9;&#9;&#9;&#9;c0.6,0,1.2-0.1,1.6-0.4s0.9-0.6,1.3-1s0.6-1,0.8-1.5c0.2-0.6,0.3-1.2,0.3-1.9c0-0.7-0.1-1.3-0.3-1.9c-0.2-0.6-0.5-1.1-0.9-1.5&#10;&#9;&#9;&#9;&#9;c-0.4-0.4-0.8-0.8-1.3-1c-0.5-0.2-1-0.4-1.6-0.4h-6.5V371.2z" id="B1ELEqf0sAM"/>
			<path d="M165,382l9.5-23.1h2.4l9.5,23.1h-3.1l-2.7-6.8h-9.7l-2.7,6.8H165z M175.7,362.3l-4.3,10.7h8.5L175.7,362.3z&#10;&#9;&#9;&#9;&#9;" id="HyrUVcM0j0z"/>
			<path d="M205.9,378.9c-2,2.2-4.4,3.3-7,3.3c-1.5,0-3-0.3-4.3-1c-1.3-0.7-2.4-1.6-3.4-2.7s-1.7-2.3-2.3-3.8&#10;&#9;&#9;&#9;&#9;s-0.8-2.9-0.8-4.4c0-1.6,0.3-3,0.8-4.4c0.5-1.4,1.3-2.6,2.2-3.7c1-1.1,2.1-1.9,3.4-2.6c1.3-0.6,2.8-0.9,4.3-0.9&#10;&#9;&#9;&#9;&#9;c2.2,0,4.1,0.5,5.5,1.4c1.4,0.9,2.5,2.1,3.3,3.6l-2.2,1.6c-0.7-1.3-1.6-2.3-2.8-3c-1.1-0.7-2.4-1-3.9-1c-1.2,0-2.2,0.3-3.2,0.8&#10;&#9;&#9;&#9;&#9;c-1,0.5-1.8,1.2-2.4,2c-0.7,0.8-1.2,1.8-1.6,2.9c-0.4,1.1-0.6,2.2-0.6,3.4c0,1.2,0.2,2.4,0.6,3.5c0.4,1.1,1,2.1,1.7,2.9&#10;&#9;&#9;&#9;&#9;c0.7,0.8,1.6,1.5,2.5,2c1,0.5,2,0.7,3.2,0.7c2.5,0,4.8-1.2,6.8-3.6v-3.2h-5v-2.2h7.4V382h-2.5V378.9z" id="SyL8NczCi0f"/>
			<path d="M228.5,379.4v2.6h-15.7V359h15.4v2.6h-12.5v7.5h10.8v2.4h-10.8v8H228.5z" id="H1wIEcfCjAf"/>
			<path d="M250.3,379.6c1.3,0,2.5-0.3,3.4-0.8c0.9-0.5,1.6-1.2,2.1-2c0.5-0.8,0.9-1.8,1.1-2.9s0.3-2.2,0.3-3.3V359&#10;&#9;&#9;&#9;&#9;h2.9v11.7c0,1.6-0.2,3-0.5,4.4s-0.9,2.6-1.7,3.7c-0.8,1.1-1.8,1.9-3,2.5c-1.2,0.6-2.8,0.9-4.5,0.9c-1.8,0-3.4-0.3-4.7-1&#10;&#9;&#9;&#9;&#9;s-2.3-1.5-3-2.6c-0.8-1.1-1.3-2.3-1.7-3.7c-0.3-1.4-0.5-2.8-0.5-4.3V359h2.9v11.7c0,1.1,0.1,2.3,0.3,3.3c0.2,1.1,0.6,2,1.1,2.8&#10;&#9;&#9;&#9;&#9;c0.5,0.8,1.2,1.5,2.1,2C247.9,379.3,249,379.6,250.3,379.6z" id="r1OUE9fCsCf"/>
			<path d="M268.3,364.4V382h-2.9V359h2.3l14.3,18v-18h2.9V382h-2.5L268.3,364.4z" id="B1KUN5fCjCz"/>
			<path d="M290.4,382V359h8c1.8,0,3.5,0.3,4.9,0.9c1.4,0.6,2.6,1.4,3.5,2.5c0.9,1,1.6,2.3,2.1,3.7s0.7,2.9,0.7,4.5&#10;&#9;&#9;&#9;&#9;c0,1.8-0.3,3.3-0.8,4.8c-0.5,1.4-1.3,2.6-2.2,3.6s-2.2,1.8-3.5,2.3s-2.9,0.8-4.6,0.8H290.4z M306.6,370.5c0-1.3-0.2-2.5-0.5-3.6&#10;&#9;&#9;&#9;&#9;c-0.4-1.1-0.9-2-1.6-2.8c-0.7-0.8-1.6-1.4-2.6-1.8c-1-0.4-2.2-0.7-3.5-0.7h-5.1v17.9h5.1c1.3,0,2.5-0.2,3.5-0.7&#10;&#9;&#9;&#9;&#9;c1-0.5,1.9-1.1,2.6-1.9c0.7-0.8,1.2-1.8,1.6-2.8C306.4,372.9,306.6,371.7,306.6,370.5z" id="Hk5UNcfAjAG"/>
			<path d="M329.4,379.4v2.6h-15.7V359h15.4v2.6h-12.5v7.5h10.8v2.4h-10.8v8H329.4z" id="SksUVqMCjCG"/>
			<path d="M333.6,382V359h9.9c1,0,2,0.2,2.8,0.6s1.6,1,2.2,1.7c0.6,0.7,1.1,1.5,1.4,2.4s0.5,1.8,0.5,2.7&#10;&#9;&#9;&#9;&#9;c0,0.8-0.1,1.6-0.3,2.3c-0.2,0.7-0.6,1.4-1,2c-0.4,0.6-0.9,1.1-1.5,1.6s-1.3,0.7-2,0.9l5.6,8.8h-3.3l-5.3-8.3h-6.1v8.3H333.6z&#10;&#9;&#9;&#9;&#9; M336.5,371.2h7c0.6,0,1.2-0.1,1.6-0.4c0.5-0.3,0.9-0.6,1.3-1.1s0.6-1,0.8-1.5s0.3-1.2,0.3-1.8c0-0.7-0.1-1.3-0.3-1.8&#10;&#9;&#9;&#9;&#9;s-0.5-1.1-0.9-1.5c-0.4-0.4-0.8-0.8-1.3-1s-1-0.4-1.6-0.4h-6.8V371.2z" id="SkhLNqfRiAz"/>
		</g>
		<g id="SJpINcGCiAM">
			<path d="M122.3,398.2c0-1.4,0.2-2.8,0.7-4.1c0.5-1.4,1.2-2.6,2.1-3.7c0.9-1.1,2.1-2,3.5-2.7s2.9-1,4.7-1&#10;&#9;&#9;&#9;&#9;c2.1,0,3.8,0.5,5.3,1.4c1.5,0.9,2.6,2.1,3.3,3.6l-2.3,1.5c-0.3-0.7-0.8-1.4-1.3-1.9s-1-0.9-1.6-1.2c-0.6-0.3-1.2-0.5-1.8-0.7&#10;&#9;&#9;&#9;&#9;c-0.6-0.1-1.2-0.2-1.8-0.2c-1.3,0-2.4,0.3-3.4,0.8c-1,0.5-1.8,1.2-2.5,2.1c-0.7,0.9-1.2,1.8-1.5,2.9s-0.5,2.2-0.5,3.2&#10;&#9;&#9;&#9;&#9;c0,1.2,0.2,2.4,0.6,3.5c0.4,1.1,1,2.1,1.7,2.9c0.7,0.8,1.6,1.5,2.5,2c1,0.5,2,0.7,3.2,0.7c0.6,0,1.2-0.1,1.9-0.2&#10;&#9;&#9;&#9;&#9;c0.6-0.2,1.3-0.4,1.8-0.7c0.6-0.3,1.1-0.8,1.6-1.3c0.5-0.5,0.9-1.1,1.3-1.8l2.4,1.3c-0.4,0.9-0.9,1.6-1.5,2.3&#10;&#9;&#9;&#9;&#9;c-0.7,0.7-1.4,1.2-2.2,1.7c-0.8,0.5-1.7,0.8-2.7,1c-0.9,0.2-1.8,0.4-2.7,0.4c-1.6,0-3-0.3-4.4-1c-1.3-0.7-2.5-1.6-3.4-2.7&#10;&#9;&#9;&#9;&#9;c-1-1.1-1.7-2.4-2.2-3.8C122.6,401.2,122.3,399.7,122.3,398.2z" id="SyCLN5MCoCf"/>
			<path d="M155.2,410.1c-1.6,0-3.1-0.3-4.4-1s-2.5-1.5-3.4-2.6c-1-1.1-1.7-2.3-2.2-3.8c-0.5-1.4-0.8-2.9-0.8-4.3&#10;&#9;&#9;&#9;&#9;c0-1.5,0.3-3,0.8-4.4s1.3-2.7,2.3-3.7s2.1-1.9,3.5-2.6c1.3-0.6,2.8-1,4.3-1c1.6,0,3.1,0.3,4.4,1c1.3,0.7,2.5,1.6,3.4,2.7&#10;&#9;&#9;&#9;&#9;c1,1.1,1.7,2.4,2.2,3.8c0.5,1.4,0.8,2.8,0.8,4.3c0,1.5-0.3,3-0.8,4.4c-0.6,1.4-1.3,2.7-2.3,3.7c-1,1.1-2.1,1.9-3.4,2.6&#10;&#9;&#9;&#9;&#9;C158.2,409.8,156.8,410.1,155.2,410.1z M147.3,398.4c0,1.2,0.2,2.3,0.6,3.4s0.9,2.1,1.6,2.9c0.7,0.8,1.5,1.5,2.5,2&#10;&#9;&#9;&#9;&#9;c1,0.5,2.1,0.7,3.3,0.7c1.2,0,2.3-0.3,3.3-0.8s1.8-1.2,2.5-2.1s1.2-1.8,1.6-2.9c0.4-1.1,0.5-2.2,0.5-3.3c0-1.2-0.2-2.3-0.6-3.4&#10;&#9;&#9;&#9;&#9;s-0.9-2.1-1.6-2.9s-1.5-1.5-2.5-2c-1-0.5-2-0.7-3.2-0.7c-1.2,0-2.3,0.3-3.3,0.8c-1,0.5-1.8,1.2-2.5,2c-0.7,0.8-1.2,1.8-1.6,2.9&#10;&#9;&#9;&#9;&#9;C147.5,396.2,147.3,397.3,147.3,398.4z" id="rkyPN5zCjAz"/>
			<path d="M173.1,392.3v17.6h-2.9v-23.1h2.3l14.3,18v-18h2.9v23.1h-2.5L173.1,392.3z" id="HkeDV9MRoRf"/>
			<path d="M208.9,391.7c-0.3-0.3-0.6-0.6-1-0.9c-0.4-0.3-0.9-0.5-1.5-0.8c-0.5-0.2-1.1-0.4-1.8-0.6&#10;&#9;&#9;&#9;&#9;c-0.6-0.1-1.3-0.2-2-0.2c-1.8,0-3.1,0.3-4,1s-1.3,1.6-1.3,2.8c0,0.6,0.1,1.1,0.4,1.6c0.2,0.4,0.6,0.8,1.1,1.1&#10;&#9;&#9;&#9;&#9;c0.5,0.3,1.1,0.5,1.9,0.8c0.8,0.2,1.7,0.4,2.7,0.7c1.2,0.3,2.3,0.6,3.2,0.9c1,0.3,1.8,0.8,2.5,1.3s1.2,1.1,1.6,1.8&#10;&#9;&#9;&#9;&#9;c0.4,0.7,0.5,1.6,0.5,2.6c0,1.1-0.2,2.1-0.7,2.9c-0.4,0.8-1,1.5-1.8,2c-0.7,0.5-1.6,0.9-2.7,1.2c-1,0.2-2.1,0.4-3.3,0.4&#10;&#9;&#9;&#9;&#9;c-1.8,0-3.5-0.3-5.1-0.8c-1.6-0.6-3-1.4-4.3-2.4l1.4-2.5c0.3,0.4,0.8,0.7,1.3,1.1c0.6,0.4,1.2,0.7,1.9,1c0.7,0.3,1.5,0.5,2.3,0.7&#10;&#9;&#9;&#9;&#9;c0.8,0.2,1.7,0.3,2.6,0.3c1.6,0,2.9-0.3,3.8-0.9c0.9-0.6,1.4-1.5,1.4-2.6c0-0.7-0.1-1.2-0.4-1.6c-0.3-0.4-0.7-0.8-1.3-1.2&#10;&#9;&#9;&#9;&#9;c-0.6-0.3-1.3-0.6-2.1-0.9c-0.8-0.2-1.8-0.5-2.8-0.8c-1.2-0.3-2.2-0.6-3.1-0.9c-0.9-0.3-1.6-0.7-2.2-1.2c-0.6-0.5-1-1-1.4-1.7&#10;&#9;&#9;&#9;&#9;s-0.5-1.4-0.5-2.3c0-1.1,0.2-2.1,0.6-2.9c0.4-0.8,1-1.6,1.7-2.1c0.7-0.6,1.6-1,2.6-1.3c1-0.3,2.1-0.4,3.3-0.4&#10;&#9;&#9;&#9;&#9;c1.6,0,3,0.2,4.2,0.7c1.3,0.5,2.4,1.1,3.3,1.9L208.9,391.7z" id="ry-v49GAiAG"/>
			<path d="M231.6,389.5h-8v20.5h-2.9v-20.5h-8v-2.6h18.9V389.5z" id="r1MPV5GAj0M"/>
			<path d="M235,409.9v-23.1h9.9c1,0,2,0.2,2.8,0.6s1.6,1,2.2,1.7c0.6,0.7,1.1,1.5,1.4,2.4c0.3,0.9,0.5,1.8,0.5,2.7&#10;&#9;&#9;&#9;&#9;c0,0.8-0.1,1.6-0.3,2.3c-0.2,0.7-0.6,1.4-1,2c-0.4,0.6-0.9,1.1-1.5,1.6c-0.6,0.4-1.3,0.7-2,0.9l5.6,8.8h-3.3l-5.3-8.3h-6.1v8.3&#10;&#9;&#9;&#9;&#9;H235z M237.9,399.1h7c0.6,0,1.2-0.1,1.6-0.4c0.5-0.3,0.9-0.6,1.3-1.1s0.6-1,0.8-1.5c0.2-0.6,0.3-1.2,0.3-1.8&#10;&#9;&#9;&#9;&#9;c0-0.7-0.1-1.3-0.3-1.8c-0.2-0.6-0.5-1.1-0.9-1.5c-0.4-0.4-0.8-0.8-1.3-1c-0.5-0.2-1-0.4-1.6-0.4h-6.8V399.1z" id="SyXPV5GCjRf"/>
			<path d="M265.9,407.5c1.3,0,2.5-0.3,3.3-0.8s1.6-1.2,2.1-2c0.5-0.8,0.9-1.8,1.1-2.9c0.2-1.1,0.3-2.2,0.3-3.3v-11.7&#10;&#9;&#9;&#9;&#9;h2.9v11.7c0,1.6-0.2,3-0.5,4.4c-0.4,1.4-0.9,2.6-1.7,3.7c-0.8,1.1-1.8,1.9-3,2.5c-1.2,0.6-2.8,0.9-4.5,0.9c-1.8,0-3.4-0.3-4.7-1&#10;&#9;&#9;&#9;&#9;c-1.3-0.7-2.3-1.5-3-2.6c-0.8-1.1-1.3-2.3-1.7-3.7c-0.3-1.4-0.5-2.8-0.5-4.3v-11.7h2.9v11.7c0,1.1,0.1,2.3,0.3,3.3s0.6,2,1.1,2.8&#10;&#9;&#9;&#9;&#9;c0.5,0.8,1.2,1.5,2.1,2C263.5,407.2,264.6,407.5,265.9,407.5z" id="HyNDV5zCoCf"/>
			<path d="M279.5,398.2c0-1.4,0.2-2.8,0.7-4.1c0.5-1.4,1.2-2.6,2.1-3.7c0.9-1.1,2.1-2,3.5-2.7c1.4-0.7,2.9-1,4.7-1&#10;&#9;&#9;&#9;&#9;c2.1,0,3.8,0.5,5.3,1.4c1.5,0.9,2.6,2.1,3.3,3.6l-2.3,1.5c-0.3-0.7-0.8-1.4-1.3-1.9c-0.5-0.5-1-0.9-1.6-1.2&#10;&#9;&#9;&#9;&#9;c-0.6-0.3-1.2-0.5-1.8-0.7c-0.6-0.1-1.2-0.2-1.8-0.2c-1.3,0-2.4,0.3-3.4,0.8s-1.8,1.2-2.5,2.1c-0.7,0.9-1.2,1.8-1.5,2.9&#10;&#9;&#9;&#9;&#9;s-0.5,2.2-0.5,3.2c0,1.2,0.2,2.4,0.6,3.5c0.4,1.1,1,2.1,1.7,2.9s1.6,1.5,2.5,2c1,0.5,2,0.7,3.2,0.7c0.6,0,1.2-0.1,1.9-0.2&#10;&#9;&#9;&#9;&#9;c0.6-0.2,1.3-0.4,1.8-0.7c0.6-0.3,1.1-0.8,1.6-1.3c0.5-0.5,0.9-1.1,1.3-1.8l2.4,1.3c-0.4,0.9-0.9,1.6-1.5,2.3s-1.4,1.2-2.2,1.7&#10;&#9;&#9;&#9;&#9;s-1.7,0.8-2.7,1c-0.9,0.2-1.8,0.4-2.7,0.4c-1.6,0-3-0.3-4.4-1c-1.3-0.7-2.5-1.6-3.4-2.7c-1-1.1-1.7-2.4-2.2-3.8&#10;&#9;&#9;&#9;&#9;S279.5,399.7,279.5,398.2z" id="HkrDNczCoAM"/>
			<path d="M319.6,389.5h-8v20.5h-2.9v-20.5h-8v-2.6h18.9V389.5z" id="r1LvVcGAsRf"/>
			<path d="M322.9,409.9v-23.1h2.9v23.1H322.9z" id="B1vv4qG0iAz"/>
			<path d="M340.8,410.1c-1.6,0-3.1-0.3-4.4-1c-1.3-0.7-2.5-1.5-3.4-2.6c-1-1.1-1.7-2.3-2.2-3.8&#10;&#9;&#9;&#9;&#9;c-0.5-1.4-0.8-2.9-0.8-4.3c0-1.5,0.3-3,0.8-4.4s1.3-2.7,2.3-3.7s2.1-1.9,3.5-2.6c1.3-0.6,2.8-1,4.3-1c1.6,0,3.1,0.3,4.4,1&#10;&#9;&#9;&#9;&#9;c1.3,0.7,2.5,1.6,3.4,2.7c1,1.1,1.7,2.4,2.2,3.8s0.8,2.8,0.8,4.3c0,1.5-0.3,3-0.8,4.4c-0.6,1.4-1.3,2.7-2.3,3.7&#10;&#9;&#9;&#9;&#9;c-1,1.1-2.1,1.9-3.4,2.6C343.8,409.8,342.4,410.1,340.8,410.1z M332.9,398.4c0,1.2,0.2,2.3,0.6,3.4c0.4,1.1,0.9,2.1,1.6,2.9&#10;&#9;&#9;&#9;&#9;c0.7,0.8,1.5,1.5,2.5,2c1,0.5,2.1,0.7,3.3,0.7c1.2,0,2.3-0.3,3.3-0.8s1.8-1.2,2.5-2.1c0.7-0.9,1.2-1.8,1.6-2.9&#10;&#9;&#9;&#9;&#9;c0.4-1.1,0.5-2.2,0.5-3.3c0-1.2-0.2-2.3-0.6-3.4c-0.4-1.1-0.9-2.1-1.6-2.9c-0.7-0.8-1.5-1.5-2.5-2c-1-0.5-2-0.7-3.2-0.7&#10;&#9;&#9;&#9;&#9;c-1.2,0-2.3,0.3-3.3,0.8c-1,0.5-1.8,1.2-2.5,2s-1.2,1.8-1.6,2.9C333.1,396.2,332.9,397.3,332.9,398.4z" id="HJdw49M0iCz"/>
			<path d="M358.7,392.3v17.6h-2.9v-23.1h2.3l14.3,18v-18h2.9v23.1h-2.5L358.7,392.3z" id="SkFwNczCj0z"/>
		</g>
	</g>
	<g id="S15PE9GAs0G">
		<path d="M179.4,440.1v-9.7h0.9v9.7H179.4z" id="Hysw49MCsCf"/>
		<path d="M188,440.3c-0.4,0-0.7-0.1-1-0.2s-0.6-0.3-0.8-0.5s-0.4-0.4-0.5-0.7c-0.1-0.3-0.2-0.5-0.2-0.8&#10;&#9;&#9;&#9;c0-0.3,0.1-0.6,0.2-0.9c0.1-0.3,0.3-0.5,0.6-0.7c0.3-0.2,0.6-0.3,0.9-0.4c0.4-0.1,0.8-0.2,1.2-0.2c0.4,0,0.7,0,1.1,0.1&#10;&#9;&#9;&#9;c0.4,0.1,0.7,0.2,1,0.3v-0.6c0-0.6-0.2-1.1-0.5-1.5c-0.4-0.4-0.8-0.6-1.5-0.6c-0.4,0-0.8,0.1-1.1,0.2c-0.4,0.1-0.8,0.4-1.2,0.6&#10;&#9;&#9;&#9;l-0.3-0.6c0.5-0.3,0.9-0.5,1.3-0.7c0.4-0.2,0.9-0.2,1.4-0.2c0.9,0,1.5,0.3,2.1,0.8c0.5,0.5,0.8,1.2,0.8,2.1v3.2&#10;&#9;&#9;&#9;c0,0.3,0.1,0.4,0.3,0.4v0.8c-0.1,0-0.1,0-0.2,0s-0.1,0-0.2,0c-0.2,0-0.3-0.1-0.5-0.2c-0.1-0.1-0.2-0.3-0.3-0.5l0-0.6&#10;&#9;&#9;&#9;c-0.3,0.4-0.7,0.7-1.2,1C189,440.2,188.5,440.3,188,440.3z M188.2,439.6c0.4,0,0.8-0.1,1.2-0.3s0.7-0.4,1-0.7&#10;&#9;&#9;&#9;c0.1-0.1,0.1-0.2,0.2-0.3c0-0.1,0.1-0.2,0.1-0.3v-1.2c-0.3-0.1-0.6-0.2-1-0.3c-0.3-0.1-0.7-0.1-1-0.1c-0.7,0-1.2,0.1-1.6,0.4&#10;&#9;&#9;&#9;c-0.4,0.3-0.6,0.6-0.6,1.1c0,0.2,0,0.4,0.1,0.6s0.2,0.3,0.3,0.5s0.3,0.3,0.6,0.4S187.9,439.6,188.2,439.6z" id="rk3vNcfCi0z"/>
		<path d="M204.1,440.1h-0.9v-4c0-0.8-0.1-1.4-0.4-1.8s-0.7-0.6-1.2-0.6c-0.3,0-0.5,0.1-0.8,0.2s-0.5,0.2-0.7,0.4&#10;&#9;&#9;&#9;c-0.2,0.2-0.4,0.4-0.5,0.6s-0.3,0.5-0.4,0.8v4.3h-0.9v-4c0-0.8-0.1-1.5-0.4-1.8c-0.3-0.4-0.6-0.6-1.2-0.6c-0.5,0-1,0.2-1.4,0.6&#10;&#9;&#9;&#9;c-0.4,0.4-0.7,0.9-0.9,1.5v4.3h-0.9V433h0.8v1.6c0.3-0.5,0.7-1,1.1-1.3c0.5-0.3,1-0.5,1.6-0.5c0.6,0,1.1,0.2,1.4,0.5&#10;&#9;&#9;&#9;s0.6,0.8,0.7,1.3c0.7-1.2,1.6-1.8,2.8-1.8c0.4,0,0.7,0.1,1,0.2c0.3,0.1,0.5,0.4,0.7,0.6c0.2,0.3,0.3,0.6,0.4,1s0.1,0.8,0.1,1.3&#10;&#9;&#9;&#9;V440.1z" id="BJ6vE5z0i0f"/>
		<path d="M211.9,440.3c-0.6,0-1.1-0.1-1.6-0.3c-0.5-0.2-1-0.4-1.4-0.8l0.4-0.6c0.4,0.3,0.8,0.6,1.2,0.7&#10;&#9;&#9;&#9;c0.4,0.2,0.9,0.2,1.3,0.2c0.6,0,1-0.1,1.4-0.3c0.3-0.2,0.5-0.6,0.5-1c0-0.2,0-0.4-0.1-0.5c-0.1-0.1-0.2-0.2-0.4-0.3&#10;&#9;&#9;&#9;c-0.2-0.1-0.4-0.2-0.7-0.3c-0.3-0.1-0.6-0.2-0.9-0.2c-0.4-0.1-0.8-0.2-1.1-0.3s-0.5-0.2-0.7-0.3c-0.2-0.1-0.3-0.3-0.4-0.5&#10;&#9;&#9;&#9;c-0.1-0.2-0.1-0.4-0.1-0.7c0-0.4,0.1-0.7,0.2-0.9s0.3-0.5,0.6-0.7c0.2-0.2,0.5-0.3,0.8-0.4c0.3-0.1,0.7-0.1,1-0.1&#10;&#9;&#9;&#9;c0.5,0,1,0.1,1.5,0.3c0.4,0.2,0.8,0.4,1.1,0.7l-0.4,0.5c-0.3-0.3-0.6-0.5-1-0.6c-0.4-0.1-0.8-0.2-1.2-0.2c-0.2,0-0.5,0-0.7,0.1&#10;&#9;&#9;&#9;s-0.4,0.1-0.6,0.2c-0.2,0.1-0.3,0.2-0.4,0.4s-0.1,0.4-0.1,0.6c0,0.2,0,0.3,0.1,0.5c0.1,0.1,0.2,0.2,0.3,0.3&#10;&#9;&#9;&#9;c0.1,0.1,0.3,0.2,0.6,0.2c0.2,0.1,0.5,0.1,0.8,0.2c0.5,0.1,0.9,0.2,1.2,0.3c0.3,0.1,0.6,0.2,0.9,0.4s0.4,0.3,0.5,0.5&#10;&#9;&#9;&#9;s0.2,0.5,0.2,0.8c0,0.7-0.3,1.2-0.7,1.6C213.4,440.1,212.8,440.3,211.9,440.3z" id="BkAPVqMAoAz"/>
		<path d="M219.6,439.8c-0.1,0-0.1,0.1-0.2,0.1c-0.1,0-0.2,0.1-0.4,0.1c-0.1,0-0.3,0.1-0.5,0.1s-0.4,0.1-0.5,0.1&#10;&#9;&#9;&#9;c-0.2,0-0.4,0-0.6-0.1c-0.2-0.1-0.3-0.1-0.5-0.3s-0.2-0.3-0.3-0.4c-0.1-0.2-0.1-0.4-0.1-0.6v-5.1h-1V433h1v-2.4h0.9v2.4h1.6v0.7&#10;&#9;&#9;&#9;h-1.6v4.8c0,0.3,0.1,0.5,0.3,0.6c0.2,0.1,0.4,0.2,0.6,0.2c0.3,0,0.5,0,0.7-0.1c0.2-0.1,0.3-0.1,0.4-0.2L219.6,439.8z" id="H1JuE5zAj0M"/>
		<path d="M220.7,431.5v-1.4h0.9v1.4H220.7z M220.7,440.1V433h0.9v7.1H220.7z" id="ByeuNqMAsRM"/>
		<path d="M223.6,430.2h0.9v8.3c0,0.3,0.1,0.5,0.2,0.6c0.1,0.1,0.3,0.2,0.6,0.2c0.1,0,0.2,0,0.4,0s0.3-0.1,0.4-0.1&#10;&#9;&#9;&#9;l0.2,0.8c-0.2,0.1-0.4,0.1-0.6,0.2c-0.3,0-0.5,0.1-0.6,0.1c-0.4,0-0.8-0.1-1-0.4c-0.2-0.2-0.4-0.6-0.4-1V430.2z" id="SyWOVqGCoCz"/>
		<path d="M227.2,430.2h0.9v8.3c0,0.3,0.1,0.5,0.2,0.6c0.1,0.1,0.3,0.2,0.6,0.2c0.1,0,0.2,0,0.4,0s0.3-0.1,0.4-0.1&#10;&#9;&#9;&#9;l0.2,0.8c-0.2,0.1-0.4,0.1-0.6,0.2c-0.3,0-0.5,0.1-0.6,0.1c-0.4,0-0.8-0.1-1-0.4c-0.2-0.2-0.4-0.6-0.4-1V430.2z" id="BkGu4qMAo0G"/>
		<path d="M242.5,433h0.9l-3,7.1h-0.8l-1.5-3.6l-1.5,3.6h-0.8l-3-7.1h0.9l2.6,6.1l1.3-3.2l-1.2-2.9h0.8l0.9,2.3&#10;&#9;&#9;&#9;l0.9-2.3h0.8l-1.2,2.9l1.3,3.2L242.5,433z" id="SJ7O49G0jRG"/>
		<path d="M247.4,440.3c-0.5,0-1-0.1-1.4-0.3c-0.4-0.2-0.8-0.5-1.1-0.8c-0.3-0.3-0.6-0.7-0.7-1.2s-0.3-0.9-0.3-1.4&#10;&#9;&#9;&#9;c0-0.5,0.1-1,0.3-1.4c0.2-0.4,0.4-0.8,0.7-1.2c0.3-0.3,0.7-0.6,1.1-0.8c0.4-0.2,0.9-0.3,1.4-0.3s1,0.1,1.4,0.3&#10;&#9;&#9;&#9;c0.4,0.2,0.8,0.5,1.1,0.8c0.3,0.3,0.6,0.7,0.7,1.2c0.2,0.4,0.3,0.9,0.3,1.4c0,0.5-0.1,1-0.3,1.4c-0.2,0.4-0.4,0.8-0.7,1.2&#10;&#9;&#9;&#9;c-0.3,0.3-0.7,0.6-1.1,0.8C248.4,440.2,247.9,440.3,247.4,440.3z M244.8,436.6c0,0.4,0.1,0.8,0.2,1.1c0.1,0.3,0.3,0.6,0.5,0.9&#10;&#9;&#9;&#9;c0.2,0.3,0.5,0.5,0.8,0.6c0.3,0.1,0.6,0.2,1,0.2c0.4,0,0.7-0.1,1-0.2c0.3-0.1,0.6-0.4,0.8-0.6c0.2-0.3,0.4-0.6,0.6-0.9&#10;&#9;&#9;&#9;s0.2-0.7,0.2-1.1c0-0.4-0.1-0.8-0.2-1.1s-0.3-0.7-0.6-0.9c-0.2-0.3-0.5-0.5-0.8-0.6c-0.3-0.2-0.6-0.2-1-0.2c-0.4,0-0.7,0.1-1,0.2&#10;&#9;&#9;&#9;c-0.3,0.1-0.6,0.4-0.8,0.6c-0.2,0.3-0.4,0.6-0.6,0.9S244.8,436.2,244.8,436.6z" id="HJ4uE5MRiCf"/>
		<path d="M256,433.9c-0.6,0-1.2,0.2-1.6,0.5s-0.8,0.8-1,1.3v4.4h-0.9V433h0.9v1.7c0.2-0.5,0.6-0.9,1-1.2&#10;&#9;&#9;&#9;c0.4-0.3,0.8-0.5,1.3-0.5c0.1,0,0.2,0,0.2,0c0.1,0,0.1,0,0.2,0V433.9z" id="BkrOV5GCi0G"/>
		<path d="M262.3,440.1l-2.6-3.6l-1.5,1.4v2.2h-0.9v-9.9h0.9v6.8l4-3.9h1l-2.9,2.9l3,4.2H262.3z" id="rkLuVczCi0M"/>
		<path d="M264.4,431.5v-1.4h0.9v1.4H264.4z M264.4,440.1V433h0.9v7.1H264.4z" id="S1DuN9MAj0G"/>
		<path d="M273.3,440.1h-0.9v-4c0-0.8-0.1-1.5-0.4-1.8c-0.2-0.4-0.6-0.6-1.1-0.6c-0.3,0-0.5,0.1-0.8,0.2&#10;&#9;&#9;&#9;c-0.3,0.1-0.5,0.2-0.8,0.4c-0.2,0.2-0.4,0.4-0.6,0.6c-0.2,0.3-0.3,0.5-0.4,0.8v4.3h-0.9V433h0.8v1.6c0.1-0.3,0.3-0.5,0.5-0.7&#10;&#9;&#9;&#9;c0.2-0.2,0.5-0.4,0.7-0.6c0.3-0.2,0.5-0.3,0.8-0.4s0.6-0.1,0.9-0.1c0.4,0,0.7,0.1,1,0.2c0.3,0.1,0.5,0.3,0.6,0.6&#10;&#9;&#9;&#9;c0.2,0.3,0.3,0.6,0.4,1c0.1,0.4,0.1,0.8,0.1,1.3V440.1z" id="Sy_u45fCo0G"/>
		<path d="M278.1,440.2c-0.5,0-0.9-0.1-1.3-0.3c-0.4-0.2-0.8-0.5-1-0.8s-0.5-0.7-0.7-1.2s-0.2-0.9-0.2-1.3&#10;&#9;&#9;&#9;c0-0.5,0.1-1,0.2-1.4s0.4-0.8,0.7-1.2c0.3-0.3,0.6-0.6,1-0.8c0.4-0.2,0.9-0.3,1.3-0.3c0.6,0,1.1,0.2,1.6,0.5&#10;&#9;&#9;&#9;c0.4,0.3,0.8,0.7,1.1,1.2V433h0.8v7.1c0,0.5-0.1,0.9-0.3,1.3c-0.2,0.4-0.4,0.7-0.8,0.9c-0.3,0.3-0.7,0.4-1.1,0.6&#10;&#9;&#9;&#9;c-0.4,0.1-0.9,0.2-1.3,0.2c-0.8,0-1.5-0.1-2-0.4c-0.5-0.3-0.9-0.7-1.2-1.2l0.6-0.5c0.3,0.5,0.7,0.8,1.1,1c0.5,0.2,1,0.3,1.5,0.3&#10;&#9;&#9;&#9;c0.3,0,0.7,0,1-0.1s0.6-0.2,0.8-0.4c0.2-0.2,0.4-0.4,0.6-0.7s0.2-0.6,0.2-1v-1.4c-0.3,0.5-0.7,0.8-1.1,1.1&#10;&#9;&#9;&#9;C279.1,440.1,278.6,440.2,278.1,440.2z M278.3,439.5c0.3,0,0.5,0,0.8-0.1c0.3-0.1,0.5-0.2,0.7-0.4c0.2-0.2,0.4-0.4,0.5-0.6&#10;&#9;&#9;&#9;c0.1-0.2,0.2-0.4,0.3-0.6v-2.2c-0.1-0.3-0.2-0.5-0.4-0.7c-0.2-0.2-0.4-0.4-0.6-0.6s-0.5-0.3-0.7-0.4s-0.5-0.1-0.8-0.1&#10;&#9;&#9;&#9;c-0.4,0-0.8,0.1-1.1,0.3s-0.6,0.4-0.8,0.7s-0.4,0.6-0.5,0.9c-0.1,0.3-0.2,0.7-0.2,1c0,0.4,0.1,0.7,0.2,1.1s0.3,0.6,0.6,0.9&#10;&#9;&#9;&#9;c0.2,0.3,0.5,0.5,0.8,0.6C277.6,439.4,278,439.5,278.3,439.5z" id="S1t_VqzCi0M"/>
		<path d="M290.1,440.3c-0.5,0-1-0.1-1.4-0.3c-0.4-0.2-0.8-0.5-1.1-0.8c-0.3-0.3-0.6-0.7-0.7-1.2&#10;&#9;&#9;&#9;c-0.2-0.4-0.3-0.9-0.3-1.4c0-0.5,0.1-1,0.3-1.4c0.2-0.4,0.4-0.8,0.7-1.2c0.3-0.3,0.7-0.6,1.1-0.8c0.4-0.2,0.9-0.3,1.4-0.3&#10;&#9;&#9;&#9;c0.5,0,1,0.1,1.4,0.3c0.4,0.2,0.8,0.5,1.1,0.8c0.3,0.3,0.6,0.7,0.7,1.2c0.2,0.4,0.3,0.9,0.3,1.4c0,0.5-0.1,1-0.3,1.4&#10;&#9;&#9;&#9;c-0.2,0.4-0.4,0.8-0.7,1.2c-0.3,0.3-0.7,0.6-1.1,0.8C291.1,440.2,290.7,440.3,290.1,440.3z M287.6,436.6c0,0.4,0.1,0.8,0.2,1.1&#10;&#9;&#9;&#9;c0.1,0.3,0.3,0.6,0.5,0.9c0.2,0.3,0.5,0.5,0.8,0.6c0.3,0.1,0.6,0.2,1,0.2c0.4,0,0.7-0.1,1-0.2c0.3-0.1,0.6-0.4,0.8-0.6&#10;&#9;&#9;&#9;s0.4-0.6,0.6-0.9s0.2-0.7,0.2-1.1c0-0.4-0.1-0.8-0.2-1.1s-0.3-0.7-0.6-0.9s-0.5-0.5-0.8-0.6c-0.3-0.2-0.6-0.2-1-0.2&#10;&#9;&#9;&#9;c-0.4,0-0.7,0.1-1,0.2c-0.3,0.1-0.6,0.4-0.8,0.6c-0.2,0.3-0.4,0.6-0.6,0.9C287.6,435.8,287.6,436.2,287.6,436.6z" id="H19dVcMAoRM"/>
		<path d="M301.2,440.1h-0.9v-4c0-0.8-0.1-1.5-0.4-1.8c-0.2-0.4-0.6-0.6-1.1-0.6c-0.3,0-0.5,0.1-0.8,0.2&#10;&#9;&#9;&#9;s-0.5,0.2-0.8,0.4c-0.2,0.2-0.4,0.4-0.6,0.6s-0.3,0.5-0.4,0.8v4.3h-0.9V433h0.8v1.6c0.1-0.3,0.3-0.5,0.5-0.7&#10;&#9;&#9;&#9;c0.2-0.2,0.5-0.4,0.7-0.6s0.5-0.3,0.8-0.4s0.6-0.1,0.9-0.1c0.4,0,0.7,0.1,1,0.2c0.3,0.1,0.5,0.3,0.6,0.6c0.2,0.3,0.3,0.6,0.4,1&#10;&#9;&#9;&#9;c0.1,0.4,0.1,0.8,0.1,1.3V440.1z" id="ryjdN5f0sAf"/>
		<path d="M306.6,431.5v-1.4h0.9v1.4H306.6z M306.6,440.1V433h0.9v7.1H306.6z" id="HynON5GRsCz"/>
		<path d="M312.9,439.8c-0.1,0-0.1,0.1-0.2,0.1c-0.1,0-0.2,0.1-0.4,0.1c-0.1,0-0.3,0.1-0.5,0.1c-0.2,0-0.4,0.1-0.5,0.1&#10;&#9;&#9;&#9;c-0.2,0-0.4,0-0.6-0.1c-0.2-0.1-0.3-0.1-0.5-0.3c-0.1-0.1-0.2-0.3-0.3-0.4c-0.1-0.2-0.1-0.4-0.1-0.6v-5.1h-1V433h1v-2.4h0.9v2.4&#10;&#9;&#9;&#9;h1.6v0.7h-1.6v4.8c0,0.3,0.1,0.5,0.3,0.6c0.2,0.1,0.4,0.2,0.6,0.2c0.3,0,0.5,0,0.7-0.1c0.2-0.1,0.3-0.1,0.4-0.2L312.9,439.8z" id="HyTdNqzRjRG"/>
		<path d="M313.9,440.1v-1.3h0.8v1.3H313.9z" id="HyC_NqzRsCM"/>
		<path d="M316.5,440.1v-1.3h0.8v1.3H316.5z" id="HyytN9zAsRM"/>
		<path d="M319.1,440.1v-1.3h0.8v1.3H319.1z" id="rkxKN5f0oCG"/>
	</g>
	<g id="HJbYNcz0oAz">
		<path d="M205.3,340.4c-0.7,0-1.3-0.2-1.9-0.5s-1.1-0.8-1.4-1.4v1.7h-1v-12.6h1.2v5.5c0.4-0.6,0.9-1.1,1.4-1.5&#10;&#9;&#9;&#9;s1.2-0.6,2-0.6c0.6,0,1.2,0.1,1.7,0.4c0.5,0.3,0.9,0.6,1.3,1.1c0.3,0.4,0.6,0.9,0.8,1.5c0.2,0.6,0.3,1.1,0.3,1.7&#10;&#9;&#9;&#9;c0,0.6-0.1,1.2-0.3,1.8s-0.5,1.1-0.9,1.5c-0.4,0.4-0.8,0.8-1.4,1C206.5,340.2,205.9,340.4,205.3,340.4z M205.1,339.3&#10;&#9;&#9;&#9;c0.5,0,0.9-0.1,1.4-0.3c0.4-0.2,0.8-0.5,1-0.8c0.3-0.3,0.5-0.7,0.7-1.2c0.2-0.4,0.2-0.9,0.2-1.3c0-0.5-0.1-0.9-0.2-1.4&#10;&#9;&#9;&#9;c-0.2-0.4-0.4-0.8-0.7-1.2c-0.3-0.3-0.6-0.6-1-0.8c-0.4-0.2-0.8-0.3-1.3-0.3c-0.4,0-0.7,0.1-1,0.2c-0.3,0.1-0.6,0.3-0.9,0.5&#10;&#9;&#9;&#9;c-0.3,0.2-0.5,0.4-0.7,0.7c-0.2,0.3-0.4,0.6-0.5,0.9v2.8c0,0.3,0.2,0.6,0.4,0.9c0.2,0.3,0.4,0.5,0.7,0.7c0.3,0.2,0.6,0.3,0.9,0.5&#10;&#9;&#9;&#9;C204.5,339.3,204.8,339.3,205.1,339.3z" id="B1MKEqGCo0G"/>
		<path d="M215.5,340.4c-0.7,0-1.3-0.1-1.8-0.4c-0.6-0.2-1-0.6-1.4-1c-0.4-0.4-0.7-0.9-0.9-1.5&#10;&#9;&#9;&#9;c-0.2-0.6-0.3-1.2-0.3-1.8c0-0.6,0.1-1.2,0.3-1.8c0.2-0.6,0.5-1,0.9-1.5c0.4-0.4,0.9-0.8,1.4-1c0.5-0.2,1.1-0.4,1.8-0.4&#10;&#9;&#9;&#9;c0.7,0,1.3,0.1,1.8,0.4c0.5,0.2,1,0.6,1.4,1c0.4,0.4,0.7,0.9,0.9,1.5c0.2,0.5,0.3,1.1,0.3,1.8c0,0.1,0,0.2,0,0.3s0,0.2,0,0.2h-7.7&#10;&#9;&#9;&#9;c0,0.5,0.1,0.9,0.3,1.3c0.2,0.4,0.4,0.8,0.7,1.1c0.3,0.3,0.6,0.5,1,0.7s0.8,0.2,1.2,0.2c0.3,0,0.6,0,0.9-0.1s0.6-0.2,0.8-0.3&#10;&#9;&#9;&#9;c0.2-0.1,0.5-0.3,0.6-0.5c0.2-0.2,0.3-0.4,0.4-0.7l1,0.3c-0.1,0.3-0.3,0.6-0.6,0.9c-0.3,0.3-0.5,0.5-0.9,0.7&#10;&#9;&#9;&#9;c-0.3,0.2-0.7,0.4-1.1,0.5C216.3,340.3,215.9,340.4,215.5,340.4z M218.8,335.2c0-0.5-0.1-0.9-0.3-1.3c-0.2-0.4-0.4-0.7-0.7-1&#10;&#9;&#9;&#9;c-0.3-0.3-0.6-0.5-1-0.7c-0.4-0.2-0.8-0.2-1.2-0.2c-0.4,0-0.8,0.1-1.2,0.2c-0.4,0.2-0.7,0.4-1,0.7c-0.3,0.3-0.5,0.6-0.7,1&#10;&#9;&#9;&#9;c-0.2,0.4-0.3,0.8-0.3,1.3H218.8z" id="BkmFN5M0oCz"/>
		<path d="M230.6,340.4c-0.8,0-1.4-0.2-2-0.6c-0.6-0.4-1.1-0.9-1.4-1.5v5.5H226v-12.6h1v1.7c0.4-0.6,0.8-1,1.4-1.4&#10;&#9;&#9;&#9;c0.6-0.3,1.2-0.5,1.9-0.5c0.6,0,1.2,0.1,1.7,0.4s1,0.6,1.4,1c0.4,0.4,0.7,0.9,0.9,1.5c0.2,0.6,0.3,1.1,0.3,1.7&#10;&#9;&#9;&#9;c0,0.6-0.1,1.2-0.3,1.8c-0.2,0.6-0.5,1.1-0.8,1.5c-0.4,0.4-0.8,0.8-1.3,1C231.8,340.2,231.2,340.4,230.6,340.4z M230.3,339.3&#10;&#9;&#9;&#9;c0.5,0,0.9-0.1,1.3-0.3c0.4-0.2,0.7-0.5,1-0.8c0.3-0.3,0.5-0.7,0.6-1.2c0.1-0.4,0.2-0.9,0.2-1.3c0-0.5-0.1-0.9-0.3-1.4&#10;&#9;&#9;&#9;c-0.2-0.4-0.4-0.8-0.7-1.2c-0.3-0.3-0.7-0.6-1.1-0.8s-0.8-0.3-1.3-0.3c-0.3,0-0.6,0.1-0.9,0.2c-0.3,0.1-0.6,0.3-0.9,0.5&#10;&#9;&#9;&#9;c-0.3,0.2-0.5,0.4-0.7,0.7c-0.2,0.3-0.3,0.6-0.4,0.9v2.8c0.1,0.3,0.3,0.6,0.5,0.9c0.2,0.3,0.5,0.5,0.7,0.7&#10;&#9;&#9;&#9;c0.3,0.2,0.6,0.4,0.9,0.5C229.7,339.3,230,339.3,230.3,339.3z" id="Hy4Y45z0jRG"/>
		<path d="M239,340.4c-0.5,0-0.9-0.1-1.3-0.2s-0.7-0.3-1-0.6c-0.3-0.3-0.5-0.5-0.6-0.9s-0.2-0.7-0.2-1&#10;&#9;&#9;&#9;c0-0.4,0.1-0.8,0.3-1.1c0.2-0.3,0.4-0.6,0.8-0.9c0.3-0.2,0.7-0.4,1.2-0.6c0.5-0.1,1-0.2,1.5-0.2c0.4,0,0.9,0,1.4,0.1&#10;&#9;&#9;&#9;c0.5,0.1,0.9,0.2,1.3,0.3v-0.8c0-0.8-0.2-1.4-0.7-1.9c-0.5-0.5-1.1-0.7-1.8-0.7c-0.5,0-1,0.1-1.4,0.3c-0.5,0.2-1,0.4-1.5,0.8&#10;&#9;&#9;&#9;l-0.4-0.8c0.6-0.4,1.2-0.7,1.7-0.9s1.1-0.3,1.7-0.3c1.1,0,2,0.3,2.6,0.9c0.6,0.6,1,1.5,1,2.6v4c0,0.3,0.1,0.5,0.4,0.5v1&#10;&#9;&#9;&#9;c-0.1,0-0.2,0-0.3,0s-0.1,0-0.2,0c-0.2,0-0.4-0.1-0.6-0.2c-0.2-0.1-0.3-0.3-0.3-0.6l0-0.7c-0.4,0.5-0.9,0.9-1.5,1.2&#10;&#9;&#9;&#9;C240.3,340.2,239.7,340.4,239,340.4z M239.3,339.5c0.5,0,1-0.1,1.5-0.3s0.9-0.5,1.2-0.9c0.1-0.1,0.1-0.2,0.2-0.3&#10;&#9;&#9;&#9;c0.1-0.1,0.1-0.2,0.1-0.3v-1.5c-0.4-0.1-0.8-0.3-1.2-0.3s-0.8-0.1-1.2-0.1c-0.8,0-1.5,0.2-2,0.5c-0.5,0.3-0.8,0.8-0.8,1.4&#10;&#9;&#9;&#9;c0,0.2,0,0.5,0.1,0.7s0.2,0.4,0.4,0.6c0.2,0.2,0.4,0.3,0.7,0.4C238.6,339.4,238.9,339.5,239.3,339.5z" id="SJSF49MCsRG"/>
		<path d="M250.3,339.8c-0.1,0-0.2,0.1-0.3,0.1c-0.1,0.1-0.3,0.1-0.5,0.2c-0.2,0.1-0.4,0.1-0.6,0.2s-0.4,0.1-0.7,0.1&#10;&#9;&#9;&#9;c-0.3,0-0.5,0-0.7-0.1c-0.2-0.1-0.4-0.2-0.6-0.3c-0.2-0.1-0.3-0.3-0.4-0.5c-0.1-0.2-0.2-0.5-0.2-0.8v-6.4h-1.2v-0.9h1.2v-3h1.2v3&#10;&#9;&#9;&#9;h2.1v0.9h-2.1v6.1c0,0.3,0.1,0.6,0.3,0.7c0.2,0.2,0.5,0.2,0.7,0.2c0.3,0,0.6-0.1,0.9-0.2c0.3-0.1,0.4-0.2,0.5-0.2L250.3,339.8z" id="S1Ut49MAsRz"/>
		<path d="M251.6,329.4v-1.7h1.2v1.7H251.6z M251.6,340.2v-9h1.2v9H251.6z" id="BkPYN9MCs0G"/>
		<path d="M259.2,340.4c-0.7,0-1.3-0.1-1.8-0.4c-0.5-0.2-1-0.6-1.4-1c-0.4-0.4-0.7-0.9-0.9-1.5&#10;&#9;&#9;&#9;c-0.2-0.6-0.3-1.2-0.3-1.8c0-0.6,0.1-1.2,0.3-1.8c0.2-0.6,0.5-1,0.9-1.5s0.9-0.8,1.4-1c0.5-0.2,1.1-0.4,1.8-0.4s1.3,0.1,1.8,0.4&#10;&#9;&#9;&#9;c0.5,0.2,1,0.6,1.4,1c0.4,0.4,0.7,0.9,0.9,1.5c0.2,0.5,0.3,1.1,0.3,1.8c0,0.1,0,0.2,0,0.3s0,0.2,0,0.2H256c0,0.5,0.1,0.9,0.3,1.3&#10;&#9;&#9;&#9;c0.2,0.4,0.4,0.8,0.7,1.1c0.3,0.3,0.6,0.5,1,0.7c0.4,0.2,0.8,0.2,1.2,0.2c0.3,0,0.6,0,0.9-0.1c0.3-0.1,0.6-0.2,0.8-0.3&#10;&#9;&#9;&#9;c0.2-0.1,0.5-0.3,0.6-0.5c0.2-0.2,0.3-0.4,0.4-0.7l1,0.3c-0.1,0.3-0.3,0.6-0.6,0.9c-0.3,0.3-0.5,0.5-0.9,0.7&#10;&#9;&#9;&#9;c-0.3,0.2-0.7,0.4-1.1,0.5C260.1,340.3,259.7,340.4,259.2,340.4z M262.5,335.2c0-0.5-0.1-0.9-0.3-1.3c-0.2-0.4-0.4-0.7-0.7-1&#10;&#9;&#9;&#9;c-0.3-0.3-0.6-0.5-1-0.7c-0.4-0.2-0.8-0.2-1.2-0.2s-0.8,0.1-1.2,0.2c-0.4,0.2-0.7,0.4-1,0.7c-0.3,0.3-0.5,0.6-0.7,1&#10;&#9;&#9;&#9;c-0.2,0.4-0.3,0.8-0.3,1.3H262.5z" id="Bk_KVcfCs0G"/>
		<path d="M273,340.2h-1.2v-5c0-1.1-0.2-1.8-0.5-2.3s-0.8-0.7-1.4-0.7c-0.3,0-0.7,0.1-1,0.2c-0.3,0.1-0.7,0.3-1,0.5&#10;&#9;&#9;&#9;c-0.3,0.2-0.6,0.5-0.8,0.8c-0.2,0.3-0.4,0.7-0.5,1v5.5h-1.2v-9h1.1v2c0.2-0.3,0.4-0.6,0.7-0.9c0.3-0.3,0.6-0.5,0.9-0.7&#10;&#9;&#9;&#9;c0.3-0.2,0.7-0.3,1.1-0.4c0.4-0.1,0.8-0.2,1.2-0.2c0.5,0,0.9,0.1,1.3,0.3c0.3,0.2,0.6,0.4,0.8,0.8c0.2,0.3,0.4,0.7,0.4,1.2&#10;&#9;&#9;&#9;c0.1,0.5,0.1,1,0.1,1.6V340.2z" id="S1KF45fCsRG"/>
		<path d="M274.8,335.7c0-0.6,0.1-1.2,0.3-1.8c0.2-0.6,0.5-1.1,0.9-1.5c0.4-0.4,0.9-0.7,1.4-1c0.6-0.2,1.2-0.4,1.8-0.4&#10;&#9;&#9;&#9;c0.8,0,1.6,0.2,2.2,0.6c0.6,0.4,1.1,0.9,1.4,1.6l-1.1,0.4c-0.3-0.5-0.6-0.8-1-1.1c-0.4-0.3-0.9-0.4-1.5-0.4&#10;&#9;&#9;&#9;c-0.5,0-0.9,0.1-1.3,0.3c-0.4,0.2-0.7,0.4-1,0.7c-0.3,0.3-0.5,0.7-0.7,1.1s-0.2,0.9-0.2,1.4c0,0.5,0.1,1,0.3,1.4s0.4,0.8,0.7,1.2&#10;&#9;&#9;&#9;s0.6,0.6,1,0.8c0.4,0.2,0.8,0.3,1.3,0.3c0.3,0,0.6,0,0.9-0.1s0.5-0.2,0.8-0.3c0.2-0.1,0.4-0.3,0.6-0.5c0.2-0.2,0.3-0.4,0.4-0.6&#10;&#9;&#9;&#9;l1.1,0.3c-0.1,0.3-0.3,0.6-0.5,0.9c-0.2,0.3-0.5,0.5-0.9,0.7c-0.3,0.2-0.7,0.4-1.1,0.5c-0.4,0.1-0.8,0.2-1.2,0.2&#10;&#9;&#9;&#9;c-0.7,0-1.3-0.1-1.8-0.4c-0.5-0.2-1-0.6-1.4-1c-0.4-0.4-0.7-0.9-0.9-1.5C274.9,336.9,274.8,336.3,274.8,335.7z" id="Bk5FNqMRsCM"/>
		<path d="M288.8,340.4c-0.7,0-1.3-0.1-1.8-0.4c-0.6-0.2-1-0.6-1.4-1c-0.4-0.4-0.7-0.9-0.9-1.5&#10;&#9;&#9;&#9;c-0.2-0.6-0.3-1.2-0.3-1.8c0-0.6,0.1-1.2,0.3-1.8c0.2-0.6,0.5-1,0.9-1.5c0.4-0.4,0.9-0.8,1.4-1c0.5-0.2,1.1-0.4,1.8-0.4&#10;&#9;&#9;&#9;c0.7,0,1.3,0.1,1.8,0.4c0.5,0.2,1,0.6,1.4,1c0.4,0.4,0.7,0.9,0.9,1.5c0.2,0.5,0.3,1.1,0.3,1.8c0,0.1,0,0.2,0,0.3s0,0.2,0,0.2h-7.7&#10;&#9;&#9;&#9;c0,0.5,0.1,0.9,0.3,1.3s0.4,0.8,0.7,1.1c0.3,0.3,0.6,0.5,1,0.7c0.4,0.2,0.8,0.2,1.2,0.2c0.3,0,0.6,0,0.9-0.1&#10;&#9;&#9;&#9;c0.3-0.1,0.5-0.2,0.8-0.3s0.5-0.3,0.6-0.5c0.2-0.2,0.3-0.4,0.4-0.7l1,0.3c-0.1,0.3-0.3,0.6-0.6,0.9s-0.5,0.5-0.9,0.7&#10;&#9;&#9;&#9;c-0.3,0.2-0.7,0.4-1.1,0.5C289.6,340.3,289.2,340.4,288.8,340.4z M292.1,335.2c0-0.5-0.1-0.9-0.3-1.3c-0.2-0.4-0.4-0.7-0.7-1&#10;&#9;&#9;&#9;c-0.3-0.3-0.6-0.5-1-0.7c-0.4-0.2-0.8-0.2-1.2-0.2c-0.4,0-0.8,0.1-1.2,0.2c-0.4,0.2-0.7,0.4-1,0.7c-0.3,0.3-0.5,0.6-0.7,1&#10;&#9;&#9;&#9;c-0.2,0.4-0.3,0.8-0.3,1.3H292.1z" id="HJot4cMRjCM"/>
		<path d="M294.8,340.2v-1.7h1v1.7H294.8z" id="BJhFE9M0iAf"/>
		<path d="M298.1,340.2v-1.7h1v1.7H298.1z" id="BkaKE9zAsAM"/>
	</g>
</g>
<g id="SyRYNqG0oAf">
</g>
<script>(function(){var a=document.querySelector('#SkVcfCoCG'),b=a.querySelectorAll('style'),c=function(d){b.forEach(function(f){var g=f.textContent;g&amp;&amp;(f.textContent=g.replace(/transform-box:[^;\r\n]*/gi,'transform-box: '+d))})};c('initial'),window.requestAnimationFrame(function(){return c('fill-box')})})();</script></svg>