<svg xmlns="http://www.w3.org/2000/svg" xmlns:xlink="http://www.w3.org/1999/xlink" id="SkVcfCoCG" x="0" y="0" enable-background="new 0 0 500 500" version="1.1" viewBox="0 0 500 500" xml:space="preserve"><style>@-webkit-keyframes Bknb4czCoRf_S1Uvh6AAG_Animation{0%,to{-webkit-transform:translate(0,0);transform:translate(0,0)}25%{-webkit-transform:translate(5px,0);transform:translate(5px,0)}50%{-webkit-transform:translate(3px,0);transform:translate(3px,0)}75%{-webkit-transform:translate(1px,0);transform:translate(1px,0)}}@keyframes Bknb4czCoRf_S1Uvh6AAG_Animation{0%,to{-webkit-transform:translate(0,0);transform:translate(0,0)}25%{-webkit-transform:translate(5px,0);transform:translate(5px,0)}50%{-webkit-transform:translate(3px,0);transform:translate(3px,0)}75%{-webkit-transform:translate(1px,0);transform:translate(1px,0)}}@-webkit-keyframes HJXmN9zCi0z_HJbkxk3AG_Animation{0%,to{-webkit-transform:rotate(405deg);transform:rotate(405deg)}50%{-webkit-transform:rotate(0deg);transform:rotate(0deg)}}@keyframes HJXmN9zCi0z_HJbkxk3AG_Animation{0%,to{-webkit-transform:rotate(405deg);transform:rotate(405deg)}50%{-webkit-transform:rotate(0deg);transform:rotate(0deg)}}@-webkit-keyframes H13zV9zCiRz_HJyn0CsCz_Animation{0%{-webkit-transform:rotate(0deg);transform:rotate(0deg)}50%{-webkit-transform:rotate(405deg);transform:rotate(405deg)}to{-webkit-transform:rotate(45deg);transform:rotate(45deg)}}@keyframes H13zV9zCiRz_HJyn0CsCz_Animation{0%{-webkit-transform:rotate(0deg);transform:rotate(0deg)}50%{-webkit-transform:rotate(405deg);transform:rotate(405deg)}to{-webkit-transform:rotate(45deg);transform:rotate(45deg)}}@-webkit-keyframes rJrzEqf0oRM_S1Cw2AoAM_Animation{0%{-webkit-transform:rotate(405deg);transform:rotate(405deg)}50%{-webkit-transform:rotate(765deg);transform:rotate(765deg)}to{-webkit-transform:rotate(1125deg);transform:rotate(1125deg)}}@keyframes rJrzEqf0oRM_S1Cw2AoAM_Animation{0%{-webkit-transform:rotate(405deg);transform:rotate(405deg)}50%{-webkit-transform:rotate(765deg);transform:rotate(765deg)}to{-webkit-transform:rotate(1125deg);transform:rotate(1125deg)}}#SkVcfCoCG *{-webkit-animation-duration:4s;animation-duration:4s;-webkit-animation-iteration-count:infinite;animation-iteration-count:infinite;-webkit-animation-timing-function:cubic-bezier(0,0,1,1);animation-timing-function:cubic-bezier(0,0,1,1)}#S1lE9f0oAG{display:none}#rkZEcGAjCz{display:inline;fill:#fff}#H1QVqGRiAM,#SyfVcz0s0f{display:inline;fill:none}#S1D4qG0oAz{fill:url(#SVGID_1_)}#HJdEqMRjAf{fill:url(#SVGID_2_)}#H1q4cfCo0G{fill:url(#SVGID_3_)}#SJoE5zCsAM{fill:url(#SVGID_4_)}#H1CEqGAsCG{fill:#fff}#HyyeVcGAo0f{fill:#507e8f}#SJelVcf0oCM{fill:url(#SVGID_5_)}#SJZx4qfAiCG{fill:url(#SVGID_6_)}#S1flE5zCjAf{fill:url(#SVGID_7_)}#Hy4xV9fAiAG{fill:#fff}#SyrgNqzCsCf{fill:url(#SVGID_8_)}#SkwlNcMCsCf{fill:#e86f70}#SJ_eE5fRiAM{fill:#fff}#rk9gEcfAoAG{fill:#ffeb00}#ryixE9zCj0M{fill:#fff}#BkplV9GCoRG{fill:#81bd55}#HkAe4cfRjCf{fill:#fff}#Skk-4qfCsCM{fill:#ccd6dd}#ryxbVqf0oAz{fill:#c9bccd}#ByW-VqfAj0f,#H1P-NcMRoRf,#HJzW4qzAoAz,#HkObVqz0oCf,#HyBbN9M0jRz,#SkX-E5zRoAz,#rJVZNczAjRf,#rkU-V9M0oRG{fill:#ccd6dd}#SJtZV5GCj0M{fill:#9798a0}#rycZVqfCs0f{fill:#ccd6dd}#r1oZV5G0jRM{fill:url(#SVGID_9_)}#Sy6-VczRoCz{fill:#ec6335;-webkit-transform:matrix(.7071,-.7071,.7071,.7071,11.2432,312.4067);transform:matrix(.7071,-.7071,.7071,.7071,11.2432,312.4067)}#H1RbE5M0oAf{fill:#ec6335}#SkJG4qzAjAz{fill:url(#SVGID_10_)}#HJxMV9zRsAM{fill:url(#SVGID_11_)}#rJZf4czCiAM{fill:url(#SVGID_12_)}#SyGzNqMRsRG{fill:url(#SVGID_13_)}#SJXfN5zCjAG{fill:url(#SVGID_14_)}#S1EGNqMRoAM{fill:url(#SVGID_15_)}#r1IM49zCoRM{fill:url(#SVGID_16_)}#SkDfEcG0o0f{fill:url(#SVGID_17_)}#SJOGE9GRjCz{fill:url(#SVGID_18_)}#BJtzE9G0i0G{fill:url(#SVGID_19_)}#HyczVcM0j0G{fill:url(#SVGID_20_)}#H1sG4czAiAM{fill:url(#SVGID_21_)}#HkTGNqzAoRG{fill:url(#SVGID_22_)}#Hy0GVcfAo0M{fill:url(#SVGID_23_)}#HkkmVqMRoAz{fill:url(#SVGID_24_)}#BkeQ49zAiCz{fill:url(#SVGID_25_)}#HkbXVcGRi0G{fill:url(#SVGID_26_)}#H1f7N9fRs0M{fill:url(#SVGID_27_)}#SkNmNcGCs0z{fill:url(#SVGID_28_)}#Byr7EqMRoAG{fill:url(#SVGID_29_)}#B1UmN9MRsCf{fill:url(#SVGID_30_)}#B1PXEcfRo0f{fill:url(#SVGID_31_)}#BJO7VqfRoAf{fill:url(#SVGID_32_)}#ryF7Nqz0iRM{fill:url(#SVGID_33_)}#Hkj7VczRoCM{fill:url(#SVGID_34_)}#ryhQ45GRs0G{fill:url(#SVGID_35_)}#SyTXVcGAi0M{fill:url(#SVGID_36_)}#SyC7N5M0j0G{fill:url(#SVGID_37_)}#H11EE9MRj0f{fill:url(#SVGID_38_)}#Bk-4V5fCjRG,#SJ74EqM0jCM,#SJG44qMAjRG,#Sk4NV9GCsRG{fill:#fff}#H18E49M0o0f,#Hkt4VqGRi0f,#S1uVV9MCsRM,#Syq4EqfRs0z,#rkD4EqGRiAG{fill:#ff0}#B10VE9zRjAf{fill:none;stroke:#fff;stroke-width:6;stroke-linecap:round;stroke-linejoin:round}#SJ1S4qGCjCz{stroke-dasharray:0,8.1801}#B1eSE5M0oAG,#Bk7HN5zRoAG,#H1wBN9zRo0f,#SJ1S4qGCjCz,#SkNSE5fAoRG,#SyuS45fAoCf{fill:none;stroke:#fff;stroke-width:6;stroke-linecap:round;stroke-linejoin:round}#S1qBEqGAjAz{fill:url(#SVGID_39_)}#SkorV9zRs0f{fill:url(#SVGID_40_)}#r13HEcM0iRG{fill:#fff}#ByaH4czRjAf{fill:url(#SVGID_41_)}#HJCHVczAiAz{fill:url(#SVGID_42_)}#H1eIV5z0oRf,#rJZUNqfCjRf{fill:#ff0}#rkQI4cz0jRz{enable-background:new}#B1ELEqf0sAM,#B1KUN5fCjCz,#H1wIEcfCjAf,#Hk5UNcfAjAG,#HyrUVcM0j0z,#SkhLNqfRiAz,#SksUVqMCjCG,#SyL8NczCi0f,#r1OUE9fCsCf{fill:#939598}#SJpINcGCiAM{enable-background:new}#B1vv4qG0iAz,#HJdw49M0iCz,#HkeDV9MRoRf,#HkrDNczCoAM,#HyNDV5zCoCf,#SkFwNczCj0z,#SyCLN5MCoCf,#SyXPV5GCjRf,#r1LvVcGAsRf,#r1MPV5GAj0M,#rkyPN5zCjAz,#ry-v49GAiAG{fill:#939598}#S15PE9GAs0G{enable-background:new}#BJ6vE5z0i0f,#BkAPVqMAoAz,#BkGu4qMAo0G,#BkrOV5GCi0G,#ByeuNqMAsRM,#H19dVcMAoRM,#H1JuE5zAj0M,#HJ4uE5MRiCf,#HyC_NqzRsCM,#HyTdNqzRjRG,#HynON5GRsCz,#Hysw49MCsCf,#HyytN9zAsRM,#S1DuN9MAj0G,#S1t_VqzCi0M,#SJ7O49G0jRG,#SyWOVqGCoCz,#Sy_u45fCo0G,#rk3vNcfCi0z,#rkLuVczCi0M,#rkxKN5f0oCG,#ryjdN5f0sAf{fill:#939598}#HJbYNcz0oAz{enable-background:new}#B1MKEqGCo0G,#BJhFE9M0iAf,#Bk5FNqMRsCM,#BkPYN9MCs0G,#Bk_KVcfCs0G,#BkaKE9zAsAM,#BkmFN5M0oCz,#HJot4cMRjCM,#Hy4Y45z0jRG,#S1KF45fCsRG,#S1Ut49MAsRz,#SJSF49MCsRG{fill:#939598}#SyRYNqG0oAf{display:none;visibility:hidden}#rJrzEqf0oRM_S1Cw2AoAM{-webkit-animation-name:rJrzEqf0oRM_S1Cw2AoAM_Animation;animation-name:rJrzEqf0oRM_S1Cw2AoAM_Animation;-webkit-transform-origin:50% 50%;transform-origin:50% 50%;transform-box:fill-box;-webkit-transform:rotate(405deg);transform:rotate(405deg)}#H13zV9zCiRz_HJyn0CsCz{-webkit-animation-name:H13zV9zCiRz_HJyn0CsCz_Animation;animation-name:H13zV9zCiRz_HJyn0CsCz_Animation;-webkit-transform:rotate(0deg);transform:rotate(0deg)}#Bknb4czCoRf_S1Uvh6AAG,#H13zV9zCiRz_HJyn0CsCz,#HJXmN9zCi0z_HJbkxk3AG{-webkit-transform-origin:50% 50%;transform-origin:50% 50%;transform-box:fill-box}#HJXmN9zCi0z_HJbkxk3AG{-webkit-animation-name:HJXmN9zCi0z_HJbkxk3AG_Animation;animation-name:HJXmN9zCi0z_HJbkxk3AG_Animation;-webkit-transform:rotate(405deg);transform:rotate(405deg)}#Bknb4czCoRf_S1Uvh6AAG{-webkit-animation-name:Bknb4czCoRf_S1Uvh6AAG_Animation;animation-name:Bknb4czCoRf_S1Uvh6AAG_Animation;-webkit-transform:translate(0,0);transform:translate(0,0);-webkit-animation-timing-function:cubic-bezier(.42,0,.58,1);animation-timing-function:cubic-bezier(.42,0,.58,1)}</style><g id="S1lE9f0oAG"><rect id="rkZEcGAjCz" width="500" height="500"/><rect id="SyfVcz0s0f" width="84" height="1.6" x="785.6" y="21.3"/><rect id="H1QVqGRiAM" width="109.2" height=".8" x="781.5" y="20.5"/></g><g id="S1NE5fAi0M"><g id="SkBV9zCoCG"><g id="HJU49zRoCf"><linearGradient id="SVGID_1_" x1="329.95" x2="329.95" y1="355.803" y2="404.45" gradientTransform="matrix(1 0 0 -1 0 502)" gradientUnits="userSpaceOnUse"><stop offset="0" stop-color="#304C55"/><stop offset="1" stop-color="#487180"/></linearGradient><path id="S1D4qG0oAz" d="M330.7,185.4c-0.5-0.3-1.2-0.3-1.7,0l-0.8,0.5l-2,2l1.3,2.3l1.2-0.7l3.3-3.3L330.7,185.4z M345.3,104.1 l-7.7-4.4c-0.5-0.3-1.2-0.3-1.7,0s-0.8,0.9-0.8,1.5v12.1l-5.3,3.2l-5.3-3.2v-12.1c0-0.6-0.3-1.2-0.8-1.5s-1.2-0.3-1.7,0l-7.7,4.4 c-0.5,0.3-0.8,0.8-0.8,1.5v16.9c0,0.6,0.3,1.2,0.8,1.5l7,4v49.2l-7,4c-0.5,0.3-0.8,0.8-0.8,1.5v16.9c0,0.6,0.3,1.2,0.8,1.5 l7.7,4.4c0.5,0.3,1.2,0.3,1.7,0s0.8-0.9,0.8-1.5v-12.1l0.8-0.5l2.2-1.3l1.2-0.7l1.2-0.7l2,1.2l3.4,2v8v3.6v0.5c0,0,0,0,0,0.1 c0,0.5,0.3,1,0.7,1.3l0.1,0.1c0.5,0.3,1.2,0.3,1.7,0l7.7-4.4c0.1-0.1,0.2-0.2,0.4-0.3c0.3-0.3,0.5-0.7,0.5-1.2v-7.1V189v-4.5 v-1.7c0-0.6-0.3-1.2-0.8-1.5l-7-4l0,0v-16.6v-2.8v-12.1v-10.2v-7.4l5.3-3.1l1.7-1c0.5-0.3,0.8-0.9,0.8-1.5v-5.2v-11.7 C346.2,105,345.8,104.4,345.3,104.1z M330.7,185.4c-0.5-0.3-1.2-0.3-1.7,0l-0.8,0.5l-2,2l1.3,2.3l1.2-0.7l3.3-3.3L330.7,185.4z M337.7,189.6l-3.4-2l-2.4,2.4l3.4,2v8l3.4-3.4V191C338.5,190.5,338.2,189.9,337.7,189.6z"/><linearGradient id="SVGID_2_" x1="329.85" x2="329.85" y1="358.234" y2="363.856" gradientTransform="matrix(1 0 0 -1 0 502)" gradientUnits="userSpaceOnUse"><stop offset="0" stop-color="#217B94"/><stop offset=".14" stop-color="#549AAD"/><stop offset=".3" stop-color="#88B8C6"/><stop offset=".457" stop-color="#B3D2DA"/><stop offset=".609" stop-color="#D4E5EA"/><stop offset=".753" stop-color="#ECF4F6"/><stop offset=".887" stop-color="#FAFCFD"/><stop offset="1" stop-color="#FFF"/></linearGradient><rect id="HJdEqMRjAf" width="17.1" height="6.1" x="321.3" y="137.7"/></g><g id="rktNczCiAM"><linearGradient id="SVGID_3_" x1="354.05" x2="354.05" y1="356.267" y2="397.148" gradientTransform="matrix(1 0 0 -1 0 502)" gradientUnits="userSpaceOnUse"><stop offset="0" stop-color="#385964"/><stop offset="1" stop-color="#507E8F"/></linearGradient><path id="H1q4cfCo0G" d="M354.6,178.7c-0.4-0.3-1-0.3-1.4,0l-0.6,0.4l-1.7,1.7l1.1,2l1-0.6l2.8-2.8L354.6,178.7z M367,110.4l-6.4-3.7 c-0.4-0.3-1-0.3-1.4,0s-0.7,0.7-0.7,1.2v10.2l-4.5,2.7l-4.5-2.7v-10.2c0-0.5-0.3-1-0.7-1.2c-0.4-0.3-1-0.2-1.4,0l-6.4,3.7 c-0.4,0.3-0.7,0.7-0.7,1.2v14.2c0,0.5,0.3,1,0.7,1.2l5.9,3.4v41.4l-5.9,3.4c-0.4,0.3-0.7,0.7-0.7,1.2v14.2c0,0.5,0.3,1,0.7,1.2 l6.4,3.7c0.4,0.3,1,0.3,1.4,0s0.7-0.7,0.7-1.2v-10.2l0.7-0.4l1.9-1.1l1-0.6l1-0.6l1.7,1l2.8,1.7v6.7v3.1v0.4l0,0 c0,0.4,0.2,0.9,0.6,1.1c0,0,0.1,0,0.1,0.1c0.4,0.3,1,0.3,1.4,0l6.4-3.7c0.1-0.1,0.2-0.1,0.3-0.2c0.3-0.3,0.4-0.6,0.4-1v-5.9v-3.1 v-3.8v-1.4c0-0.5-0.3-1-0.7-1.2l-5.9-3.4l0,0v-14v-2.4v-10.2v-8.6v-6.2l4.5-2.6l1.4-0.8c0.4-0.3,0.7-0.7,0.7-1.2v-4.4v-9.8 C367.7,111.1,367.4,110.6,367,110.4z M354.6,178.7c-0.4-0.3-1-0.3-1.4,0l-0.6,0.4l-1.7,1.7l1.1,2l1-0.6l2.8-2.8L354.6,178.7z M360.5,182.2l-2.9-1.7l-2.1,2.1l2.8,1.7v6.7l2.8-2.8v-4.7C361.2,182.9,361,182.5,360.5,182.2z"/><linearGradient id="SVGID_4_" x1="353.85" x2="353.85" y1="358.31" y2="363.035" gradientTransform="matrix(1 0 0 -1 0 502)" gradientUnits="userSpaceOnUse"><stop offset="0" stop-color="#2488A3"/><stop offset=".133" stop-color="#54A2B7"/><stop offset=".294" stop-color="#88BECD"/><stop offset=".453" stop-color="#B3D5DF"/><stop offset=".606" stop-color="#D4E8ED"/><stop offset=".751" stop-color="#ECF5F7"/><stop offset=".886" stop-color="#FAFCFD"/><stop offset="1" stop-color="#FFF"/></linearGradient><rect id="SJoE5zCsAM" width="14.3" height="5.1" x="346.7" y="138.6"/></g><g id="ry3N9zRiAM"><g id="SkT45MCo0f"><path id="H1CEqGAsCG" d="M370.5,143.9h-219c-7.9,0-14.3,6.4-14.3,14.3v120.6c0,7.9,6.4,14.3,14.3,14.3h219c7.9,0,14.3-6.4,14.3-14.3 V158.3C384.9,150.4,378.4,143.9,370.5,143.9z"/><path id="HyyeVcGAo0f" d="M406.6,281.4H115.4l0,0c0,11.8,9.5,21.3,21.3,21.3h248.7C397.1,302.7,406.6,293.2,406.6,281.4L406.6,281.4z"/><linearGradient id="SVGID_5_" x1="261.05" x2="261.05" y1="220" y2="342.7" gradientTransform="matrix(1 0 0 -1 0 502)" gradientUnits="userSpaceOnUse"><stop offset="0" stop-color="#385964"/><stop offset="1" stop-color="#507E8F"/></linearGradient><path id="SJelVcf0oCM" d="M361.9,159.3H160.1c-5,0-9,4-9,9V282H371V168.3C370.9,163.3,366.9,159.3,361.9,159.3z"/><linearGradient id="SVGID_6_" x1="260.95" x2="260.95" y1="212.65" y2="220.008" gradientTransform="matrix(1 0 0 -1 0 502)" gradientUnits="userSpaceOnUse"><stop offset="0" stop-color="#385964"/><stop offset="1" stop-color="#507E8F"/></linearGradient><path id="SJZx4qfAiCG" d="M272.2,289.3h-22.5c-2.7,0-5.3-1.4-6.7-3.7l-2.4-3.7h40.7l-2.4,3.7C277.5,288,275,289.3,272.2,289.3z"/><linearGradient id="SVGID_7_" x1="260.95" x2="260.95" y1="199.272" y2="204.925" gradientTransform="matrix(1 0 0 -1 0 502)" gradientUnits="userSpaceOnUse"><stop offset="0" stop-color="#385964"/><stop offset="1" stop-color="#507E8F"/></linearGradient><path id="S1flE5zCjAf" d="M122.2,297.1c3.8,3.5,8.9,5.7,14.4,5.7h248.7c5.6,0,10.6-2.1,14.4-5.7H122.2z"/></g><g id="BJ7eEqGAjCG"><rect id="Hy4xV9fAiAG" width="140.6" height="129.5" x="165.5" y="152.5"/><linearGradient id="SVGID_8_" x1="235.8" x2="235.8" y1="349.546" y2="364.202" gradientTransform="matrix(1 0 0 -1 0 502)" gradientUnits="userSpaceOnUse"><stop offset="0" stop-color="#385964"/><stop offset="1" stop-color="#507E8F"/></linearGradient><path id="SyrgNqzCsCf" d="M297.8,137.8H173.7c-4.5,0-8.2,3.7-8.2,8.2v6.4h140.6V146C306.1,141.5,302.4,137.8,297.8,137.8z"/><g id="S18xV5zCoAz"><path id="SkwlNcMCsCf" d="M282.9,145.1c0-1.4-1.2-2.6-2.6-2.6s-2.6,1.2-2.6,2.6c0,1.4,1.2,2.6,2.6,2.6 C281.7,147.7,282.9,146.6,282.9,145.1z"/><path id="SJ_eE5fRiAM" d="M280.3,148c-1.6,0-2.8-1.3-2.8-2.8c0-1.6,1.3-2.8,2.8-2.8c1.6,0,2.8,1.3,2.8,2.8 C283.1,146.7,281.9,148,280.3,148z M280.3,142.8c-1.3,0-2.4,1.1-2.4,2.4c0,1.3,1.1,2.4,2.4,2.4s2.4-1.1,2.4-2.4 C282.7,143.8,281.6,142.8,280.3,142.8z"/></g><g id="BJYeVqzCiRf"><path id="rk9gEcfAoAG" d="M290.5,145.1c0-1.4-1.2-2.6-2.6-2.6s-2.6,1.2-2.6,2.6c0,1.4,1.2,2.6,2.6,2.6 C289.3,147.7,290.5,146.6,290.5,145.1z"/><path id="ryixE9zCj0M" d="M287.9,148c-1.6,0-2.8-1.3-2.8-2.8c0-1.6,1.3-2.8,2.8-2.8c1.6,0,2.8,1.3,2.8,2.8 C290.7,146.7,289.4,148,287.9,148z M287.9,142.8c-1.3,0-2.4,1.1-2.4,2.4c0,1.3,1.1,2.4,2.4,2.4s2.4-1.1,2.4-2.4 C290.2,143.8,289.2,142.8,287.9,142.8z"/></g><g id="rynxVcfAjRM"><path id="BkplV9GCoRG" d="M297.3,143.3c-1-1-2.7-1-3.7,0s-1,2.7,0,3.7s2.7,1,3.7,0C298.3,145.9,298.3,144.3,297.3,143.3z"/><path id="HkAe4cfRjCf" d="M295.4,148c-0.7,0-1.5-0.3-2-0.8c-1.1-1.1-1.1-2.9,0-4s2.9-1.1,4,0l0,0c0.5,0.5,0.8,1.2,0.8,2 s-0.3,1.5-0.8,2S296.2,148,295.4,148z M295.4,142.8c-0.6,0-1.2,0.2-1.7,0.7c-0.9,0.9-0.9,2.4,0,3.3c0.9,0.9,2.4,0.9,3.3,0 c0.4-0.4,0.7-1,0.7-1.7c0-0.6-0.2-1.2-0.7-1.7C296.6,143,296,142.8,295.4,142.8z"/></g><rect id="Skk-4qfCsCM" width="117.3" height="4.4" x="178.1" y="164.4"/><rect id="ryxbVqf0oAz" width="117.3" height="29.3" x="178.1" y="247"/><rect id="ByW-VqfAj0f" width="117.3" height="4.4" x="178.1" y="171.7"/><rect id="HJzW4qzAoAz" width="54.8" height="4.4" x="240.7" y="200"/><rect id="SkX-E5zRoAz" width="54.8" height="4.4" x="240.7" y="207"/><rect id="rJVZNczAjRf" width="54.8" height="4.4" x="240.7" y="213.9"/><rect id="HyBbN9M0jRz" width="54.8" height="4.4" x="240.7" y="220.8"/><rect id="rkU-V9M0oRG" width="54.8" height="4.4" x="240.7" y="227.8"/><rect id="H1P-NcMRoRf" width="54.8" height="4.4" x="240.7" y="234.7"/><rect id="HkObVqz0oCf" width="117.3" height="4.4" x="178.1" y="178.9"/><rect id="SJtZV5GCj0M" width="54.8" height="51.7" x="178.1" y="188.7"/><rect id="rycZVqfCs0f" width="54.8" height="6" x="240.7" y="188.7"/></g><linearGradient id="SVGID_9_" x1="306.07" x2="318.834" y1="289.05" y2="289.05" gradientTransform="matrix(1 0 0 -1 0 502)" gradientUnits="userSpaceOnUse"><stop offset="0" stop-color="#2488A3"/><stop offset=".133" stop-color="#54A2B7"/><stop offset=".294" stop-color="#88BECD"/><stop offset=".453" stop-color="#B3D5DF"/><stop offset=".606" stop-color="#D4E8ED"/><stop offset=".751" stop-color="#ECF5F7"/><stop offset=".886" stop-color="#FAFCFD"/><stop offset="1" stop-color="#FFF"/></linearGradient><rect id="r1oZV5G0jRM" width="12.8" height="138.1" x="306.1" y="143.9"/></g><g id="Bknb4czCoRf_S1Uvh6AAG" data-animator-group="true" data-animator-type="0"><g id="Bknb4czCoRf"><rect id="Sy6-VczRoCz" width="5.1" height="22.6" x="380.2" y="131.3"/><path id="H1RbE5M0oAf" d="M409,107.1l5.8,0.9c1.4,0.2,2.4,1.2,2.6,2.6l0.9,5.8c0.2,1.2-0.3,2.5-1.2,3.4l-26.8,26.8L378.8,135 l26.8-26.8C406.6,107.3,407.8,106.9,409,107.1z"/><linearGradient id="SVGID_10_" x1="141.505" x2="141.505" y1="754.962" y2="758.421" gradientTransform="matrix(-0.7071 -0.7071 -0.7071 0.7071 1020.9167 -295.4507)" gradientUnits="userSpaceOnUse"><stop offset="0" stop-color="#FFF"/><stop offset=".997" stop-color="#A7B6C9"/></linearGradient><polygon id="SkJG4qzAjAz" points="381.3 132.6 392.8 144.1 390.3 146.5 378.8 135"/><linearGradient id="SVGID_11_" x1="141.469" x2="141.469" y1="719.485" y2="753.568" gradientTransform="matrix(-0.7071 -0.7071 -0.7071 0.7071 1020.9167 -295.4507)" gradientUnits="userSpaceOnUse"><stop offset="0" stop-color="#FFF"/><stop offset=".997" stop-color="#A7B6C9"/></linearGradient><path id="HJxMV9zRsAM" d="M388,137.4L388,137.4c0.6,0.6,1.7,0.6,2.3,0l21.8-21.8c0.6-0.6,0.6-1.7,0-2.3l0,0c-0.6-0.6-1.7-0.6-2.3,0 L388,135.1C387.4,135.7,387.4,136.7,388,137.4z"/><linearGradient id="SVGID_12_" x1="146.136" x2="146.136" y1="719.485" y2="753.568" gradientTransform="matrix(-0.7071 -0.7071 -0.7071 0.7071 1020.9167 -295.4507)" gradientUnits="userSpaceOnUse"><stop offset="0" stop-color="#FFF"/><stop offset=".997" stop-color="#A7B6C9"/></linearGradient><path id="rJZf4czCiAM" d="M384.7,134.1L384.7,134.1c0.6,0.6,1.7,0.6,2.3,0l21.8-21.8c0.6-0.6,0.6-1.7,0-2.3l0,0 c-0.6-0.6-1.7-0.6-2.3,0l-21.8,21.8C384.1,132.4,384.1,133.4,384.7,134.1z"/><linearGradient id="SVGID_13_" x1="553.917" x2="553.917" y1="719.484" y2="753.567" gradientTransform="matrix(0.7071 0.7071 -0.7071 0.7071 532.5088 -783.8576)" gradientUnits="userSpaceOnUse"><stop offset="0" stop-color="#FFF"/><stop offset=".997" stop-color="#A7B6C9"/></linearGradient><path id="SyGzNqMRsRG" d="M391.3,140.7L391.3,140.7c-0.6-0.6-0.6-1.7,0-2.3l21.8-21.8c0.6-0.6,1.7-0.6,2.3,0l0,0 c0.6,0.6,0.6,1.7,0,2.3l-21.8,21.8C393,141.3,392,141.3,391.3,140.7z"/><linearGradient id="SVGID_14_" x1="141.531" x2="141.531" y1="763.518" y2="829.134" gradientTransform="matrix(-0.7071 -0.7071 -0.7071 0.7071 1020.9167 -295.4507)" gradientUnits="userSpaceOnUse"><stop offset="0" stop-color="#525B63"/><stop offset=".997" stop-color="#A7B6C9"/></linearGradient><path id="SJXfN5zCjAG" d="M339.2,180.8l-5.6,8c-0.3,0.4-0.2,0.9,0.1,1.2l1.6,1.6c0.3,0.3,0.8,0.4,1.2,0.1l8-5.6 c0.3-0.2,0.5-0.6,0.4-0.9l-0.3-2.2l37.5-37.5l-2.3-2.3l-37.5,37.5l-2.2-0.3C339.8,180.4,339.5,180.5,339.2,180.8z"/><linearGradient id="SVGID_15_" x1="141.469" x2="141.469" y1="763.558" y2="765.51" gradientTransform="matrix(-0.7071 -0.7071 -0.7071 0.7071 1020.9167 -295.4507)" gradientUnits="userSpaceOnUse"><stop offset=".003" stop-color="#A7B6C9"/><stop offset="1" stop-color="#FFF"/></linearGradient><polygon id="S1EGNqMRoAM" points="378.4 144.7 380.7 146.9 382.1 145.6 379.8 143.3"/></g></g><g id="rJrzEqf0oRM_S1Cw2AoAM" data-animator-group="true" data-animator-type="1"><g id="rJrzEqf0oRM"><linearGradient id="SVGID_16_" x1="94.5" x2="162.7" y1="375.2" y2="375.2" gradientTransform="matrix(1 0 0 -1 0 502)" gradientUnits="userSpaceOnUse"><stop offset="0" stop-color="#385964"/><stop offset="1" stop-color="#507E8F"/></linearGradient><path id="r1IM49zCoRM" d="M160.7,121.4l-2.6-0.2c-0.9-0.1-1.7-0.7-1.9-1.6c-0.7-2.6-1.7-5.1-3-7.3c-0.5-0.8-0.4-1.8,0.2-2.5l1.7-2 c0.7-0.9,0.7-2.1-0.1-2.9l-4.5-4.5c-0.8-0.8-2.1-0.9-2.9-0.1l-2,1.7c-0.7,0.6-1.7,0.7-2.5,0.2c-2.3-1.3-4.7-2.4-7.3-3 c-0.9-0.2-1.5-1-1.6-1.9l-0.2-2.6c-0.1-1.1-1-2-2.2-2h-6.4c-1.1,0-2.1,0.9-2.2,2l-0.2,2.6c-0.1,0.9-0.7,1.7-1.6,1.9 c-2.6,0.7-5.1,1.7-7.3,3c-0.8,0.5-1.8,0.4-2.5-0.2l-2-1.7c-0.9-0.7-2.1-0.7-2.9,0.1l-4.5,4.5c-0.8,0.8-0.9,2.1-0.1,2.9l1.7,2 c0.6,0.7,0.7,1.7,0.2,2.5c-1.3,2.3-2.4,4.7-3,7.3c-0.2,0.9-1,1.5-1.9,1.6l-2.6,0.2c-1.1,0.1-2,1-2,2.2v6.4c0,1.1,0.9,2.1,2,2.2 l2.6,0.2c0.9,0.1,1.7,0.7,1.9,1.6c0.7,2.6,1.7,5.1,3,7.3c0.5,0.8,0.4,1.8-0.2,2.5l-1.7,2c-0.7,0.9-0.7,2.1,0.1,2.9l4.5,4.5 c0.8,0.8,2.1,0.9,2.9,0.1l2-1.7c0.7-0.6,1.7-0.7,2.5-0.2c2.3,1.3,4.7,2.4,7.3,3c0.9,0.2,1.5,1,1.6,1.9l0.2,2.6c0.1,1.1,1,2,2.2,2 h6.4c1.1,0,2.1-0.9,2.2-2l0.2-2.6c0.1-0.9,0.7-1.7,1.6-1.9c2.6-0.7,5.1-1.7,7.3-3c0.8-0.5,1.8-0.4,2.5,0.2l2,1.7 c0.9,0.7,2.1,0.7,2.9-0.1l4.5-4.5c0.8-0.8,0.9-2.1,0.1-2.9l-1.7-2c-0.6-0.7-0.7-1.7-0.2-2.5c1.3-2.3,2.4-4.7,3-7.3 c0.2-0.9,1-1.5,1.9-1.6l2.6-0.2c1.1-0.1,2-1,2-2.2v-6.4C162.7,122.5,161.9,121.5,160.7,121.4z M128.6,146.2 c-10.7,0-19.4-8.7-19.4-19.4s8.7-19.4,19.4-19.4S148,116,148,126.8S139.3,146.2,128.6,146.2z"/><linearGradient id="SVGID_17_" x1="94.465" x2="162.716" y1="375.3" y2="375.3" gradientTransform="matrix(1 0 0 -1 0 502)" gradientUnits="userSpaceOnUse"><stop offset="0" stop-color="#385964"/><stop offset="1" stop-color="#507E8F"/></linearGradient><path id="SkDfEcG0o0f" d="M128.6,107.3c-10.7,0-19.4,8.7-19.4,19.4s8.7,19.4,19.4,19.4s19.4-8.7,19.4-19.4S139.3,107.3,128.6,107.3z M128.6,141.7c-8.2,0-14.9-6.7-14.9-14.9s6.7-14.9,14.9-14.9s14.9,6.7,14.9,14.9S136.8,141.7,128.6,141.7z"/><radialGradient id="SVGID_18_" cx="128.6" cy="375.226" r="19.437" gradientTransform="matrix(1 0 0 -1 0 502)" gradientUnits="userSpaceOnUse"><stop offset=".697" stop-color="#507E8F"/><stop offset="1" stop-color="#1F353C"/></radialGradient><path id="SJOGE9GRjCz" d="M128.6,107.3c-10.7,0-19.4,8.7-19.4,19.4s8.7,19.4,19.4,19.4s19.4-8.7,19.4-19.4S139.3,107.3,128.6,107.3z M128.6,141.7c-8.2,0-14.9-6.7-14.9-14.9s6.7-14.9,14.9-14.9s14.9,6.7,14.9,14.9S136.8,141.7,128.6,141.7z"/><linearGradient id="SVGID_19_" x1="94.465" x2="162.716" y1="375.2" y2="375.2" gradientTransform="matrix(1 0 0 -1 0 502)" gradientUnits="userSpaceOnUse"><stop offset="0" stop-color="#385964"/><stop offset="1" stop-color="#507E8F"/></linearGradient><path id="BJtzE9G0i0G" d="M128.6,111.9c-8.2,0-14.9,6.7-14.9,14.9s6.7,14.9,14.9,14.9s14.9-6.7,14.9-14.9S136.8,111.9,128.6,111.9z M128.6,137.3c-5.8,0-10.5-4.7-10.5-10.5s4.7-10.5,10.5-10.5s10.5,4.7,10.5,10.5S134.4,137.3,128.6,137.3z"/><radialGradient id="SVGID_20_" cx="128.6" cy="375.2" r="19.436" gradientTransform="matrix(1 0 0 -1 0 502)" gradientUnits="userSpaceOnUse"><stop offset=".697" stop-color="#507E8F"/><stop offset="1" stop-color="#1F353C"/></radialGradient><path id="HyczVcM0j0G" d="M128.6,111.9c-8.2,0-14.9,6.7-14.9,14.9s6.7,14.9,14.9,14.9s14.9-6.7,14.9-14.9S136.8,111.9,128.6,111.9z M128.6,137.3c-5.8,0-10.5-4.7-10.5-10.5s4.7-10.5,10.5-10.5s10.5,4.7,10.5,10.5S134.4,137.3,128.6,137.3z"/><radialGradient id="SVGID_21_" cx="128.6" cy="375.2" r="14.9" gradientTransform="matrix(1 0 0 -1 0 502)" gradientUnits="userSpaceOnUse"><stop offset=".697" stop-color="#507E8F"/><stop offset="1" stop-color="#1F353C"/></radialGradient><path id="H1sG4czAiAM" d="M128.6,111.9c-8.2,0-14.9,6.7-14.9,14.9s6.7,14.9,14.9,14.9s14.9-6.7,14.9-14.9S136.8,111.9,128.6,111.9z M128.6,137.3c-5.8,0-10.5-4.7-10.5-10.5s4.7-10.5,10.5-10.5s10.5,4.7,10.5,10.5S134.4,137.3,128.6,137.3z"/></g></g><g id="H13zV9zCiRz_HJyn0CsCz" data-animator-group="true" data-animator-type="1"><g id="H13zV9zCiRz"><linearGradient id="SVGID_22_" x1="160.713" x2="204.468" y1="394.65" y2="394.65" gradientTransform="matrix(1 0 0 -1 0 502)" gradientUnits="userSpaceOnUse"><stop offset="0" stop-color="#385964"/><stop offset="1" stop-color="#507E8F"/></linearGradient><path id="HkTGNqzAoRG" d="M203.2,103.9l-1.6-0.1c-0.6-0.1-1.1-0.5-1.2-1c-0.4-1.7-1.1-3.2-1.9-4.7c-0.3-0.5-0.2-1.1,0.1-1.6l1.1-1.3 c0.5-0.6,0.4-1.4-0.1-1.9l-2.9-2.9c-0.5-0.5-1.3-0.5-1.9-0.1l-1.3,1.1c-0.4,0.4-1.1,0.4-1.6,0.1c-1.4-0.9-3-1.5-4.7-1.9 c-0.6-0.1-1-0.6-1-1.2l-0.1-1.6c-0.1-0.7-0.7-1.3-1.4-1.3h-4.1c-0.7,0-1.3,0.6-1.4,1.3l-0.1,1.6c-0.1,0.6-0.5,1.1-1,1.2 c-1.7,0.4-3.2,1.1-4.7,1.9c-0.5,0.3-1.1,0.2-1.6-0.1l-1.3-1.1c-0.6-0.5-1.4-0.4-1.9,0.1l-2.9,2.9c-0.5,0.5-0.5,1.3-0.1,1.9 l1.1,1.3c0.4,0.4,0.4,1.1,0.1,1.6c-0.9,1.4-1.5,3-1.9,4.7c-0.1,0.6-0.6,1-1.2,1l-1.6,0.1c-0.7,0.1-1.3,0.7-1.3,1.4v4.1 c0,0.7,0.6,1.3,1.3,1.4l1.6,0.1c0.6,0.1,1.1,0.5,1.2,1c0.4,1.7,1.1,3.2,1.9,4.7c0.3,0.5,0.2,1.1-0.1,1.6l-1.1,1.3 c-0.5,0.6-0.4,1.4,0.1,1.9l2.9,2.9c0.5,0.5,1.3,0.5,1.9,0.1l1.3-1.1c0.4-0.4,1.1-0.4,1.6-0.1c1.4,0.9,3,1.5,4.7,1.9 c0.6,0.1,1,0.6,1,1.2l0.1,1.6c0.1,0.7,0.7,1.3,1.4,1.3h4.1c0.7,0,1.3-0.6,1.4-1.3l0.1-1.6c0.1-0.6,0.5-1.1,1-1.2 c1.7-0.4,3.2-1.1,4.7-1.9c0.5-0.3,1.1-0.2,1.6,0.1l1.3,1.1c0.6,0.5,1.4,0.4,1.9-0.1l2.9-2.9c0.5-0.5,0.5-1.3,0.1-1.9l-1.1-1.3 c-0.4-0.4-0.4-1.1-0.1-1.6c0.9-1.4,1.5-3,1.9-4.7c0.1-0.6,0.6-1,1.2-1l1.6-0.1c0.7-0.1,1.3-0.7,1.3-1.4v-4.1 C204.5,104.6,203.9,104,203.2,103.9z M182.6,119.8c-6.9,0-12.5-5.6-12.5-12.5s5.6-12.5,12.5-12.5s12.5,5.6,12.5,12.5 C195,114.2,189.5,119.8,182.6,119.8z"/><linearGradient id="SVGID_23_" x1="160.713" x2="204.468" y1="394.6" y2="394.6" gradientTransform="matrix(1 0 0 -1 0 502)" gradientUnits="userSpaceOnUse"><stop offset="0" stop-color="#385964"/><stop offset="1" stop-color="#507E8F"/></linearGradient><path id="Hy0GVcfAo0M" d="M182.6,94.9c-6.9,0-12.5,5.6-12.5,12.5s5.6,12.5,12.5,12.5s12.5-5.6,12.5-12.5 C195,100.5,189.5,94.9,182.6,94.9z M182.6,116.9c-5.3,0-9.6-4.3-9.6-9.6c0-5.3,4.3-9.6,9.6-9.6s9.6,4.3,9.6,9.6 C192.1,112.6,187.9,116.9,182.6,116.9z"/><radialGradient id="SVGID_24_" cx="182.6" cy="394.651" r="12.449" gradientTransform="matrix(1 0 0 -1 0 502)" gradientUnits="userSpaceOnUse"><stop offset=".697" stop-color="#507E8F"/><stop offset="1" stop-color="#1F353C"/></radialGradient><path id="HkkmVqMRoAz" d="M182.6,94.9c-6.9,0-12.5,5.6-12.5,12.5s5.6,12.5,12.5,12.5s12.5-5.6,12.5-12.5 C195,100.5,189.5,94.9,182.6,94.9z M182.6,116.9c-5.3,0-9.6-4.3-9.6-9.6c0-5.3,4.3-9.6,9.6-9.6s9.6,4.3,9.6,9.6 C192.1,112.6,187.9,116.9,182.6,116.9z"/><linearGradient id="SVGID_25_" x1="160.713" x2="204.468" y1="394.6" y2="394.6" gradientTransform="matrix(1 0 0 -1 0 502)" gradientUnits="userSpaceOnUse"><stop offset="0" stop-color="#385964"/><stop offset="1" stop-color="#507E8F"/></linearGradient><path id="BkeQ49zAiCz" d="M182.6,97.8c-5.3,0-9.6,4.3-9.6,9.6c0,5.3,4.3,9.6,9.6,9.6s9.6-4.3,9.6-9.6 C192.1,102.1,187.9,97.8,182.6,97.8z M182.6,114.1c-3.7,0-6.8-3-6.8-6.8c0-3.7,3-6.8,6.8-6.8c3.7,0,6.8,3,6.8,6.8 C189.3,111.1,186.3,114.1,182.6,114.1z"/><radialGradient id="SVGID_26_" cx="182.6" cy="394.651" r="12.447" gradientTransform="matrix(1 0 0 -1 0 502)" gradientUnits="userSpaceOnUse"><stop offset=".697" stop-color="#507E8F"/><stop offset="1" stop-color="#1F353C"/></radialGradient><path id="HkbXVcGRi0G" d="M182.6,97.8c-5.3,0-9.6,4.3-9.6,9.6c0,5.3,4.3,9.6,9.6,9.6s9.6-4.3,9.6-9.6 C192.1,102.1,187.9,97.8,182.6,97.8z M182.6,114.1c-3.7,0-6.8-3-6.8-6.8c0-3.7,3-6.8,6.8-6.8c3.7,0,6.8,3,6.8,6.8 C189.3,111.1,186.3,114.1,182.6,114.1z"/><radialGradient id="SVGID_27_" cx="182.6" cy="394.651" r="9.546" gradientTransform="matrix(1 0 0 -1 0 502)" gradientUnits="userSpaceOnUse"><stop offset=".697" stop-color="#507E8F"/><stop offset="1" stop-color="#1F353C"/></radialGradient><path id="H1f7N9fRs0M" d="M182.6,97.8c-5.3,0-9.6,4.3-9.6,9.6c0,5.3,4.3,9.6,9.6,9.6s9.6-4.3,9.6-9.6 C192.1,102.1,187.9,97.8,182.6,97.8z M182.6,114.1c-3.7,0-6.8-3-6.8-6.8c0-3.7,3-6.8,6.8-6.8c3.7,0,6.8,3,6.8,6.8 C189.3,111.1,186.3,114.1,182.6,114.1z"/></g></g><g id="HJXmN9zCi0z_HJbkxk3AG" data-animator-group="true" data-animator-type="1"><g id="HJXmN9zCi0z"><linearGradient id="SVGID_28_" x1="78.476" x2="122.231" y1="323.85" y2="323.85" gradientTransform="matrix(1 0 0 -1 0 502)" gradientUnits="userSpaceOnUse"><stop offset="0" stop-color="#385964"/><stop offset="1" stop-color="#507E8F"/></linearGradient><path id="SkNmNcGCs0z" d="M121,174.7l-1.6-0.1c-0.6-0.1-1.1-0.5-1.2-1c-0.4-1.7-1.1-3.2-1.9-4.7c-0.3-0.5-0.2-1.1,0.1-1.6l1.1-1.3 c0.5-0.6,0.4-1.4-0.1-1.9l-2.9-2.9c-0.5-0.5-1.3-0.5-1.9-0.1l-1.3,1.1c-0.4,0.4-1.1,0.4-1.6,0.1c-1.4-0.9-3-1.5-4.7-1.9 c-0.6-0.1-1-0.6-1-1.2l-0.1-1.6c-0.1-0.7-0.7-1.3-1.4-1.3h-4.1c-0.7,0-1.3,0.6-1.4,1.3l-0.1,1.6c-0.1,0.6-0.5,1.1-1,1.2 c-1.7,0.4-3.2,1.1-4.7,1.9c-0.5,0.3-1.1,0.2-1.6-0.1l-1.3-1.1c-0.6-0.5-1.4-0.4-1.9,0.1l-2.9,2.9c-0.5,0.5-0.5,1.3-0.1,1.9 l1.1,1.3c0.4,0.4,0.4,1.1,0.1,1.6c-0.9,1.4-1.5,3-1.9,4.7c-0.1,0.6-0.6,1-1.2,1l-1.6,0.1c-0.7,0.1-1.3,0.7-1.3,1.4v4.1 c0,0.7,0.6,1.3,1.3,1.4l1.6,0.1c0.6,0.1,1.1,0.5,1.2,1c0.4,1.7,1.1,3.2,1.9,4.7c0.3,0.5,0.2,1.1-0.1,1.6l-1.1,1.3 c-0.5,0.6-0.4,1.4,0.1,1.9l2.9,2.9c0.5,0.5,1.3,0.5,1.9,0.1l1.3-1.1c0.4-0.4,1.1-0.4,1.6-0.1c1.4,0.9,3,1.5,4.7,1.9 c0.6,0.1,1,0.6,1,1.2l0.1,1.6c0.1,0.7,0.7,1.3,1.4,1.3h4.1c0.7,0,1.3-0.6,1.4-1.3l0.1-1.6c0.1-0.6,0.5-1.1,1-1.2 c1.7-0.4,3.2-1.1,4.7-1.9c0.5-0.3,1.1-0.2,1.6,0.1l1.3,1.1c0.6,0.5,1.4,0.4,1.9-0.1l2.9-2.9c0.5-0.5,0.5-1.3,0.1-1.9l-1.1-1.3 c-0.4-0.4-0.4-1.1-0.1-1.6c0.9-1.4,1.5-3,1.9-4.7c0.1-0.6,0.6-1,1.2-1l1.6-0.1c0.7-0.1,1.3-0.7,1.3-1.4v-4.1 C122.2,175.4,121.7,174.8,121,174.7z M100.4,190.6c-6.9,0-12.5-5.6-12.5-12.5s5.6-12.5,12.5-12.5s12.5,5.6,12.5,12.5 C112.8,185,107.2,190.6,100.4,190.6z"/><linearGradient id="SVGID_29_" x1="78.476" x2="122.231" y1="323.8" y2="323.8" gradientTransform="matrix(1 0 0 -1 0 502)" gradientUnits="userSpaceOnUse"><stop offset="0" stop-color="#385964"/><stop offset="1" stop-color="#507E8F"/></linearGradient><path id="Byr7EqMRoAG" d="M100.4,165.7c-6.9,0-12.5,5.6-12.5,12.5s5.6,12.5,12.5,12.5s12.5-5.6,12.5-12.5 C112.8,171.3,107.2,165.7,100.4,165.7z M100.4,187.7c-5.3,0-9.6-4.3-9.6-9.6s4.3-9.6,9.6-9.6c5.3,0,9.6,4.3,9.6,9.6 S105.6,187.7,100.4,187.7z"/><radialGradient id="SVGID_30_" cx="100.353" cy="323.865" r="12.454" gradientTransform="matrix(1 0 0 -1 0 502)" gradientUnits="userSpaceOnUse"><stop offset=".697" stop-color="#507E8F"/><stop offset="1" stop-color="#1F353C"/></radialGradient><path id="B1UmN9MRsCf" d="M100.4,165.7c-6.9,0-12.5,5.6-12.5,12.5s5.6,12.5,12.5,12.5s12.5-5.6,12.5-12.5 C112.8,171.3,107.2,165.7,100.4,165.7z M100.4,187.7c-5.3,0-9.6-4.3-9.6-9.6s4.3-9.6,9.6-9.6c5.3,0,9.6,4.3,9.6,9.6 S105.6,187.7,100.4,187.7z"/><linearGradient id="SVGID_31_" x1="78.476" x2="122.231" y1="323.8" y2="323.8" gradientTransform="matrix(1 0 0 -1 0 502)" gradientUnits="userSpaceOnUse"><stop offset="0" stop-color="#385964"/><stop offset="1" stop-color="#507E8F"/></linearGradient><path id="B1PXEcfRo0f" d="M100.4,168.6c-5.3,0-9.6,4.3-9.6,9.6s4.3,9.6,9.6,9.6c5.3,0,9.6-4.3,9.6-9.6S105.6,168.6,100.4,168.6z M100.4,184.9c-3.7,0-6.8-3-6.8-6.8c0-3.7,3-6.8,6.8-6.8c3.7,0,6.8,3,6.8,6.8C107.1,181.9,104.1,184.9,100.4,184.9z"/><radialGradient id="SVGID_32_" cx="100.353" cy="323.865" r="12.454" gradientTransform="matrix(1 0 0 -1 0 502)" gradientUnits="userSpaceOnUse"><stop offset=".697" stop-color="#507E8F"/><stop offset="1" stop-color="#1F353C"/></radialGradient><path id="BJO7VqfRoAf" d="M100.4,168.6c-5.3,0-9.6,4.3-9.6,9.6s4.3,9.6,9.6,9.6c5.3,0,9.6-4.3,9.6-9.6S105.6,168.6,100.4,168.6z M100.4,184.9c-3.7,0-6.8-3-6.8-6.8c0-3.7,3-6.8,6.8-6.8c3.7,0,6.8,3,6.8,6.8C107.1,181.9,104.1,184.9,100.4,184.9z"/><radialGradient id="SVGID_33_" cx="100.353" cy="323.865" r="9.551" gradientTransform="matrix(1 0 0 -1 0 502)" gradientUnits="userSpaceOnUse"><stop offset=".697" stop-color="#507E8F"/><stop offset="1" stop-color="#1F353C"/></radialGradient><path id="ryF7Nqz0iRM" d="M100.4,168.6c-5.3,0-9.6,4.3-9.6,9.6s4.3,9.6,9.6,9.6c5.3,0,9.6-4.3,9.6-9.6S105.6,168.6,100.4,168.6z M100.4,184.9c-3.7,0-6.8-3-6.8-6.8c0-3.7,3-6.8,6.8-6.8c3.7,0,6.8,3,6.8,6.8C107.1,181.9,104.1,184.9,100.4,184.9z"/></g></g><g id="HyqQEczCoCf"><linearGradient id="SVGID_34_" x1="84.5" x2="84.5" y1="217.6" y2="257" gradientTransform="matrix(1 0 0 -1 0 502)" gradientUnits="userSpaceOnUse"><stop offset="0" stop-color="#51373D"/><stop offset="1" stop-color="#885446"/></linearGradient><path id="Hkj7VczRoCM" d="M96,284.4H81.1c-4.5,0-8.1-3.6-8.1-8.1v-23.2c0-4.5,3.6-8.1,8.1-8.1H96v6H81.1c-1.2,0-2.1,0.9-2.1,2.1v23.2 c0,1.2,0.9,2.1,2.1,2.1H96V284.4z"/><linearGradient id="SVGID_35_" x1="123.8" x2="123.8" y1="199.75" y2="273.652" gradientTransform="matrix(1 0 0 -1 0 502)" gradientUnits="userSpaceOnUse"><stop offset="0" stop-color="#51373D"/><stop offset="1" stop-color="#885446"/></linearGradient><path id="ryhQ45GRs0G" d="M147.1,303h-46.6c-4.4,0-7.9-3.6-7.9-7.9v-59H155v59C155,299.4,151.4,303,147.1,303z"/><linearGradient id="SVGID_36_" x1="123.75" x2="123.75" y1="265.917" y2="272.166" gradientTransform="matrix(1 0 0 -1 0 502)" gradientUnits="userSpaceOnUse"><stop offset="0" stop-color="#51373D"/><stop offset="1" stop-color="#885446"/></linearGradient><rect id="SyTXVcGAi0M" width="62.5" height="6.2" x="92.5" y="229.8"/><linearGradient id="SVGID_37_" x1="89.416" x2="92.5" y1="254" y2="254" gradientTransform="matrix(1 0 0 -1 0 502)" gradientUnits="userSpaceOnUse"><stop offset="0" stop-color="#FFF"/><stop offset=".997" stop-color="#A7B6C9"/></linearGradient><rect id="SyC7N5M0j0G" width="3.1" height="6" x="89.4" y="245"/><linearGradient id="SVGID_38_" x1="89.416" x2="92.5" y1="220.6" y2="220.6" gradientTransform="matrix(1 0 0 -1 0 502)" gradientUnits="userSpaceOnUse"><stop offset="0" stop-color="#FFF"/><stop offset=".997" stop-color="#A7B6C9"/></linearGradient><rect id="H11EE9MRj0f" width="3.1" height="6" x="89.4" y="278.4"/></g><g id="H1x4N5fCiRf"><path id="Bk-4V5fCjRG" d="M318.8,211.2V208l11.1-4.6v3.2l-8,3.1l8,3v3.2L318.8,211.2z"/><path id="SJG44qMAjRG" d="M331.5,219.1h14v2.2h-14V219.1z"/><path id="SJ74EqM0jCM" d="M349.1,208.8c0-0.8,0.4-1.8,0.5-2.6c-0.6,0.5-1.3,1.4-2,1.8c-0.4,0.3-1,0.1-1.3-0.4s-0.1-1.1,0.3-1.3 c0.7-0.4,1.8-0.5,2.5-0.8c-0.8-0.3-1.8-0.4-2.5-0.8c-0.4-0.2-0.6-0.8-0.3-1.3c0.3-0.5,0.9-0.7,1.3-0.4c0.7,0.4,1.4,1.3,2,1.8 c-0.1-0.8-0.5-1.8-0.5-2.6c0-0.5,0.4-0.9,1-0.9c0.5,0,1,0.4,1,0.9c0,0.8-0.4,1.8-0.6,2.6c0.7-0.5,1.3-1.4,2-1.8 c0.4-0.3,1-0.1,1.3,0.4s0.1,1.1-0.3,1.3c-0.7,0.4-1.8,0.5-2.5,0.8c0.8,0.3,1.9,0.4,2.5,0.8c0.4,0.2,0.6,0.8,0.3,1.3 c-0.3,0.5-0.9,0.7-1.3,0.4c-0.7-0.4-1.3-1.3-2-1.8c0.1,0.8,0.6,1.8,0.6,2.6c0,0.5-0.4,0.9-1,0.9 C349.5,209.8,349.1,209.3,349.1,208.8z"/><path id="Sk4NV9GCsRG" d="M356.3,212.6l8-3l-8-3.1v-3.2l11.1,4.6v3.2l-11.1,4.6V212.6z"/></g><g id="HkBE4qfRi0f"><rect id="H18E49M0o0f" width="108.2" height="5.3" x="318.8" y="228"/><rect id="rkD4EqGRiAG" width="73.8" height="5.3" x="318.8" y="237.2"/><rect id="S1uVV9MCsRM" width="92.2" height="5.3" x="318.8" y="246.4"/><rect id="Hkt4VqGRi0f" width="63.3" height="5.3" x="318.8" y="255.6"/><rect id="Syq4EqfRs0z" width="101.5" height="5.3" x="318.8" y="264.8"/></g><g id="SJsV4cM0jAz"><g id="HkhNNcfRo0z"><g id="r16EV5MRo0z"><line id="B10VE9zRjAf" x1="123.3" x2="123.3" y1="220.1" y2="220.1"/><line id="SJ1S4qGCjCz" x1="123.3" x2="123.3" y1="211.9" y2="207.8"/><line id="B1eSE5M0oAG" x1="123.3" x2="123.3" y1="203.7" y2="203.7"/></g></g><g id="Sybr4cf0oRf"><g id="ryMHEcz0sRG"><line id="Bk7HN5zRoAG" x1="113.7" x2="113.7" y1="220.1" y2="220.1"/><line id="SkNSE5fAoRG" x1="113.7" x2="113.7" y1="208.7" y2="208.7"/></g></g><g id="S1SB45G0sAG"><g id="ryLrV9zAjRG"><line id="H1wBN9zRo0f" x1="132.8" x2="132.8" y1="220.1" y2="220.1"/><line id="SyuS45fAoCf" x1="132.8" x2="132.8" y1="208.7" y2="208.7"/></g></g></g><g id="rytrEqfRi0f"><linearGradient id="SVGID_39_" x1="378.85" x2="378.85" y1="208.6" y2="271" gradientTransform="matrix(1 0 0 -1 0 502)" gradientUnits="userSpaceOnUse"><stop offset="0" stop-color="#F56536"/><stop offset="1" stop-color="#FE9B21"/></linearGradient><polygon id="S1qBEqGAjAz" points="404.2 293.4 353.5 293.4 366.1 231 391.6 231"/><linearGradient id="SVGID_40_" x1="378.8" x2="378.8" y1="199" y2="208.634" gradientTransform="matrix(1 0 0 -1 0 502)" gradientUnits="userSpaceOnUse"><stop offset="0" stop-color="#F56536"/><stop offset="1" stop-color="#FE9B21"/></linearGradient><rect id="SkorV9zRs0f" width="64.6" height="9.6" x="346.5" y="293.4"/><path id="r13HEcM0iRG" d="M392.7,236.1H365l-1.8,8.8h31.2L392.7,236.1z M401.3,278.9h-44.8l-1.8,8.8H403L401.3,278.9z M398.4,264.6 h-39.1l-1.8,8.8h42.6L398.4,264.6z M395.5,250.3h-33.4l-1.8,8.8h36.9L395.5,250.3z"/><linearGradient id="SVGID_41_" x1="379" x2="379" y1="208.634" y2="217.692" gradientTransform="matrix(1 0 0 -1 0 502)" gradientUnits="userSpaceOnUse"><stop offset="0" stop-color="#2488A3"/><stop offset=".133" stop-color="#54A2B7"/><stop offset=".294" stop-color="#88BECD"/><stop offset=".453" stop-color="#B3D5DF"/><stop offset=".606" stop-color="#D4E8ED"/><stop offset=".751" stop-color="#ECF5F7"/><stop offset=".886" stop-color="#FAFCFD"/><stop offset="1" stop-color="#FFF"/></linearGradient><polygon id="ByaH4czRjAf" points="355.5 284.3 353.7 293.4 404.3 293.4 402.5 284.3"/></g><linearGradient id="SVGID_42_" x1="249.952" x2="249.952" y1="191" y2="199" gradientTransform="matrix(1 0 0 -1 0 502)" gradientUnits="userSpaceOnUse"><stop offset="0" stop-color="#385964"/><stop offset="1" stop-color="#507E8F"/></linearGradient><path id="HJCHVczAiAz" d="M440.8,311H59.2c-2.2,0-4-1.8-4-4l0,0c0-2.2,1.8-4,4-4h381.5c2.2,0,4,1.8,4,4l0,0 C444.8,309.2,443,311,440.8,311z"/><g id="rJyU4cMCiAG"><path id="H1eIV5z0oRf" d="M329.8,184.8c-0.3,0-0.6-0.1-0.9-0.3l-8.5-6.1c-0.7-0.5-0.8-1.4-0.4-2.1c0.5-0.7,1.4-0.8,2.1-0.4l8.5,6.1 c0.7,0.5,0.8,1.4,0.4,2.1C330.7,184.6,330.3,184.8,329.8,184.8z"/><path id="rJZUNqfCjRf" d="M327.5,191.7h-11.2c-0.8,0-1.5-0.7-1.5-1.5s0.7-1.5,1.5-1.5h11.2c0.8,0,1.5,0.7,1.5,1.5 S328.3,191.7,327.5,191.7z"/></g></g><g id="HkzUN9zAj0G"><g id="rkQI4cz0jRz"><path id="B1ELEqf0sAM" d="M148.8,382V359h9.6c1,0,2,0.2,2.8,0.6s1.6,1,2.2,1.7c0.6,0.7,1.1,1.5,1.4,2.4s0.5,1.8,0.5,2.7 c0,1-0.2,1.9-0.5,2.8s-0.8,1.7-1.4,2.4c-0.6,0.7-1.3,1.2-2.1,1.7c-0.8,0.4-1.8,0.6-2.8,0.6h-6.9v8.3H148.8z M151.7,371.2h6.7 c0.6,0,1.2-0.1,1.6-0.4s0.9-0.6,1.3-1s0.6-1,0.8-1.5c0.2-0.6,0.3-1.2,0.3-1.9c0-0.7-0.1-1.3-0.3-1.9c-0.2-0.6-0.5-1.1-0.9-1.5 c-0.4-0.4-0.8-0.8-1.3-1c-0.5-0.2-1-0.4-1.6-0.4h-6.5V371.2z"/><path id="HyrUVcM0j0z" d="M165,382l9.5-23.1h2.4l9.5,23.1h-3.1l-2.7-6.8h-9.7l-2.7,6.8H165z M175.7,362.3l-4.3,10.7h8.5L175.7,362.3z"/><path id="SyL8NczCi0f" d="M205.9,378.9c-2,2.2-4.4,3.3-7,3.3c-1.5,0-3-0.3-4.3-1c-1.3-0.7-2.4-1.6-3.4-2.7s-1.7-2.3-2.3-3.8 s-0.8-2.9-0.8-4.4c0-1.6,0.3-3,0.8-4.4c0.5-1.4,1.3-2.6,2.2-3.7c1-1.1,2.1-1.9,3.4-2.6c1.3-0.6,2.8-0.9,4.3-0.9 c2.2,0,4.1,0.5,5.5,1.4c1.4,0.9,2.5,2.1,3.3,3.6l-2.2,1.6c-0.7-1.3-1.6-2.3-2.8-3c-1.1-0.7-2.4-1-3.9-1c-1.2,0-2.2,0.3-3.2,0.8 c-1,0.5-1.8,1.2-2.4,2c-0.7,0.8-1.2,1.8-1.6,2.9c-0.4,1.1-0.6,2.2-0.6,3.4c0,1.2,0.2,2.4,0.6,3.5c0.4,1.1,1,2.1,1.7,2.9 c0.7,0.8,1.6,1.5,2.5,2c1,0.5,2,0.7,3.2,0.7c2.5,0,4.8-1.2,6.8-3.6v-3.2h-5v-2.2h7.4V382h-2.5V378.9z"/><path id="H1wIEcfCjAf" d="M228.5,379.4v2.6h-15.7V359h15.4v2.6h-12.5v7.5h10.8v2.4h-10.8v8H228.5z"/><path id="r1OUE9fCsCf" d="M250.3,379.6c1.3,0,2.5-0.3,3.4-0.8c0.9-0.5,1.6-1.2,2.1-2c0.5-0.8,0.9-1.8,1.1-2.9s0.3-2.2,0.3-3.3V359 h2.9v11.7c0,1.6-0.2,3-0.5,4.4s-0.9,2.6-1.7,3.7c-0.8,1.1-1.8,1.9-3,2.5c-1.2,0.6-2.8,0.9-4.5,0.9c-1.8,0-3.4-0.3-4.7-1 s-2.3-1.5-3-2.6c-0.8-1.1-1.3-2.3-1.7-3.7c-0.3-1.4-0.5-2.8-0.5-4.3V359h2.9v11.7c0,1.1,0.1,2.3,0.3,3.3c0.2,1.1,0.6,2,1.1,2.8 c0.5,0.8,1.2,1.5,2.1,2C247.9,379.3,249,379.6,250.3,379.6z"/><path id="B1KUN5fCjCz" d="M268.3,364.4V382h-2.9V359h2.3l14.3,18v-18h2.9V382h-2.5L268.3,364.4z"/><path id="Hk5UNcfAjAG" d="M290.4,382V359h8c1.8,0,3.5,0.3,4.9,0.9c1.4,0.6,2.6,1.4,3.5,2.5c0.9,1,1.6,2.3,2.1,3.7s0.7,2.9,0.7,4.5 c0,1.8-0.3,3.3-0.8,4.8c-0.5,1.4-1.3,2.6-2.2,3.6s-2.2,1.8-3.5,2.3s-2.9,0.8-4.6,0.8H290.4z M306.6,370.5c0-1.3-0.2-2.5-0.5-3.6 c-0.4-1.1-0.9-2-1.6-2.8c-0.7-0.8-1.6-1.4-2.6-1.8c-1-0.4-2.2-0.7-3.5-0.7h-5.1v17.9h5.1c1.3,0,2.5-0.2,3.5-0.7 c1-0.5,1.9-1.1,2.6-1.9c0.7-0.8,1.2-1.8,1.6-2.8C306.4,372.9,306.6,371.7,306.6,370.5z"/><path id="SksUVqMCjCG" d="M329.4,379.4v2.6h-15.7V359h15.4v2.6h-12.5v7.5h10.8v2.4h-10.8v8H329.4z"/><path id="SkhLNqfRiAz" d="M333.6,382V359h9.9c1,0,2,0.2,2.8,0.6s1.6,1,2.2,1.7c0.6,0.7,1.1,1.5,1.4,2.4s0.5,1.8,0.5,2.7 c0,0.8-0.1,1.6-0.3,2.3c-0.2,0.7-0.6,1.4-1,2c-0.4,0.6-0.9,1.1-1.5,1.6s-1.3,0.7-2,0.9l5.6,8.8h-3.3l-5.3-8.3h-6.1v8.3H333.6z M336.5,371.2h7c0.6,0,1.2-0.1,1.6-0.4c0.5-0.3,0.9-0.6,1.3-1.1s0.6-1,0.8-1.5s0.3-1.2,0.3-1.8c0-0.7-0.1-1.3-0.3-1.8 s-0.5-1.1-0.9-1.5c-0.4-0.4-0.8-0.8-1.3-1s-1-0.4-1.6-0.4h-6.8V371.2z"/></g><g id="SJpINcGCiAM"><path id="SyCLN5MCoCf" d="M122.3,398.2c0-1.4,0.2-2.8,0.7-4.1c0.5-1.4,1.2-2.6,2.1-3.7c0.9-1.1,2.1-2,3.5-2.7s2.9-1,4.7-1 c2.1,0,3.8,0.5,5.3,1.4c1.5,0.9,2.6,2.1,3.3,3.6l-2.3,1.5c-0.3-0.7-0.8-1.4-1.3-1.9s-1-0.9-1.6-1.2c-0.6-0.3-1.2-0.5-1.8-0.7 c-0.6-0.1-1.2-0.2-1.8-0.2c-1.3,0-2.4,0.3-3.4,0.8c-1,0.5-1.8,1.2-2.5,2.1c-0.7,0.9-1.2,1.8-1.5,2.9s-0.5,2.2-0.5,3.2 c0,1.2,0.2,2.4,0.6,3.5c0.4,1.1,1,2.1,1.7,2.9c0.7,0.8,1.6,1.5,2.5,2c1,0.5,2,0.7,3.2,0.7c0.6,0,1.2-0.1,1.9-0.2 c0.6-0.2,1.3-0.4,1.8-0.7c0.6-0.3,1.1-0.8,1.6-1.3c0.5-0.5,0.9-1.1,1.3-1.8l2.4,1.3c-0.4,0.9-0.9,1.6-1.5,2.3 c-0.7,0.7-1.4,1.2-2.2,1.7c-0.8,0.5-1.7,0.8-2.7,1c-0.9,0.2-1.8,0.4-2.7,0.4c-1.6,0-3-0.3-4.4-1c-1.3-0.7-2.5-1.6-3.4-2.7 c-1-1.1-1.7-2.4-2.2-3.8C122.6,401.2,122.3,399.7,122.3,398.2z"/><path id="rkyPN5zCjAz" d="M155.2,410.1c-1.6,0-3.1-0.3-4.4-1s-2.5-1.5-3.4-2.6c-1-1.1-1.7-2.3-2.2-3.8c-0.5-1.4-0.8-2.9-0.8-4.3 c0-1.5,0.3-3,0.8-4.4s1.3-2.7,2.3-3.7s2.1-1.9,3.5-2.6c1.3-0.6,2.8-1,4.3-1c1.6,0,3.1,0.3,4.4,1c1.3,0.7,2.5,1.6,3.4,2.7 c1,1.1,1.7,2.4,2.2,3.8c0.5,1.4,0.8,2.8,0.8,4.3c0,1.5-0.3,3-0.8,4.4c-0.6,1.4-1.3,2.7-2.3,3.7c-1,1.1-2.1,1.9-3.4,2.6 C158.2,409.8,156.8,410.1,155.2,410.1z M147.3,398.4c0,1.2,0.2,2.3,0.6,3.4s0.9,2.1,1.6,2.9c0.7,0.8,1.5,1.5,2.5,2 c1,0.5,2.1,0.7,3.3,0.7c1.2,0,2.3-0.3,3.3-0.8s1.8-1.2,2.5-2.1s1.2-1.8,1.6-2.9c0.4-1.1,0.5-2.2,0.5-3.3c0-1.2-0.2-2.3-0.6-3.4 s-0.9-2.1-1.6-2.9s-1.5-1.5-2.5-2c-1-0.5-2-0.7-3.2-0.7c-1.2,0-2.3,0.3-3.3,0.8c-1,0.5-1.8,1.2-2.5,2c-0.7,0.8-1.2,1.8-1.6,2.9 C147.5,396.2,147.3,397.3,147.3,398.4z"/><path id="HkeDV9MRoRf" d="M173.1,392.3v17.6h-2.9v-23.1h2.3l14.3,18v-18h2.9v23.1h-2.5L173.1,392.3z"/><path id="ry-v49GAiAG" d="M208.9,391.7c-0.3-0.3-0.6-0.6-1-0.9c-0.4-0.3-0.9-0.5-1.5-0.8c-0.5-0.2-1.1-0.4-1.8-0.6 c-0.6-0.1-1.3-0.2-2-0.2c-1.8,0-3.1,0.3-4,1s-1.3,1.6-1.3,2.8c0,0.6,0.1,1.1,0.4,1.6c0.2,0.4,0.6,0.8,1.1,1.1 c0.5,0.3,1.1,0.5,1.9,0.8c0.8,0.2,1.7,0.4,2.7,0.7c1.2,0.3,2.3,0.6,3.2,0.9c1,0.3,1.8,0.8,2.5,1.3s1.2,1.1,1.6,1.8 c0.4,0.7,0.5,1.6,0.5,2.6c0,1.1-0.2,2.1-0.7,2.9c-0.4,0.8-1,1.5-1.8,2c-0.7,0.5-1.6,0.9-2.7,1.2c-1,0.2-2.1,0.4-3.3,0.4 c-1.8,0-3.5-0.3-5.1-0.8c-1.6-0.6-3-1.4-4.3-2.4l1.4-2.5c0.3,0.4,0.8,0.7,1.3,1.1c0.6,0.4,1.2,0.7,1.9,1c0.7,0.3,1.5,0.5,2.3,0.7 c0.8,0.2,1.7,0.3,2.6,0.3c1.6,0,2.9-0.3,3.8-0.9c0.9-0.6,1.4-1.5,1.4-2.6c0-0.7-0.1-1.2-0.4-1.6c-0.3-0.4-0.7-0.8-1.3-1.2 c-0.6-0.3-1.3-0.6-2.1-0.9c-0.8-0.2-1.8-0.5-2.8-0.8c-1.2-0.3-2.2-0.6-3.1-0.9c-0.9-0.3-1.6-0.7-2.2-1.2c-0.6-0.5-1-1-1.4-1.7 s-0.5-1.4-0.5-2.3c0-1.1,0.2-2.1,0.6-2.9c0.4-0.8,1-1.6,1.7-2.1c0.7-0.6,1.6-1,2.6-1.3c1-0.3,2.1-0.4,3.3-0.4 c1.6,0,3,0.2,4.2,0.7c1.3,0.5,2.4,1.1,3.3,1.9L208.9,391.7z"/><path id="r1MPV5GAj0M" d="M231.6,389.5h-8v20.5h-2.9v-20.5h-8v-2.6h18.9V389.5z"/><path id="SyXPV5GCjRf" d="M235,409.9v-23.1h9.9c1,0,2,0.2,2.8,0.6s1.6,1,2.2,1.7c0.6,0.7,1.1,1.5,1.4,2.4c0.3,0.9,0.5,1.8,0.5,2.7 c0,0.8-0.1,1.6-0.3,2.3c-0.2,0.7-0.6,1.4-1,2c-0.4,0.6-0.9,1.1-1.5,1.6c-0.6,0.4-1.3,0.7-2,0.9l5.6,8.8h-3.3l-5.3-8.3h-6.1v8.3 H235z M237.9,399.1h7c0.6,0,1.2-0.1,1.6-0.4c0.5-0.3,0.9-0.6,1.3-1.1s0.6-1,0.8-1.5c0.2-0.6,0.3-1.2,0.3-1.8 c0-0.7-0.1-1.3-0.3-1.8c-0.2-0.6-0.5-1.1-0.9-1.5c-0.4-0.4-0.8-0.8-1.3-1c-0.5-0.2-1-0.4-1.6-0.4h-6.8V399.1z"/><path id="HyNDV5zCoCf" d="M265.9,407.5c1.3,0,2.5-0.3,3.3-0.8s1.6-1.2,2.1-2c0.5-0.8,0.9-1.8,1.1-2.9c0.2-1.1,0.3-2.2,0.3-3.3v-11.7 h2.9v11.7c0,1.6-0.2,3-0.5,4.4c-0.4,1.4-0.9,2.6-1.7,3.7c-0.8,1.1-1.8,1.9-3,2.5c-1.2,0.6-2.8,0.9-4.5,0.9c-1.8,0-3.4-0.3-4.7-1 c-1.3-0.7-2.3-1.5-3-2.6c-0.8-1.1-1.3-2.3-1.7-3.7c-0.3-1.4-0.5-2.8-0.5-4.3v-11.7h2.9v11.7c0,1.1,0.1,2.3,0.3,3.3s0.6,2,1.1,2.8 c0.5,0.8,1.2,1.5,2.1,2C263.5,407.2,264.6,407.5,265.9,407.5z"/><path id="HkrDNczCoAM" d="M279.5,398.2c0-1.4,0.2-2.8,0.7-4.1c0.5-1.4,1.2-2.6,2.1-3.7c0.9-1.1,2.1-2,3.5-2.7c1.4-0.7,2.9-1,4.7-1 c2.1,0,3.8,0.5,5.3,1.4c1.5,0.9,2.6,2.1,3.3,3.6l-2.3,1.5c-0.3-0.7-0.8-1.4-1.3-1.9c-0.5-0.5-1-0.9-1.6-1.2 c-0.6-0.3-1.2-0.5-1.8-0.7c-0.6-0.1-1.2-0.2-1.8-0.2c-1.3,0-2.4,0.3-3.4,0.8s-1.8,1.2-2.5,2.1c-0.7,0.9-1.2,1.8-1.5,2.9 s-0.5,2.2-0.5,3.2c0,1.2,0.2,2.4,0.6,3.5c0.4,1.1,1,2.1,1.7,2.9s1.6,1.5,2.5,2c1,0.5,2,0.7,3.2,0.7c0.6,0,1.2-0.1,1.9-0.2 c0.6-0.2,1.3-0.4,1.8-0.7c0.6-0.3,1.1-0.8,1.6-1.3c0.5-0.5,0.9-1.1,1.3-1.8l2.4,1.3c-0.4,0.9-0.9,1.6-1.5,2.3s-1.4,1.2-2.2,1.7 s-1.7,0.8-2.7,1c-0.9,0.2-1.8,0.4-2.7,0.4c-1.6,0-3-0.3-4.4-1c-1.3-0.7-2.5-1.6-3.4-2.7c-1-1.1-1.7-2.4-2.2-3.8 S279.5,399.7,279.5,398.2z"/><path id="r1LvVcGAsRf" d="M319.6,389.5h-8v20.5h-2.9v-20.5h-8v-2.6h18.9V389.5z"/><path id="B1vv4qG0iAz" d="M322.9,409.9v-23.1h2.9v23.1H322.9z"/><path id="HJdw49M0iCz" d="M340.8,410.1c-1.6,0-3.1-0.3-4.4-1c-1.3-0.7-2.5-1.5-3.4-2.6c-1-1.1-1.7-2.3-2.2-3.8 c-0.5-1.4-0.8-2.9-0.8-4.3c0-1.5,0.3-3,0.8-4.4s1.3-2.7,2.3-3.7s2.1-1.9,3.5-2.6c1.3-0.6,2.8-1,4.3-1c1.6,0,3.1,0.3,4.4,1 c1.3,0.7,2.5,1.6,3.4,2.7c1,1.1,1.7,2.4,2.2,3.8s0.8,2.8,0.8,4.3c0,1.5-0.3,3-0.8,4.4c-0.6,1.4-1.3,2.7-2.3,3.7 c-1,1.1-2.1,1.9-3.4,2.6C343.8,409.8,342.4,410.1,340.8,410.1z M332.9,398.4c0,1.2,0.2,2.3,0.6,3.4c0.4,1.1,0.9,2.1,1.6,2.9 c0.7,0.8,1.5,1.5,2.5,2c1,0.5,2.1,0.7,3.3,0.7c1.2,0,2.3-0.3,3.3-0.8s1.8-1.2,2.5-2.1c0.7-0.9,1.2-1.8,1.6-2.9 c0.4-1.1,0.5-2.2,0.5-3.3c0-1.2-0.2-2.3-0.6-3.4c-0.4-1.1-0.9-2.1-1.6-2.9c-0.7-0.8-1.5-1.5-2.5-2c-1-0.5-2-0.7-3.2-0.7 c-1.2,0-2.3,0.3-3.3,0.8c-1,0.5-1.8,1.2-2.5,2s-1.2,1.8-1.6,2.9C333.1,396.2,332.9,397.3,332.9,398.4z"/><path id="SkFwNczCj0z" d="M358.7,392.3v17.6h-2.9v-23.1h2.3l14.3,18v-18h2.9v23.1h-2.5L358.7,392.3z"/></g></g><g id="S15PE9GAs0G"><path id="Hysw49MCsCf" d="M179.4,440.1v-9.7h0.9v9.7H179.4z"/><path id="rk3vNcfCi0z" d="M188,440.3c-0.4,0-0.7-0.1-1-0.2s-0.6-0.3-0.8-0.5s-0.4-0.4-0.5-0.7c-0.1-0.3-0.2-0.5-0.2-0.8 c0-0.3,0.1-0.6,0.2-0.9c0.1-0.3,0.3-0.5,0.6-0.7c0.3-0.2,0.6-0.3,0.9-0.4c0.4-0.1,0.8-0.2,1.2-0.2c0.4,0,0.7,0,1.1,0.1 c0.4,0.1,0.7,0.2,1,0.3v-0.6c0-0.6-0.2-1.1-0.5-1.5c-0.4-0.4-0.8-0.6-1.5-0.6c-0.4,0-0.8,0.1-1.1,0.2c-0.4,0.1-0.8,0.4-1.2,0.6 l-0.3-0.6c0.5-0.3,0.9-0.5,1.3-0.7c0.4-0.2,0.9-0.2,1.4-0.2c0.9,0,1.5,0.3,2.1,0.8c0.5,0.5,0.8,1.2,0.8,2.1v3.2 c0,0.3,0.1,0.4,0.3,0.4v0.8c-0.1,0-0.1,0-0.2,0s-0.1,0-0.2,0c-0.2,0-0.3-0.1-0.5-0.2c-0.1-0.1-0.2-0.3-0.3-0.5l0-0.6 c-0.3,0.4-0.7,0.7-1.2,1C189,440.2,188.5,440.3,188,440.3z M188.2,439.6c0.4,0,0.8-0.1,1.2-0.3s0.7-0.4,1-0.7 c0.1-0.1,0.1-0.2,0.2-0.3c0-0.1,0.1-0.2,0.1-0.3v-1.2c-0.3-0.1-0.6-0.2-1-0.3c-0.3-0.1-0.7-0.1-1-0.1c-0.7,0-1.2,0.1-1.6,0.4 c-0.4,0.3-0.6,0.6-0.6,1.1c0,0.2,0,0.4,0.1,0.6s0.2,0.3,0.3,0.5s0.3,0.3,0.6,0.4S187.9,439.6,188.2,439.6z"/><path id="BJ6vE5z0i0f" d="M204.1,440.1h-0.9v-4c0-0.8-0.1-1.4-0.4-1.8s-0.7-0.6-1.2-0.6c-0.3,0-0.5,0.1-0.8,0.2s-0.5,0.2-0.7,0.4 c-0.2,0.2-0.4,0.4-0.5,0.6s-0.3,0.5-0.4,0.8v4.3h-0.9v-4c0-0.8-0.1-1.5-0.4-1.8c-0.3-0.4-0.6-0.6-1.2-0.6c-0.5,0-1,0.2-1.4,0.6 c-0.4,0.4-0.7,0.9-0.9,1.5v4.3h-0.9V433h0.8v1.6c0.3-0.5,0.7-1,1.1-1.3c0.5-0.3,1-0.5,1.6-0.5c0.6,0,1.1,0.2,1.4,0.5 s0.6,0.8,0.7,1.3c0.7-1.2,1.6-1.8,2.8-1.8c0.4,0,0.7,0.1,1,0.2c0.3,0.1,0.5,0.4,0.7,0.6c0.2,0.3,0.3,0.6,0.4,1s0.1,0.8,0.1,1.3 V440.1z"/><path id="BkAPVqMAoAz" d="M211.9,440.3c-0.6,0-1.1-0.1-1.6-0.3c-0.5-0.2-1-0.4-1.4-0.8l0.4-0.6c0.4,0.3,0.8,0.6,1.2,0.7 c0.4,0.2,0.9,0.2,1.3,0.2c0.6,0,1-0.1,1.4-0.3c0.3-0.2,0.5-0.6,0.5-1c0-0.2,0-0.4-0.1-0.5c-0.1-0.1-0.2-0.2-0.4-0.3 c-0.2-0.1-0.4-0.2-0.7-0.3c-0.3-0.1-0.6-0.2-0.9-0.2c-0.4-0.1-0.8-0.2-1.1-0.3s-0.5-0.2-0.7-0.3c-0.2-0.1-0.3-0.3-0.4-0.5 c-0.1-0.2-0.1-0.4-0.1-0.7c0-0.4,0.1-0.7,0.2-0.9s0.3-0.5,0.6-0.7c0.2-0.2,0.5-0.3,0.8-0.4c0.3-0.1,0.7-0.1,1-0.1 c0.5,0,1,0.1,1.5,0.3c0.4,0.2,0.8,0.4,1.1,0.7l-0.4,0.5c-0.3-0.3-0.6-0.5-1-0.6c-0.4-0.1-0.8-0.2-1.2-0.2c-0.2,0-0.5,0-0.7,0.1 s-0.4,0.1-0.6,0.2c-0.2,0.1-0.3,0.2-0.4,0.4s-0.1,0.4-0.1,0.6c0,0.2,0,0.3,0.1,0.5c0.1,0.1,0.2,0.2,0.3,0.3 c0.1,0.1,0.3,0.2,0.6,0.2c0.2,0.1,0.5,0.1,0.8,0.2c0.5,0.1,0.9,0.2,1.2,0.3c0.3,0.1,0.6,0.2,0.9,0.4s0.4,0.3,0.5,0.5 s0.2,0.5,0.2,0.8c0,0.7-0.3,1.2-0.7,1.6C213.4,440.1,212.8,440.3,211.9,440.3z"/><path id="H1JuE5zAj0M" d="M219.6,439.8c-0.1,0-0.1,0.1-0.2,0.1c-0.1,0-0.2,0.1-0.4,0.1c-0.1,0-0.3,0.1-0.5,0.1s-0.4,0.1-0.5,0.1 c-0.2,0-0.4,0-0.6-0.1c-0.2-0.1-0.3-0.1-0.5-0.3s-0.2-0.3-0.3-0.4c-0.1-0.2-0.1-0.4-0.1-0.6v-5.1h-1V433h1v-2.4h0.9v2.4h1.6v0.7 h-1.6v4.8c0,0.3,0.1,0.5,0.3,0.6c0.2,0.1,0.4,0.2,0.6,0.2c0.3,0,0.5,0,0.7-0.1c0.2-0.1,0.3-0.1,0.4-0.2L219.6,439.8z"/><path id="ByeuNqMAsRM" d="M220.7,431.5v-1.4h0.9v1.4H220.7z M220.7,440.1V433h0.9v7.1H220.7z"/><path id="SyWOVqGCoCz" d="M223.6,430.2h0.9v8.3c0,0.3,0.1,0.5,0.2,0.6c0.1,0.1,0.3,0.2,0.6,0.2c0.1,0,0.2,0,0.4,0s0.3-0.1,0.4-0.1 l0.2,0.8c-0.2,0.1-0.4,0.1-0.6,0.2c-0.3,0-0.5,0.1-0.6,0.1c-0.4,0-0.8-0.1-1-0.4c-0.2-0.2-0.4-0.6-0.4-1V430.2z"/><path id="BkGu4qMAo0G" d="M227.2,430.2h0.9v8.3c0,0.3,0.1,0.5,0.2,0.6c0.1,0.1,0.3,0.2,0.6,0.2c0.1,0,0.2,0,0.4,0s0.3-0.1,0.4-0.1 l0.2,0.8c-0.2,0.1-0.4,0.1-0.6,0.2c-0.3,0-0.5,0.1-0.6,0.1c-0.4,0-0.8-0.1-1-0.4c-0.2-0.2-0.4-0.6-0.4-1V430.2z"/><path id="SJ7O49G0jRG" d="M242.5,433h0.9l-3,7.1h-0.8l-1.5-3.6l-1.5,3.6h-0.8l-3-7.1h0.9l2.6,6.1l1.3-3.2l-1.2-2.9h0.8l0.9,2.3 l0.9-2.3h0.8l-1.2,2.9l1.3,3.2L242.5,433z"/><path id="HJ4uE5MRiCf" d="M247.4,440.3c-0.5,0-1-0.1-1.4-0.3c-0.4-0.2-0.8-0.5-1.1-0.8c-0.3-0.3-0.6-0.7-0.7-1.2s-0.3-0.9-0.3-1.4 c0-0.5,0.1-1,0.3-1.4c0.2-0.4,0.4-0.8,0.7-1.2c0.3-0.3,0.7-0.6,1.1-0.8c0.4-0.2,0.9-0.3,1.4-0.3s1,0.1,1.4,0.3 c0.4,0.2,0.8,0.5,1.1,0.8c0.3,0.3,0.6,0.7,0.7,1.2c0.2,0.4,0.3,0.9,0.3,1.4c0,0.5-0.1,1-0.3,1.4c-0.2,0.4-0.4,0.8-0.7,1.2 c-0.3,0.3-0.7,0.6-1.1,0.8C248.4,440.2,247.9,440.3,247.4,440.3z M244.8,436.6c0,0.4,0.1,0.8,0.2,1.1c0.1,0.3,0.3,0.6,0.5,0.9 c0.2,0.3,0.5,0.5,0.8,0.6c0.3,0.1,0.6,0.2,1,0.2c0.4,0,0.7-0.1,1-0.2c0.3-0.1,0.6-0.4,0.8-0.6c0.2-0.3,0.4-0.6,0.6-0.9 s0.2-0.7,0.2-1.1c0-0.4-0.1-0.8-0.2-1.1s-0.3-0.7-0.6-0.9c-0.2-0.3-0.5-0.5-0.8-0.6c-0.3-0.2-0.6-0.2-1-0.2c-0.4,0-0.7,0.1-1,0.2 c-0.3,0.1-0.6,0.4-0.8,0.6c-0.2,0.3-0.4,0.6-0.6,0.9S244.8,436.2,244.8,436.6z"/><path id="BkrOV5GCi0G" d="M256,433.9c-0.6,0-1.2,0.2-1.6,0.5s-0.8,0.8-1,1.3v4.4h-0.9V433h0.9v1.7c0.2-0.5,0.6-0.9,1-1.2 c0.4-0.3,0.8-0.5,1.3-0.5c0.1,0,0.2,0,0.2,0c0.1,0,0.1,0,0.2,0V433.9z"/><path id="rkLuVczCi0M" d="M262.3,440.1l-2.6-3.6l-1.5,1.4v2.2h-0.9v-9.9h0.9v6.8l4-3.9h1l-2.9,2.9l3,4.2H262.3z"/><path id="S1DuN9MAj0G" d="M264.4,431.5v-1.4h0.9v1.4H264.4z M264.4,440.1V433h0.9v7.1H264.4z"/><path id="Sy_u45fCo0G" d="M273.3,440.1h-0.9v-4c0-0.8-0.1-1.5-0.4-1.8c-0.2-0.4-0.6-0.6-1.1-0.6c-0.3,0-0.5,0.1-0.8,0.2 c-0.3,0.1-0.5,0.2-0.8,0.4c-0.2,0.2-0.4,0.4-0.6,0.6c-0.2,0.3-0.3,0.5-0.4,0.8v4.3h-0.9V433h0.8v1.6c0.1-0.3,0.3-0.5,0.5-0.7 c0.2-0.2,0.5-0.4,0.7-0.6c0.3-0.2,0.5-0.3,0.8-0.4s0.6-0.1,0.9-0.1c0.4,0,0.7,0.1,1,0.2c0.3,0.1,0.5,0.3,0.6,0.6 c0.2,0.3,0.3,0.6,0.4,1c0.1,0.4,0.1,0.8,0.1,1.3V440.1z"/><path id="S1t_VqzCi0M" d="M278.1,440.2c-0.5,0-0.9-0.1-1.3-0.3c-0.4-0.2-0.8-0.5-1-0.8s-0.5-0.7-0.7-1.2s-0.2-0.9-0.2-1.3 c0-0.5,0.1-1,0.2-1.4s0.4-0.8,0.7-1.2c0.3-0.3,0.6-0.6,1-0.8c0.4-0.2,0.9-0.3,1.3-0.3c0.6,0,1.1,0.2,1.6,0.5 c0.4,0.3,0.8,0.7,1.1,1.2V433h0.8v7.1c0,0.5-0.1,0.9-0.3,1.3c-0.2,0.4-0.4,0.7-0.8,0.9c-0.3,0.3-0.7,0.4-1.1,0.6 c-0.4,0.1-0.9,0.2-1.3,0.2c-0.8,0-1.5-0.1-2-0.4c-0.5-0.3-0.9-0.7-1.2-1.2l0.6-0.5c0.3,0.5,0.7,0.8,1.1,1c0.5,0.2,1,0.3,1.5,0.3 c0.3,0,0.7,0,1-0.1s0.6-0.2,0.8-0.4c0.2-0.2,0.4-0.4,0.6-0.7s0.2-0.6,0.2-1v-1.4c-0.3,0.5-0.7,0.8-1.1,1.1 C279.1,440.1,278.6,440.2,278.1,440.2z M278.3,439.5c0.3,0,0.5,0,0.8-0.1c0.3-0.1,0.5-0.2,0.7-0.4c0.2-0.2,0.4-0.4,0.5-0.6 c0.1-0.2,0.2-0.4,0.3-0.6v-2.2c-0.1-0.3-0.2-0.5-0.4-0.7c-0.2-0.2-0.4-0.4-0.6-0.6s-0.5-0.3-0.7-0.4s-0.5-0.1-0.8-0.1 c-0.4,0-0.8,0.1-1.1,0.3s-0.6,0.4-0.8,0.7s-0.4,0.6-0.5,0.9c-0.1,0.3-0.2,0.7-0.2,1c0,0.4,0.1,0.7,0.2,1.1s0.3,0.6,0.6,0.9 c0.2,0.3,0.5,0.5,0.8,0.6C277.6,439.4,278,439.5,278.3,439.5z"/><path id="H19dVcMAoRM" d="M290.1,440.3c-0.5,0-1-0.1-1.4-0.3c-0.4-0.2-0.8-0.5-1.1-0.8c-0.3-0.3-0.6-0.7-0.7-1.2 c-0.2-0.4-0.3-0.9-0.3-1.4c0-0.5,0.1-1,0.3-1.4c0.2-0.4,0.4-0.8,0.7-1.2c0.3-0.3,0.7-0.6,1.1-0.8c0.4-0.2,0.9-0.3,1.4-0.3 c0.5,0,1,0.1,1.4,0.3c0.4,0.2,0.8,0.5,1.1,0.8c0.3,0.3,0.6,0.7,0.7,1.2c0.2,0.4,0.3,0.9,0.3,1.4c0,0.5-0.1,1-0.3,1.4 c-0.2,0.4-0.4,0.8-0.7,1.2c-0.3,0.3-0.7,0.6-1.1,0.8C291.1,440.2,290.7,440.3,290.1,440.3z M287.6,436.6c0,0.4,0.1,0.8,0.2,1.1 c0.1,0.3,0.3,0.6,0.5,0.9c0.2,0.3,0.5,0.5,0.8,0.6c0.3,0.1,0.6,0.2,1,0.2c0.4,0,0.7-0.1,1-0.2c0.3-0.1,0.6-0.4,0.8-0.6 s0.4-0.6,0.6-0.9s0.2-0.7,0.2-1.1c0-0.4-0.1-0.8-0.2-1.1s-0.3-0.7-0.6-0.9s-0.5-0.5-0.8-0.6c-0.3-0.2-0.6-0.2-1-0.2 c-0.4,0-0.7,0.1-1,0.2c-0.3,0.1-0.6,0.4-0.8,0.6c-0.2,0.3-0.4,0.6-0.6,0.9C287.6,435.8,287.6,436.2,287.6,436.6z"/><path id="ryjdN5f0sAf" d="M301.2,440.1h-0.9v-4c0-0.8-0.1-1.5-0.4-1.8c-0.2-0.4-0.6-0.6-1.1-0.6c-0.3,0-0.5,0.1-0.8,0.2 s-0.5,0.2-0.8,0.4c-0.2,0.2-0.4,0.4-0.6,0.6s-0.3,0.5-0.4,0.8v4.3h-0.9V433h0.8v1.6c0.1-0.3,0.3-0.5,0.5-0.7 c0.2-0.2,0.5-0.4,0.7-0.6s0.5-0.3,0.8-0.4s0.6-0.1,0.9-0.1c0.4,0,0.7,0.1,1,0.2c0.3,0.1,0.5,0.3,0.6,0.6c0.2,0.3,0.3,0.6,0.4,1 c0.1,0.4,0.1,0.8,0.1,1.3V440.1z"/><path id="HynON5GRsCz" d="M306.6,431.5v-1.4h0.9v1.4H306.6z M306.6,440.1V433h0.9v7.1H306.6z"/><path id="HyTdNqzRjRG" d="M312.9,439.8c-0.1,0-0.1,0.1-0.2,0.1c-0.1,0-0.2,0.1-0.4,0.1c-0.1,0-0.3,0.1-0.5,0.1c-0.2,0-0.4,0.1-0.5,0.1 c-0.2,0-0.4,0-0.6-0.1c-0.2-0.1-0.3-0.1-0.5-0.3c-0.1-0.1-0.2-0.3-0.3-0.4c-0.1-0.2-0.1-0.4-0.1-0.6v-5.1h-1V433h1v-2.4h0.9v2.4 h1.6v0.7h-1.6v4.8c0,0.3,0.1,0.5,0.3,0.6c0.2,0.1,0.4,0.2,0.6,0.2c0.3,0,0.5,0,0.7-0.1c0.2-0.1,0.3-0.1,0.4-0.2L312.9,439.8z"/><path id="HyC_NqzRsCM" d="M313.9,440.1v-1.3h0.8v1.3H313.9z"/><path id="HyytN9zAsRM" d="M316.5,440.1v-1.3h0.8v1.3H316.5z"/><path id="rkxKN5f0oCG" d="M319.1,440.1v-1.3h0.8v1.3H319.1z"/></g><g id="HJbYNcz0oAz"><path id="B1MKEqGCo0G" d="M205.3,340.4c-0.7,0-1.3-0.2-1.9-0.5s-1.1-0.8-1.4-1.4v1.7h-1v-12.6h1.2v5.5c0.4-0.6,0.9-1.1,1.4-1.5 s1.2-0.6,2-0.6c0.6,0,1.2,0.1,1.7,0.4c0.5,0.3,0.9,0.6,1.3,1.1c0.3,0.4,0.6,0.9,0.8,1.5c0.2,0.6,0.3,1.1,0.3,1.7 c0,0.6-0.1,1.2-0.3,1.8s-0.5,1.1-0.9,1.5c-0.4,0.4-0.8,0.8-1.4,1C206.5,340.2,205.9,340.4,205.3,340.4z M205.1,339.3 c0.5,0,0.9-0.1,1.4-0.3c0.4-0.2,0.8-0.5,1-0.8c0.3-0.3,0.5-0.7,0.7-1.2c0.2-0.4,0.2-0.9,0.2-1.3c0-0.5-0.1-0.9-0.2-1.4 c-0.2-0.4-0.4-0.8-0.7-1.2c-0.3-0.3-0.6-0.6-1-0.8c-0.4-0.2-0.8-0.3-1.3-0.3c-0.4,0-0.7,0.1-1,0.2c-0.3,0.1-0.6,0.3-0.9,0.5 c-0.3,0.2-0.5,0.4-0.7,0.7c-0.2,0.3-0.4,0.6-0.5,0.9v2.8c0,0.3,0.2,0.6,0.4,0.9c0.2,0.3,0.4,0.5,0.7,0.7c0.3,0.2,0.6,0.3,0.9,0.5 C204.5,339.3,204.8,339.3,205.1,339.3z"/><path id="BkmFN5M0oCz" d="M215.5,340.4c-0.7,0-1.3-0.1-1.8-0.4c-0.6-0.2-1-0.6-1.4-1c-0.4-0.4-0.7-0.9-0.9-1.5 c-0.2-0.6-0.3-1.2-0.3-1.8c0-0.6,0.1-1.2,0.3-1.8c0.2-0.6,0.5-1,0.9-1.5c0.4-0.4,0.9-0.8,1.4-1c0.5-0.2,1.1-0.4,1.8-0.4 c0.7,0,1.3,0.1,1.8,0.4c0.5,0.2,1,0.6,1.4,1c0.4,0.4,0.7,0.9,0.9,1.5c0.2,0.5,0.3,1.1,0.3,1.8c0,0.1,0,0.2,0,0.3s0,0.2,0,0.2h-7.7 c0,0.5,0.1,0.9,0.3,1.3c0.2,0.4,0.4,0.8,0.7,1.1c0.3,0.3,0.6,0.5,1,0.7s0.8,0.2,1.2,0.2c0.3,0,0.6,0,0.9-0.1s0.6-0.2,0.8-0.3 c0.2-0.1,0.5-0.3,0.6-0.5c0.2-0.2,0.3-0.4,0.4-0.7l1,0.3c-0.1,0.3-0.3,0.6-0.6,0.9c-0.3,0.3-0.5,0.5-0.9,0.7 c-0.3,0.2-0.7,0.4-1.1,0.5C216.3,340.3,215.9,340.4,215.5,340.4z M218.8,335.2c0-0.5-0.1-0.9-0.3-1.3c-0.2-0.4-0.4-0.7-0.7-1 c-0.3-0.3-0.6-0.5-1-0.7c-0.4-0.2-0.8-0.2-1.2-0.2c-0.4,0-0.8,0.1-1.2,0.2c-0.4,0.2-0.7,0.4-1,0.7c-0.3,0.3-0.5,0.6-0.7,1 c-0.2,0.4-0.3,0.8-0.3,1.3H218.8z"/><path id="Hy4Y45z0jRG" d="M230.6,340.4c-0.8,0-1.4-0.2-2-0.6c-0.6-0.4-1.1-0.9-1.4-1.5v5.5H226v-12.6h1v1.7c0.4-0.6,0.8-1,1.4-1.4 c0.6-0.3,1.2-0.5,1.9-0.5c0.6,0,1.2,0.1,1.7,0.4s1,0.6,1.4,1c0.4,0.4,0.7,0.9,0.9,1.5c0.2,0.6,0.3,1.1,0.3,1.7 c0,0.6-0.1,1.2-0.3,1.8c-0.2,0.6-0.5,1.1-0.8,1.5c-0.4,0.4-0.8,0.8-1.3,1C231.8,340.2,231.2,340.4,230.6,340.4z M230.3,339.3 c0.5,0,0.9-0.1,1.3-0.3c0.4-0.2,0.7-0.5,1-0.8c0.3-0.3,0.5-0.7,0.6-1.2c0.1-0.4,0.2-0.9,0.2-1.3c0-0.5-0.1-0.9-0.3-1.4 c-0.2-0.4-0.4-0.8-0.7-1.2c-0.3-0.3-0.7-0.6-1.1-0.8s-0.8-0.3-1.3-0.3c-0.3,0-0.6,0.1-0.9,0.2c-0.3,0.1-0.6,0.3-0.9,0.5 c-0.3,0.2-0.5,0.4-0.7,0.7c-0.2,0.3-0.3,0.6-0.4,0.9v2.8c0.1,0.3,0.3,0.6,0.5,0.9c0.2,0.3,0.5,0.5,0.7,0.7 c0.3,0.2,0.6,0.4,0.9,0.5C229.7,339.3,230,339.3,230.3,339.3z"/><path id="SJSF49MCsRG" d="M239,340.4c-0.5,0-0.9-0.1-1.3-0.2s-0.7-0.3-1-0.6c-0.3-0.3-0.5-0.5-0.6-0.9s-0.2-0.7-0.2-1 c0-0.4,0.1-0.8,0.3-1.1c0.2-0.3,0.4-0.6,0.8-0.9c0.3-0.2,0.7-0.4,1.2-0.6c0.5-0.1,1-0.2,1.5-0.2c0.4,0,0.9,0,1.4,0.1 c0.5,0.1,0.9,0.2,1.3,0.3v-0.8c0-0.8-0.2-1.4-0.7-1.9c-0.5-0.5-1.1-0.7-1.8-0.7c-0.5,0-1,0.1-1.4,0.3c-0.5,0.2-1,0.4-1.5,0.8 l-0.4-0.8c0.6-0.4,1.2-0.7,1.7-0.9s1.1-0.3,1.7-0.3c1.1,0,2,0.3,2.6,0.9c0.6,0.6,1,1.5,1,2.6v4c0,0.3,0.1,0.5,0.4,0.5v1 c-0.1,0-0.2,0-0.3,0s-0.1,0-0.2,0c-0.2,0-0.4-0.1-0.6-0.2c-0.2-0.1-0.3-0.3-0.3-0.6l0-0.7c-0.4,0.5-0.9,0.9-1.5,1.2 C240.3,340.2,239.7,340.4,239,340.4z M239.3,339.5c0.5,0,1-0.1,1.5-0.3s0.9-0.5,1.2-0.9c0.1-0.1,0.1-0.2,0.2-0.3 c0.1-0.1,0.1-0.2,0.1-0.3v-1.5c-0.4-0.1-0.8-0.3-1.2-0.3s-0.8-0.1-1.2-0.1c-0.8,0-1.5,0.2-2,0.5c-0.5,0.3-0.8,0.8-0.8,1.4 c0,0.2,0,0.5,0.1,0.7s0.2,0.4,0.4,0.6c0.2,0.2,0.4,0.3,0.7,0.4C238.6,339.4,238.9,339.5,239.3,339.5z"/><path id="S1Ut49MAsRz" d="M250.3,339.8c-0.1,0-0.2,0.1-0.3,0.1c-0.1,0.1-0.3,0.1-0.5,0.2c-0.2,0.1-0.4,0.1-0.6,0.2s-0.4,0.1-0.7,0.1 c-0.3,0-0.5,0-0.7-0.1c-0.2-0.1-0.4-0.2-0.6-0.3c-0.2-0.1-0.3-0.3-0.4-0.5c-0.1-0.2-0.2-0.5-0.2-0.8v-6.4h-1.2v-0.9h1.2v-3h1.2v3 h2.1v0.9h-2.1v6.1c0,0.3,0.1,0.6,0.3,0.7c0.2,0.2,0.5,0.2,0.7,0.2c0.3,0,0.6-0.1,0.9-0.2c0.3-0.1,0.4-0.2,0.5-0.2L250.3,339.8z"/><path id="BkPYN9MCs0G" d="M251.6,329.4v-1.7h1.2v1.7H251.6z M251.6,340.2v-9h1.2v9H251.6z"/><path id="Bk_KVcfCs0G" d="M259.2,340.4c-0.7,0-1.3-0.1-1.8-0.4c-0.5-0.2-1-0.6-1.4-1c-0.4-0.4-0.7-0.9-0.9-1.5 c-0.2-0.6-0.3-1.2-0.3-1.8c0-0.6,0.1-1.2,0.3-1.8c0.2-0.6,0.5-1,0.9-1.5s0.9-0.8,1.4-1c0.5-0.2,1.1-0.4,1.8-0.4s1.3,0.1,1.8,0.4 c0.5,0.2,1,0.6,1.4,1c0.4,0.4,0.7,0.9,0.9,1.5c0.2,0.5,0.3,1.1,0.3,1.8c0,0.1,0,0.2,0,0.3s0,0.2,0,0.2H256c0,0.5,0.1,0.9,0.3,1.3 c0.2,0.4,0.4,0.8,0.7,1.1c0.3,0.3,0.6,0.5,1,0.7c0.4,0.2,0.8,0.2,1.2,0.2c0.3,0,0.6,0,0.9-0.1c0.3-0.1,0.6-0.2,0.8-0.3 c0.2-0.1,0.5-0.3,0.6-0.5c0.2-0.2,0.3-0.4,0.4-0.7l1,0.3c-0.1,0.3-0.3,0.6-0.6,0.9c-0.3,0.3-0.5,0.5-0.9,0.7 c-0.3,0.2-0.7,0.4-1.1,0.5C260.1,340.3,259.7,340.4,259.2,340.4z M262.5,335.2c0-0.5-0.1-0.9-0.3-1.3c-0.2-0.4-0.4-0.7-0.7-1 c-0.3-0.3-0.6-0.5-1-0.7c-0.4-0.2-0.8-0.2-1.2-0.2s-0.8,0.1-1.2,0.2c-0.4,0.2-0.7,0.4-1,0.7c-0.3,0.3-0.5,0.6-0.7,1 c-0.2,0.4-0.3,0.8-0.3,1.3H262.5z"/><path id="S1KF45fCsRG" d="M273,340.2h-1.2v-5c0-1.1-0.2-1.8-0.5-2.3s-0.8-0.7-1.4-0.7c-0.3,0-0.7,0.1-1,0.2c-0.3,0.1-0.7,0.3-1,0.5 c-0.3,0.2-0.6,0.5-0.8,0.8c-0.2,0.3-0.4,0.7-0.5,1v5.5h-1.2v-9h1.1v2c0.2-0.3,0.4-0.6,0.7-0.9c0.3-0.3,0.6-0.5,0.9-0.7 c0.3-0.2,0.7-0.3,1.1-0.4c0.4-0.1,0.8-0.2,1.2-0.2c0.5,0,0.9,0.1,1.3,0.3c0.3,0.2,0.6,0.4,0.8,0.8c0.2,0.3,0.4,0.7,0.4,1.2 c0.1,0.5,0.1,1,0.1,1.6V340.2z"/><path id="Bk5FNqMRsCM" d="M274.8,335.7c0-0.6,0.1-1.2,0.3-1.8c0.2-0.6,0.5-1.1,0.9-1.5c0.4-0.4,0.9-0.7,1.4-1c0.6-0.2,1.2-0.4,1.8-0.4 c0.8,0,1.6,0.2,2.2,0.6c0.6,0.4,1.1,0.9,1.4,1.6l-1.1,0.4c-0.3-0.5-0.6-0.8-1-1.1c-0.4-0.3-0.9-0.4-1.5-0.4 c-0.5,0-0.9,0.1-1.3,0.3c-0.4,0.2-0.7,0.4-1,0.7c-0.3,0.3-0.5,0.7-0.7,1.1s-0.2,0.9-0.2,1.4c0,0.5,0.1,1,0.3,1.4s0.4,0.8,0.7,1.2 s0.6,0.6,1,0.8c0.4,0.2,0.8,0.3,1.3,0.3c0.3,0,0.6,0,0.9-0.1s0.5-0.2,0.8-0.3c0.2-0.1,0.4-0.3,0.6-0.5c0.2-0.2,0.3-0.4,0.4-0.6 l1.1,0.3c-0.1,0.3-0.3,0.6-0.5,0.9c-0.2,0.3-0.5,0.5-0.9,0.7c-0.3,0.2-0.7,0.4-1.1,0.5c-0.4,0.1-0.8,0.2-1.2,0.2 c-0.7,0-1.3-0.1-1.8-0.4c-0.5-0.2-1-0.6-1.4-1c-0.4-0.4-0.7-0.9-0.9-1.5C274.9,336.9,274.8,336.3,274.8,335.7z"/><path id="HJot4cMRjCM" d="M288.8,340.4c-0.7,0-1.3-0.1-1.8-0.4c-0.6-0.2-1-0.6-1.4-1c-0.4-0.4-0.7-0.9-0.9-1.5 c-0.2-0.6-0.3-1.2-0.3-1.8c0-0.6,0.1-1.2,0.3-1.8c0.2-0.6,0.5-1,0.9-1.5c0.4-0.4,0.9-0.8,1.4-1c0.5-0.2,1.1-0.4,1.8-0.4 c0.7,0,1.3,0.1,1.8,0.4c0.5,0.2,1,0.6,1.4,1c0.4,0.4,0.7,0.9,0.9,1.5c0.2,0.5,0.3,1.1,0.3,1.8c0,0.1,0,0.2,0,0.3s0,0.2,0,0.2h-7.7 c0,0.5,0.1,0.9,0.3,1.3s0.4,0.8,0.7,1.1c0.3,0.3,0.6,0.5,1,0.7c0.4,0.2,0.8,0.2,1.2,0.2c0.3,0,0.6,0,0.9-0.1 c0.3-0.1,0.5-0.2,0.8-0.3s0.5-0.3,0.6-0.5c0.2-0.2,0.3-0.4,0.4-0.7l1,0.3c-0.1,0.3-0.3,0.6-0.6,0.9s-0.5,0.5-0.9,0.7 c-0.3,0.2-0.7,0.4-1.1,0.5C289.6,340.3,289.2,340.4,288.8,340.4z M292.1,335.2c0-0.5-0.1-0.9-0.3-1.3c-0.2-0.4-0.4-0.7-0.7-1 c-0.3-0.3-0.6-0.5-1-0.7c-0.4-0.2-0.8-0.2-1.2-0.2c-0.4,0-0.8,0.1-1.2,0.2c-0.4,0.2-0.7,0.4-1,0.7c-0.3,0.3-0.5,0.6-0.7,1 c-0.2,0.4-0.3,0.8-0.3,1.3H292.1z"/><path id="BJhFE9M0iAf" d="M294.8,340.2v-1.7h1v1.7H294.8z"/><path id="BkaKE9zAsAM" d="M298.1,340.2v-1.7h1v1.7H298.1z"/></g></g><script>(function(){var a=document.querySelector(&apos;#SkVcfCoCG&apos;),b=a.querySelectorAll(&apos;style&apos;),c=function(d){b.forEach(function(f){var g=f.textContent;g&amp;&amp;(f.textContent=g.replace(/transform-box:[^;\r\n]*/gi,&apos;transform-box: &apos;+d))})};c(&apos;initial&apos;),window.requestAnimationFrame(function(){return c(&apos;fill-box&apos;)})})();</script></svg>