<svg width="128" height="128" xmlns="http://www.w3.org/2000/svg">

 <g>
  <title>background</title>
  <rect fill="none" id="canvas_background" height="402" width="582" y="-1" x="-1"/>
 </g>
 <g>
  <title>Layer 1</title>
  <path id="svg_1" fill="#00AEEF" d="m99.91,45.5c-0.48,0 -0.94,0.03 -1.41,0.07c0.02,-0.48 0.04,-0.96 0.04,-1.44c0,-18.43 -13.63,-33.67 -31.37,-36.19l-0.05,-0.37l-5.15,0c-17.7,0 -32.46,12.58 -35.84,29.29c-11.82,0.34 -21.3,10.16 -21.3,22.06c0.01,12.11 9.83,22.08 21.95,22.08c0,0 72.67,0 73.14,0c9.72,0 17.6,-8.03 17.6,-17.75c-0.01,-9.72 -7.89,-17.75 -17.61,-17.75z"/>
  <path id="svg_2" fill="#00C0F3" d="m105.07,45.5c-0.48,0 -0.94,0.03 -1.41,0.07c0.02,-0.48 0.04,-0.96 0.04,-1.44c0,-20.2 -16.37,-36.57 -36.57,-36.57c-17.7,0 -32.46,12.58 -35.84,29.29c-11.82,0.34 -21.3,10.16 -21.3,22.06c0,12.12 9.82,22.09 21.94,22.09c0,0 72.67,0 73.14,0c9.72,0 17.6,-8.03 17.6,-17.75c-0.01,-9.72 -7.88,-17.75 -17.6,-17.75z"/>
  <path id="svg_3" fill="#00AEEF" d="m90,56l0,-10l-5.69,0c-0.43,-1.56 -1.04,-3.04 -1.83,-4.42l4.02,-4.02l-7.07,-7.07l-4.02,4.02c-1.37,-0.79 -2.86,-1.4 -4.42,-1.83l0,-5.68l-9.99,0l0,5.69c-1.56,0.43 -3.04,1.04 -4.42,1.83l-4.02,-4.02l-7.07,7.07l4.02,4.02c-0.79,1.37 -1.4,2.86 -1.83,4.42l-5.68,0l0,10l5.69,0c0.43,1.56 1.04,3.04 1.83,4.42l-4.02,4.02l7.07,7.07l4.02,-4.02c1.37,0.79 2.86,1.4 4.42,1.83l0,5.67l10,0l0,-5.69c1.56,-0.43 3.04,-1.04 4.42,-1.83l4.02,4.02l7.07,-7.07l-4.02,-4.02c0.79,-1.37 1.4,-2.86 1.83,-4.42l5.67,0l0,0.01zm-24,5.67c-5.89,0 -10.67,-4.78 -10.67,-10.67s4.78,-10.67 10.67,-10.67s10.67,4.78 10.67,10.67s-4.78,10.67 -10.67,10.67z"/>
  <path id="svg_4" d="m94,66c0,1.1 -0.9,2 -2,2l-59,0c-1.1,0 -2,-0.9 -2,-2l0,-12c0,-1.1 0.9,-2 2,-2l59,0c1.1,0 2,0.9 2,2l0,12z"/>
  <line id="svg_5" y2="113" y1="60" x2="66" x1="66" stroke-width="4" stroke-miterlimit="10" stroke="#ed4101" fill="none"/>
  <path id="svg_6" fill="#414042" d="m98,66c0,1.1 -0.9,2 -2,2l-59,0c-1.1,0 -2,-0.9 -2,-2l0,-12c0,-1.1 0.9,-2 2,-2l59,0c1.1,0 2,0.9 2,2l0,12z"/>
  <path id="svg_7" d="m94,86c0,1.1 -0.9,2 -2,2l-59,0c-1.1,0 -2,-0.9 -2,-2l0,-12c0,-1.1 0.9,-2 2,-2l59,0c1.1,0 2,0.9 2,2l0,12z"/>
  <path id="svg_8" fill="#414042" d="m98,86c0,1.1 -0.9,2 -2,2l-59,0c-1.1,0 -2,-0.9 -2,-2l0,-12c0,-1.1 0.9,-2 2,-2l59,0c1.1,0 2,0.9 2,2l0,12z"/>
  <path id="svg_9" d="m94,106c0,1.1 -0.9,2 -2,2l-59,0c-1.1,0 -2,-0.9 -2,-2l0,-12c0,-1.1 0.9,-2 2,-2l59,0c1.1,0 2,0.9 2,2l0,12z"/>
  <path id="svg_10" fill="#414042" d="m98,106c0,1.1 -0.9,2 -2,2l-59,0c-1.1,0 -2,-0.9 -2,-2l0,-12c0,-1.1 0.9,-2 2,-2l59,0c1.1,0 2,0.9 2,2l0,12z"/>
  <line id="svg_11" y2="118" y1="118" x2="96" x1="71" stroke-width="4" stroke-miterlimit="10" stroke-linecap="square" stroke="#ed4101" fill="none"/>
  <line id="svg_12" y2="118" y1="118" x2="62" x1="35" stroke-width="4" stroke-miterlimit="10" stroke-linecap="square" stroke="#ed4101" fill="none"/>
  <circle id="svg_13" stroke-width="4" stroke-miterlimit="10" stroke="#ed4101" r="4.19" fill="none" cy="117.06" cx="66.26"/>
  <circle id="svg_14" r="2.23" fill="#14acf2" cy="59.54" cx="43.3"/>
  <circle id="svg_15" r="2.23" fill="#ed4101" cy="59.54" cx="51.12"/>
  <circle id="svg_16" r="2.23" fill="#E6E7E8" cy="59.54" cx="58.94"/>
  <circle id="svg_17" r="2.23" fill="#ed4101" cy="79.65" cx="43.3"/>
  <circle id="svg_18" r="2.23" fill="#00C0F3" cy="79.65" cx="51.12"/>
  <circle id="svg_19" r="2.23" fill="#E6E7E8" cy="79.65" cx="58.94"/>
  <circle id="svg_20" r="2.23" fill="#00AEEF" cy="99.75" cx="43.3"/>
  <circle id="svg_21" r="2.23" fill="#ed4101" cy="99.75" cx="51.12"/>
  <circle id="svg_22" r="2.23" fill="#E6E7E8" cy="99.75" cx="58.94"/>
  <rect id="svg_23" y="58" x="76" width="14" height="4" fill="#D1D3D4"/>
  <rect id="svg_24" y="78" x="76" width="14" height="4" fill="#D1D3D4"/>
  <rect id="svg_25" y="98" x="76" width="14" height="4" fill="#D1D3D4"/>
 </g>
</svg>