<svg xmlns="http://www.w3.org/2000/svg" width="128" height="128"><g><title>background</title><rect id="canvas_background" width="582" height="402" x="-1" y="-1" fill="none"/></g><g><title>Layer 1</title><path id="svg_1" fill="#00AEEF" d="m99.91,45.5c-0.48,0 -0.94,0.03 -1.41,0.07c0.02,-0.48 0.04,-0.96 0.04,-1.44c0,-18.43 -13.63,-33.67 -31.37,-36.19l-0.05,-0.37l-5.15,0c-17.7,0 -32.46,12.58 -35.84,29.29c-11.82,0.34 -21.3,10.16 -21.3,22.06c0.01,12.11 9.83,22.08 21.95,22.08c0,0 72.67,0 73.14,0c9.72,0 17.6,-8.03 17.6,-17.75c-0.01,-9.72 -7.89,-17.75 -17.61,-17.75z"/><path id="svg_2" fill="#00C0F3" d="m105.07,45.5c-0.48,0 -0.94,0.03 -1.41,0.07c0.02,-0.48 0.04,-0.96 0.04,-1.44c0,-20.2 -16.37,-36.57 -36.57,-36.57c-17.7,0 -32.46,12.58 -35.84,29.29c-11.82,0.34 -21.3,10.16 -21.3,22.06c0,12.12 9.82,22.09 21.94,22.09c0,0 72.67,0 73.14,0c9.72,0 17.6,-8.03 17.6,-17.75c-0.01,-9.72 -7.88,-17.75 -17.6,-17.75z"/><path id="svg_3" fill="#00AEEF" d="m90,56l0,-10l-5.69,0c-0.43,-1.56 -1.04,-3.04 -1.83,-4.42l4.02,-4.02l-7.07,-7.07l-4.02,4.02c-1.37,-0.79 -2.86,-1.4 -4.42,-1.83l0,-5.68l-9.99,0l0,5.69c-1.56,0.43 -3.04,1.04 -4.42,1.83l-4.02,-4.02l-7.07,7.07l4.02,4.02c-0.79,1.37 -1.4,2.86 -1.83,4.42l-5.68,0l0,10l5.69,0c0.43,1.56 1.04,3.04 1.83,4.42l-4.02,4.02l7.07,7.07l4.02,-4.02c1.37,0.79 2.86,1.4 4.42,1.83l0,5.67l10,0l0,-5.69c1.56,-0.43 3.04,-1.04 4.42,-1.83l4.02,4.02l7.07,-7.07l-4.02,-4.02c0.79,-1.37 1.4,-2.86 1.83,-4.42l5.67,0l0,0.01zm-24,5.67c-5.89,0 -10.67,-4.78 -10.67,-10.67s4.78,-10.67 10.67,-10.67s10.67,4.78 10.67,10.67s-4.78,10.67 -10.67,10.67z"/><path id="svg_4" d="m94,66c0,1.1 -0.9,2 -2,2l-59,0c-1.1,0 -2,-0.9 -2,-2l0,-12c0,-1.1 0.9,-2 2,-2l59,0c1.1,0 2,0.9 2,2l0,12z"/><line id="svg_5" x1="66" x2="66" y1="60" y2="113" fill="none" stroke="#ed4101" stroke-miterlimit="10" stroke-width="4"/><path id="svg_6" fill="#414042" d="m98,66c0,1.1 -0.9,2 -2,2l-59,0c-1.1,0 -2,-0.9 -2,-2l0,-12c0,-1.1 0.9,-2 2,-2l59,0c1.1,0 2,0.9 2,2l0,12z"/><path id="svg_7" d="m94,86c0,1.1 -0.9,2 -2,2l-59,0c-1.1,0 -2,-0.9 -2,-2l0,-12c0,-1.1 0.9,-2 2,-2l59,0c1.1,0 2,0.9 2,2l0,12z"/><path id="svg_8" fill="#414042" d="m98,86c0,1.1 -0.9,2 -2,2l-59,0c-1.1,0 -2,-0.9 -2,-2l0,-12c0,-1.1 0.9,-2 2,-2l59,0c1.1,0 2,0.9 2,2l0,12z"/><path id="svg_9" d="m94,106c0,1.1 -0.9,2 -2,2l-59,0c-1.1,0 -2,-0.9 -2,-2l0,-12c0,-1.1 0.9,-2 2,-2l59,0c1.1,0 2,0.9 2,2l0,12z"/><path id="svg_10" fill="#414042" d="m98,106c0,1.1 -0.9,2 -2,2l-59,0c-1.1,0 -2,-0.9 -2,-2l0,-12c0,-1.1 0.9,-2 2,-2l59,0c1.1,0 2,0.9 2,2l0,12z"/><line id="svg_11" x1="71" x2="96" y1="118" y2="118" fill="none" stroke="#ed4101" stroke-linecap="square" stroke-miterlimit="10" stroke-width="4"/><line id="svg_12" x1="35" x2="62" y1="118" y2="118" fill="none" stroke="#ed4101" stroke-linecap="square" stroke-miterlimit="10" stroke-width="4"/><circle id="svg_13" cx="66.26" cy="117.06" r="4.19" fill="none" stroke="#ed4101" stroke-miterlimit="10" stroke-width="4"/><circle id="svg_14" cx="43.3" cy="59.54" r="2.23" fill="#14acf2"/><circle id="svg_15" cx="51.12" cy="59.54" r="2.23" fill="#ed4101"/><circle id="svg_16" cx="58.94" cy="59.54" r="2.23" fill="#E6E7E8"/><circle id="svg_17" cx="43.3" cy="79.65" r="2.23" fill="#ed4101"/><circle id="svg_18" cx="51.12" cy="79.65" r="2.23" fill="#00C0F3"/><circle id="svg_19" cx="58.94" cy="79.65" r="2.23" fill="#E6E7E8"/><circle id="svg_20" cx="43.3" cy="99.75" r="2.23" fill="#00AEEF"/><circle id="svg_21" cx="51.12" cy="99.75" r="2.23" fill="#ed4101"/><circle id="svg_22" cx="58.94" cy="99.75" r="2.23" fill="#E6E7E8"/><rect id="svg_23" width="14" height="4" x="76" y="58" fill="#D1D3D4"/><rect id="svg_24" width="14" height="4" x="76" y="78" fill="#D1D3D4"/><rect id="svg_25" width="14" height="4" x="76" y="98" fill="#D1D3D4"/></g></svg>