<?xml version="1.0"?>
<svg xmlns="http://www.w3.org/2000/svg" xmlns:xlink="http://www.w3.org/1999/xlink" version="1.1" id="Capa_1" x="0px" y="0px" viewBox="0 0 511.999 511.999" style="enable-background:new 0 0 511.999 511.999;" xml:space="preserve" width="512px" height="512px" class=""><g><g>
	<g>
		<path style="fill:#FF8400" d="M136.354,146.001c7.238-0.043,14.463-2.766,19.986-8.165c19.416-18.982-5.385-54.711-20.166-71.833    c-14.78,17.122-40.114,51.884-20.164,71.833c5.462,5.462,12.749,8.122,19.988,8.165H136.354z" data-original="#FF916C" class="" data-old_color="#FF8C00"/>
		<path style="fill:#FF8400" d="M256.175,36.001c-14.78,17.122-40.114,51.883-20.165,71.833c5.463,5.462,12.75,8.122,19.989,8.166    h0.354c7.239-0.044,14.464-2.766,19.986-8.166C295.757,88.852,270.955,53.123,256.175,36.001z" data-original="#FF916C" class="" data-old_color="#FF8C00"/>
		<path style="fill:#FF8400" d="M376.176,66.002c-14.78,17.122-40.115,51.884-20.165,71.833c5.462,5.462,12.75,8.122,19.989,8.165    h0.354c7.239-0.044,14.464-2.766,19.986-8.165C415.757,118.853,390.956,83.124,376.176,66.002z" data-original="#FF916C" class="" data-old_color="#FF8C00"/>
	</g>
	<g>
		<path style="fill:#4B3838" d="M376,146.001h-14.664c-5.686,0-10.336,4.651-10.336,10.336V236h27.222H401v-79.663    c0-5.685-4.65-10.336-10.336-10.336h-14.31C376.236,146.002,376.118,146.002,376,146.001z" data-original="#A9D9DE" class="active-path" data-old_color="#493737"/>
		<path style="fill:#4B3838" d="M280.999,236V126.336c0-5.685-4.65-10.336-10.336-10.336h-14.31c-0.118,0.001-0.236,0.001-0.354,0    h-14.664c-5.685,0-10.336,4.651-10.336,10.336V236H280.999z" data-original="#A9D9DE" class="active-path" data-old_color="#493737"/>
		<path style="fill:#4B3838" d="M160.998,236v-79.663c0-5.685-4.65-10.336-10.335-10.336h-14.31c-0.119,0.001-0.236,0.001-0.355,0    h-14.664c-5.685,0-10.336,4.651-10.336,10.336V236h22.779H160.998z" data-original="#A9D9DE" class="active-path" data-old_color="#493737"/>
	</g>
	<path style="fill:#876E67;" d="M215.259,236h-54.261h-27.221h-22.779H54.332c-10.083,0-18.333,8.999-18.333,20v80   c0,11,8.25,20,18.334,20c10.083,0,18.333-9,18.333-20v-2.223v-24.98v-2.557c0-12.222,9.167-22.222,20.37-22.222   c11.204,0,20.37,10,20.37,22.222v2.557v38.501c0,12.222,9.167,22.222,20.371,22.222c11.203,0,20.37-10.001,20.37-22.222v-38.501   v-2.557c0-12.222,9.167-22.222,20.37-22.222c11.204,0,20.371,10,20.371,22.222v2.557c0,12.222,9.166,22.222,20.37,22.222   s20.37-10,20.37-22.222v-2.557c0-12.222,9.167-22.222,20.37-22.222c11.204,0,20.371,10,20.371,22.222v2.557v18.5   c0,12.222,9.166,22.222,20.37,22.222s20.37-10,20.37-22.222v-18.5v-2.557c0-12.222,9.166-22.222,20.37-22.222   s20.371,10,20.371,22.222v2.557c0,12.222,9.166,22.222,20.37,22.222s20.37-10,20.37-22.222v-2.557   c0-12.222,9.167-22.222,20.371-22.222c11.203,0,20.37,10,20.37,22.222v2.557v24.98V336c0,11,8.249,20,18.333,20   c10.083,0,18.333-9,18.333-20v-80c0-11.001-8.25-20-18.333-20H401h-22.778H351h-54.26h-15.741h-50L215.259,236L215.259,236z" data-original="#876E67" class=""/>
	<path style="fill:#1F1A1A" d="M194.889,306.24c0-12.222-9.167-22.222-20.371-22.222c-11.203,0-20.37,10.001-20.37,22.222v2.557   v38.501c0,12.221-9.167,22.222-20.37,22.222c-11.204,0-20.371-10-20.371-22.222v-38.501v-2.557c0-12.222-9.166-22.222-20.37-22.222   c-11.203,0-20.37,10.001-20.37,22.222v2.557v24.98V336c0,11-8.25,20-18.334,20l0.001,82.339v17.662   c0,10.949,8.175,19.917,18.194,19.999h366.806h0.139c10.018-0.082,18.194-9.051,18.194-19.999V382.34V356   c-10.084,0-18.333-9-18.333-20v-2.223v-24.98v-2.557c0-12.222-9.167-22.222-20.37-22.222c-11.204,0-20.371,10.001-20.371,22.222   v2.557c0,12.222-9.166,22.222-20.37,22.222s-20.37-10-20.37-22.222v-2.557c0-12.222-9.167-22.222-20.371-22.222   s-20.37,10.001-20.37,22.222v2.557v18.5c0,12.222-9.166,22.222-20.37,22.222s-20.37-10-20.37-22.222v-18.5v-2.557   c0-12.222-9.167-22.222-20.371-22.222c-11.203,0-20.37,10.001-20.37,22.222v2.557c0,12.222-9.166,22.222-20.37,22.222   s-20.37-10-20.37-22.222v-2.557H194.889z" data-original="#C78F70" class="" data-old_color="#1E1919"/>
</g><path d="M38.966,486C38.972,486,38.959,486,38.966,486h434.067c5.522,0,10-4.477,10-10s-4.478-10-10-10h-6.991  c1.048-3.129,1.624-6.494,1.624-9.999v-91.936c10.701-4.29,18.333-15.249,18.333-28.065v-80c0-16.542-12.71-30-28.333-30H411  v-69.663c0-5.314-2.065-10.143-5.415-13.771c7.046-8.323,12.219-22.488,2.724-45.202c-6.66-15.93-18.248-30.582-24.564-37.897  c-1.899-2.2-4.662-3.465-7.569-3.465s-5.67,1.265-7.569,3.465c-30.011,34.765-37.701,64.01-21.986,82.874  c-3.473,3.649-5.62,8.571-5.62,13.995v69.663H291v-99.664c0-5.314-2.065-10.144-5.415-13.771c7.046-8.324,12.22-22.488,2.724-45.203  c-6.66-15.93-18.248-30.581-24.563-37.897c-1.899-2.2-4.662-3.465-7.569-3.465c-2.907,0-5.67,1.265-7.569,3.465  c-30.01,34.763-37.701,64.008-21.986,82.874c-3.473,3.65-5.62,8.572-5.62,13.996v99.664h-50.001v-69.663  c0-5.314-2.065-10.143-5.414-13.77c7.045-8.324,12.219-22.488,2.723-45.203c-6.659-15.931-18.248-30.582-24.563-37.897  c-1.899-2.201-4.662-3.465-7.569-3.465s-5.67,1.265-7.569,3.465c-30.011,34.764-37.7,64.009-21.986,82.874  c-3.473,3.65-5.62,8.572-5.62,13.996v69.663H54.332c-15.623,0-28.333,13.458-28.333,30v80c0,12.816,7.632,23.774,18.333,28.065  l0.001,91.938c0,3.505,0.576,6.87,1.624,9.999h-6.991c-5.522,0-10,4.477-10,10S33.443,486,38.966,486 M376.134,81.989  c12.03,16.333,23.613,38.532,13.216,48.697c-3.504,3.426-8.178,5.313-13.162,5.316h-0.128c-5.022-0.03-9.631-1.89-12.978-5.237  C351.561,119.245,365.431,96.235,376.134,81.989z M361,156.337c0-0.163,0.173-0.336,0.336-0.336h14.604l0.238,0.001  c0.007,0,0.014-0.001,0.021-0.001h14.466c0.163,0,0.336,0.173,0.336,0.336V226h-30v-69.663H361z M256.133,51.987  c12.03,16.333,23.614,38.532,13.216,48.698c-3.503,3.426-8.177,5.313-13.161,5.315h-0.129c-5.021-0.03-9.631-1.89-12.977-5.236  C231.561,89.243,245.43,66.233,256.133,51.987z M240.999,126.336c0-0.163,0.173-0.336,0.336-0.336h14.602h0.24  c0.007,0,0.014,0,0.021,0h14.465c0.163,0,0.336,0.173,0.336,0.336V226h-30V126.336z M136.133,81.988  c12.03,16.332,23.614,38.532,13.216,48.697c-3.503,3.426-8.179,5.313-13.163,5.316h-0.128c-5.021-0.03-9.63-1.89-12.977-5.237  C111.561,119.244,125.43,96.234,136.133,81.988z M120.998,156.337c0-0.163,0.173-0.336,0.336-0.336h14.604l0.238,0.001  c0.007,0,0.014-0.001,0.021-0.001h14.467c0.163,0,0.335,0.173,0.335,0.336V226h-30v-69.663H120.998z M457.666,246  c4.517,0,8.333,4.58,8.333,10v80c0,5.42-3.816,10-8.333,10s-8.333-4.58-8.333-10v-29.76c0-17.768-13.624-32.222-30.37-32.222  c-16.747,0-30.371,14.455-30.371,32.222v2.557c0,6.625-4.749,12.222-10.37,12.222s-10.37-5.597-10.37-12.222v-2.557  c0-17.768-13.624-32.222-30.371-32.222c-16.746,0-30.37,14.455-30.37,32.222v21.057c0,6.625-4.749,12.222-10.37,12.222  s-10.37-5.597-10.37-12.222V306.24c0-17.768-13.624-32.222-30.371-32.222c-16.746,0-30.37,14.455-30.37,32.222v2.557  c0,6.625-4.749,12.222-10.37,12.222s-10.37-5.597-10.37-12.222v-2.557c0-17.768-13.624-32.222-30.371-32.222  c-16.746,0-30.37,14.455-30.37,32.222v41.058c0,6.625-4.749,12.222-10.37,12.222c-5.622,0-10.371-5.597-10.371-12.222V306.24  c0-17.768-13.624-32.222-30.37-32.222s-30.37,14.455-30.37,32.222V336c0,5.42-3.816,10-8.334,10c-4.517,0-8.333-4.58-8.333-10v-80  c0-5.42,3.816-10,8.334-10L457.666,246 M72.658,466c-4.513-0.005-8.325-4.582-8.325-9.999v-7.661h31.035c5.522,0,10-4.477,10-10  s-4.478-10-10-10H64.333l-0.001-64.274c10.702-4.29,18.334-15.249,18.334-28.065v-29.76c0-6.625,4.749-12.222,10.37-12.222  s10.37,5.597,10.37,12.222v41.058c0,17.768,13.624,32.222,30.371,32.222c16.746,0,30.37-14.455,30.37-32.222v-41.058  c0-6.625,4.749-12.222,10.37-12.222c5.622,0,10.371,5.597,10.371,12.222v2.557c0,17.767,13.624,32.222,30.37,32.222  s30.37-14.455,30.37-32.222v-2.557c0-6.625,4.749-12.222,10.37-12.222c5.622,0,10.371,5.597,10.371,12.222v21.057  c0,17.767,13.624,32.222,30.37,32.222s30.37-14.455,30.37-32.222v-21.057c0-6.625,4.749-12.222,10.37-12.222  c5.622,0,10.371,5.597,10.371,12.222v2.557c0,17.767,13.624,32.222,30.37,32.222s30.37-14.455,30.37-32.222v-2.557  c0-6.625,4.749-12.222,10.371-12.222c5.621,0,10.37,5.597,10.37,12.222v29.76c0,12.816,7.632,23.775,18.333,28.065v8.275h-31.035  c-5.522,0-10,4.477-10,10s4.478,10,10,10h31.035v63.66c0,5.417-3.813,9.994-8.325,9.999H72.658z" data-original="#000000" class="" style="fill:#000000"/><path d="M501.999,466h-0.235c-5.522,0-10,4.477-10,10s4.478,10,10,10h0.235c5.523,0,10-4.477,10-10S507.522,466,501.999,466z" data-original="#000000" class="" style="fill:#000000"/><path d="M10.235,466H10c-5.523,0-10,4.477-10,10s4.477,10,10,10h0.235c5.522,0,10-4.477,10-10S15.758,466,10.235,466z" data-original="#000000" class="" style="fill:#000000"/><path d="M124.334,428.342h-0.235c-5.522,0-10,4.477-10,10s4.478,10,10,10h0.235c5.522,0,10-4.477,10-10  S129.856,428.342,124.334,428.342z" data-original="#000000" class="" style="fill:#000000"/><path d="M387.664,392.343h0.236c5.523,0,10-4.477,10-10s-4.477-10-10-10h-0.236c-5.522,0-10,4.477-10,10  C377.664,387.866,382.142,392.343,387.664,392.343z" data-original="#000000" class="" style="fill:#000000"/><path d="M264.804,377.345c0-5.523-4.478-10-10-10h-19c-5.522,0-10,4.477-10,10s4.478,10,10,10h19  C260.326,387.345,264.804,382.868,264.804,377.345z" data-original="#000000" class="" style="fill:#000000"/><path d="M182.804,395.849h-13c-5.522,0-10,4.477-10,10s4.478,10,10,10h13c5.523,0,10-4.477,10-10S188.326,395.849,182.804,395.849z" data-original="#000000" class="" style="fill:#000000"/><path d="M405.804,428.342h-23c-5.522,0-10,4.477-10,10s4.478,10,10,10h23c5.522,0,10-4.477,10-10S411.326,428.342,405.804,428.342z" data-original="#000000" class="" style="fill:#000000"/><path d="M333.304,386.349h-13c-5.522,0-10,4.477-10,10s4.478,10,10,10h13c5.522,0,10-4.477,10-10S338.826,386.349,333.304,386.349z" data-original="#000000" class="" style="fill:#000000"/><path d="M277.304,428.342h-13c-5.522,0-10,4.477-10,10s4.478,10,10,10h13c5.522,0,10-4.477,10-10S282.826,428.342,277.304,428.342z" data-original="#000000" class="" style="fill:#000000"/></g> </svg>
