<?xml version="1.0"?>
<svg xmlns="http://www.w3.org/2000/svg" xmlns:xlink="http://www.w3.org/1999/xlink" version="1.1" id="Capa_1" x="0px" y="0px" viewBox="0 0 496 496" style="enable-background:new 0 0 496 496;" xml:space="preserve" width="512px" height="512px" class=""><g><g>
	<path style="fill:#386E13" d="M64,496c-35.288,0-64-28.712-64-64s28.712-64,64-64s64,28.712,64,64S99.288,496,64,496z" data-original="#FFA64D" class="active-path" data-old_color="#386E14"/>
	<path style="fill:#386E13" d="M142.688,73.312c7.544,16.144,17.728,31.096,30.568,43.936L248,192l64-64l-74.744-74.744   c-12.84-12.848-27.792-23.024-43.936-30.568L142.688,73.312z" data-original="#FFA64D" class="active-path" data-old_color="#386E14"/>
	<path style="fill:#386E13" d="M176,496c-35.288,0-64-28.712-64-64s28.712-64,64-64s64,28.712,64,64S211.288,496,176,496z" data-original="#FFA64D" class="active-path" data-old_color="#386E14"/>
	<path style="fill:#386E13" d="M320,496c-35.288,0-64-28.712-64-64s28.712-64,64-64s64,28.712,64,64S355.288,496,320,496z" data-original="#FFA64D" class="active-path" data-old_color="#386E14"/>
	<path style="fill:#386E13" d="M432,496c-35.288,0-64-28.712-64-64s28.712-64,64-64s64,28.712,64,64S467.288,496,432,496z" data-original="#FFA64D" class="active-path" data-old_color="#386E14"/>
</g><g>
	<path style="fill:#3A3737" d="M64,400c-17.648,0-32,14.352-32,32s14.352,32,32,32s32-14.352,32-32S81.648,400,64,400z M64,448   c-8.824,0-16-7.176-16-16s7.176-16,16-16s16,7.176,16,16S72.824,448,64,448z" data-original="#333333" class="" data-old_color="#393535"/>
	<path style="fill:#3A3737" d="M176,400c-17.648,0-32,14.352-32,32s14.352,32,32,32s32-14.352,32-32S193.648,400,176,400z M176,448   c-8.824,0-16-7.176-16-16s7.176-16,16-16s16,7.176,16,16S184.824,448,176,448z" data-original="#333333" class="" data-old_color="#393535"/>
	<path style="fill:#3A3737" d="M320,400c-17.648,0-32,14.352-32,32s14.352,32,32,32s32-14.352,32-32S337.648,400,320,400z M320,448   c-8.824,0-16-7.176-16-16s7.176-16,16-16s16,7.176,16,16S328.824,448,320,448z" data-original="#333333" class="" data-old_color="#393535"/>
	<path style="fill:#3A3737" d="M432,400c-17.648,0-32,14.352-32,32s14.352,32,32,32s32-14.352,32-32S449.648,400,432,400z M432,448   c-8.824,0-16-7.176-16-16s7.176-16,16-16s16,7.176,16,16S440.824,448,432,448z" data-original="#333333" class="" data-old_color="#393535"/>
	<path style="fill:#3A3737" d="M487.576,320c-2.936-29.976-22.216-55.368-49.952-66.312l5.688-5.688l-16-16l48-48l-40.304-40.304   l-88,8L299.312,104l32-32l-24-24h-64l-0.4-0.4C212.216,16.904,171.408,0,128,0h-8v8c0,43.408,16.904,84.216,47.6,114.912l0.4,0.4   v64l12.864,12.864L68.536,320H0v64h496v-64H487.576z M471.456,320H455.28c-3.656-21.648-21.816-38.376-44.128-39.84l13.824-13.824   C450.2,273.224,468.296,294.384,471.456,320z M224,179.312l28.88,28.88L178.392,288h-57.928l77.312-82.464L224,179.312z    M264.2,219.512l7.496,7.496l-8,88l4.992,4.992h-98.28L264.2,219.512z M291.312,320l-11.008-11.008l6.12-67.256L340.688,296l-24,24   H291.312z M352,307.312L364.688,320h-25.376L352,307.312z M395.312,296H408c14.864,0,27.288,10.24,30.864,24h-67.552L395.312,296z    M428.992,160.304L452.688,184L416,220.688l-54.264-54.264L428.992,160.304z M300.688,64l8,8L288,92.688L259.312,64H300.688z    M179.344,25.344l-33.992,33.992c-5.128-13.712-8.296-28.176-9.12-43.112C151.16,17.048,165.632,20.224,179.344,25.344z    M152.304,75.008l42.704-42.704c13.312,6.872,25.688,15.712,36.584,26.608L300.688,128l-32.152,32.152l11.312,11.312L312,139.312   L420.688,248L368,300.688L259.312,192l10.344-10.344l-11.312-11.312L248,180.688L178.912,111.6   C168.016,100.696,159.176,88.32,152.304,75.008z M212.688,168L192,188.688l-8-8v-41.376L212.688,168z M105.464,304h57.992   l-14.936,16H90.464L105.464,304z M480,368H16v-32h464V368z" data-original="#333333" class="" data-old_color="#393535"/>
</g></g> </svg>
