<?xml version="1.0" ?><svg id="Layer_1" style="enable-background:new 0 0 52 52;" version="1.1" viewBox="0 0 52 52" xml:space="preserve" xmlns="http://www.w3.org/2000/svg" xmlns:xlink="http://www.w3.org/1999/xlink"><style type="text/css">
	.st0{fill:#231F20;}
</style><g><g><path class="st0" d="M5.7153444,3.0196626c7.208375-0.0026305,14.416749-0.0052609,21.6251221-0.0078914    c3.6041851-0.0013154,7.2083759-0.0048332,10.8125629-0.0039458c2.6883469,0.0006621,9.0847397-0.9706607,10.8401718,1.7546816    c1.083931,1.6828256,0.069828,7.7965903,0.0884209,9.8724613c0.0324211,3.6199036,0.0648422,7.2398052,0.0972633,10.8597069    s0.0648422,7.2398071,0.0972633,10.8597069c0.0147362,1.6454124,0.0294724,3.2908211,0.0442085,4.9362335    c0.0268898,3.002285,0.4466095,3.806427-1.7607574,6.0158997c-2.0892868,2.0912781-2.9524918,1.7447853-5.6366348,1.7146645    c-1.940052-0.0217705-3.8801041-0.0435371-5.8201561-0.0653076c-3.2334175-0.0362854-6.4668369-0.072567-9.7002563-0.1088486    c-3.5567608-0.0399132-7.1135216-0.0798225-10.6702814-0.1197357c-1.6167097-0.0181427-3.2334194-0.0362816-4.8501291-0.0544243    c-0.9156218-0.010273-5.0593328,0.4065285-5.8201542-0.0653076c-3.2996542-2.0463524-2.5931625-7.5946312-2.6115792-10.8581123    c-0.0220373-3.9050331,0.0037193-7.8109589,0.0064125-11.7160664c0.002389-3.4640903-2.0751817-23.1466141,3.7376983-22.8231163    c1.4467583,0.0805149,1.4422145-2.1697378,0-2.25C1.9932803,0.7264534,0.4209932,3.6954861,0.2329561,7.51933    c-0.3989935,8.1137629-0.0246353,16.341053-0.0302384,24.4655304c-0.0025623,3.7152557-0.0733257,7.4410667,0.0977079,11.1536751    c0.0882244,1.9150772-0.1633612,5.0586624,1.3338666,6.6088524c1.1466193,1.1871758,2.8986464,1.0711594,4.3977227,1.1210518    c4.1977358,0.1397133,8.4103928,0.0943756,12.6103344,0.1415024c8.0835476,0.0907097,16.1670952,0.1814156,24.2506409,0.2721252    c4.4955101,0.0504417,7.8776016,0.0404243,8.5935326-5.0820122c1.0600586-7.5846672-0.0155563-16.0068302-0.0841637-23.6671162    c-0.0353661-3.9489861-0.0707359-7.8979702-0.1061058-11.8469543c-0.020565-2.2963696,0.7209358-5.841887-0.493-7.9315519    c-0.8130341-1.3995544-2.1307983-1.5108507-3.6444664-1.6973795c-4.2664299-0.5257511-8.6486931-0.2993573-12.9375992-0.2977922    C24.7192402,0.7627277,15.2172928,0.7661951,5.7153444,0.7696626C4.2676001,0.7701908,4.2651563,3.0201917,5.7153444,3.0196626    L5.7153444,3.0196626z"/></g><g><path class="st0" d="M1.4655957,15.2653904c15.958334,0,31.9166679,0,47.875,0c1.4477692,0,1.4501648-2.25,0-2.25    c-15.9583321,0-31.916666,0-47.875,0C0.0178281,13.0153904,0.0154301,15.2653904,1.4655957,15.2653904L1.4655957,15.2653904z"/></g><g><path class="st0" d="M33.7156334,28.4595432c1.0991974,0.7080593,2.1983948,1.4161205,3.2975922,2.1241817    c0.9828072,0.6330872,3.0727615,1.5451317,3.3968315,2.7417946c0.1723366-0.4234924,0.3446732-0.8469849,0.5170059-1.2704735    c-1.3122063,0.8711433-2.7128487,1.6765289-3.9372826,2.6697121c-1.3944206,1.1310692-2.4307365,2.093708-4.2339096,2.5557976    c-1.4016762,0.3591995-0.8075924,2.5298653,0.5981369,2.1696281c1.5343513-0.3931999,2.8882179-1.0673904,4.0923882-2.1057053    c1.4541092-1.2538261,3.012661-2.2820129,4.6162872-3.3466263c0.4198875-0.2787552,0.6527481-0.7692223,0.5170021-1.2704735    c-0.3984642-1.4713593-1.4258423-2.137001-2.6502228-2.9394569c-1.6838837-1.103611-3.3856621-2.1809139-5.0782089-3.2711887    C33.6303673,25.7302856,32.5010109,27.6771278,33.7156334,28.4595432L33.7156334,28.4595432z"/></g><g><path class="st0" d="M31.2273731,23.1362705c-4.1530972,5.1489716-6.8964005,11.436636-10.001585,17.243494    c-0.6826324,1.2765617,1.2590065,2.4143677,1.9428082,1.1356201c2.9921684-5.5955124,5.6459656-11.8242493,9.6497669-16.7881241    C33.7193031,23.6102848,32.1369476,22.0085888,31.2273731,23.1362705L31.2273731,23.1362705z"/></g><g><path class="st0" d="M17.556591,26.6633339c-0.9987144,1.7159729-1.9798641,3.0071659-3.6079464,4.172327    c-0.7695513,0.5507412-1.7349358,1.1525154-1.9209919,2.163496c-0.165267,0.8980179,0.2911882,1.4290581,0.9583788,1.9197922    c1.5859613,1.1665115,3.3138208,2.0838203,4.8621759,3.3292007c1.117979,0.8992157,2.7198181-0.6830482,1.5909901-1.590992    c-0.9680214-0.7786026-1.9538059-1.532383-2.9833469-2.2285004c-0.4681625-0.3165436-1.0119801-0.5728569-1.4471149-0.9268341    c-0.1978502-0.20467-0.4301414-0.2467346-0.6968746-0.1261902c0.3267059-0.2843781,0.6727858-0.541584,1.0382376-0.7716255    c1.8454657-1.3136559,3.0108461-2.8489857,4.1493025-4.8050556C20.229208,26.5450115,18.2854309,25.4110584,17.556591,26.6633339    L17.556591,26.6633339z"/></g><g><path class="st0" d="M5.7915654,8.8149681C5.7771521,8.7709093,5.7627382,8.7268505,5.7483249,8.6827908    c0.0964398-0.3648548,0.1928792-0.7297096,0.2893186-1.0945644C6.2048359,7.537868,6.3720279,7.4875102,6.5392199,7.4371519    c0.1654749,0.0964398,0.3309503,0.1928792,0.4964256,0.289319C7.0572352,7.7862816,7.078825,7.8460927,7.1004148,7.9059033    c-0.1939669-0.5755577-0.7744045-0.953238-1.3838835-0.7857442C5.1549091,7.2745013,4.7359071,7.925777,4.9307871,8.5040426    c0.3924518,1.1645203,1.8043666,1.6236248,2.6978469,0.6751738C7.8930974,8.8984823,8.0483971,8.466608,7.9179525,8.0846519    C7.8024306,7.7463908,7.6559191,7.459703,7.3825555,7.223978c-0.4598699-0.3965521-1.1390524-0.4519377-1.5909901,0    C5.3858886,7.6296554,5.3294358,8.4164677,5.7915654,8.8149681L5.7915654,8.8149681z"/></g><g><path class="st0" d="M10.278368,8.0779934c0.0212612,0.4457226,0.1603069,0.7694912,0.455121,1.1082945    c0.3739891,0.4297924,1.22083,0.4443913,1.5909901,0c0.11131-0.1336317,0.2234802-0.2655115,0.3039465-0.420023    c0.2072554-0.3979712,0.2234707-1.0531201-0.175909-1.3633046c-0.7418728-0.5761871-1.4834785-0.5761752-2.2252827,0.0000153    c-0.4802608,0.3730392-0.3918581,1.1991315,0,1.5909905c0.4740496,0.4740496,1.1094694,0.3740177,1.5909901,0    c0.0307255-0.0238657,0.061451-0.0477314,0.0921764-0.0715971c-0.1654749,0.0964394-0.3309507,0.1928787-0.4964256,0.2893181    c-0.0493994-0.02279-0.0987997-0.0227928-0.1482029-0.0000105c-0.1654749-0.0964394-0.3309498-0.1928787-0.4964256-0.289319    c0.0307274,0.0238647,0.0614538,0.0477285,0.0921803,0.0715933c-0.0586367-0.4544353-0.1172733-0.9088697-0.17591-1.3633046    c0.0159578-0.0117826,0.0319147-0.0235658,0.0478725-0.0353484c0.5303297,0,1.0606604,0,1.5909901,0    c-0.0255136-0.0293212-0.0510283-0.0586419-0.0765419-0.0879631c0.0964394,0.1654749,0.1928787,0.3309503,0.289319,0.4964256    c-0.0029631,0.024744-0.0059261,0.049489-0.0088882,0.0742331c-0.0289574-0.6070514-0.4963293-1.1249995-1.125-1.1249995    C10.8165054,6.9529939,10.2492762,7.4681411,10.278368,8.0779934L10.278368,8.0779934z"/></g><g><path class="st0" d="M15.5054188,7.6382213c-0.024972,0.039402-0.049943,0.078804-0.0749149,0.118206    c0.134532-0.134532,0.2690639-0.2690635,0.4035959-0.4035954c-0.0413809,0.0215344-0.0827618,0.0430694-0.1241426,0.0646038    c0.37854,0,0.7570782,0,1.1356182,0c-0.0832291-0.0619769-0.1664581-0.1239533-0.2496872-0.1859303    c0.0758953,0.5889664,0.1517906,1.1779327,0.2276859,1.7669001c0.0397491-0.0420952,0.0795002-0.0841894,0.1192493-0.1262836    c-0.6401653-0.2651644-1.2803297-0.5303297-1.920495-0.795495c0.1169672,1.4253569,1.6051378,1.8284397,2.6143255,0.9290514    c0.5951996-0.5304403,0.3112698-1.3606348-0.2276859-1.7668996c-0.0367603-0.02771-0.0735207-0.0554204-0.110281-0.0831304    c0.134531,0.1345315,0.2690639,0.2690635,0.403595,0.4035954c-0.0073853,0.0103002-0.0147705,0.0206003-0.0221558,0.030901    C17.4535599,7.026824,16.9297352,6.6303067,16.2962418,6.8044c-0.5348845,0.1469946-1.0137949,0.8168726-0.7857437,1.383884    c0.177597,0.4415655,0.3778362,0.7030783,0.7628517,0.9933043c-0.0758953-0.5889673-0.1517906-1.1779337-0.2276859-1.7669001    c-0.0115719,0.0000081-0.0231438,0.0000157-0.0347157,0.0000238c0.18927-0.0511985,0.37854-0.102397,0.5678101-0.1535954    c0.0099735,0.0065184,0.019949,0.0130372,0.0299244,0.0195556c0.1654739,0.0964398,0.3309498,0.1928792,0.4964256,0.289319    c0.0076733,0.0177875,0.0153484,0.0355744,0.0230236,0.0533619c0.051199,0.1892695,0.1023979,0.3785391,0.153595,0.5678091    c-0.0031319-0.0381784-0.0062656-0.0763569-0.0093975-0.1145353c-0.0752392-0.916862-1.2047997-1.5533972-1.920496-0.795495    c-0.0397501,0.0420942-0.0795002,0.0841889-0.1192503,0.1262832c-0.5404005,0.5722694-0.357523,1.3311238,0.2276859,1.7668996    c0.08323,0.0619764,0.1664591,0.1239538,0.2496881,0.1859303c0.3240585,0.2413092,0.8051071,0.171999,1.1356182,0    c0.2722664-0.1416874,0.4400864-0.3298969,0.6026516-0.5864058C18.225626,7.5472031,16.2793121,6.4171152,15.5054188,7.6382213    L15.5054188,7.6382213z"/></g></g></svg>