<?xml version="1.0" encoding="utf-8"?>
<!-- Generator: Adobe Illustrator 22.0.1, SVG Export Plug-In . SVG Version: 6.00 Build 0)  -->
<svg version="1.1" id="Layer_1" xmlns="http://www.w3.org/2000/svg" xmlns:xlink="http://www.w3.org/1999/xlink" x="0px" y="0px"
	 viewBox="0 0 128 128" style="enable-background:new 0 0 128 128;" xml:space="preserve">
<style type="text/css">
	.st0{fill:#231F20;}
	.st1{fill:#0086C7;}
	.st2{fill:#66CBE5;}
	.st3{fill:#FFFFFF;}
</style>
<g id="XMLID_1_">
	<path id="XMLID_1288_" class="st0" d="M115,13c3.3,0,6,2.7,6,6v74c0,3.3-2.7,6-6,6H17c-3.3,0-6-2.7-6-6V19c0-3.3,2.7-6,6-6H115
		 M115,10H17c-5,0-9,4-9,9v74c0,5,4,9,9,9h98c5,0,9-4,9-9V19C124,14,120,10,115,10L115,10z"/>
	<path id="XMLID_1283_" class="st0" d="M72,102v13H60v-13H72 M75,99H57v19h18V99L75,99z"/>
	<rect id="XMLID_1282_" x="52" y="115" width="28" height="3"/>
	<rect id="XMLID_1281_" x="11" y="82" width="113" height="3"/>
	<g id="XMLID_1278_">
		<rect id="XMLID_1280_" x="18" y="20" class="st1" width="97" height="5"/>
		<rect id="XMLID_1279_" x="18" y="28" class="st2" width="97" height="47"/>
	</g>
	<rect id="XMLID_1277_" x="25" y="57" width="15" height="3"/>
	<rect id="XMLID_1276_" x="25" y="62" width="11" height="3"/>
	<rect id="XMLID_1275_" x="25" y="34" class="st3" width="18" height="20"/>
	<rect id="XMLID_1274_" x="47" y="57" width="15" height="3"/>
	<rect id="XMLID_1273_" x="47" y="62" width="11" height="3"/>
	<rect id="XMLID_1272_" x="47" y="34" class="st3" width="18" height="20"/>
	<rect id="XMLID_1271_" x="69" y="57" width="15" height="3"/>
	<rect id="XMLID_1270_" x="69" y="62" width="11" height="3"/>
	<rect id="XMLID_1269_" x="69" y="34" class="st3" width="18" height="20"/>
	<rect id="XMLID_1268_" x="91" y="57" width="15" height="3"/>
	<rect id="XMLID_1267_" x="91" y="62" width="11" height="3"/>
	<rect id="XMLID_1264_" x="91" y="34" class="st3" width="18" height="20"/>
	<g id="XMLID_1257_">
		<path id="XMLID_1260_" class="st3" d="M99,116.5c-1.4,0-2.5-1.1-2.5-2.5V66c0-1.4,1.1-2.5,2.5-2.5h25c1.4,0,2.5,1.1,2.5,2.5v48
			c0,1.4-1.1,2.5-2.5,2.5H99z"/>
		<path id="XMLID_1249_" d="M124,65c0.5,0,1,0.5,1,1v48c0,0.5-0.5,1-1,1H99c-0.5,0-1-0.5-1-1V66c0-0.5,0.5-1,1-1H124 M124,62H99
			c-2.2,0-4,1.8-4,4v48c0,2.2,1.8,4,4,4h25c2.2,0,4-1.8,4-4V66C128,63.8,126.2,62,124,62L124,62z"/>
	</g>
	<rect id="XMLID_1256_" x="96" y="109" width="31" height="3"/>
	<rect id="XMLID_1255_" x="103" y="77" class="st2" width="17" height="27"/>
	<rect id="XMLID_1254_" x="106" y="93" width="11" height="3"/>
	<rect id="XMLID_1253_" x="106" y="98" width="11" height="3"/>
	<rect id="XMLID_1252_" x="106" y="80" class="st3" width="11" height="10"/>
	<rect id="XMLID_1251_" x="103" y="70" class="st1" width="17" height="4"/>
	<g id="XMLID_1244_">
		<path id="XMLID_1248_" class="st3" d="M6,116.5c-2.5,0-4.5-2-4.5-4.5V55c0-2.5,2-4.5,4.5-4.5h36c2.5,0,4.5,2,4.5,4.5v57
			c0,2.5-2,4.5-4.5,4.5H6z"/>
		<path id="XMLID_1245_" d="M42,52c1.7,0,3,1.3,3,3v57c0,1.7-1.3,3-3,3H6c-1.7,0-3-1.3-3-3V55c0-1.7,1.3-3,3-3H42 M42,49H6
			c-3.3,0-6,2.7-6,6v57c0,3.3,2.7,6,6,6h36c3.3,0,6-2.7,6-6V55C48,51.7,45.3,49,42,49L42,49z"/>
	</g>
	<rect id="XMLID_1243_" x="8" y="57" class="st1" width="32" height="4"/>
	<rect id="XMLID_1242_" x="8" y="64" class="st2" width="32" height="38"/>
	<rect id="XMLID_1241_" x="1" y="107" width="46" height="3"/>
	<rect id="XMLID_1240_" x="11" y="80" width="11" height="3"/>
	<rect id="XMLID_1239_" x="11" y="85" width="11" height="3"/>
	<rect id="XMLID_1238_" x="11" y="67" class="st3" width="11" height="10"/>
	<rect id="XMLID_1237_" x="25" y="80" width="11" height="3"/>
	<rect id="XMLID_1236_" x="25" y="85" width="11" height="3"/>
	<rect id="XMLID_1235_" x="25" y="67" class="st3" width="11" height="10"/>
</g>
</svg>
