<svg xmlns="http://www.w3.org/2000/svg" xmlns:xlink="http://www.w3.org/1999/xlink" width="512" height="512" enable-background="new 0 0 512 512" version="1.1" viewBox="0 0 512 512" xml:space="preserve"><g id="形状_1_19_"><g id="形状_1"><g><polygon fill="#1758A7" fill-rule="evenodd" points="91.809 117.07 122.593 450.579 255.999 486.501 389.402 450.579 420.191 117.07" clip-rule="evenodd"/></g></g></g><g id="形状_1_18_"><g id="形状_1_1_"><g><polygon fill="#379AD6" fill-rule="evenodd" points="255.997 144.084 255.997 457.852 256.298 457.933 364.257 428.863 389.175 144.084" clip-rule="evenodd"/></g></g></g><g id="形状_1_17_"><g id="形状_1_2_"><g><polygon fill="#E8E8E7" fill-rule="evenodd" points="255.623 372.537 255.551 372.558 210.981 361.197 208.28 328.479 166.861 328.479 172.263 391.644 256.001 416.637 256.001 372.43" clip-rule="evenodd"/></g></g></g><g id="形状_1_16_"><g id="形状_1_3_"><g><polygon fill="#FBFBFA" fill-rule="evenodd" points="256.001 266.782 256.001 306.911 256.12 306.911 305.622 306.965 302.445 359.419 256.12 372.47 256.001 372.504 256.001 416.591 256.12 416.627 256.153 416.637 340.114 392.114 351.007 266.782" clip-rule="evenodd"/></g></g></g><g id="形状_1_15_"><g id="形状_1_4_"><g><polygon fill="#E5E4E2" fill-rule="evenodd" points="161.002 266.782 164.154 306.869 164.159 306.931 256.001 306.937 256.001 266.782" clip-rule="evenodd"/></g></g></g><g id="形状_1_14_"><g id="形状_1_5_"><g><polygon fill="#EEE" fill-rule="evenodd" points="161.008 266.782 255.768 266.782 256.001 266.681 256.001 226.617" clip-rule="evenodd"/></g></g></g><g id="形状_1_13_"><g id="形状_1_6_"><g><polygon fill="#FFF" fill-rule="evenodd" points="261.553 224.667 256.001 226.992 256.001 266.773 353.955 224.667" clip-rule="evenodd"/></g></g></g><g id="形状_1_12_"><g id="形状_1_7_"><g><polygon fill="#E7E7E6" fill-rule="evenodd" points="152.196 184.515 157.16 224.667 256.001 224.667 256.001 184.515" clip-rule="evenodd"/></g></g></g><g id="形状_1_11_"><g id="形状_1_8_"><g><path fill="#F8F8F7" fill-rule="evenodd" d="M256.001,224.667l101.842-40.152H256.001V224.667z M256.028,224.667h97.76l4.056-40.152L256.028,224.667z" clip-rule="evenodd"/></g></g></g><g id="形状_1_10_"><g id="形状_1_9_"><g><path fill="#1B1B1B" fill-rule="evenodd" d="M158.564,87.892h50.683V68.07h-28.961v-19.85h28.961V26.499 h-50.683V87.892z M230.907,48.221c6.781,6.781,10.317,10.026,20.125,19.835c-5.732,0-20.125,0.021-20.125,0.019v19.817h50.687 V68.07l-20.246-19.85h20.246V26.499h-50.687C230.907,26.499,230.907,37.401,230.907,48.221z M353.436,26.499h-50.69 c0,0,0,10.902,0,21.722c6.781,6.781,10.319,10.026,20.127,19.835c-5.73,0-20.127,0.021-20.127,0.019v19.817h50.69V68.07 l-20.247-19.85h20.247V26.499z" clip-rule="evenodd"/></g></g></g></svg>