<svg width="1024" height="1024" xmlns="http://www.w3.org/2000/svg">

 <g>
  <title>background</title>
  <rect fill="none" id="canvas_background" height="402" width="582" y="-1" x="-1"/>
 </g>
 <g>
  <title>Layer 1</title>
  <path fill="#14acf2" id="svg_2" fill-rule="evenodd" d="m345.114,577.957c-30.72,23.406 -60.7,46.237 -90.663,69.088c-59.987,45.753 -120.068,91.384 -179.826,137.437c-7.932,6.111 -14.316,6.845 -22.936,1.812c-12.293,-7.176 -25.262,-13.198 -37.999,-19.602c-6.807,-3.422 -9.695,-8.685 -9.69,-16.38c0.101,-158.855 -0.012,-317.711 0.465,-476.567c0.015,-5.197 4.539,-12.4 9.09,-15.184c13.567,-8.304 28.245,-14.775 42.391,-22.151c7.721,-4.026 13.51,-0.578 19.469,3.987c49.376,37.81 98.813,75.541 148.249,113.274c40.505,30.916 81.034,61.8 122.024,93.059c2.979,-2.791 5.713,-5.265 8.352,-7.835c147.819,-144.019 295.673,-287.998 443.312,-432.202c7.488,-7.313 14.082,-8.348 23.568,-4.49c62.539,25.429 125.33,50.234 187.785,75.868c4.607,1.892 7.924,8.313 10.479,13.325c1.525,2.993 0.445,7.343 0.445,11.083c0.01,273.15 0.008,546.3 0.01,819.451c0,20.281 -0.023,20.215 -19.381,27.952c-59.543,23.801 -119.17,47.399 -178.496,71.729c-10.449,4.282 -17.154,2.901 -25.148,-4.894c-146.311,-142.644 -292.865,-285.033 -439.38,-427.466c-3.643,-3.54 -7.429,-6.931 -12.12,-11.294zm426.109,129.602c0,-131.221 0,-260.063 0,-390.557c-87.355,65.362 -173.346,129.704 -260.054,194.582c87.009,65.569 172.895,130.296 260.054,195.975zm-545.548,-195.828c-43.705,-39.035 -86.275,-77.056 -129.673,-115.817c0,78.679 0,155.331 0,233.493c43.843,-39.787 86.283,-78.302 129.673,-117.676z" clip-rule="evenodd"/>
 </g>
</svg>