<?xml version="1.0" ?><svg style="enable-background:new 0 0 512 512;" version="1.1" viewBox="0 0 512 512" xml:space="preserve" xmlns="http://www.w3.org/2000/svg" xmlns:xlink="http://www.w3.org/1999/xlink"><style type="text/css">
	.st0{fill:#02C7FA;}
	.st1{fill:#001D25;}
	.st2{fill:#03C7FB;}
</style><g id="Layer_1"/><g id="Layer_4"><rect class="st0" height="384" width="384" x="64" y="64"/><rect class="st1" height="337.9" width="337.9" x="87" y="87"/><path class="st2" d="M190.3,279.3v42c0,4.9-3.9,8.8-8.8,8.8h-10.6c-4.9,0-8.8-3.9-8.8-8.8V166.7c0-4.9,3.9-8.8,8.8-8.8H190   c0.2,0,76.2-3.6,76.6,49.1c0,0.3,0,0.5,0,0.8c0.5,4.8,4.9,58.9-68,62.7C193.9,270.8,190.3,274.6,190.3,279.3z"/><path class="st1" d="M188.7,188v51.3c0,2.6,2.1,4.7,4.6,4.7c11.9,0.1,42.6-4.4,42.6-32.4c0,0,3.7-27.6-42.3-28.3   C191,183.3,188.7,185.4,188.7,188z"/><path class="st2" d="M311.7,331.9c-8.3,0.2-16.5-0.3-24.5-3.2c-5.6-2-9.1-4.8-8.7-11.3c0.3-4.5-0.1-9.1,0.1-13.6   c0.2-4.2,0.9-7,6.3-3.8c9.5,5.6,20.1,7.7,31.2,6.8c5.5-0.5,10.9-1.3,12.8-7.3c2.1-6.5-1.3-11.4-6.4-14.7c-8-5.1-16.5-9.3-24.6-14.3   c-21.1-13.2-22.4-35.2-13.8-50.1c6-10.4,15.2-16.9,26.9-18.6c11.7-1.6,23.6-1.4,35.2,1.6c3.9,1,6.2,3.2,6.2,7.4   c0,5.3,0.1,10.6,0.1,15.9c0.1,5.3-2.4,6.1-6.7,3.8c-8.8-4.6-18.2-5.1-27.9-4.6c-5.1,0.2-8.9,2.5-10.2,7.4   c-1.2,4.6-0.2,8.8,3.9,12.1c8.1,6.5,18.1,9.7,26.7,15.5c17,11.5,23.3,26.5,18,45.3c-3.8,13.3-18.4,25.4-37.1,25.7   C316.7,331.9,314.2,331.9,311.7,331.9z"/></g></svg>