<!DOCTYPE svg PUBLIC "-//W3C//DTD SVG 20010904//EN" "http://www.w3.org/TR/2001/REC-SVG-20010904/DTD/svg10.dtd">
<svg version="1.0" xmlns="http://www.w3.org/2000/svg" width="400px" height="300px" viewBox="0 0 4000 3000" preserveAspectRatio="xMidYMid meet">
<g id="layer1" fill="#63e3ff" stroke="none">
 <path d="M2410 1060 c0 -5 7 -10 15 -10 8 0 15 5 15 10 0 6 -7 10 -15 10 -8 0 -15 -4 -15 -10z"/>
 <path d="M2460 1040 c0 -5 7 -10 15 -10 8 0 15 5 15 10 0 6 -7 10 -15 10 -8 0 -15 -4 -15 -10z"/>
 <path d="M2530 1010 c0 -5 7 -10 15 -10 8 0 15 5 15 10 0 6 -7 10 -15 10 -8 0 -15 -4 -15 -10z"/>
 <path d="M2580 990 c0 -5 7 -10 15 -10 8 0 15 5 15 10 0 6 -7 10 -15 10 -8 0 -15 -4 -15 -10z"/>
 <path d="M2650 960 c0 -5 7 -10 15 -10 8 0 15 5 15 10 0 6 -7 10 -15 10 -8 0 -15 -4 -15 -10z"/>
 <path d="M2700 940 c0 -5 7 -10 15 -10 8 0 15 5 15 10 0 6 -7 10 -15 10 -8 0 -15 -4 -15 -10z"/>
 <path d="M2770 910 c0 -5 7 -10 15 -10 8 0 15 5 15 10 0 6 -7 10 -15 10 -8 0 -15 -4 -15 -10z"/>
 <path d="M2820 891 c0 -12 39 -25 48 -16 7 7 -17 25 -35 25 -7 0 -13 -4 -13 -9z"/>
 <path d="M2890 860 c0 -5 7 -10 15 -10 8 0 15 5 15 10 0 6 -7 10 -15 10 -8 0 -15 -4 -15 -10z"/>
 <path d="M810 835 c0 -13 52 -107 56 -102 6 5 -43 107 -51 107 -3 0 -5 -2 -5 -5z"/>
 <path d="M2960 830 c0 -5 7 -10 15 -10 8 0 15 5 15 10 0 6 -7 10 -15 10 -8 0 -15 -4 -15 -10z"/>
 <path d="M3010 810 c0 -5 7 -10 15 -10 8 0 15 5 15 10 0 6 -7 10 -15 10 -8 0 -15 -4 -15 -10z"/>
 <path d="M3080 780 c0 -5 7 -10 15 -10 8 0 15 5 15 10 0 6 -7 10 -15 10 -8 0 -15 -4 -15 -10z"/>
 <path d="M3130 760 c0 -5 7 -10 15 -10 8 0 15 5 15 10 0 6 -7 10 -15 10 -8 0 -15 -4 -15 -10z"/>
 <path d="M3200 730 c0 -5 7 -10 15 -10 8 0 15 5 15 10 0 6 -7 10 -15 10 -8 0 -15 -4 -15 -10z"/>
 <path d="M3250 710 c0 -5 7 -10 15 -10 8 0 15 5 15 10 0 6 -7 10 -15 10 -8 0 -15 -4 -15 -10z"/>
 <path d="M3320 680 c0 -5 7 -10 15 -10 8 0 15 5 15 10 0 6 -7 10 -15 10 -8 0 -15 -4 -15 -10z"/>
 <path d="M900 665 c0 -13 52 -107 56 -102 6 5 -43 107 -51 107 -3 0 -5 -2 -5 -5z"/>
 <path d="M3370 661 c0 -12 39 -25 48 -16 7 7 -17 25 -35 25 -7 0 -13 -4 -13 -9z"/>
 <path d="M3440 630 c0 -5 7 -10 15 -10 8 0 15 5 15 10 0 6 -7 10 -15 10 -8 0 -15 -4 -15 -10z"/>
 <path d="M3490 611 c0 -12 39 -25 48 -16 7 7 -17 25 -35 25 -7 0 -13 -4 -13 -9z"/>
 <path d="M3560 580 c0 -5 7 -10 15 -10 8 0 15 5 15 10 0 6 -7 10 -15 10 -8 0 -15 -4 -15 -10z"/>
 <path d="M3610 561 c0 -12 39 -25 48 -16 7 7 -17 25 -35 25 -7 0 -13 -4 -13 -9z"/>
 <path d="M3680 530 c0 -5 7 -10 15 -10 8 0 15 5 15 10 0 6 -7 10 -15 10 -8 0 -15 -4 -15 -10z"/>
 <path d="M3750 500 c0 -5 7 -10 15 -10 8 0 15 5 15 10 0 6 -7 10 -15 10 -8 0 -15 -4 -15 -10z"/>
 <path d="M990 495 c0 -13 52 -107 56 -102 6 5 -43 107 -51 107 -3 0 -5 -2 -5 -5z"/>
 <path d="M3800 480 c0 -5 7 -10 15 -10 8 0 15 5 15 10 0 6 -7 10 -15 10 -8 0 -15 -4 -15 -10z"/>
 <path d="M3870 450 c0 -5 7 -10 15 -10 8 0 15 5 15 10 0 6 -7 10 -15 10 -8 0 -15 -4 -15 -10z"/>
 <path d="M3920 430 c0 -5 7 -10 15 -10 8 0 15 5 15 10 0 6 -7 10 -15 10 -8 0 -15 -4 -15 -10z"/>
 <path d="M1080 325 c0 -13 52 -107 56 -102 6 5 -43 107 -51 107 -3 0 -5 -2 -5 -5z"/>
 <path d="M1160 175 c0 -13 62 -127 66 -122 6 5 -53 127 -61 127 -3 0 -5 -2 -5 -5z"/>
 </g>
<g id="layer2" fill="#dbdada" stroke="none">
 <path d="M1220 2705 c0 -8 5 -15 10 -15 6 0 10 7 10 15 0 8 -4 15 -10 15 -5 0 -10 -7 -10 -15z"/>
 <path d="M1370 2665 c0 -8 5 -15 10 -15 6 0 10 7 10 15 0 8 -4 15 -10 15 -5 0 -10 -7 -10 -15z"/>
 <path d="M1410 2655 c0 -8 5 -15 10 -15 6 0 10 7 10 15 0 8 -4 15 -10 15 -5 0 -10 -7 -10 -15z"/>
 <path d="M1300 2635 c0 -8 5 -15 10 -15 6 0 10 7 10 15 0 8 -4 15 -10 15 -5 0 -10 -7 -10 -15z"/>
 <path d="M1440 2635 c0 -8 -4 -15 -10 -15 -5 0 -10 -7 -10 -15 0 -21 17 -19 30 4 13 25 13 41 0 41 -5 0 -10 -7 -10 -15z"/>
 <path d="M1340 2625 c0 -8 5 -15 10 -15 6 0 10 7 10 15 0 8 -4 15 -10 15 -5 0 -10 -7 -10 -15z"/>
 <path d="M1470 2615 c-14 -25 -7 -47 9 -29 14 14 23 54 13 54 -5 0 -15 -11 -22 -25z"/>
 <path d="M1380 2615 c0 -8 5 -15 10 -15 6 0 10 7 10 15 0 8 -4 15 -10 15 -5 0 -10 -7 -10 -15z"/>
 <path d="M1506 2604 c-12 -48 14 -44 29 4 4 16 2 22 -8 22 -8 0 -18 -12 -21 -26z"/>
 <path d="M1550 2611 c0 -5 -3 -16 -6 -25 -4 -11 -1 -16 10 -16 9 0 16 4 16 9 0 5 3 16 6 25 4 11 1 16 -10 16 -9 0 -16 -4 -16 -9z"/>
 <path d="M1630 2575 c0 -14 4 -25 9 -25 5 0 9 11 9 25 0 14 -4 25 -9 25 -5 0 -9 -11 -9 -25z"/>
 <path d="M1870 1512 c-111 -29 -310 -106 -310 -120 0 -7 6 -12 13 -10 22 4 107 -34 107 -49 0 -10 6 -13 18 -8 43 16 181 45 219 45 53 0 67 -18 91 -119 14 -60 20 -71 35 -67 11 3 27 -5 40 -20 15 -18 31 -24 59 -24 25 0 45 -7 59 -21 84 -84 -6 243 -96 350 -53 62 -116 74 -235 43z"/>
 <path d="M1443 1403 c-28 -11 -11 -23 32 -23 33 0 45 4 45 15 0 15 -48 20 -77 8z"/>
 <path d="M1300 1381 c0 -5 14 -14 31 -20 40 -14 39 -14 39 3 0 7 -10 16 -22 20 -33 8 -48 7 -48 -3z"/>
 <path d="M1260 1363 c0 -13 53 -63 67 -63 20 0 16 7 -19 40 -33 29 -48 37 -48 23z"/>
 <path d="M1628 1333 c-10 -2 -18 -11 -18 -20 0 -10 6 -13 16 -9 9 3 20 6 25 6 5 0 9 7 9 15 0 15 -2 16 -32 8z"/>
 <path d="M1570 1305 c0 -8 5 -15 10 -15 6 0 10 7 10 15 0 8 -4 15 -10 15 -5 0 -10 -7 -10 -15z"/>
 <path d="M1530 1295 c0 -8 5 -15 10 -15 6 0 10 7 10 15 0 8 -4 15 -10 15 -5 0 -10 -7 -10 -15z"/>
 <path d="M1490 1285 c0 -8 5 -15 10 -15 6 0 10 7 10 15 0 8 -4 15 -10 15 -5 0 -10 -7 -10 -15z"/>
 <path d="M1440 1275 c0 -8 7 -15 15 -15 8 0 15 7 15 15 0 8 -7 15 -15 15 -8 0 -15 -7 -15 -15z"/>
 <path d="M2030 1125 c0 -8 7 -15 15 -15 8 0 15 -7 15 -15 0 -8 7 -15 15 -15 8 0 15 7 15 15 0 8 -7 15 -15 15 -8 0 -15 7 -15 15 0 8 -7 15 -15 15 -8 0 -15 -7 -15 -15z"/>
 <path d="M2140 1105 c0 -8 7 -15 15 -15 8 0 15 7 15 15 0 8 -7 15 -15 15 -8 0 -15 -7 -15 -15z"/>
 <path d="M1990 629 c0 -18 2 -19 15 -9 8 7 15 16 15 21 0 5 -7 9 -15 9 -9 0 -15 -9 -15 -21z"/>
 <path d="M2030 632 c0 -14 59 -66 67 -59 3 4 -6 21 -22 37 -28 30 -45 38 -45 22z"/>
 <path d="M2110 543 c1 -10 39 -60 40 -51 0 14 -23 58 -32 58 -4 0 -8 -3 -8 -7z"/>
 <path d="M1717 513 c-12 -11 -8 -23 8 -23 8 0 15 7 15 15 0 16 -12 20 -23 8z"/>
 <path d="M1970 510 c0 -5 7 -10 15 -10 8 0 15 5 15 10 0 6 -7 10 -15 10 -8 0 -15 -4 -15 -10z"/>
 <path d="M1960 460 c0 -5 7 -10 15 -10 8 0 15 5 15 10 0 6 -7 10 -15 10 -8 0 -15 -4 -15 -10z"/>
 <path d="M1902 449 c2 -7 10 -15 17 -17 8 -3 12 1 9 9 -2 7 -10 15 -17 17 -8 3 -12 -1 -9 -9z"/>
 <path d="M2012 444 c-25 -17 -29 -34 -7 -34 8 0 15 5 15 10 0 6 7 10 15 10 8 0 15 7 15 15 0 19 -10 19 -38 -1z"/>
 <path d="M2080 444 c0 -9 7 -14 17 -12 25 5 28 28 4 28 -12 0 -21 -6 -21 -16z"/>
 <path d="M1700 415 c0 -16 6 -25 15 -25 9 0 15 9 15 25 0 16 -6 25 -15 25 -9 0 -15 -9 -15 -25z"/>
 <path d="M1950 410 c0 -5 7 -10 15 -10 8 0 15 5 15 10 0 6 -7 10 -15 10 -8 0 -15 -4 -15 -10z"/>
 <path d="M2000 381 c0 -5 3 -17 6 -26 5 -13 8 -14 15 -3 13 20 11 38 -6 38 -8 0 -15 -4 -15 -9z"/>
 <path d="M1906 363 c-3 -10 -9 -24 -12 -30 -3 -8 1 -13 10 -13 13 0 36 35 36 56 0 12 -29 1 -34 -13z"/>
 <path d="M1730 325 c0 -8 5 -15 10 -15 6 0 10 7 10 15 0 8 -4 15 -10 15 -5 0 -10 -7 -10 -15z"/>
 </g>
<g id="layer3" fill="#6e1e11" stroke="none">
 <path d="M2053 2993 c15 -2 37 -2 50 0 12 2 0 4 -28 4 -27 0 -38 -2 -22 -4z"/>
 <path d="M2125 1610 c-87 -78 -111 -110 -82 -110 38 0 114 -130 146 -250 34 -128 36 -131 126 -169 106 -46 109 -42 101 129 -7 146 -25 240 -61 318 -34 73 -101 162 -123 162 -9 0 -57 -37 -107 -80z"/>
 <path d="M1970 1301 c0 -57 15 -91 41 -91 19 0 20 4 14 43 -11 61 -22 87 -40 87 -11 0 -15 -11 -15 -39z"/>
 </g>
<g id="layer4" fill="#fcfcfc" stroke="none">
 <path d="M1160 2705 c-20 -24 -3 -63 42 -95 46 -34 61 -34 66 -2 2 13 11 22 20 22 18 0 302 -73 336 -86 16 -6 18 -4 14 14 -3 11 -1 23 6 25 34 13 -38 36 -367 118 -94 23 -101 23 -117 4z"/>
 <path d="M1253 1394 c-9 -24 85 -110 136 -124 33 -9 59 -5 176 25 76 19 139 35 141 35 2 0 4 6 4 13 0 6 -26 22 -58 35 -71 27 -182 30 -242 6 -41 -17 -55 -14 -142 24 -5 2 -11 -4 -15 -14z"/>
 <path d="M2035 1200 c-4 -6 -4 -33 0 -60 l7 -50 41 1 c78 1 132 13 135 30 3 17 -36 39 -72 39 -12 0 -37 11 -56 25 -38 28 -46 30 -55 15z"/>
 <path d="M1987 617 c-12 -22 -16 -43 -12 -59 4 -15 -1 -63 -10 -107 -19 -96 -17 -134 8 -139 34 -7 50 18 45 70 -5 52 1 58 53 58 28 0 89 24 89 36 0 29 -120 174 -144 174 -6 0 -20 -15 -29 -33z"/>
 <path d="M1722 498 c-5 -7 -12 -49 -13 -93 l-4 -79 62 -15 c51 -12 70 -12 103 -2 35 10 44 19 61 58 l20 47 -30 29 c-49 50 -175 84 -199 55z"/>
 <path d="M1830 274 c0 -17 22 -14 28 4 2 7 -3 12 -12 12 -9 0 -16 -7 -16 -16z"/>
 </g>
<g id="layer5" fill="#90261d" stroke="none">
 <path d="M1962 1348 c6 -18 28 -21 28 -4 0 9 -7 16 -16 16 -9 0 -14 -5 -12 -12z"/>
 <path d="M2000 1260 c0 -5 7 -10 15 -10 8 0 15 5 15 10 0 6 -7 10 -15 10 -8 0 -15 -4 -15 -10z"/>
 <path d="M1987 1224 c-4 -4 -7 -34 -7 -67 0 -41 -5 -63 -15 -71 -12 -10 -12 -29 5 -151 11 -77 20 -168 20 -203 l0 -63 63 -62 c34 -34 69 -77 76 -94 7 -18 19 -33 26 -33 19 0 99 92 135 154 58 102 120 306 120 396 -1 35 -2 35 -83 67 l-83 32 -84 -15 c-47 -8 -90 -12 -96 -10 -6 2 -15 30 -18 60 -4 31 -11 56 -16 56 -5 0 -15 2 -22 5 -8 3 -17 2 -21 -1z"/>
 <path d="M2050 325 c0 -8 7 -15 15 -15 8 0 15 7 15 15 0 8 -7 15 -15 15 -8 0 -15 -7 -15 -15z"/>
 <path d="M1630 275 c0 -16 6 -25 15 -25 9 0 15 9 15 25 0 16 -6 25 -15 25 -9 0 -15 -9 -15 -25z"/>
 <path d="M1672 199 c2 -7 10 -15 17 -17 8 -3 12 1 9 9 -2 7 -10 15 -17 17 -8 3 -12 -1 -9 -9z"/>
 <path d="M1760 165 c0 -8 7 -15 15 -15 8 0 15 7 15 15 0 8 -7 15 -15 15 -8 0 -15 -7 -15 -15z"/>
 <path d="M1850 145 c0 -8 5 -15 10 -15 6 0 10 7 10 15 0 8 -4 15 -10 15 -5 0 -10 -7 -10 -15z"/>
 <path d="M1890 135 c0 -9 9 -15 25 -15 16 0 25 6 25 15 0 9 -9 15 -25 15 -16 0 -25 -6 -25 -15z"/>
 </g>
<g id="layer6" fill="#58afdc" stroke="none">
 <path d="M457 2993 c-11 -10 -8 -121 3 -128 6 -3 10 -24 10 -45 0 -74 13 -70 -241 -70 l-229 0 0 -24 c0 -14 4 -27 8 -30 5 -3 44 -8 88 -11 43 -3 104 -7 134 -10 102 -9 164 -14 255 -21 50 -3 104 -8 120 -10 45 -5 206 -18 238 -18 26 -1 27 -3 27 -53 0 -40 4 -53 15 -53 13 0 15 33 15 240 l0 240 -218 0 c-120 0 -222 -3 -225 -7z"/>
 <path d="M2672 2865 l5 -135 -23 0 c-13 0 -24 -4 -24 -9 0 -6 -42 -8 -106 -4 l-105 6 3 -39 c2 -32 7 -40 26 -42 12 -2 22 -7 22 -12 0 -5 32 -6 70 -3 50 4 70 3 70 -6 0 -8 20 -9 70 -5 49 5 70 4 70 -4 0 -8 22 -10 75 -5 56 4 75 3 75 -6 0 -10 13 -11 48 -6 40 5 49 3 59 -14 8 -12 9 -22 3 -26 -5 -3 -7 -33 -3 -69 4 -42 2 -66 -6 -70 -14 -9 -14 -46 0 -46 17 0 38 32 39 58 0 21 3 22 53 17 28 -3 76 -7 106 -10 54 -5 70 -15 71 -45 0 -8 9 -26 20 -40 l21 -25 -8 30 c-27 111 20 191 121 205 l41 5 6 105 c4 58 7 156 8 218 l1 112 -406 0 -407 0 5 -135z"/>
 <path d="M1450 2655 c0 -8 5 -15 10 -15 6 0 10 7 10 15 0 8 -4 15 -10 15 -5 0 -10 -7 -10 -15z"/>
 <path d="M3000 2320 c0 -5 7 -10 15 -10 8 0 15 5 15 10 0 6 -7 10 -15 10 -8 0 -15 -4 -15 -10z"/>
 <path d="M2980 2250 c0 -11 7 -20 15 -20 8 0 15 9 15 20 0 11 -7 20 -15 20 -8 0 -15 -9 -15 -20z"/>
 <path d="M2970 2110 c0 -5 7 -10 15 -10 8 0 15 5 15 10 0 6 -7 10 -15 10 -8 0 -15 -4 -15 -10z"/>
 <path d="M2960 1970 c0 -5 7 -10 15 -10 8 0 15 5 15 10 0 6 -7 10 -15 10 -8 0 -15 -4 -15 -10z"/>
 <path d="M2950 1830 c0 -5 7 -10 15 -10 8 0 15 5 15 10 0 6 -7 10 -15 10 -8 0 -15 -4 -15 -10z"/>
 <path d="M2480 1745 c0 -8 7 -15 15 -15 8 0 15 7 15 15 0 8 -7 15 -15 15 -8 0 -15 -7 -15 -15z"/>
 <path d="M2620 1735 c0 -8 7 -15 15 -15 8 0 15 7 15 15 0 8 -7 15 -15 15 -8 0 -15 -7 -15 -15z"/>
 <path d="M2760 1725 c0 -8 9 -15 20 -15 11 0 20 7 20 15 0 8 -9 15 -20 15 -11 0 -20 -7 -20 -15z"/>
 <path d="M2900 1714 c0 -11 8 -14 32 -12 46 4 49 28 4 28 -26 0 -36 -4 -36 -16z"/>
 <path d="M762 908 c6 -18 28 -21 28 -4 0 9 -7 16 -16 16 -9 0 -14 -5 -12 -12z"/>
 </g>
<g id="layer7" fill="#142645" stroke="none">
 <path d="M1260 2614 c-6 -14 -10 -27 -10 -29 0 -2 27 -25 60 -50 37 -29 60 -54 60 -66 0 -11 -42 -102 -93 -202 -84 -166 -164 -331 -230 -477 -58 -129 -63 -195 -18 -256 31 -43 58 -68 81 -77 8 -3 -3 -6 -26 -6 -53 -1 -53 -1 -142 -161 -14 -25 -32 -56 -42 -70 -9 -14 -20 -32 -23 -40 -4 -8 -20 -37 -37 -65 -70 -118 -95 -175 -84 -193 6 -9 17 -17 24 -17 7 0 75 109 152 242 l140 243 252 -2 c260 -1 266 0 348 43 10 5 23 9 30 9 7 0 26 7 42 15 51 27 173 53 246 54 43 1 52 7 143 87 54 48 96 92 94 98 -5 15 -75 59 -118 74 -73 25 -367 10 -636 -32 -109 -17 -143 -19 -143 -10 0 7 4 15 9 18 5 3 12 18 16 33 3 15 15 45 26 67 10 22 19 43 19 48 0 7 42 105 61 140 5 10 9 22 9 28 0 9 40 103 61 142 5 10 9 22 9 28 0 5 12 35 26 67 37 83 41 93 58 143 14 45 20 88 18 126 -2 20 -23 29 -157 64 -54 13 -65 13 -65 -5 0 -8 -1 -15 -2 -15 -2 0 -28 7 -58 15 -76 20 -89 19 -100 -11z"/>
 <path d="M1796 573 c-20 -26 -35 -52 -33 -57 2 -6 30 -20 62 -32 79 -28 109 -56 100 -92 -4 -15 -8 -43 -10 -62 -2 -28 -7 -35 -31 -42 -15 -4 -30 -5 -33 -3 -2 3 1 5 7 5 7 0 12 7 12 15 0 10 -11 15 -37 16 -59 2 -100 6 -129 13 -37 10 -64 -17 -64 -64 0 -31 7 -44 40 -74 23 -21 50 -36 65 -36 13 0 50 -7 82 -15 82 -21 135 -19 168 7 37 29 75 113 75 166 0 40 -2 43 -22 37 -13 -4 -32 -13 -43 -19 -11 -7 -33 -16 -50 -20 l-30 -8 23 24 c15 17 22 37 22 64 0 22 7 66 15 97 13 51 13 60 0 81 -20 31 -57 46 -109 46 -40 0 -46 -4 -80 -47z"/>
 <path d="M2030 447 c-19 -10 -24 -20 -23 -42 3 -42 18 -52 51 -33 34 21 53 65 32 78 -20 13 -30 12 -60 -3z"/>
 </g>
<g id="layer8" fill="#3e618e" stroke="none">
 <path d="M2 2873 l3 -128 230 0 230 0 3 128 3 127 -236 0 -236 0 3 -127z"/>
 <path d="M1662 2988 c6 -16 184 -23 213 -9 11 6 56 12 100 14 44 2 -9 4 -118 5 -155 2 -198 -1 -195 -10z"/>
 <path d="M2660 2956 l0 -34 -72 -6 c-72 -6 -1072 -56 -1115 -56 -19 0 -23 6 -23 30 0 21 -5 30 -16 30 -13 0 -14 -15 -9 -122 4 -68 9 -129 11 -137 4 -11 31 -12 154 -6 106 5 150 4 150 -4 0 -14 27 -14 32 0 4 12 148 19 148 7 0 -14 51 -9 66 7 10 10 36 15 77 15 132 1 620 29 628 37 4 4 5 68 2 141 -5 102 -9 132 -19 132 -9 0 -14 -12 -14 -34z m-890 -181 c0 -8 -9 -15 -20 -15 -20 0 -26 11 -13 23 12 13 33 7 33 -8z m-210 -10 c0 -8 -7 -15 -15 -15 -8 0 -15 7 -15 15 0 8 7 15 15 15 8 0 15 -7 15 -15z m108 3 c-7 -19 -38 -22 -38 -4 0 10 9 16 21 16 12 0 19 -5 17 -12z"/>
 <path d="M2070 2655 c0 -9 9 -15 25 -15 16 0 25 6 25 15 0 9 -9 15 -25 15 -16 0 -25 -6 -25 -15z"/>
 <path d="M2210 2645 c0 -10 10 -15 30 -15 20 0 30 5 30 15 0 10 -10 15 -30 15 -20 0 -30 -5 -30 -15z"/>
 <path d="M2350 2635 c0 -10 10 -15 30 -15 20 0 30 5 30 15 0 10 -10 15 -30 15 -20 0 -30 -5 -30 -15z"/>
 <path d="M2500 2625 c0 -10 10 -15 30 -15 20 0 30 5 30 15 0 10 -10 15 -30 15 -20 0 -30 -5 -30 -15z"/>
 <path d="M2640 2615 c0 -10 11 -15 35 -15 24 0 35 5 35 15 0 10 -11 15 -35 15 -24 0 -35 -5 -35 -15z"/>
 <path d="M2790 2605 c0 -10 10 -15 30 -15 20 0 30 5 30 15 0 10 -10 15 -30 15 -20 0 -30 -5 -30 -15z"/>
 <path d="M2930 2595 c0 -10 10 -15 30 -15 20 0 30 5 30 15 0 10 -10 15 -30 15 -20 0 -30 -5 -30 -15z"/>
 <path d="M1900 2556 c0 -14 303 -386 314 -386 13 0 17 33 32 257 7 102 7 102 -17 112 -29 10 -329 27 -329 17z"/>
 <path d="M1730 2525 c0 -16 6 -25 15 -25 9 0 15 9 15 25 0 16 -6 25 -15 25 -9 0 -15 -9 -15 -25z"/>
 <path d="M2990 2480 c0 -20 5 -30 15 -30 10 0 15 10 15 30 0 20 -5 30 -15 30 -10 0 -15 -10 -15 -30z"/>
 <path d="M2880 2490 c0 -5 11 -10 25 -10 14 0 25 5 25 10 0 6 -11 10 -25 10 -14 0 -25 -4 -25 -10z"/>
 <path d="M1887 2428 c-4 -29 -9 -112 -13 -185 l-7 -132 34 -5 c19 -3 84 -8 144 -11 61 -3 122 -8 138 -11 20 -4 27 -2 27 10 0 19 -286 380 -304 384 -9 2 -15 -14 -19 -50z"/>
 <path d="M2880 2435 c0 -8 5 -15 10 -15 6 0 10 7 10 15 0 8 -4 15 -10 15 -5 0 -10 -7 -10 -15z"/>
 <path d="M1720 2380 c0 -20 5 -30 15 -30 10 0 15 10 15 30 0 20 -5 30 -15 30 -10 0 -15 -10 -15 -30z"/>
 <path d="M2980 2340 c0 -20 5 -30 15 -30 10 0 15 10 15 30 0 20 -5 30 -15 30 -10 0 -15 -10 -15 -30z"/>
 <path d="M2311 2277 c-15 -15 -14 -52 2 -65 9 -7 179 -23 302 -27 6 0 10 18 10 40 l0 40 -85 7 c-202 15 -219 15 -229 5z"/>
 <path d="M1710 2240 c0 -20 5 -30 15 -30 10 0 15 10 15 30 0 20 -5 30 -15 30 -10 0 -15 -10 -15 -30z"/>
 <path d="M2970 2200 c0 -20 5 -30 15 -30 10 0 15 10 15 30 0 20 -5 30 -15 30 -10 0 -15 -10 -15 -30z"/>
 <path d="M2360 2145 c0 -10 10 -15 30 -15 20 0 30 5 30 15 0 10 -10 15 -30 15 -20 0 -30 -5 -30 -15z"/>
 <path d="M2510 2135 c0 -9 9 -15 25 -15 16 0 25 6 25 15 0 9 -9 15 -25 15 -16 0 -25 -6 -25 -15z"/>
 <path d="M2650 2125 c0 -9 9 -15 25 -15 16 0 25 6 25 15 0 9 -9 15 -25 15 -16 0 -25 -6 -25 -15z"/>
 <path d="M2790 2115 c0 -10 10 -15 30 -15 20 0 30 5 30 15 0 10 -10 15 -30 15 -20 0 -30 -5 -30 -15z"/>
 <path d="M1700 2095 c0 -16 6 -25 15 -25 9 0 15 9 15 25 0 16 -6 25 -15 25 -9 0 -15 -9 -15 -25z"/>
 <path d="M2870 2085 c0 -16 -6 -25 -15 -25 -8 0 -15 -7 -15 -15 0 -21 30 -19 46 3 18 24 18 62 -1 62 -9 0 -15 -9 -15 -25z"/>
 <path d="M2300 2085 c0 -8 5 -15 10 -15 6 0 10 7 10 15 0 8 -4 15 -10 15 -5 0 -10 -7 -10 -15z"/>
 <path d="M1165 2040 c-14 -29 -24 -54 -21 -57 2 -3 17 18 31 47 14 29 24 54 21 57 -2 3 -17 -18 -31 -47z"/>
 <path d="M2410 2075 c0 -10 10 -15 30 -15 20 0 30 5 30 15 0 10 -10 15 -30 15 -20 0 -30 -5 -30 -15z"/>
 <path d="M2960 2060 c0 -20 5 -30 15 -30 10 0 15 10 15 30 0 20 -5 30 -15 30 -10 0 -15 -10 -15 -30z"/>
 <path d="M2560 2065 c0 -9 9 -15 25 -15 16 0 25 6 25 15 0 9 -9 15 -25 15 -16 0 -25 -6 -25 -15z"/>
 <path d="M2700 2055 c0 -9 9 -15 25 -15 16 0 25 6 25 15 0 9 -9 15 -25 15 -16 0 -25 -6 -25 -15z"/>
 <path d="M1688 1908 c-3 -51 -1 -98 3 -104 5 -6 57 -14 116 -18 59 -4 110 -12 114 -17 4 -6 44 -9 103 -7 53 2 96 0 96 -4 0 -3 9 -4 20 -1 10 3 195 -7 410 -23 337 -24 393 -25 404 -13 9 9 16 53 20 117 5 84 4 102 -8 102 -8 0 -16 -5 -18 -12 -3 -9 -151 -1 -599 30 -327 24 -608 42 -625 42 l-32 0 -4 -92z m130 -11 c2 -10 -3 -17 -12 -17 -10 0 -16 9 -16 21 0 24 23 21 28 -4z m100 -4 c-4 -22 -22 -20 -26 1 -2 10 3 16 13 16 10 0 15 -7 13 -17z m110 -10 c2 -8 -5 -13 -17 -13 -12 0 -21 6 -21 16 0 18 31 15 38 -3z"/>
 <path d="M1740 1765 c0 -8 9 -15 20 -15 11 0 20 7 20 15 0 8 -9 15 -20 15 -11 0 -20 -7 -20 -15z"/>
 <path d="M1640 1755 c0 -8 7 -15 15 -15 8 0 15 7 15 15 0 8 -7 15 -15 15 -8 0 -15 -7 -15 -15z"/>
 <path d="M1550 1745 c0 -8 7 -15 15 -15 8 0 15 7 15 15 0 8 -7 15 -15 15 -8 0 -15 -7 -15 -15z"/>
 <path d="M1480 1735 c0 -8 7 -15 15 -15 8 0 15 7 15 15 0 8 -7 15 -15 15 -8 0 -15 -7 -15 -15z"/>
 <path d="M1420 1725 c0 -8 5 -15 10 -15 6 0 10 7 10 15 0 8 -4 15 -10 15 -5 0 -10 -7 -10 -15z"/>
 <path d="M1012 1718 c-16 -16 -15 -28 3 -28 8 0 15 9 15 20 0 23 -2 24 -18 8z"/>
 <path d="M1360 1715 c0 -8 5 -15 10 -15 6 0 10 7 10 15 0 8 -4 15 -10 15 -5 0 -10 -7 -10 -15z"/>
 <path d="M990 1635 c0 -24 5 -35 15 -35 10 0 15 11 15 35 0 24 -5 35 -15 35 -10 0 -15 -11 -15 -35z"/>
 <path d="M1020 1543 c0 -18 47 -69 56 -60 4 4 -6 22 -24 40 -18 17 -32 26 -32 20z"/>
 <path d="M1078 1462 c-25 -2 -38 -8 -38 -18 0 -11 16 -14 75 -14 60 0 75 3 75 15 0 8 -6 16 -12 17 -26 3 -64 3 -100 0z"/>
 <path d="M740 945 c0 -8 7 -15 15 -15 8 0 15 7 15 15 0 8 -7 15 -15 15 -8 0 -15 -7 -15 -15z"/>
 <path d="M1890 320 c0 -5 7 -10 15 -10 8 0 15 5 15 10 0 6 -7 10 -15 10 -8 0 -15 -4 -15 -10z"/>
 <path d="M1953 323 c-22 -8 -14 -23 12 -23 16 0 25 6 25 15 0 15 -14 18 -37 8z"/>
 </g>
<g id="layer9" fill="#223b62" stroke="none">
 <path d="M1424 2928 c4 -40 11 -77 16 -82 9 -9 1213 48 1230 59 5 3 10 26 10 51 l0 44 -237 0 c-131 0 -355 -5 -498 -11 -194 -9 -260 -9 -263 0 -2 7 -45 11 -134 11 l-131 0 7 -72z"/>
 <path d="M1780 2681 c-18 -5 -27 -16 -32 -41 -13 -58 -49 -643 -41 -650 11 -10 1250 -96 1259 -88 3 4 17 157 30 340 19 272 21 335 11 345 -9 10 -176 25 -588 53 -315 22 -583 42 -594 44 -11 2 -31 1 -45 -3z m433 -158 c18 -5 18 -13 12 -121 -4 -63 -10 -137 -14 -164 l-6 -48 -96 122 c-53 68 -116 147 -140 177 l-43 53 135 -6 c74 -4 142 -10 152 -13z m707 -45 c0 -6 -7 -5 -15 2 -8 7 -15 17 -15 22 0 6 7 5 15 -2 8 -7 15 -17 15 -22z m-873 -190 c72 -90 132 -167 135 -173 4 -7 -43 -7 -140 0 l-147 10 2 120 c2 114 10 205 18 205 2 0 61 -73 132 -162z m446 -33 c111 -7 117 -8 117 -28 0 -22 0 -22 -145 -13 -144 9 -145 9 -145 33 0 21 4 24 28 19 15 -3 80 -8 145 -11z m87 -130 c294 -20 300 -21 300 -45 0 -10 -3 -21 -7 -23 -5 -2 -118 4 -253 14 -135 10 -260 18 -277 18 -28 1 -33 5 -33 26 0 30 -24 29 270 10z"/>
 <path d="M1262 2630 c-15 -24 -15 -30 -1 -30 14 0 39 25 39 39 0 18 -24 12 -38 -9z"/>
 <path d="M1320 2625 c0 -8 5 -15 10 -15 6 0 10 7 10 15 0 8 -4 15 -10 15 -5 0 -10 -7 -10 -15z"/>
 <path d="M1448 2615 c-6 -14 -8 -28 -5 -32 8 -8 36 26 37 45 0 21 -20 13 -32 -13z"/>
 <path d="M1360 2615 c0 -8 5 -15 10 -15 6 0 10 7 10 15 0 8 -4 15 -10 15 -5 0 -10 -7 -10 -15z"/>
 <path d="M1400 2605 c0 -8 5 -15 10 -15 6 0 10 7 10 15 0 8 -4 15 -10 15 -5 0 -10 -7 -10 -15z"/>
 <path d="M1490 2604 c0 -17 22 -14 28 4 2 7 -3 12 -12 12 -9 0 -16 -7 -16 -16z"/>
 <path d="M1567 2603 c-12 -11 -8 -23 8 -23 8 0 15 7 15 15 0 16 -12 20 -23 8z"/>
 <path d="M1607 2593 c-4 -3 -7 -13 -7 -20 0 -10 7 -12 23 -7 31 9 34 14 17 24 -18 12 -25 12 -33 3z"/>
 <path d="M1335 2380 c-20 -40 -34 -74 -31 -77 2 -3 21 27 41 67 20 40 34 74 31 77 -2 3 -21 -27 -41 -67z"/>
 <path d="M1550 2310 c0 -5 7 -10 15 -10 8 0 15 5 15 10 0 6 -7 10 -15 10 -8 0 -15 -4 -15 -10z"/>
 <path d="M1113 1933 c-15 -50 -10 -52 16 -8 25 42 25 45 8 45 -6 0 -17 -17 -24 -37z"/>
 <path d="M1040 1779 c0 -18 2 -19 15 -9 8 7 15 16 15 21 0 5 -7 9 -15 9 -9 0 -15 -9 -15 -21z"/>
 <path d="M1780 1765 c0 -8 9 -15 20 -15 11 0 20 7 20 15 0 8 -9 15 -20 15 -11 0 -20 -7 -20 -15z"/>
 <path d="M1670 1755 c0 -8 5 -15 10 -15 6 0 10 7 10 15 0 8 -4 15 -10 15 -5 0 -10 -7 -10 -15z"/>
 <path d="M1580 1745 c0 -8 5 -15 10 -15 6 0 10 7 10 15 0 8 -4 15 -10 15 -5 0 -10 -7 -10 -15z"/>
 <path d="M1510 1735 c0 -8 5 -15 10 -15 6 0 10 7 10 15 0 8 -4 15 -10 15 -5 0 -10 -7 -10 -15z"/>
 <path d="M1440 1725 c0 -8 5 -15 10 -15 6 0 10 7 10 15 0 8 -4 15 -10 15 -5 0 -10 -7 -10 -15z"/>
 <path d="M1380 1715 c0 -8 5 -15 10 -15 6 0 10 7 10 15 0 8 -4 15 -10 15 -5 0 -10 -7 -10 -15z"/>
 <path d="M1860 1505 c0 -8 5 -15 10 -15 6 0 10 7 10 15 0 8 -4 15 -10 15 -5 0 -10 -7 -10 -15z"/>
 <path d="M1778 1493 c-10 -2 -18 -11 -18 -20 0 -10 6 -13 16 -9 9 3 20 6 25 6 5 0 9 7 9 15 0 15 -2 16 -32 8z"/>
 <path d="M1170 1455 c0 -15 46 -32 57 -22 3 4 3 13 0 22 -8 20 -57 20 -57 0z"/>
 <path d="M1680 1445 c0 -8 5 -15 10 -15 6 0 10 7 10 15 0 8 -4 15 -10 15 -5 0 -10 -7 -10 -15z"/>
 <path d="M1630 1425 c0 -8 5 -15 10 -15 6 0 10 7 10 15 0 8 -4 15 -10 15 -5 0 -10 -7 -10 -15z"/>
 <path d="M1770 508 c0 -9 18 -20 41 -27 23 -7 47 -15 55 -18 8 -3 14 1 14 9 0 9 -18 20 -41 27 -23 7 -47 15 -55 18 -8 3 -14 -1 -14 -9z"/>
 <path d="M1960 490 c0 -5 7 -10 15 -10 8 0 15 5 15 10 0 6 -7 10 -15 10 -8 0 -15 -4 -15 -10z"/>
 <path d="M1950 440 c0 -5 7 -10 15 -10 8 0 15 5 15 10 0 6 -7 10 -15 10 -8 0 -15 -4 -15 -10z"/>
 <path d="M1920 390 c0 -5 7 -10 15 -10 8 0 15 5 15 10 0 6 -7 10 -15 10 -8 0 -15 -4 -15 -10z"/>
 <path d="M2060 385 c0 -8 5 -15 10 -15 6 0 10 7 10 15 0 8 -4 15 -10 15 -5 0 -10 -7 -10 -15z"/>
 <path d="M1700 325 c0 -8 5 -15 10 -15 6 0 10 7 10 15 0 8 -4 15 -10 15 -5 0 -10 -7 -10 -15z"/>
 <path d="M1750 315 c0 -8 5 -15 10 -15 6 0 10 7 10 15 0 8 -4 15 -10 15 -5 0 -10 -7 -10 -15z"/>
 <path d="M1862 313 c2 -10 10 -18 18 -18 8 0 16 8 18 18 2 12 -3 17 -18 17 -15 0 -20 -5 -18 -17z"/>
 <path d="M1820 265 c0 -8 5 -15 10 -15 6 0 10 7 10 15 0 8 -4 15 -10 15 -5 0 -10 -7 -10 -15z"/>
 </g>
<g id="layer10" fill="#ff4600" stroke="none">
 <path d="M1060 1395 c-20 -24 -280 -476 -280 -487 0 -10 456 -875 473 -895 7 -10 295 -13 1378 -13 l1369 0 -2 202 -3 202 -785 328 c-432 181 -791 327 -799 326 -10 -2 -19 -30 -29 -88 -17 -109 -63 -247 -109 -330 -22 -41 -66 -94 -116 -142 -66 -64 -79 -81 -75 -102 3 -14 1 -27 -5 -29 -5 -1 -18 -35 -28 -75 -34 -133 -81 -167 -193 -139 -33 9 -85 21 -113 27 -43 10 -56 18 -73 46 -33 52 -23 81 33 98 12 4 17 16 17 44 0 71 12 131 25 126 6 -3 29 21 49 52 l38 56 56 -5 c32 -3 66 -8 78 -12 48 -15 57 111 25 345 -16 114 -16 136 -5 143 10 6 14 30 14 82 0 89 7 82 -159 150 l-113 46 -147 -37 c-133 -35 -151 -37 -188 -26 -69 21 -112 56 -127 105 -5 15 -19 17 -99 17 -72 0 -98 -4 -107 -15z"/>
 <path d="M1305 1400 c-9 -15 2 -25 43 -38 27 -9 40 -9 64 4 16 8 28 21 25 27 -5 16 -123 22 -132 7z"/>
 </g>
<g id="layer11" fill="#71c2e9" stroke="none">
 <path d="M880 2826 c0 -134 -3 -175 -13 -179 -14 -5 -833 59 -854 68 -11 3 -13 -261 -13 -1355 l0 -1360 629 0 c347 0 632 3 635 8 2 4 -11 34 -29 67 -19 33 -52 96 -75 140 -22 44 -62 121 -89 170 -27 50 -67 126 -90 170 -23 44 -61 116 -85 160 -25 44 -56 104 -70 133 -14 29 -33 55 -41 58 -35 14 -24 45 100 258 69 119 125 219 125 223 1 5 9 18 19 31 15 17 30 22 65 22 59 0 60 18 3 45 -55 26 -82 79 -81 155 1 61 50 171 265 602 60 120 109 223 109 230 0 13 -81 81 -158 133 -47 31 -62 52 -62 85 0 17 4 19 28 14 83 -20 436 -115 440 -119 14 -14 -57 -217 -179 -514 -77 -184 -139 -343 -139 -353 0 -22 -5 -21 100 -3 118 20 343 45 416 45 79 0 124 9 124 25 0 9 -36 15 -130 20 l-130 7 5 47 c14 123 56 794 51 808 -6 14 -23 15 -143 8 -75 -4 -141 -9 -148 -11 -9 -4 -15 37 -21 163 l-9 168 -277 3 -278 2 0 -174z"/>
 <path d="M3460 2918 c0 -46 -3 -140 -7 -210 -6 -127 -6 -128 -30 -128 -13 0 -37 -7 -52 -14 -36 -19 -91 -82 -91 -104 0 -16 -8 -16 -92 -9 -51 5 -108 11 -126 13 l-33 5 7 61 c6 55 5 60 -12 56 -15 -2 -19 -13 -20 -43 -1 -22 -4 -80 -8 -130 -4 -49 -9 -117 -12 -150 -2 -33 -6 -85 -8 -115 -3 -30 -8 -100 -11 -155 -4 -55 -8 -118 -10 -140 -2 -22 -4 -62 -4 -88 l-1 -49 -47 6 c-27 4 -79 9 -118 11 -38 3 -104 8 -145 11 -41 3 -97 7 -125 9 -27 2 -113 8 -190 14 -212 17 -228 17 -232 5 -2 -6 20 -23 50 -38 111 -54 200 -180 232 -331 9 -38 18 -133 20 -210 4 -134 5 -141 27 -152 78 -40 1561 -652 1569 -648 5 4 9 510 9 1306 l0 1299 -270 0 -270 0 0 -82z"/>
 <path d="M457 2873 c-4 -3 -7 -30 -7 -60 l0 -53 -225 0 c-193 0 -225 -2 -225 -15 0 -13 33 -15 233 -15 168 0 236 3 245 12 17 17 16 138 -1 138 -8 0 -17 -3 -20 -7z"/>
 <path d="M1726 2791 c-15 -17 -16 -23 -6 -36 27 -33 86 -2 63 33 -15 25 -37 26 -57 3z"/>
 <path d="M1520 2785 c-20 -25 -8 -50 25 -50 21 0 31 5 33 18 4 21 -14 47 -33 47 -7 0 -18 -7 -25 -15z"/>
 <path d="M1620 2785 c-29 -36 19 -70 53 -37 17 17 18 23 7 36 -16 20 -44 20 -60 1z"/>
 <path d="M2185 2704 c-121 -6 -237 -12 -257 -13 -27 -1 -38 -6 -38 -16 0 -9 9 -15 23 -15 12 0 141 -9 286 -20 145 -11 268 -17 272 -14 17 10 9 34 -12 34 -15 0 -19 4 -15 16 6 15 -20 46 -34 42 -3 0 -104 -7 -225 -14z"/>
 <path d="M2570 2705 c0 -10 11 -15 35 -15 24 0 35 5 35 15 0 10 -11 15 -35 15 -24 0 -35 -5 -35 -15z"/>
 <path d="M2510 2636 c0 -9 17 -16 45 -20 49 -8 65 -3 65 20 0 10 -14 14 -55 14 -40 0 -55 -4 -55 -14z"/>
 <path d="M2660 2626 c0 -8 16 -16 41 -20 44 -7 59 -2 59 20 0 10 -13 14 -50 14 -36 0 -50 -4 -50 -14z"/>
 <path d="M2800 2616 c0 -9 17 -16 45 -20 49 -8 65 -3 65 20 0 10 -14 14 -55 14 -40 0 -55 -4 -55 -14z"/>
 <path d="M2950 2605 c0 -10 10 -15 30 -15 20 0 30 5 30 15 0 10 -10 15 -30 15 -20 0 -30 -5 -30 -15z"/>
 <path d="M2883 2498 c4 -12 1 -28 -4 -35 -11 -12 -5 -33 9 -33 4 0 18 9 31 19 23 17 23 19 6 44 -22 34 -50 37 -42 5z"/>
 <path d="M2302 2148 c-20 -20 -15 -58 11 -67 30 -11 553 -45 566 -36 13 7 15 61 3 69 -4 2 -111 11 -237 20 -127 9 -253 18 -280 21 -33 4 -54 2 -63 -7z"/>
 <path d="M1780 1925 c-26 -31 13 -82 44 -56 22 18 20 48 -3 61 -25 13 -26 13 -41 -5z"/>
 <path d="M1879 1914 c-17 -21 0 -49 32 -49 27 0 37 28 19 50 -16 19 -34 19 -51 -1z"/>
 <path d="M1979 1904 c-9 -11 -10 -20 -2 -32 25 -41 86 -14 63 27 -13 25 -42 27 -61 5z"/>
 <path d="M1797 1373 c-48 -12 -67 -20 -65 -30 3 -13 225 -113 251 -113 14 0 4 125 -12 144 -17 20 -81 20 -174 -1z"/>
 <path d="M2032 374 c-22 -15 -30 -44 -13 -44 23 0 81 32 81 45 0 20 -39 19 -68 -1z"/>
 <path d="M1893 319 c-43 -20 -58 -49 -25 -49 30 1 102 39 102 55 0 20 -25 18 -77 -6z"/>
 </g>

</svg>
