<svg width="1792" height="1792" xmlns="http://www.w3.org/2000/svg">

 <g>
  <title>background</title>
  <rect fill="none" id="canvas_background" height="402" width="582" y="-1" x="-1"/>
 </g>
 <g>
  <title>Layer 1</title>
  <path fill="#808080" id="svg_1" d="m832,960l0,384q0,80 -56,136t-136,56l-384,0q-80,0 -136,-56t-56,-136l0,-704q0,-104 40.5,-198.5t109.5,-163.5t163.5,-109.5t198.5,-40.5l64,0q26,0 45,19t19,45l0,128q0,26 -19,45t-45,19l-64,0q-106,0 -181,75t-75,181l0,32q0,40 28,68t68,28l224,0q80,0 136,56t56,136zm896,0l0,384q0,80 -56,136t-136,56l-384,0q-80,0 -136,-56t-56,-136l0,-704q0,-104 40.5,-198.5t109.5,-163.5t163.5,-109.5t198.5,-40.5l64,0q26,0 45,19t19,45l0,128q0,26 -19,45t-45,19l-64,0q-106,0 -181,75t-75,181l0,32q0,40 28,68t68,28l224,0q80,0 136,56t56,136z"/>
 </g>
</svg>